<?xml version="1.0" encoding="utf-8" standalone="no"?>
<!DOCTYPE svg PUBLIC "-//W3C//DTD SVG 1.1//EN"
  "http://www.w3.org/Graphics/SVG/1.1/DTD/svg11.dtd">
<svg xmlns:xlink="http://www.w3.org/1999/xlink" width="432pt" height="360pt" viewBox="0 0 432 360" xmlns="http://www.w3.org/2000/svg" version="1.1">
 <metadata>
  <rdf:RDF xmlns:dc="http://purl.org/dc/elements/1.1/" xmlns:cc="http://creativecommons.org/ns#" xmlns:rdf="http://www.w3.org/1999/02/22-rdf-syntax-ns#">
   <cc:Work>
    <dc:type rdf:resource="http://purl.org/dc/dcmitype/StillImage"/>
    <dc:date>2025-02-18T18:44:59.705387</dc:date>
    <dc:format>image/svg+xml</dc:format>
    <dc:creator>
     <cc:Agent>
      <dc:title>Matplotlib v3.7.1, https://matplotlib.org/</dc:title>
     </cc:Agent>
    </dc:creator>
   </cc:Work>
  </rdf:RDF>
 </metadata>
 <defs>
  <style type="text/css">*{stroke-linejoin: round; stroke-linecap: butt}</style>
 </defs>
 <g id="figure_1">
  <g id="patch_1">
   <path d="M 0 360 
L 432 360 
L 432 0 
L 0 0 
z
" style="fill: #ffffff"/>
  </g>
  <g id="axes_1">
   <g id="patch_2">
    <path d="M 112.538 283.48 
L 410.4 283.48 
L 410.4 21.6 
L 112.538 21.6 
z
" style="fill: #ffffff"/>
   </g>
   <g id="matplotlib.axis_1">
    <g id="xtick_1">
     <g id="line2d_1">
      <path d="M 119.307591 283.48 
L 119.307591 21.6 
" clip-path="url(#p06df401ff4)" style="fill: none; stroke: #cccccc; stroke-width: 0.8; stroke-linecap: round"/>
     </g>
     <g id="text_1">
      <!-- 0 -->
      <g style="fill: #262626" transform="translate(113.746653 304.795625) scale(0.2 -0.2)">
       <defs>
        <path id="ArialMT-30" d="M 266 2259 
Q 266 3072 433 3567 
Q 600 4063 929 4331 
Q 1259 4600 1759 4600 
Q 2128 4600 2406 4451 
Q 2684 4303 2865 4023 
Q 3047 3744 3150 3342 
Q 3253 2941 3253 2259 
Q 3253 1453 3087 958 
Q 2922 463 2592 192 
Q 2263 -78 1759 -78 
Q 1097 -78 719 397 
Q 266 969 266 2259 
z
M 844 2259 
Q 844 1131 1108 757 
Q 1372 384 1759 384 
Q 2147 384 2411 759 
Q 2675 1134 2675 2259 
Q 2675 3391 2411 3762 
Q 2147 4134 1753 4134 
Q 1366 4134 1134 3806 
Q 844 3388 844 2259 
z
" transform="scale(0.015625)"/>
       </defs>
       <use xlink:href="#ArialMT-30"/>
      </g>
     </g>
    </g>
    <g id="xtick_2">
     <g id="line2d_2">
      <path d="M 254.699409 283.48 
L 254.699409 21.6 
" clip-path="url(#p06df401ff4)" style="fill: none; stroke: #cccccc; stroke-width: 0.8; stroke-linecap: round"/>
     </g>
     <g id="text_2">
      <!-- 2 -->
      <g style="fill: #262626" transform="translate(249.138472 304.795625) scale(0.2 -0.2)">
       <defs>
        <path id="ArialMT-32" d="M 3222 541 
L 3222 0 
L 194 0 
Q 188 203 259 391 
Q 375 700 629 1000 
Q 884 1300 1366 1694 
Q 2113 2306 2375 2664 
Q 2638 3022 2638 3341 
Q 2638 3675 2398 3904 
Q 2159 4134 1775 4134 
Q 1369 4134 1125 3890 
Q 881 3647 878 3216 
L 300 3275 
Q 359 3922 746 4261 
Q 1134 4600 1788 4600 
Q 2447 4600 2831 4234 
Q 3216 3869 3216 3328 
Q 3216 3053 3103 2787 
Q 2991 2522 2730 2228 
Q 2469 1934 1863 1422 
Q 1356 997 1212 845 
Q 1069 694 975 541 
L 3222 541 
z
" transform="scale(0.015625)"/>
       </defs>
       <use xlink:href="#ArialMT-32"/>
      </g>
     </g>
    </g>
    <g id="xtick_3">
     <g id="line2d_3">
      <path d="M 390.091227 283.48 
L 390.091227 21.6 
" clip-path="url(#p06df401ff4)" style="fill: none; stroke: #cccccc; stroke-width: 0.8; stroke-linecap: round"/>
     </g>
     <g id="text_3">
      <!-- 4 -->
      <g style="fill: #262626" transform="translate(384.53029 304.795625) scale(0.2 -0.2)">
       <defs>
        <path id="ArialMT-34" d="M 2069 0 
L 2069 1097 
L 81 1097 
L 81 1613 
L 2172 4581 
L 2631 4581 
L 2631 1613 
L 3250 1613 
L 3250 1097 
L 2631 1097 
L 2631 0 
L 2069 0 
z
M 2069 1613 
L 2069 3678 
L 634 1613 
L 2069 1613 
z
" transform="scale(0.015625)"/>
       </defs>
       <use xlink:href="#ArialMT-34"/>
      </g>
     </g>
    </g>
    <g id="text_4">
     <!-- Time ($s$) -->
     <g style="fill: #262626" transform="translate(217.189 330.290625) scale(0.24 -0.24)">
      <defs>
       <path id="ArialMT-54" d="M 1659 0 
L 1659 4041 
L 150 4041 
L 150 4581 
L 3781 4581 
L 3781 4041 
L 2266 4041 
L 2266 0 
L 1659 0 
z
" transform="scale(0.015625)"/>
       <path id="ArialMT-69" d="M 425 3934 
L 425 4581 
L 988 4581 
L 988 3934 
L 425 3934 
z
M 425 0 
L 425 3319 
L 988 3319 
L 988 0 
L 425 0 
z
" transform="scale(0.015625)"/>
       <path id="ArialMT-6d" d="M 422 0 
L 422 3319 
L 925 3319 
L 925 2853 
Q 1081 3097 1340 3245 
Q 1600 3394 1931 3394 
Q 2300 3394 2536 3241 
Q 2772 3088 2869 2813 
Q 3263 3394 3894 3394 
Q 4388 3394 4653 3120 
Q 4919 2847 4919 2278 
L 4919 0 
L 4359 0 
L 4359 2091 
Q 4359 2428 4304 2576 
Q 4250 2725 4106 2815 
Q 3963 2906 3769 2906 
Q 3419 2906 3187 2673 
Q 2956 2441 2956 1928 
L 2956 0 
L 2394 0 
L 2394 2156 
Q 2394 2531 2256 2718 
Q 2119 2906 1806 2906 
Q 1569 2906 1367 2781 
Q 1166 2656 1075 2415 
Q 984 2175 984 1722 
L 984 0 
L 422 0 
z
" transform="scale(0.015625)"/>
       <path id="ArialMT-65" d="M 2694 1069 
L 3275 997 
Q 3138 488 2766 206 
Q 2394 -75 1816 -75 
Q 1088 -75 661 373 
Q 234 822 234 1631 
Q 234 2469 665 2931 
Q 1097 3394 1784 3394 
Q 2450 3394 2872 2941 
Q 3294 2488 3294 1666 
Q 3294 1616 3291 1516 
L 816 1516 
Q 847 969 1125 678 
Q 1403 388 1819 388 
Q 2128 388 2347 550 
Q 2566 713 2694 1069 
z
M 847 1978 
L 2700 1978 
Q 2663 2397 2488 2606 
Q 2219 2931 1791 2931 
Q 1403 2931 1139 2672 
Q 875 2413 847 1978 
z
" transform="scale(0.015625)"/>
       <path id="ArialMT-20" transform="scale(0.015625)"/>
       <path id="ArialMT-28" d="M 1497 -1347 
Q 1031 -759 709 28 
Q 388 816 388 1659 
Q 388 2403 628 3084 
Q 909 3875 1497 4659 
L 1900 4659 
Q 1522 4009 1400 3731 
Q 1209 3300 1100 2831 
Q 966 2247 966 1656 
Q 966 153 1900 -1347 
L 1497 -1347 
z
" transform="scale(0.015625)"/>
       <path id="DejaVuSans-Oblique-73" d="M 3200 3397 
L 3091 2853 
Q 2863 2978 2609 3040 
Q 2356 3103 2088 3103 
Q 1634 3103 1373 2948 
Q 1113 2794 1113 2528 
Q 1113 2219 1719 2053 
Q 1766 2041 1788 2034 
L 1972 1978 
Q 2547 1819 2739 1644 
Q 2931 1469 2931 1166 
Q 2931 609 2489 259 
Q 2047 -91 1331 -91 
Q 1053 -91 747 -37 
Q 441 16 72 128 
L 184 722 
Q 500 559 806 475 
Q 1113 391 1394 391 
Q 1816 391 2080 572 
Q 2344 753 2344 1031 
Q 2344 1331 1650 1516 
L 1591 1531 
L 1394 1581 
Q 956 1697 753 1886 
Q 550 2075 550 2369 
Q 550 2928 970 3256 
Q 1391 3584 2113 3584 
Q 2397 3584 2667 3537 
Q 2938 3491 3200 3397 
z
" transform="scale(0.015625)"/>
       <path id="ArialMT-29" d="M 791 -1347 
L 388 -1347 
Q 1322 153 1322 1656 
Q 1322 2244 1188 2822 
Q 1081 3291 891 3722 
Q 769 4003 388 4659 
L 791 4659 
Q 1378 3875 1659 3084 
Q 1900 2403 1900 1659 
Q 1900 816 1576 28 
Q 1253 -759 791 -1347 
z
" transform="scale(0.015625)"/>
      </defs>
      <use xlink:href="#ArialMT-54" transform="translate(0 0.203125)"/>
      <use xlink:href="#ArialMT-69" transform="translate(61.083984 0.203125)"/>
      <use xlink:href="#ArialMT-6d" transform="translate(83.300781 0.203125)"/>
      <use xlink:href="#ArialMT-65" transform="translate(166.601562 0.203125)"/>
      <use xlink:href="#ArialMT-20" transform="translate(222.216797 0.203125)"/>
      <use xlink:href="#ArialMT-28" transform="translate(250 0.203125)"/>
      <use xlink:href="#DejaVuSans-Oblique-73" transform="translate(283.300781 0.203125)"/>
      <use xlink:href="#ArialMT-29" transform="translate(335.400391 0.203125)"/>
     </g>
    </g>
   </g>
   <g id="matplotlib.axis_2">
    <g id="ytick_1">
     <g id="line2d_4">
      <path d="M 112.538 271.576364 
L 410.4 271.576364 
" clip-path="url(#p06df401ff4)" style="fill: none; stroke: #cccccc; stroke-width: 0.8; stroke-linecap: round"/>
     </g>
     <g id="text_5">
      <!-- 0.0 -->
      <g style="fill: #262626" transform="translate(77.738 278.734176) scale(0.2 -0.2)">
       <defs>
        <path id="ArialMT-2e" d="M 581 0 
L 581 641 
L 1222 641 
L 1222 0 
L 581 0 
z
" transform="scale(0.015625)"/>
       </defs>
       <use xlink:href="#ArialMT-30"/>
       <use xlink:href="#ArialMT-2e" x="55.615234"/>
       <use xlink:href="#ArialMT-30" x="83.398438"/>
      </g>
     </g>
    </g>
    <g id="ytick_2">
     <g id="line2d_5">
      <path d="M 112.538 224.475853 
L 410.4 224.475853 
" clip-path="url(#p06df401ff4)" style="fill: none; stroke: #cccccc; stroke-width: 0.8; stroke-linecap: round"/>
     </g>
     <g id="text_6">
      <!-- 0.2 -->
      <g style="fill: #262626" transform="translate(77.738 231.633666) scale(0.2 -0.2)">
       <use xlink:href="#ArialMT-30"/>
       <use xlink:href="#ArialMT-2e" x="55.615234"/>
       <use xlink:href="#ArialMT-32" x="83.398438"/>
      </g>
     </g>
    </g>
    <g id="ytick_3">
     <g id="line2d_6">
      <path d="M 112.538 177.375343 
L 410.4 177.375343 
" clip-path="url(#p06df401ff4)" style="fill: none; stroke: #cccccc; stroke-width: 0.8; stroke-linecap: round"/>
     </g>
     <g id="text_7">
      <!-- 0.4 -->
      <g style="fill: #262626" transform="translate(77.738 184.533155) scale(0.2 -0.2)">
       <use xlink:href="#ArialMT-30"/>
       <use xlink:href="#ArialMT-2e" x="55.615234"/>
       <use xlink:href="#ArialMT-34" x="83.398438"/>
      </g>
     </g>
    </g>
    <g id="ytick_4">
     <g id="line2d_7">
      <path d="M 112.538 130.274832 
L 410.4 130.274832 
" clip-path="url(#p06df401ff4)" style="fill: none; stroke: #cccccc; stroke-width: 0.8; stroke-linecap: round"/>
     </g>
     <g id="text_8">
      <!-- 0.6 -->
      <g style="fill: #262626" transform="translate(77.738 137.432645) scale(0.2 -0.2)">
       <defs>
        <path id="ArialMT-36" d="M 3184 3459 
L 2625 3416 
Q 2550 3747 2413 3897 
Q 2184 4138 1850 4138 
Q 1581 4138 1378 3988 
Q 1113 3794 959 3422 
Q 806 3050 800 2363 
Q 1003 2672 1297 2822 
Q 1591 2972 1913 2972 
Q 2475 2972 2870 2558 
Q 3266 2144 3266 1488 
Q 3266 1056 3080 686 
Q 2894 316 2569 119 
Q 2244 -78 1831 -78 
Q 1128 -78 684 439 
Q 241 956 241 2144 
Q 241 3472 731 4075 
Q 1159 4600 1884 4600 
Q 2425 4600 2770 4297 
Q 3116 3994 3184 3459 
z
M 888 1484 
Q 888 1194 1011 928 
Q 1134 663 1356 523 
Q 1578 384 1822 384 
Q 2178 384 2434 671 
Q 2691 959 2691 1453 
Q 2691 1928 2437 2201 
Q 2184 2475 1800 2475 
Q 1419 2475 1153 2201 
Q 888 1928 888 1484 
z
" transform="scale(0.015625)"/>
       </defs>
       <use xlink:href="#ArialMT-30"/>
       <use xlink:href="#ArialMT-2e" x="55.615234"/>
       <use xlink:href="#ArialMT-36" x="83.398438"/>
      </g>
     </g>
    </g>
    <g id="ytick_5">
     <g id="line2d_8">
      <path d="M 112.538 83.174321 
L 410.4 83.174321 
" clip-path="url(#p06df401ff4)" style="fill: none; stroke: #cccccc; stroke-width: 0.8; stroke-linecap: round"/>
     </g>
     <g id="text_9">
      <!-- 0.8 -->
      <g style="fill: #262626" transform="translate(77.738 90.332134) scale(0.2 -0.2)">
       <defs>
        <path id="ArialMT-38" d="M 1131 2484 
Q 781 2613 612 2850 
Q 444 3088 444 3419 
Q 444 3919 803 4259 
Q 1163 4600 1759 4600 
Q 2359 4600 2725 4251 
Q 3091 3903 3091 3403 
Q 3091 3084 2923 2848 
Q 2756 2613 2416 2484 
Q 2838 2347 3058 2040 
Q 3278 1734 3278 1309 
Q 3278 722 2862 322 
Q 2447 -78 1769 -78 
Q 1091 -78 675 323 
Q 259 725 259 1325 
Q 259 1772 486 2073 
Q 713 2375 1131 2484 
z
M 1019 3438 
Q 1019 3113 1228 2906 
Q 1438 2700 1772 2700 
Q 2097 2700 2305 2904 
Q 2513 3109 2513 3406 
Q 2513 3716 2298 3927 
Q 2084 4138 1766 4138 
Q 1444 4138 1231 3931 
Q 1019 3725 1019 3438 
z
M 838 1322 
Q 838 1081 952 856 
Q 1066 631 1291 507 
Q 1516 384 1775 384 
Q 2178 384 2440 643 
Q 2703 903 2703 1303 
Q 2703 1709 2433 1975 
Q 2163 2241 1756 2241 
Q 1359 2241 1098 1978 
Q 838 1716 838 1322 
z
" transform="scale(0.015625)"/>
       </defs>
       <use xlink:href="#ArialMT-30"/>
       <use xlink:href="#ArialMT-2e" x="55.615234"/>
       <use xlink:href="#ArialMT-38" x="83.398438"/>
      </g>
     </g>
    </g>
    <g id="ytick_6">
     <g id="line2d_9">
      <path d="M 112.538 36.073811 
L 410.4 36.073811 
" clip-path="url(#p06df401ff4)" style="fill: none; stroke: #cccccc; stroke-width: 0.8; stroke-linecap: round"/>
     </g>
     <g id="text_10">
      <!-- 1.0 -->
      <g style="fill: #262626" transform="translate(77.738 43.231623) scale(0.2 -0.2)">
       <defs>
        <path id="ArialMT-31" d="M 2384 0 
L 1822 0 
L 1822 3584 
Q 1619 3391 1289 3197 
Q 959 3003 697 2906 
L 697 3450 
Q 1169 3672 1522 3987 
Q 1875 4303 2022 4600 
L 2384 4600 
L 2384 0 
z
" transform="scale(0.015625)"/>
       </defs>
       <use xlink:href="#ArialMT-31"/>
       <use xlink:href="#ArialMT-2e" x="55.615234"/>
       <use xlink:href="#ArialMT-30" x="83.398438"/>
      </g>
     </g>
    </g>
    <g id="text_11">
     <!-- Barbed end -->
     <g style="fill: #262626" transform="translate(42.664 214.585625) rotate(-90) scale(0.24 -0.24)">
      <defs>
       <path id="ArialMT-42" d="M 469 0 
L 469 4581 
L 2188 4581 
Q 2713 4581 3030 4442 
Q 3347 4303 3526 4014 
Q 3706 3725 3706 3409 
Q 3706 3116 3547 2856 
Q 3388 2597 3066 2438 
Q 3481 2316 3704 2022 
Q 3928 1728 3928 1328 
Q 3928 1006 3792 729 
Q 3656 453 3456 303 
Q 3256 153 2954 76 
Q 2653 0 2216 0 
L 469 0 
z
M 1075 2656 
L 2066 2656 
Q 2469 2656 2644 2709 
Q 2875 2778 2992 2937 
Q 3109 3097 3109 3338 
Q 3109 3566 3000 3739 
Q 2891 3913 2687 3977 
Q 2484 4041 1991 4041 
L 1075 4041 
L 1075 2656 
z
M 1075 541 
L 2216 541 
Q 2509 541 2628 563 
Q 2838 600 2978 687 
Q 3119 775 3209 942 
Q 3300 1109 3300 1328 
Q 3300 1584 3169 1773 
Q 3038 1963 2805 2039 
Q 2572 2116 2134 2116 
L 1075 2116 
L 1075 541 
z
" transform="scale(0.015625)"/>
       <path id="ArialMT-61" d="M 2588 409 
Q 2275 144 1986 34 
Q 1697 -75 1366 -75 
Q 819 -75 525 192 
Q 231 459 231 875 
Q 231 1119 342 1320 
Q 453 1522 633 1644 
Q 813 1766 1038 1828 
Q 1203 1872 1538 1913 
Q 2219 1994 2541 2106 
Q 2544 2222 2544 2253 
Q 2544 2597 2384 2738 
Q 2169 2928 1744 2928 
Q 1347 2928 1158 2789 
Q 969 2650 878 2297 
L 328 2372 
Q 403 2725 575 2942 
Q 747 3159 1072 3276 
Q 1397 3394 1825 3394 
Q 2250 3394 2515 3294 
Q 2781 3194 2906 3042 
Q 3031 2891 3081 2659 
Q 3109 2516 3109 2141 
L 3109 1391 
Q 3109 606 3145 398 
Q 3181 191 3288 0 
L 2700 0 
Q 2613 175 2588 409 
z
M 2541 1666 
Q 2234 1541 1622 1453 
Q 1275 1403 1131 1340 
Q 988 1278 909 1158 
Q 831 1038 831 891 
Q 831 666 1001 516 
Q 1172 366 1500 366 
Q 1825 366 2078 508 
Q 2331 650 2450 897 
Q 2541 1088 2541 1459 
L 2541 1666 
z
" transform="scale(0.015625)"/>
       <path id="ArialMT-72" d="M 416 0 
L 416 3319 
L 922 3319 
L 922 2816 
Q 1116 3169 1280 3281 
Q 1444 3394 1641 3394 
Q 1925 3394 2219 3213 
L 2025 2691 
Q 1819 2813 1613 2813 
Q 1428 2813 1281 2702 
Q 1134 2591 1072 2394 
Q 978 2094 978 1738 
L 978 0 
L 416 0 
z
" transform="scale(0.015625)"/>
       <path id="ArialMT-62" d="M 941 0 
L 419 0 
L 419 4581 
L 981 4581 
L 981 2947 
Q 1338 3394 1891 3394 
Q 2197 3394 2470 3270 
Q 2744 3147 2920 2923 
Q 3097 2700 3197 2384 
Q 3297 2069 3297 1709 
Q 3297 856 2875 390 
Q 2453 -75 1863 -75 
Q 1275 -75 941 416 
L 941 0 
z
M 934 1684 
Q 934 1088 1097 822 
Q 1363 388 1816 388 
Q 2184 388 2453 708 
Q 2722 1028 2722 1663 
Q 2722 2313 2464 2622 
Q 2206 2931 1841 2931 
Q 1472 2931 1203 2611 
Q 934 2291 934 1684 
z
" transform="scale(0.015625)"/>
       <path id="ArialMT-64" d="M 2575 0 
L 2575 419 
Q 2259 -75 1647 -75 
Q 1250 -75 917 144 
Q 584 363 401 755 
Q 219 1147 219 1656 
Q 219 2153 384 2558 
Q 550 2963 881 3178 
Q 1213 3394 1622 3394 
Q 1922 3394 2156 3267 
Q 2391 3141 2538 2938 
L 2538 4581 
L 3097 4581 
L 3097 0 
L 2575 0 
z
M 797 1656 
Q 797 1019 1065 703 
Q 1334 388 1700 388 
Q 2069 388 2326 689 
Q 2584 991 2584 1609 
Q 2584 2291 2321 2609 
Q 2059 2928 1675 2928 
Q 1300 2928 1048 2622 
Q 797 2316 797 1656 
z
" transform="scale(0.015625)"/>
       <path id="ArialMT-6e" d="M 422 0 
L 422 3319 
L 928 3319 
L 928 2847 
Q 1294 3394 1984 3394 
Q 2284 3394 2536 3286 
Q 2788 3178 2913 3003 
Q 3038 2828 3088 2588 
Q 3119 2431 3119 2041 
L 3119 0 
L 2556 0 
L 2556 2019 
Q 2556 2363 2490 2533 
Q 2425 2703 2258 2804 
Q 2091 2906 1866 2906 
Q 1506 2906 1245 2678 
Q 984 2450 984 1813 
L 984 0 
L 422 0 
z
" transform="scale(0.015625)"/>
      </defs>
      <use xlink:href="#ArialMT-42"/>
      <use xlink:href="#ArialMT-61" x="66.699219"/>
      <use xlink:href="#ArialMT-72" x="122.314453"/>
      <use xlink:href="#ArialMT-62" x="155.615234"/>
      <use xlink:href="#ArialMT-65" x="211.230469"/>
      <use xlink:href="#ArialMT-64" x="266.845703"/>
      <use xlink:href="#ArialMT-20" x="322.460938"/>
      <use xlink:href="#ArialMT-65" x="350.244141"/>
      <use xlink:href="#ArialMT-6e" x="405.859375"/>
      <use xlink:href="#ArialMT-64" x="461.474609"/>
     </g>
     <!-- displacement ($\mu m$) -->
     <g style="fill: #262626" transform="translate(68.458 253.94) rotate(-90) scale(0.24 -0.24)">
      <defs>
       <path id="ArialMT-73" d="M 197 991 
L 753 1078 
Q 800 744 1014 566 
Q 1228 388 1613 388 
Q 2000 388 2187 545 
Q 2375 703 2375 916 
Q 2375 1106 2209 1216 
Q 2094 1291 1634 1406 
Q 1016 1563 777 1677 
Q 538 1791 414 1992 
Q 291 2194 291 2438 
Q 291 2659 392 2848 
Q 494 3038 669 3163 
Q 800 3259 1026 3326 
Q 1253 3394 1513 3394 
Q 1903 3394 2198 3281 
Q 2494 3169 2634 2976 
Q 2775 2784 2828 2463 
L 2278 2388 
Q 2241 2644 2061 2787 
Q 1881 2931 1553 2931 
Q 1166 2931 1000 2803 
Q 834 2675 834 2503 
Q 834 2394 903 2306 
Q 972 2216 1119 2156 
Q 1203 2125 1616 2013 
Q 2213 1853 2448 1751 
Q 2684 1650 2818 1456 
Q 2953 1263 2953 975 
Q 2953 694 2789 445 
Q 2625 197 2315 61 
Q 2006 -75 1616 -75 
Q 969 -75 630 194 
Q 291 463 197 991 
z
" transform="scale(0.015625)"/>
       <path id="ArialMT-70" d="M 422 -1272 
L 422 3319 
L 934 3319 
L 934 2888 
Q 1116 3141 1344 3267 
Q 1572 3394 1897 3394 
Q 2322 3394 2647 3175 
Q 2972 2956 3137 2557 
Q 3303 2159 3303 1684 
Q 3303 1175 3120 767 
Q 2938 359 2589 142 
Q 2241 -75 1856 -75 
Q 1575 -75 1351 44 
Q 1128 163 984 344 
L 984 -1272 
L 422 -1272 
z
M 931 1641 
Q 931 1000 1190 694 
Q 1450 388 1819 388 
Q 2194 388 2461 705 
Q 2728 1022 2728 1688 
Q 2728 2322 2467 2637 
Q 2206 2953 1844 2953 
Q 1484 2953 1207 2617 
Q 931 2281 931 1641 
z
" transform="scale(0.015625)"/>
       <path id="ArialMT-6c" d="M 409 0 
L 409 4581 
L 972 4581 
L 972 0 
L 409 0 
z
" transform="scale(0.015625)"/>
       <path id="ArialMT-63" d="M 2588 1216 
L 3141 1144 
Q 3050 572 2676 248 
Q 2303 -75 1759 -75 
Q 1078 -75 664 370 
Q 250 816 250 1647 
Q 250 2184 428 2587 
Q 606 2991 970 3192 
Q 1334 3394 1763 3394 
Q 2303 3394 2647 3120 
Q 2991 2847 3088 2344 
L 2541 2259 
Q 2463 2594 2264 2762 
Q 2066 2931 1784 2931 
Q 1359 2931 1093 2626 
Q 828 2322 828 1663 
Q 828 994 1084 691 
Q 1341 388 1753 388 
Q 2084 388 2306 591 
Q 2528 794 2588 1216 
z
" transform="scale(0.015625)"/>
       <path id="ArialMT-74" d="M 1650 503 
L 1731 6 
Q 1494 -44 1306 -44 
Q 1000 -44 831 53 
Q 663 150 594 308 
Q 525 466 525 972 
L 525 2881 
L 113 2881 
L 113 3319 
L 525 3319 
L 525 4141 
L 1084 4478 
L 1084 3319 
L 1650 3319 
L 1650 2881 
L 1084 2881 
L 1084 941 
Q 1084 700 1114 631 
Q 1144 563 1211 522 
Q 1278 481 1403 481 
Q 1497 481 1650 503 
z
" transform="scale(0.015625)"/>
       <path id="DejaVuSans-Oblique-3bc" d="M -84 -1331 
L 856 3500 
L 1434 3500 
L 1009 1322 
Q 997 1256 987 1175 
Q 978 1094 978 1013 
Q 978 722 1161 565 
Q 1344 409 1684 409 
Q 2147 409 2431 671 
Q 2716 934 2816 1459 
L 3213 3500 
L 3788 3500 
L 3266 809 
Q 3253 750 3248 706 
Q 3244 663 3244 628 
Q 3244 531 3283 486 
Q 3322 441 3406 441 
Q 3438 441 3492 456 
Q 3547 472 3647 513 
L 3559 50 
Q 3422 -19 3297 -55 
Q 3172 -91 3053 -91 
Q 2847 -91 2730 40 
Q 2613 172 2613 403 
Q 2438 153 2195 31 
Q 1953 -91 1625 -91 
Q 1334 -91 1117 43 
Q 900 178 831 397 
L 494 -1331 
L -84 -1331 
z
" transform="scale(0.015625)"/>
       <path id="DejaVuSans-Oblique-6d" d="M 5747 2113 
L 5338 0 
L 4763 0 
L 5166 2094 
Q 5191 2228 5203 2325 
Q 5216 2422 5216 2491 
Q 5216 2772 5059 2928 
Q 4903 3084 4622 3084 
Q 4203 3084 3875 2770 
Q 3547 2456 3450 1953 
L 3066 0 
L 2491 0 
L 2900 2094 
Q 2925 2209 2937 2307 
Q 2950 2406 2950 2484 
Q 2950 2769 2794 2926 
Q 2638 3084 2363 3084 
Q 1938 3084 1609 2770 
Q 1281 2456 1184 1953 
L 800 0 
L 225 0 
L 909 3500 
L 1484 3500 
L 1375 2956 
Q 1609 3263 1923 3423 
Q 2238 3584 2597 3584 
Q 2978 3584 3223 3384 
Q 3469 3184 3519 2828 
Q 3781 3197 4126 3390 
Q 4472 3584 4856 3584 
Q 5306 3584 5551 3325 
Q 5797 3066 5797 2591 
Q 5797 2488 5784 2364 
Q 5772 2241 5747 2113 
z
" transform="scale(0.015625)"/>
      </defs>
      <use xlink:href="#ArialMT-64" transform="translate(0 0.203125)"/>
      <use xlink:href="#ArialMT-69" transform="translate(55.615234 0.203125)"/>
      <use xlink:href="#ArialMT-73" transform="translate(77.832031 0.203125)"/>
      <use xlink:href="#ArialMT-70" transform="translate(127.832031 0.203125)"/>
      <use xlink:href="#ArialMT-6c" transform="translate(183.447266 0.203125)"/>
      <use xlink:href="#ArialMT-61" transform="translate(205.664062 0.203125)"/>
      <use xlink:href="#ArialMT-63" transform="translate(261.279297 0.203125)"/>
      <use xlink:href="#ArialMT-65" transform="translate(311.279297 0.203125)"/>
      <use xlink:href="#ArialMT-6d" transform="translate(366.894531 0.203125)"/>
      <use xlink:href="#ArialMT-65" transform="translate(450.195312 0.203125)"/>
      <use xlink:href="#ArialMT-6e" transform="translate(505.810547 0.203125)"/>
      <use xlink:href="#ArialMT-74" transform="translate(561.425781 0.203125)"/>
      <use xlink:href="#ArialMT-20" transform="translate(589.208984 0.203125)"/>
      <use xlink:href="#ArialMT-28" transform="translate(616.992188 0.203125)"/>
      <use xlink:href="#DejaVuSans-Oblique-3bc" transform="translate(650.292969 0.203125)"/>
      <use xlink:href="#DejaVuSans-Oblique-6d" transform="translate(713.916016 0.203125)"/>
      <use xlink:href="#ArialMT-29" transform="translate(811.328125 0.203125)"/>
     </g>
    </g>
   </g>
   <g id="line2d_10">
    <path d="M 126.077182 271.576364 
L 132.846773 265.871758 
L 139.616364 258.705371 
L 146.385955 253.723013 
L 153.155545 250.191038 
L 159.925136 242.086972 
L 166.694727 237.28504 
L 173.464318 232.013543 
L 180.233909 223.493541 
L 187.0035 220.803887 
L 193.773091 215.230573 
L 200.542682 209.804196 
L 207.312273 201.503005 
L 214.081864 199.853174 
L 220.851455 194.329748 
L 227.621045 189.036614 
L 234.390636 187.605302 
L 241.160227 180.560042 
L 247.929818 174.438572 
L 254.699409 166.565661 
L 261.469 163.125433 
L 268.238591 158.290369 
L 275.008182 154.03427 
L 281.777773 150.182542 
L 288.547364 142.713291 
L 295.316955 138.809114 
L 302.086545 134.552743 
L 308.856136 128.307065 
L 315.625727 124.468183 
L 322.395318 117.107597 
L 329.164909 114.155811 
L 335.9345 107.356236 
L 342.704091 102.781199 
L 349.473682 99.504058 
L 356.243273 94.715881 
L 363.012864 90.081555 
L 369.782455 84.710268 
L 376.552045 81.548467 
L 383.321636 76.468838 
L 390.091227 72.098005 
L 396.860818 65.240953 
" clip-path="url(#p06df401ff4)" style="fill: none; stroke: #1f77b4; stroke-width: 1.5; stroke-linecap: round"/>
   </g>
   <g id="line2d_11">
    <path d="M 126.077182 271.576364 
L 132.846773 262.871527 
L 139.616364 259.367829 
L 146.385955 253.834767 
L 153.155545 248.44719 
L 159.925136 240.680103 
L 166.694727 234.022624 
L 173.464318 231.095045 
L 180.233909 223.572292 
L 187.0035 216.567194 
L 193.773091 210.135069 
L 200.542682 207.881867 
L 207.312273 201.910051 
L 214.081864 197.492364 
L 220.851455 191.127957 
L 227.621045 186.620757 
L 234.390636 180.383766 
L 241.160227 176.137387 
L 247.929818 173.089355 
L 254.699409 169.443141 
L 261.469 162.911239 
L 268.238591 154.385021 
L 275.008182 150.243913 
L 281.777773 146.640906 
L 288.547364 141.051714 
L 295.316955 133.874273 
L 302.086545 124.826892 
L 308.856136 123.584616 
L 315.625727 111.815856 
L 322.395318 105.384009 
L 329.164909 105.298432 
L 335.9345 101.06366 
L 342.704091 96.984598 
L 349.473682 85.110089 
L 356.243273 88.848936 
L 363.012864 83.361706 
L 369.782455 79.70247 
L 376.552045 76.964706 
L 383.321636 68.367872 
L 390.091227 64.799384 
L 396.860818 59.827284 
" clip-path="url(#p06df401ff4)" style="fill: none; stroke: #ff7f0e; stroke-width: 1.5; stroke-linecap: round"/>
   </g>
   <g id="line2d_12">
    <path d="M 126.077182 271.576364 
L 132.846773 262.1154 
L 139.616364 261.955463 
L 146.385955 255.470278 
L 153.155545 249.856466 
L 159.925136 249.199493 
L 166.694727 241.083445 
L 173.464318 234.135747 
L 180.233909 228.584062 
L 187.0035 223.136738 
L 193.773091 219.444757 
L 200.542682 213.800842 
L 207.312273 209.101551 
L 214.081864 202.450408 
L 220.851455 192.431265 
L 227.621045 191.868795 
L 234.390636 187.101277 
L 241.160227 190.182641 
L 247.929818 183.050824 
L 254.699409 174.037094 
L 261.469 167.901629 
L 268.238591 167.298659 
L 275.008182 164.253102 
L 281.777773 159.648229 
L 288.547364 152.547485 
L 295.316955 149.24152 
L 302.086545 148.053894 
L 308.856136 142.618792 
L 315.625727 138.121562 
L 322.395318 131.731419 
L 329.164909 122.381649 
L 335.9345 117.662782 
L 342.704091 109.059386 
L 349.473682 105.798422 
L 356.243273 101.219529 
L 363.012864 96.302346 
L 369.782455 90.984328 
L 376.552045 84.913072 
L 383.321636 80.108299 
L 390.091227 72.890851 
L 396.860818 68.297029 
" clip-path="url(#p06df401ff4)" style="fill: none; stroke: #2ca02c; stroke-width: 1.5; stroke-linecap: round"/>
   </g>
   <g id="line2d_13">
    <path d="M 126.077182 271.576364 
L 132.846773 267.112085 
L 139.616364 260.325297 
L 146.385955 255.677664 
L 153.155545 253.114514 
L 159.925136 247.413541 
L 166.694727 242.444335 
L 173.464318 237.690633 
L 180.233909 232.590781 
L 187.0035 226.655495 
L 193.773091 222.280964 
L 200.542682 217.543608 
L 207.312273 211.975622 
L 214.081864 207.176294 
L 220.851455 201.706897 
L 227.621045 194.874589 
L 234.390636 188.495367 
L 241.160227 186.395517 
L 247.929818 182.328076 
L 254.699409 174.76217 
L 261.469 171.16802 
L 268.238591 164.732219 
L 275.008182 160.48675 
L 281.777773 155.003041 
L 288.547364 147.606757 
L 295.316955 143.143938 
L 302.086545 139.034525 
L 308.856136 133.688775 
L 315.625727 130.558362 
L 322.395318 125.346349 
L 329.164909 119.308185 
L 335.9345 114.005961 
L 342.704091 110.699958 
L 349.473682 105.608724 
L 356.243273 100.703398 
L 363.012864 95.674331 
L 369.782455 89.241581 
L 376.552045 84.533385 
L 383.321636 80.747449 
L 390.091227 74.907549 
L 396.860818 69.505465 
" clip-path="url(#p06df401ff4)" style="fill: none; stroke: #d62728; stroke-width: 1.5; stroke-linecap: round"/>
   </g>
   <g id="line2d_14">
    <path d="M 126.077182 271.576364 
L 132.846773 263.360962 
L 139.616364 259.277275 
L 146.385955 252.24011 
L 153.155545 248.925524 
L 159.925136 243.741519 
L 166.694727 237.690379 
L 173.464318 235.338039 
L 180.233909 227.821396 
L 187.0035 223.167085 
L 193.773091 216.060568 
L 200.542682 208.856994 
L 207.312273 205.004247 
L 214.081864 200.003085 
L 220.851455 196.995716 
L 227.621045 189.327634 
L 234.390636 185.493426 
L 241.160227 181.976975 
L 247.929818 177.324026 
L 254.699409 171.765469 
L 261.469 166.814649 
L 268.238591 161.58572 
L 275.008182 154.942555 
L 281.777773 150.116133 
L 288.547364 143.253348 
L 295.316955 136.881752 
L 302.086545 130.541339 
L 308.856136 127.207684 
L 315.625727 122.1237 
L 322.395318 112.996055 
L 329.164909 107.564535 
L 335.9345 103.752303 
L 342.704091 99.934887 
L 349.473682 95.65609 
L 356.243273 89.72455 
L 363.012864 85.873256 
L 369.782455 78.326298 
L 376.552045 69.611058 
L 383.321636 65.778063 
L 390.091227 63.074754 
L 396.860818 58.264666 
" clip-path="url(#p06df401ff4)" style="fill: none; stroke: #9467bd; stroke-width: 1.5; stroke-linecap: round"/>
   </g>
   <g id="line2d_15">
    <path d="M 126.077182 271.576364 
L 132.846773 264.876374 
L 139.616364 262.510086 
L 146.385955 256.471417 
L 153.155545 249.369606 
L 159.925136 242.725344 
L 166.694727 236.627943 
L 173.464318 225.3589 
L 180.233909 225.432089 
L 187.0035 223.446739 
L 193.773091 218.182122 
L 200.542682 211.938907 
L 207.312273 205.427747 
L 214.081864 200.419689 
L 220.851455 194.847644 
L 227.621045 190.327327 
L 234.390636 187.169999 
L 241.160227 181.530544 
L 247.929818 177.722315 
L 254.699409 171.846558 
L 261.469 165.046958 
L 268.238591 159.748642 
L 275.008182 156.304762 
L 281.777773 152.088277 
L 288.547364 145.9615 
L 295.316955 142.707975 
L 302.086545 135.474042 
L 308.856136 129.742517 
L 315.625727 125.465875 
L 322.395318 121.649048 
L 329.164909 116.482976 
L 335.9345 109.111949 
L 342.704091 101.750291 
L 349.473682 97.226012 
L 356.243273 94.711694 
L 363.012864 89.708388 
L 369.782455 79.780678 
L 376.552045 77.191028 
L 383.321636 72.648191 
L 390.091227 68.446734 
L 396.860818 61.164281 
" clip-path="url(#p06df401ff4)" style="fill: none; stroke: #8c564b; stroke-width: 1.5; stroke-linecap: round"/>
   </g>
   <g id="line2d_16">
    <path d="M 126.077182 271.576364 
L 132.846773 260.848218 
L 139.616364 262.909341 
L 146.385955 260.221731 
L 153.155545 256.554528 
L 159.925136 251.853345 
L 166.694727 245.55239 
L 173.464318 240.138056 
L 180.233909 235.777101 
L 187.0035 231.776936 
L 193.773091 226.352875 
L 200.542682 219.925403 
L 207.312273 212.339465 
L 214.081864 209.784983 
L 220.851455 202.078533 
L 227.621045 198.258127 
L 234.390636 193.883544 
L 241.160227 187.872363 
L 247.929818 183.625707 
L 254.699409 178.875787 
L 261.469 174.288512 
L 268.238591 168.509448 
L 275.008182 163.648782 
L 281.777773 158.164605 
L 288.547364 154.171334 
L 295.316955 149.219177 
L 302.086545 142.459272 
L 308.856136 140.758918 
L 315.625727 133.602508 
L 322.395318 129.577285 
L 329.164909 125.392123 
L 335.9345 120.924517 
L 342.704091 116.515647 
L 349.473682 111.983595 
L 356.243273 107.644916 
L 363.012864 103.901166 
L 369.782455 100.111801 
L 376.552045 93.224111 
L 383.321636 88.434259 
L 390.091227 84.477608 
L 396.860818 82.468186 
" clip-path="url(#p06df401ff4)" style="fill: none; stroke: #e377c2; stroke-width: 1.5; stroke-linecap: round"/>
   </g>
   <g id="line2d_17">
    <path d="M 126.077182 271.576364 
L 132.846773 265.966372 
L 139.616364 259.452255 
L 146.385955 247.08762 
L 153.155545 250.24014 
L 159.925136 243.81628 
L 166.694727 241.312238 
L 173.464318 234.845236 
L 180.233909 225.426071 
L 187.0035 219.88931 
L 193.773091 219.512106 
L 200.542682 215.059627 
L 207.312273 208.726698 
L 214.081864 199.7523 
L 220.851455 199.574008 
L 227.621045 193.146732 
L 234.390636 185.412485 
L 241.160227 181.206311 
L 247.929818 176.751289 
L 254.699409 173.520184 
L 261.469 168.953351 
L 268.238591 161.956381 
L 275.008182 157.757165 
L 281.777773 150.374419 
L 288.547364 146.181432 
L 295.316955 142.134775 
L 302.086545 136.819423 
L 308.856136 130.246155 
L 315.625727 127.983205 
L 322.395318 120.747748 
L 329.164909 113.609644 
L 335.9345 109.756426 
L 342.704091 103.992887 
L 349.473682 98.171133 
L 356.243273 95.58211 
L 363.012864 89.534382 
L 369.782455 84.875377 
L 376.552045 80.81691 
L 383.321636 75.023312 
L 390.091227 69.077938 
L 396.860818 65.594215 
" clip-path="url(#p06df401ff4)" style="fill: none; stroke: #7f7f7f; stroke-width: 1.5; stroke-linecap: round"/>
   </g>
   <g id="line2d_18">
    <path d="M 126.077182 271.576364 
L 132.846773 265.09283 
L 139.616364 257.940166 
L 146.385955 247.965981 
L 153.155545 240.185167 
L 159.925136 236.426586 
L 166.694727 227.795882 
L 173.464318 225.552528 
L 180.233909 222.923521 
L 187.0035 227.684163 
L 193.773091 220.628148 
L 200.542682 215.260247 
L 207.312273 204.204123 
L 214.081864 205.555571 
L 220.851455 200.848146 
L 227.621045 191.864643 
L 234.390636 187.068157 
L 241.160227 186.484067 
L 247.929818 179.853915 
L 254.699409 178.211471 
L 261.469 173.885255 
L 268.238591 170.598251 
L 275.008182 165.858923 
L 281.777773 159.589246 
L 288.547364 152.481566 
L 295.316955 148.758539 
L 302.086545 145.19942 
L 308.856136 137.999191 
L 315.625727 134.745966 
L 322.395318 128.002121 
L 329.164909 125.383506 
L 335.9345 119.273185 
L 342.704091 112.456691 
L 349.473682 107.704942 
L 356.243273 103.166602 
L 363.012864 97.272355 
L 369.782455 91.381425 
L 376.552045 84.48219 
L 383.321636 79.293671 
L 390.091227 75.041809 
L 396.860818 70.44305 
" clip-path="url(#p06df401ff4)" style="fill: none; stroke: #bcbd22; stroke-width: 1.5; stroke-linecap: round"/>
   </g>
   <g id="line2d_19">
    <path d="M 126.077182 271.576364 
L 132.846773 261.908525 
L 139.616364 260.819967 
L 146.385955 254.698161 
L 153.155545 250.611768 
L 159.925136 243.400301 
L 166.694727 241.214575 
L 173.464318 233.059808 
L 180.233909 230.12432 
L 187.0035 224.489342 
L 193.773091 217.7658 
L 200.542682 212.623062 
L 207.312273 207.439598 
L 214.081864 201.478866 
L 220.851455 198.791268 
L 227.621045 192.568414 
L 234.390636 189.063063 
L 241.160227 184.137056 
L 247.929818 179.124362 
L 254.699409 171.331996 
L 261.469 168.850454 
L 268.238591 161.960406 
L 275.008182 159.416994 
L 281.777773 154.484319 
L 288.547364 149.019623 
L 295.316955 145.829196 
L 302.086545 142.270787 
L 308.856136 137.915519 
L 315.625727 132.613904 
L 322.395318 127.703603 
L 329.164909 122.271368 
L 335.9345 116.826228 
L 342.704091 111.142461 
L 349.473682 106.881219 
L 356.243273 103.296853 
L 363.012864 99.593808 
L 369.782455 91.172353 
L 376.552045 86.1476 
L 383.321636 82.485441 
L 390.091227 75.630251 
L 396.860818 70.202202 
" clip-path="url(#p06df401ff4)" style="fill: none; stroke: #17becf; stroke-width: 1.5; stroke-linecap: round"/>
   </g>
   <g id="line2d_20">
    <path d="M 126.077182 271.576364 
L 132.846773 261.120557 
L 139.616364 261.141626 
L 146.385955 255.242688 
L 153.155545 249.777895 
L 159.925136 244.044011 
L 166.694727 237.842371 
L 173.464318 232.672989 
L 180.233909 226.343097 
L 187.0035 221.538705 
L 193.773091 209.691785 
L 200.542682 205.929026 
L 207.312273 203.941951 
L 214.081864 200.202156 
L 220.851455 190.548451 
L 227.621045 189.751334 
L 234.390636 184.653517 
L 241.160227 179.403456 
L 247.929818 172.090734 
L 254.699409 169.13216 
L 261.469 162.127426 
L 268.238591 156.513888 
L 275.008182 148.526599 
L 281.777773 145.768957 
L 288.547364 138.197592 
L 295.316955 133.819574 
L 302.086545 130.017619 
L 308.856136 123.80028 
L 315.625727 121.981036 
L 322.395318 116.182645 
L 329.164909 108.129084 
L 335.9345 102.863203 
L 342.704091 95.890987 
L 349.473682 91.818252 
L 356.243273 88.209235 
L 363.012864 84.625461 
L 369.782455 78.281647 
L 376.552045 72.566119 
L 383.321636 69.369538 
L 390.091227 62.699699 
L 396.860818 57.796809 
" clip-path="url(#p06df401ff4)" style="fill: none; stroke: #1f77b4; stroke-width: 1.5; stroke-linecap: round"/>
   </g>
   <g id="line2d_21">
    <path d="M 126.077182 271.576364 
L 132.846773 260.751718 
L 139.616364 259.6976 
L 146.385955 250.132172 
L 153.155545 243.20478 
L 159.925136 235.24108 
L 166.694727 234.608238 
L 173.464318 228.62323 
L 180.233909 223.303295 
L 187.0035 217.574592 
L 193.773091 212.33258 
L 200.542682 206.780894 
L 207.312273 201.953872 
L 214.081864 196.553613 
L 220.851455 190.587121 
L 227.621045 183.607907 
L 234.390636 178.412577 
L 241.160227 172.887103 
L 247.929818 167.149979 
L 254.699409 161.571889 
L 261.469 154.241807 
L 268.238591 149.088917 
L 275.008182 143.81829 
L 281.777773 135.966407 
L 288.547364 132.735945 
L 295.316955 126.907802 
L 302.086545 122.547684 
L 308.856136 115.989592 
L 315.625727 109.869265 
L 322.395318 104.223569 
L 329.164909 100.077285 
L 335.9345 95.314875 
L 342.704091 89.828101 
L 349.473682 83.654835 
L 356.243273 78.622128 
L 363.012864 71.536136 
L 369.782455 66.891936 
L 376.552045 61.252223 
L 383.321636 54.76188 
L 390.091227 47.985239 
L 396.860818 42.907585 
" clip-path="url(#p06df401ff4)" style="fill: none; stroke: #ff7f0e; stroke-width: 1.5; stroke-linecap: round"/>
   </g>
   <g id="line2d_22">
    <path d="M 126.077182 271.576364 
L 132.846773 263.961485 
L 139.616364 259.638717 
L 146.385955 252.764782 
L 153.155545 248.373599 
L 159.925136 238.440882 
L 166.694727 236.928899 
L 173.464318 232.071903 
L 180.233909 225.665292 
L 187.0035 218.130587 
L 193.773091 212.314977 
L 200.542682 207.614272 
L 207.312273 202.990063 
L 214.081864 197.871584 
L 220.851455 191.635953 
L 227.621045 186.535172 
L 234.390636 181.760558 
L 241.160227 176.217406 
L 247.929818 170.246424 
L 254.699409 165.859446 
L 261.469 159.868511 
L 268.238591 154.247347 
L 275.008182 148.524684 
L 281.777773 141.836628 
L 288.547364 135.52505 
L 295.316955 131.409838 
L 302.086545 125.528259 
L 308.856136 119.740286 
L 315.625727 113.668477 
L 322.395318 109.15287 
L 329.164909 103.533535 
L 335.9345 97.426286 
L 342.704091 90.65917 
L 349.473682 86.268164 
L 356.243273 81.471512 
L 363.012864 76.411874 
L 369.782455 69.976644 
L 376.552045 64.415173 
L 383.321636 59.746392 
L 390.091227 53.219469 
L 396.860818 48.667087 
" clip-path="url(#p06df401ff4)" style="fill: none; stroke: #2ca02c; stroke-width: 1.5; stroke-linecap: round"/>
   </g>
   <g id="line2d_23">
    <path d="M 126.077182 271.576364 
L 132.846773 257.718954 
L 139.616364 257.109123 
L 146.385955 248.235697 
L 153.155545 248.057709 
L 159.925136 243.518226 
L 166.694727 237.335348 
L 173.464318 230.409676 
L 180.233909 226.572359 
L 187.0035 220.625441 
L 193.773091 215.629477 
L 200.542682 209.126482 
L 207.312273 203.291159 
L 214.081864 198.422157 
L 220.851455 194.166048 
L 227.621045 189.878376 
L 234.390636 183.697743 
L 241.160227 178.409262 
L 247.929818 173.125189 
L 254.699409 168.641912 
L 261.469 164.250718 
L 268.238591 156.71816 
L 275.008182 151.158251 
L 281.777773 145.520702 
L 288.547364 139.844163 
L 295.316955 134.918228 
L 302.086545 129.745532 
L 308.856136 123.902608 
L 315.625727 118.391985 
L 322.395318 113.197171 
L 329.164909 108.101079 
L 335.9345 100.478484 
L 342.704091 95.513762 
L 349.473682 89.535823 
L 356.243273 84.869216 
L 363.012864 79.516161 
L 369.782455 73.762627 
L 376.552045 67.821732 
L 383.321636 62.480545 
L 390.091227 56.457432 
L 396.860818 50.864938 
" clip-path="url(#p06df401ff4)" style="fill: none; stroke: #d62728; stroke-width: 1.5; stroke-linecap: round"/>
   </g>
   <g id="line2d_24">
    <path d="M 126.077182 271.576364 
L 132.846773 265.43676 
L 139.616364 256.3664 
L 146.385955 253.738319 
L 153.155545 246.56935 
L 159.925136 242.147137 
L 166.694727 230.163801 
L 173.464318 224.605194 
L 180.233909 217.147974 
L 187.0035 216.949245 
L 193.773091 206.929206 
L 200.542682 203.948038 
L 207.312273 200.883335 
L 214.081864 194.381321 
L 220.851455 190.618405 
L 227.621045 187.299184 
L 234.390636 182.351151 
L 241.160227 175.850275 
L 247.929818 170.606781 
L 254.699409 162.558643 
L 261.469 157.658391 
L 268.238591 150.980259 
L 275.008182 146.944744 
L 281.777773 140.594059 
L 288.547364 135.14683 
L 295.316955 131.476241 
L 302.086545 125.987851 
L 308.856136 120.094236 
L 315.625727 114.958152 
L 322.395318 109.869327 
L 329.164909 103.543221 
L 335.9345 99.791614 
L 342.704091 90.522444 
L 349.473682 87.089709 
L 356.243273 81.417016 
L 363.012864 75.152985 
L 369.782455 70.211624 
L 376.552045 63.323294 
L 383.321636 58.522825 
L 390.091227 53.198656 
L 396.860818 45.716403 
" clip-path="url(#p06df401ff4)" style="fill: none; stroke: #9467bd; stroke-width: 1.5; stroke-linecap: round"/>
   </g>
   <g id="line2d_25">
    <path d="M 126.077182 271.576364 
L 132.846773 262.919202 
L 139.616364 260.858808 
L 146.385955 253.336935 
L 153.155545 246.981235 
L 159.925136 243.02355 
L 166.694727 237.654436 
L 173.464318 233.377494 
L 180.233909 228.69271 
L 187.0035 221.990835 
L 193.773091 216.595568 
L 200.542682 210.285352 
L 207.312273 202.254297 
L 214.081864 197.711103 
L 220.851455 192.466516 
L 227.621045 187.110783 
L 234.390636 182.238496 
L 241.160227 177.129887 
L 247.929818 171.66094 
L 254.699409 166.632716 
L 261.469 162.359663 
L 268.238591 155.521297 
L 275.008182 149.355661 
L 281.777773 144.260052 
L 288.547364 137.332828 
L 295.316955 132.125356 
L 302.086545 125.928354 
L 308.856136 121.633224 
L 315.625727 114.810988 
L 322.395318 109.908149 
L 329.164909 103.622335 
L 335.9345 99.587272 
L 342.704091 94.482915 
L 349.473682 88.285984 
L 356.243273 82.22115 
L 363.012864 75.467771 
L 369.782455 70.519806 
L 376.552045 65.858132 
L 383.321636 60.517257 
L 390.091227 55.187421 
L 396.860818 48.77034 
" clip-path="url(#p06df401ff4)" style="fill: none; stroke: #8c564b; stroke-width: 1.5; stroke-linecap: round"/>
   </g>
   <g id="line2d_26">
    <path d="M 126.077182 271.576364 
L 132.846773 264.949209 
L 139.616364 255.022762 
L 146.385955 245.135551 
L 153.155545 242.696037 
L 159.925136 241.794286 
L 166.694727 235.257624 
L 173.464318 230.289719 
L 180.233909 223.642526 
L 187.0035 218.505579 
L 193.773091 213.167547 
L 200.542682 208.563782 
L 207.312273 204.193561 
L 214.081864 197.052576 
L 220.851455 191.040433 
L 227.621045 180.155916 
L 234.390636 178.376386 
L 241.160227 172.112396 
L 247.929818 168.050125 
L 254.699409 162.843553 
L 261.469 157.215749 
L 268.238591 150.653942 
L 275.008182 147.834642 
L 281.777773 141.147696 
L 288.547364 134.474842 
L 295.316955 126.739302 
L 302.086545 123.254636 
L 308.856136 117.320511 
L 315.625727 112.199397 
L 322.395318 107.587716 
L 329.164909 99.638982 
L 335.9345 93.995174 
L 342.704091 88.95652 
L 349.473682 84.183878 
L 356.243273 78.812767 
L 363.012864 73.148125 
L 369.782455 68.984057 
L 376.552045 63.175216 
L 383.321636 56.068716 
L 390.091227 49.329053 
L 396.860818 44.693627 
" clip-path="url(#p06df401ff4)" style="fill: none; stroke: #e377c2; stroke-width: 1.5; stroke-linecap: round"/>
   </g>
   <g id="line2d_27">
    <path d="M 126.077182 271.576364 
L 132.846773 259.514577 
L 139.616364 255.404936 
L 146.385955 243.594756 
L 153.155545 241.863172 
L 159.925136 236.60785 
L 166.694727 235.728351 
L 173.464318 231.005723 
L 180.233909 225.927679 
L 187.0035 221.201172 
L 193.773091 215.351944 
L 200.542682 208.791652 
L 207.312273 205.349555 
L 214.081864 199.007871 
L 220.851455 192.718687 
L 227.621045 188.168026 
L 234.390636 182.926599 
L 241.160227 177.669163 
L 247.929818 171.747669 
L 254.699409 165.469962 
L 261.469 157.008956 
L 268.238591 152.781403 
L 275.008182 146.826913 
L 281.777773 143.576877 
L 288.547364 140.325534 
L 295.316955 134.9045 
L 302.086545 127.629555 
L 308.856136 122.434666 
L 315.625727 117.341171 
L 322.395318 112.422924 
L 329.164909 106.556515 
L 335.9345 101.704303 
L 342.704091 96.588628 
L 349.473682 91.020028 
L 356.243273 85.786446 
L 363.012864 80.57536 
L 369.782455 75.803737 
L 376.552045 69.908736 
L 383.321636 64.35823 
L 390.091227 58.584896 
L 396.860818 53.743646 
" clip-path="url(#p06df401ff4)" style="fill: none; stroke: #7f7f7f; stroke-width: 1.5; stroke-linecap: round"/>
   </g>
   <g id="line2d_28">
    <path d="M 126.077182 271.576364 
L 132.846773 264.424957 
L 139.616364 259.016032 
L 146.385955 252.015912 
L 153.155545 243.396629 
L 159.925136 240.657925 
L 166.694727 234.516061 
L 173.464318 229.263416 
L 180.233909 222.981924 
L 187.0035 217.990071 
L 193.773091 214.364886 
L 200.542682 208.110049 
L 207.312273 202.142546 
L 214.081864 189.869648 
L 220.851455 185.473954 
L 227.621045 185.44383 
L 234.390636 179.868633 
L 241.160227 173.718759 
L 247.929818 170.5868 
L 254.699409 166.1664 
L 261.469 160.70121 
L 268.238591 154.167533 
L 275.008182 149.426094 
L 281.777773 143.577949 
L 288.547364 139.496408 
L 295.316955 133.471417 
L 302.086545 125.0003 
L 308.856136 124.103835 
L 315.625727 118.583183 
L 322.395318 114.200245 
L 329.164909 107.962332 
L 335.9345 101.449652 
L 342.704091 95.211815 
L 349.473682 88.073152 
L 356.243273 84.973171 
L 363.012864 80.192379 
L 369.782455 74.925382 
L 376.552045 69.11702 
L 383.321636 63.820865 
L 390.091227 53.815691 
L 396.860818 52.715702 
" clip-path="url(#p06df401ff4)" style="fill: none; stroke: #bcbd22; stroke-width: 1.5; stroke-linecap: round"/>
   </g>
   <g id="line2d_29">
    <path d="M 126.077182 271.576364 
L 132.846773 255.379281 
L 139.616364 254.302628 
L 146.385955 247.080384 
L 153.155545 246.362878 
L 159.925136 241.831167 
L 166.694727 237.713637 
L 173.464318 229.814798 
L 180.233909 225.289115 
L 187.0035 219.476125 
L 193.773091 214.092861 
L 200.542682 206.073109 
L 207.312273 202.565594 
L 214.081864 197.320804 
L 220.851455 191.142999 
L 227.621045 187.372985 
L 234.390636 180.140421 
L 241.160227 170.000519 
L 247.929818 169.295866 
L 254.699409 164.265534 
L 261.469 158.84829 
L 268.238591 153.117296 
L 275.008182 148.192008 
L 281.777773 141.78863 
L 288.547364 135.72486 
L 295.316955 130.030099 
L 302.086545 119.562036 
L 308.856136 118.716743 
L 315.625727 115.062855 
L 322.395318 107.986 
L 329.164909 101.61095 
L 335.9345 95.342445 
L 342.704091 86.522778 
L 349.473682 85.103743 
L 356.243273 80.337099 
L 363.012864 78.22254 
L 369.782455 74.231089 
L 376.552045 66.165977 
L 383.321636 57.892966 
L 390.091227 53.11165 
L 396.860818 49.431975 
" clip-path="url(#p06df401ff4)" style="fill: none; stroke: #17becf; stroke-width: 1.5; stroke-linecap: round"/>
   </g>
   <g id="line2d_30">
    <path d="M 126.077182 271.576364 
L 132.846773 261.492604 
L 139.616364 258.432775 
L 146.385955 250.817316 
L 153.155545 244.443774 
L 159.925136 238.335779 
L 166.694727 233.068262 
L 173.464318 228.957867 
L 180.233909 223.081696 
L 187.0035 216.827211 
L 193.773091 211.20861 
L 200.542682 206.107635 
L 207.312273 201.073915 
L 214.081864 193.892367 
L 220.851455 191.04802 
L 227.621045 186.227912 
L 234.390636 180.769145 
L 241.160227 170.343893 
L 247.929818 167.221826 
L 254.699409 162.367262 
L 261.469 156.438375 
L 268.238591 149.175635 
L 275.008182 142.487178 
L 281.777773 137.620376 
L 288.547364 129.834083 
L 295.316955 123.362939 
L 302.086545 120.35081 
L 308.856136 113.762854 
L 315.625727 108.450022 
L 322.395318 103.266733 
L 329.164909 94.962558 
L 335.9345 88.655711 
L 342.704091 83.9309 
L 349.473682 77.631441 
L 356.243273 71.557662 
L 363.012864 63.713178 
L 369.782455 55.816132 
L 376.552045 49.719344 
L 383.321636 40.824985 
L 390.091227 39.826639 
L 396.860818 33.503636 
" clip-path="url(#p06df401ff4)" style="fill: none; stroke: #1f77b4; stroke-width: 1.5; stroke-linecap: round"/>
   </g>
   <g id="line2d_31">
    <path d="M 126.077182 271.576364 
L 132.846773 263.286403 
L 139.616364 255.664525 
L 146.385955 255.139303 
L 153.155545 246.391518 
L 159.925136 237.68951 
L 166.694727 234.180396 
L 173.464318 230.3726 
L 180.233909 217.630145 
L 187.0035 218.878795 
L 193.773091 212.64217 
L 200.542682 208.954124 
L 207.312273 204.040901 
L 214.081864 197.007385 
L 220.851455 190.727363 
L 227.621045 181.915182 
L 234.390636 179.271174 
L 241.160227 174.216389 
L 247.929818 168.877092 
L 254.699409 162.130634 
L 261.469 153.609412 
L 268.238591 149.450466 
L 275.008182 142.481533 
L 281.777773 137.723322 
L 288.547364 132.781558 
L 295.316955 126.589554 
L 302.086545 123.061073 
L 308.856136 115.651899 
L 315.625727 110.447783 
L 322.395318 103.503276 
L 329.164909 98.682566 
L 335.9345 92.940778 
L 342.704091 87.59782 
L 349.473682 80.11104 
L 356.243273 73.124254 
L 363.012864 67.650404 
L 369.782455 61.098085 
L 376.552045 56.492891 
L 383.321636 50.098646 
L 390.091227 45.943115 
L 396.860818 38.293624 
" clip-path="url(#p06df401ff4)" style="fill: none; stroke: #ff7f0e; stroke-width: 1.5; stroke-linecap: round"/>
   </g>
   <g id="line2d_32">
    <path d="M 126.077182 271.576364 
L 132.846773 260.404653 
L 139.616364 259.791004 
L 146.385955 254.068096 
L 153.155545 249.013804 
L 159.925136 243.203509 
L 166.694727 237.209327 
L 173.464318 232.559448 
L 180.233909 225.90233 
L 187.0035 220.26439 
L 193.773091 214.002183 
L 200.542682 205.87112 
L 207.312273 201.936991 
L 214.081864 196.077577 
L 220.851455 191.128109 
L 227.621045 185.720787 
L 234.390636 178.716552 
L 241.160227 173.131472 
L 247.929818 165.998284 
L 254.699409 160.923729 
L 261.469 154.114669 
L 268.238591 146.738893 
L 275.008182 145.402991 
L 281.777773 138.784892 
L 288.547364 131.543843 
L 295.316955 124.701652 
L 302.086545 120.607273 
L 308.856136 116.540132 
L 315.625727 110.3554 
L 322.395318 104.12872 
L 329.164909 100.221099 
L 335.9345 93.125281 
L 342.704091 89.059658 
L 349.473682 82.319424 
L 356.243273 77.204218 
L 363.012864 70.692878 
L 369.782455 66.482334 
L 376.552045 61.093451 
L 383.321636 54.931936 
L 390.091227 46.808356 
L 396.860818 41.950799 
" clip-path="url(#p06df401ff4)" style="fill: none; stroke: #2ca02c; stroke-width: 1.5; stroke-linecap: round"/>
   </g>
   <g id="line2d_33">
    <path d="M 126.077182 271.576364 
L 132.846773 259.234032 
L 139.616364 257.826458 
L 146.385955 253.530951 
L 153.155545 246.744855 
L 159.925136 239.659336 
L 166.694727 231.989526 
L 173.464318 228.716502 
L 180.233909 220.924049 
L 187.0035 214.267757 
L 193.773091 209.900569 
L 200.542682 206.569616 
L 207.312273 200.783178 
L 214.081864 196.640283 
L 220.851455 190.724842 
L 227.621045 183.049518 
L 234.390636 177.841979 
L 241.160227 170.758963 
L 247.929818 166.776311 
L 254.699409 161.757611 
L 261.469 157.107836 
L 268.238591 151.399331 
L 275.008182 146.218461 
L 281.777773 138.653239 
L 288.547364 133.007688 
L 295.316955 127.761317 
L 302.086545 120.477461 
L 308.856136 116.327709 
L 315.625727 111.5831 
L 322.395318 103.571183 
L 329.164909 98.412734 
L 335.9345 93.520564 
L 342.704091 88.038393 
L 349.473682 82.904704 
L 356.243273 77.084973 
L 363.012864 66.93632 
L 369.782455 62.411097 
L 376.552045 57.859091 
L 383.321636 51.809362 
L 390.091227 47.509932 
L 396.860818 40.637535 
" clip-path="url(#p06df401ff4)" style="fill: none; stroke: #d62728; stroke-width: 1.5; stroke-linecap: round"/>
   </g>
   <g id="line2d_34">
    <path d="M 126.077182 271.576364 
L 132.846773 263.834002 
L 139.616364 259.4203 
L 146.385955 251.751983 
L 153.155545 246.435549 
L 159.925136 239.971216 
L 166.694727 236.545422 
L 173.464318 230.509597 
L 180.233909 220.04204 
L 187.0035 219.498457 
L 193.773091 208.404965 
L 200.542682 204.487814 
L 207.312273 201.744803 
L 214.081864 197.066512 
L 220.851455 191.222365 
L 227.621045 183.322349 
L 234.390636 179.723095 
L 241.160227 174.610602 
L 247.929818 167.76029 
L 254.699409 163.247298 
L 261.469 157.598023 
L 268.238591 150.315416 
L 275.008182 145.351376 
L 281.777773 139.722101 
L 288.547364 133.638228 
L 295.316955 127.734834 
L 302.086545 121.707271 
L 308.856136 115.665663 
L 315.625727 111.130416 
L 322.395318 105.053433 
L 329.164909 99.896991 
L 335.9345 94.384686 
L 342.704091 87.181174 
L 349.473682 81.576881 
L 356.243273 74.868368 
L 363.012864 68.771172 
L 369.782455 61.50235 
L 376.552045 58.924141 
L 383.321636 53.561604 
L 390.091227 46.79278 
L 396.860818 39.584346 
" clip-path="url(#p06df401ff4)" style="fill: none; stroke: #9467bd; stroke-width: 1.5; stroke-linecap: round"/>
   </g>
   <g id="patch_3">
    <path d="M 112.538 283.48 
L 112.538 21.6 
" style="fill: none; stroke: #cccccc; stroke-width: 0.8; stroke-linejoin: miter; stroke-linecap: square"/>
   </g>
   <g id="patch_4">
    <path d="M 410.4 283.48 
L 410.4 21.6 
" style="fill: none; stroke: #cccccc; stroke-width: 0.8; stroke-linejoin: miter; stroke-linecap: square"/>
   </g>
   <g id="patch_5">
    <path d="M 112.538 283.48 
L 410.4 283.48 
" style="fill: none; stroke: #cccccc; stroke-width: 0.8; stroke-linejoin: miter; stroke-linecap: square"/>
   </g>
   <g id="patch_6">
    <path d="M 112.538 21.6 
L 410.4 21.6 
" style="fill: none; stroke: #cccccc; stroke-width: 0.8; stroke-linejoin: miter; stroke-linecap: square"/>
   </g>
  </g>
 </g>
 <defs>
  <clipPath id="p06df401ff4">
   <rect x="112.538" y="21.6" width="297.862" height="261.88"/>
  </clipPath>
 </defs>
</svg>
