<?xml version="1.0" encoding="utf-8" standalone="no"?>
<!DOCTYPE svg PUBLIC "-//W3C//DTD SVG 1.1//EN"
  "http://www.w3.org/Graphics/SVG/1.1/DTD/svg11.dtd">
<svg xmlns:xlink="http://www.w3.org/1999/xlink" width="576pt" height="1008pt" viewBox="0 0 576 1008" xmlns="http://www.w3.org/2000/svg" version="1.1">
 <metadata>
  <rdf:RDF xmlns:dc="http://purl.org/dc/elements/1.1/" xmlns:cc="http://creativecommons.org/ns#" xmlns:rdf="http://www.w3.org/1999/02/22-rdf-syntax-ns#">
   <cc:Work>
    <dc:type rdf:resource="http://purl.org/dc/dcmitype/StillImage"/>
    <dc:date>2025-02-16T03:26:49.399166</dc:date>
    <dc:format>image/svg+xml</dc:format>
    <dc:creator>
     <cc:Agent>
      <dc:title>Matplotlib v3.9.1, https://matplotlib.org/</dc:title>
     </cc:Agent>
    </dc:creator>
   </cc:Work>
  </rdf:RDF>
 </metadata>
 <defs>
  <style type="text/css">*{stroke-linejoin: round; stroke-linecap: butt}</style>
 </defs>
 <g id="figure_1">
  <g id="patch_1">
   <path d="M 0 1008 
L 576 1008 
L 576 0 
L 0 0 
z
" style="fill: #ffffff"/>
  </g>
  <g id="axes_1">
   <g id="patch_2">
    <path d="M 100.125851 428.610625 
L 449.04817 428.610625 
L 449.04817 70.656 
L 100.125851 70.656 
z
" style="fill: #ffffff"/>
   </g>
   <g id="matplotlib.axis_1">
    <g id="xtick_1">
     <g id="line2d_1">
      <path d="M 100.125851 428.610625 
L 100.125851 70.656 
" clip-path="url(#p51fefafd40)" style="fill: none; stroke: #cccccc; stroke-width: 0.8; stroke-linecap: round"/>
     </g>
     <g id="text_1">
      <!-- $\mathdefault{0}$ -->
      <g style="fill: #262626" transform="translate(94.525851 449.92625) scale(0.2 -0.2)">
       <defs>
        <path id="ArialMT-30" d="M 266 2259 
Q 266 3072 433 3567 
Q 600 4063 929 4331 
Q 1259 4600 1759 4600 
Q 2128 4600 2406 4451 
Q 2684 4303 2865 4023 
Q 3047 3744 3150 3342 
Q 3253 2941 3253 2259 
Q 3253 1453 3087 958 
Q 2922 463 2592 192 
Q 2263 -78 1759 -78 
Q 1097 -78 719 397 
Q 266 969 266 2259 
z
M 844 2259 
Q 844 1131 1108 757 
Q 1372 384 1759 384 
Q 2147 384 2411 759 
Q 2675 1134 2675 2259 
Q 2675 3391 2411 3762 
Q 2147 4134 1753 4134 
Q 1366 4134 1134 3806 
Q 844 3388 844 2259 
z
" transform="scale(0.015625)"/>
       </defs>
       <use xlink:href="#ArialMT-30" transform="translate(0 0.125)"/>
      </g>
     </g>
    </g>
    <g id="xtick_2">
     <g id="line2d_2">
      <path d="M 130.264392 428.610625 
L 130.264392 70.656 
" clip-path="url(#p51fefafd40)" style="fill: none; stroke: #cccccc; stroke-width: 0.8; stroke-linecap: round"/>
     </g>
     <g id="text_2">
      <!-- $\mathdefault{10^{-3}}$ -->
      <g style="fill: #262626" transform="translate(110.464392 456.235625) scale(0.2 -0.2)">
       <defs>
        <path id="ArialMT-31" d="M 2384 0 
L 1822 0 
L 1822 3584 
Q 1619 3391 1289 3197 
Q 959 3003 697 2906 
L 697 3450 
Q 1169 3672 1522 3987 
Q 1875 4303 2022 4600 
L 2384 4600 
L 2384 0 
z
" transform="scale(0.015625)"/>
        <path id="ArialMT-2212" d="M 3381 1997 
L 356 1997 
L 356 2522 
L 3381 2522 
L 3381 1997 
z
" transform="scale(0.015625)"/>
        <path id="ArialMT-33" d="M 269 1209 
L 831 1284 
Q 928 806 1161 595 
Q 1394 384 1728 384 
Q 2125 384 2398 659 
Q 2672 934 2672 1341 
Q 2672 1728 2419 1979 
Q 2166 2231 1775 2231 
Q 1616 2231 1378 2169 
L 1441 2663 
Q 1497 2656 1531 2656 
Q 1891 2656 2178 2843 
Q 2466 3031 2466 3422 
Q 2466 3731 2256 3934 
Q 2047 4138 1716 4138 
Q 1388 4138 1169 3931 
Q 950 3725 888 3313 
L 325 3413 
Q 428 3978 793 4289 
Q 1159 4600 1703 4600 
Q 2078 4600 2393 4439 
Q 2709 4278 2876 4000 
Q 3044 3722 3044 3409 
Q 3044 3113 2884 2869 
Q 2725 2625 2413 2481 
Q 2819 2388 3044 2092 
Q 3269 1797 3269 1353 
Q 3269 753 2831 336 
Q 2394 -81 1725 -81 
Q 1122 -81 723 278 
Q 325 638 269 1209 
z
" transform="scale(0.015625)"/>
       </defs>
       <use xlink:href="#ArialMT-31" transform="translate(0 0.99375)"/>
       <use xlink:href="#ArialMT-30" transform="translate(55.615234 0.99375)"/>
       <use xlink:href="#ArialMT-2212" transform="translate(112.972813 70.6875) scale(0.7)"/>
       <use xlink:href="#ArialMT-33" transform="translate(153.851719 70.6875) scale(0.7)"/>
      </g>
     </g>
    </g>
    <g id="xtick_3">
     <g id="line2d_3">
      <path d="M 198.321619 428.610625 
L 198.321619 70.656 
" clip-path="url(#p51fefafd40)" style="fill: none; stroke: #cccccc; stroke-width: 0.8; stroke-linecap: round"/>
     </g>
     <g id="text_3">
      <!-- $\mathdefault{10^{-2}}$ -->
      <g style="fill: #262626" transform="translate(178.521619 456.235625) scale(0.2 -0.2)">
       <defs>
        <path id="ArialMT-32" d="M 3222 541 
L 3222 0 
L 194 0 
Q 188 203 259 391 
Q 375 700 629 1000 
Q 884 1300 1366 1694 
Q 2113 2306 2375 2664 
Q 2638 3022 2638 3341 
Q 2638 3675 2398 3904 
Q 2159 4134 1775 4134 
Q 1369 4134 1125 3890 
Q 881 3647 878 3216 
L 300 3275 
Q 359 3922 746 4261 
Q 1134 4600 1788 4600 
Q 2447 4600 2831 4234 
Q 3216 3869 3216 3328 
Q 3216 3053 3103 2787 
Q 2991 2522 2730 2228 
Q 2469 1934 1863 1422 
Q 1356 997 1212 845 
Q 1069 694 975 541 
L 3222 541 
z
" transform="scale(0.015625)"/>
       </defs>
       <use xlink:href="#ArialMT-31" transform="translate(0 0.99375)"/>
       <use xlink:href="#ArialMT-30" transform="translate(55.615234 0.99375)"/>
       <use xlink:href="#ArialMT-2212" transform="translate(112.972813 70.6875) scale(0.7)"/>
       <use xlink:href="#ArialMT-32" transform="translate(153.851719 70.6875) scale(0.7)"/>
      </g>
     </g>
    </g>
    <g id="xtick_4">
     <g id="line2d_4">
      <path d="M 252.570994 428.610625 
L 252.570994 70.656 
" clip-path="url(#p51fefafd40)" style="fill: none; stroke: #cccccc; stroke-width: 0.8; stroke-linecap: round"/>
     </g>
     <g id="text_4">
      <!-- $\mathdefault{10^{-1}}$ -->
      <g style="fill: #262626" transform="translate(232.770994 456.235625) scale(0.2 -0.2)">
       <use xlink:href="#ArialMT-31" transform="translate(0 0.99375)"/>
       <use xlink:href="#ArialMT-30" transform="translate(55.615234 0.99375)"/>
       <use xlink:href="#ArialMT-2212" transform="translate(112.972813 70.6875) scale(0.7)"/>
       <use xlink:href="#ArialMT-31" transform="translate(153.851719 70.6875) scale(0.7)"/>
      </g>
     </g>
    </g>
    <g id="xtick_5">
     <g id="line2d_5">
      <path d="M 306.820368 428.610625 
L 306.820368 70.656 
" clip-path="url(#p51fefafd40)" style="fill: none; stroke: #cccccc; stroke-width: 0.8; stroke-linecap: round"/>
     </g>
     <g id="text_5">
      <!-- $\mathdefault{10^{0}}$ -->
      <g style="fill: #262626" transform="translate(291.120368 456.235625) scale(0.2 -0.2)">
       <use xlink:href="#ArialMT-31" transform="translate(0 0.99375)"/>
       <use xlink:href="#ArialMT-30" transform="translate(55.615234 0.99375)"/>
       <use xlink:href="#ArialMT-30" transform="translate(112.972813 70.6875) scale(0.7)"/>
      </g>
     </g>
    </g>
    <g id="xtick_6">
     <g id="line2d_6">
      <path d="M 361.069743 428.610625 
L 361.069743 70.656 
" clip-path="url(#p51fefafd40)" style="fill: none; stroke: #cccccc; stroke-width: 0.8; stroke-linecap: round"/>
     </g>
     <g id="text_6">
      <!-- $\mathdefault{10^{1}}$ -->
      <g style="fill: #262626" transform="translate(345.369743 456.235625) scale(0.2 -0.2)">
       <use xlink:href="#ArialMT-31" transform="translate(0 0.99375)"/>
       <use xlink:href="#ArialMT-30" transform="translate(55.615234 0.99375)"/>
       <use xlink:href="#ArialMT-31" transform="translate(112.972813 70.6875) scale(0.7)"/>
      </g>
     </g>
    </g>
    <g id="xtick_7">
     <g id="line2d_7">
      <path d="M 415.319118 428.610625 
L 415.319118 70.656 
" clip-path="url(#p51fefafd40)" style="fill: none; stroke: #cccccc; stroke-width: 0.8; stroke-linecap: round"/>
     </g>
     <g id="text_7">
      <!-- $\mathdefault{10^{2}}$ -->
      <g style="fill: #262626" transform="translate(399.619118 456.235625) scale(0.2 -0.2)">
       <use xlink:href="#ArialMT-31" transform="translate(0 0.99375)"/>
       <use xlink:href="#ArialMT-30" transform="translate(55.615234 0.99375)"/>
       <use xlink:href="#ArialMT-32" transform="translate(112.972813 70.6875) scale(0.7)"/>
      </g>
     </g>
    </g>
    <g id="text_8">
     <!-- Distance parameter $d$ ($nm$) -->
     <g style="fill: #262626" transform="translate(128.18701 482.450625) scale(0.24 -0.24)">
      <defs>
       <path id="ArialMT-44" d="M 494 0 
L 494 4581 
L 2072 4581 
Q 2606 4581 2888 4516 
Q 3281 4425 3559 4188 
Q 3922 3881 4101 3404 
Q 4281 2928 4281 2316 
Q 4281 1794 4159 1391 
Q 4038 988 3847 723 
Q 3656 459 3429 307 
Q 3203 156 2883 78 
Q 2563 0 2147 0 
L 494 0 
z
M 1100 541 
L 2078 541 
Q 2531 541 2789 625 
Q 3047 709 3200 863 
Q 3416 1078 3536 1442 
Q 3656 1806 3656 2325 
Q 3656 3044 3420 3430 
Q 3184 3816 2847 3947 
Q 2603 4041 2063 4041 
L 1100 4041 
L 1100 541 
z
" transform="scale(0.015625)"/>
       <path id="ArialMT-69" d="M 425 3934 
L 425 4581 
L 988 4581 
L 988 3934 
L 425 3934 
z
M 425 0 
L 425 3319 
L 988 3319 
L 988 0 
L 425 0 
z
" transform="scale(0.015625)"/>
       <path id="ArialMT-73" d="M 197 991 
L 753 1078 
Q 800 744 1014 566 
Q 1228 388 1613 388 
Q 2000 388 2187 545 
Q 2375 703 2375 916 
Q 2375 1106 2209 1216 
Q 2094 1291 1634 1406 
Q 1016 1563 777 1677 
Q 538 1791 414 1992 
Q 291 2194 291 2438 
Q 291 2659 392 2848 
Q 494 3038 669 3163 
Q 800 3259 1026 3326 
Q 1253 3394 1513 3394 
Q 1903 3394 2198 3281 
Q 2494 3169 2634 2976 
Q 2775 2784 2828 2463 
L 2278 2388 
Q 2241 2644 2061 2787 
Q 1881 2931 1553 2931 
Q 1166 2931 1000 2803 
Q 834 2675 834 2503 
Q 834 2394 903 2306 
Q 972 2216 1119 2156 
Q 1203 2125 1616 2013 
Q 2213 1853 2448 1751 
Q 2684 1650 2818 1456 
Q 2953 1263 2953 975 
Q 2953 694 2789 445 
Q 2625 197 2315 61 
Q 2006 -75 1616 -75 
Q 969 -75 630 194 
Q 291 463 197 991 
z
" transform="scale(0.015625)"/>
       <path id="ArialMT-74" d="M 1650 503 
L 1731 6 
Q 1494 -44 1306 -44 
Q 1000 -44 831 53 
Q 663 150 594 308 
Q 525 466 525 972 
L 525 2881 
L 113 2881 
L 113 3319 
L 525 3319 
L 525 4141 
L 1084 4478 
L 1084 3319 
L 1650 3319 
L 1650 2881 
L 1084 2881 
L 1084 941 
Q 1084 700 1114 631 
Q 1144 563 1211 522 
Q 1278 481 1403 481 
Q 1497 481 1650 503 
z
" transform="scale(0.015625)"/>
       <path id="ArialMT-61" d="M 2588 409 
Q 2275 144 1986 34 
Q 1697 -75 1366 -75 
Q 819 -75 525 192 
Q 231 459 231 875 
Q 231 1119 342 1320 
Q 453 1522 633 1644 
Q 813 1766 1038 1828 
Q 1203 1872 1538 1913 
Q 2219 1994 2541 2106 
Q 2544 2222 2544 2253 
Q 2544 2597 2384 2738 
Q 2169 2928 1744 2928 
Q 1347 2928 1158 2789 
Q 969 2650 878 2297 
L 328 2372 
Q 403 2725 575 2942 
Q 747 3159 1072 3276 
Q 1397 3394 1825 3394 
Q 2250 3394 2515 3294 
Q 2781 3194 2906 3042 
Q 3031 2891 3081 2659 
Q 3109 2516 3109 2141 
L 3109 1391 
Q 3109 606 3145 398 
Q 3181 191 3288 0 
L 2700 0 
Q 2613 175 2588 409 
z
M 2541 1666 
Q 2234 1541 1622 1453 
Q 1275 1403 1131 1340 
Q 988 1278 909 1158 
Q 831 1038 831 891 
Q 831 666 1001 516 
Q 1172 366 1500 366 
Q 1825 366 2078 508 
Q 2331 650 2450 897 
Q 2541 1088 2541 1459 
L 2541 1666 
z
" transform="scale(0.015625)"/>
       <path id="ArialMT-6e" d="M 422 0 
L 422 3319 
L 928 3319 
L 928 2847 
Q 1294 3394 1984 3394 
Q 2284 3394 2536 3286 
Q 2788 3178 2913 3003 
Q 3038 2828 3088 2588 
Q 3119 2431 3119 2041 
L 3119 0 
L 2556 0 
L 2556 2019 
Q 2556 2363 2490 2533 
Q 2425 2703 2258 2804 
Q 2091 2906 1866 2906 
Q 1506 2906 1245 2678 
Q 984 2450 984 1813 
L 984 0 
L 422 0 
z
" transform="scale(0.015625)"/>
       <path id="ArialMT-63" d="M 2588 1216 
L 3141 1144 
Q 3050 572 2676 248 
Q 2303 -75 1759 -75 
Q 1078 -75 664 370 
Q 250 816 250 1647 
Q 250 2184 428 2587 
Q 606 2991 970 3192 
Q 1334 3394 1763 3394 
Q 2303 3394 2647 3120 
Q 2991 2847 3088 2344 
L 2541 2259 
Q 2463 2594 2264 2762 
Q 2066 2931 1784 2931 
Q 1359 2931 1093 2626 
Q 828 2322 828 1663 
Q 828 994 1084 691 
Q 1341 388 1753 388 
Q 2084 388 2306 591 
Q 2528 794 2588 1216 
z
" transform="scale(0.015625)"/>
       <path id="ArialMT-65" d="M 2694 1069 
L 3275 997 
Q 3138 488 2766 206 
Q 2394 -75 1816 -75 
Q 1088 -75 661 373 
Q 234 822 234 1631 
Q 234 2469 665 2931 
Q 1097 3394 1784 3394 
Q 2450 3394 2872 2941 
Q 3294 2488 3294 1666 
Q 3294 1616 3291 1516 
L 816 1516 
Q 847 969 1125 678 
Q 1403 388 1819 388 
Q 2128 388 2347 550 
Q 2566 713 2694 1069 
z
M 847 1978 
L 2700 1978 
Q 2663 2397 2488 2606 
Q 2219 2931 1791 2931 
Q 1403 2931 1139 2672 
Q 875 2413 847 1978 
z
" transform="scale(0.015625)"/>
       <path id="ArialMT-20" transform="scale(0.015625)"/>
       <path id="ArialMT-70" d="M 422 -1272 
L 422 3319 
L 934 3319 
L 934 2888 
Q 1116 3141 1344 3267 
Q 1572 3394 1897 3394 
Q 2322 3394 2647 3175 
Q 2972 2956 3137 2557 
Q 3303 2159 3303 1684 
Q 3303 1175 3120 767 
Q 2938 359 2589 142 
Q 2241 -75 1856 -75 
Q 1575 -75 1351 44 
Q 1128 163 984 344 
L 984 -1272 
L 422 -1272 
z
M 931 1641 
Q 931 1000 1190 694 
Q 1450 388 1819 388 
Q 2194 388 2461 705 
Q 2728 1022 2728 1688 
Q 2728 2322 2467 2637 
Q 2206 2953 1844 2953 
Q 1484 2953 1207 2617 
Q 931 2281 931 1641 
z
" transform="scale(0.015625)"/>
       <path id="ArialMT-72" d="M 416 0 
L 416 3319 
L 922 3319 
L 922 2816 
Q 1116 3169 1280 3281 
Q 1444 3394 1641 3394 
Q 1925 3394 2219 3213 
L 2025 2691 
Q 1819 2813 1613 2813 
Q 1428 2813 1281 2702 
Q 1134 2591 1072 2394 
Q 978 2094 978 1738 
L 978 0 
L 416 0 
z
" transform="scale(0.015625)"/>
       <path id="ArialMT-6d" d="M 422 0 
L 422 3319 
L 925 3319 
L 925 2853 
Q 1081 3097 1340 3245 
Q 1600 3394 1931 3394 
Q 2300 3394 2536 3241 
Q 2772 3088 2869 2813 
Q 3263 3394 3894 3394 
Q 4388 3394 4653 3120 
Q 4919 2847 4919 2278 
L 4919 0 
L 4359 0 
L 4359 2091 
Q 4359 2428 4304 2576 
Q 4250 2725 4106 2815 
Q 3963 2906 3769 2906 
Q 3419 2906 3187 2673 
Q 2956 2441 2956 1928 
L 2956 0 
L 2394 0 
L 2394 2156 
Q 2394 2531 2256 2718 
Q 2119 2906 1806 2906 
Q 1569 2906 1367 2781 
Q 1166 2656 1075 2415 
Q 984 2175 984 1722 
L 984 0 
L 422 0 
z
" transform="scale(0.015625)"/>
       <path id="DejaVuSans-Oblique-64" d="M 2675 525 
Q 2444 222 2128 65 
Q 1813 -91 1428 -91 
Q 903 -91 598 267 
Q 294 625 294 1247 
Q 294 1766 478 2236 
Q 663 2706 1013 3078 
Q 1244 3325 1534 3454 
Q 1825 3584 2144 3584 
Q 2481 3584 2739 3421 
Q 2997 3259 3138 2956 
L 3513 4863 
L 4091 4863 
L 3144 0 
L 2566 0 
L 2675 525 
z
M 891 1350 
Q 891 897 1095 644 
Q 1300 391 1663 391 
Q 1931 391 2161 520 
Q 2391 650 2566 903 
Q 2750 1166 2856 1509 
Q 2963 1853 2963 2188 
Q 2963 2622 2758 2865 
Q 2553 3109 2194 3109 
Q 1922 3109 1687 2981 
Q 1453 2853 1288 2613 
Q 1106 2353 998 2009 
Q 891 1666 891 1350 
z
" transform="scale(0.015625)"/>
       <path id="ArialMT-28" d="M 1497 -1347 
Q 1031 -759 709 28 
Q 388 816 388 1659 
Q 388 2403 628 3084 
Q 909 3875 1497 4659 
L 1900 4659 
Q 1522 4009 1400 3731 
Q 1209 3300 1100 2831 
Q 966 2247 966 1656 
Q 966 153 1900 -1347 
L 1497 -1347 
z
" transform="scale(0.015625)"/>
       <path id="DejaVuSans-Oblique-6e" d="M 3566 2113 
L 3156 0 
L 2578 0 
L 2988 2091 
Q 3016 2238 3031 2350 
Q 3047 2463 3047 2528 
Q 3047 2791 2881 2937 
Q 2716 3084 2419 3084 
Q 1956 3084 1622 2776 
Q 1288 2469 1184 1941 
L 800 0 
L 225 0 
L 903 3500 
L 1478 3500 
L 1363 2950 
Q 1603 3253 1940 3418 
Q 2278 3584 2650 3584 
Q 3113 3584 3367 3334 
Q 3622 3084 3622 2631 
Q 3622 2519 3608 2391 
Q 3594 2263 3566 2113 
z
" transform="scale(0.015625)"/>
       <path id="DejaVuSans-Oblique-6d" d="M 5747 2113 
L 5338 0 
L 4763 0 
L 5166 2094 
Q 5191 2228 5203 2325 
Q 5216 2422 5216 2491 
Q 5216 2772 5059 2928 
Q 4903 3084 4622 3084 
Q 4203 3084 3875 2770 
Q 3547 2456 3450 1953 
L 3066 0 
L 2491 0 
L 2900 2094 
Q 2925 2209 2937 2307 
Q 2950 2406 2950 2484 
Q 2950 2769 2794 2926 
Q 2638 3084 2363 3084 
Q 1938 3084 1609 2770 
Q 1281 2456 1184 1953 
L 800 0 
L 225 0 
L 909 3500 
L 1484 3500 
L 1375 2956 
Q 1609 3263 1923 3423 
Q 2238 3584 2597 3584 
Q 2978 3584 3223 3384 
Q 3469 3184 3519 2828 
Q 3781 3197 4126 3390 
Q 4472 3584 4856 3584 
Q 5306 3584 5551 3325 
Q 5797 3066 5797 2591 
Q 5797 2488 5784 2364 
Q 5772 2241 5747 2113 
z
" transform="scale(0.015625)"/>
       <path id="ArialMT-29" d="M 791 -1347 
L 388 -1347 
Q 1322 153 1322 1656 
Q 1322 2244 1188 2822 
Q 1081 3291 891 3722 
Q 769 4003 388 4659 
L 791 4659 
Q 1378 3875 1659 3084 
Q 1900 2403 1900 1659 
Q 1900 816 1576 28 
Q 1253 -759 791 -1347 
z
" transform="scale(0.015625)"/>
      </defs>
      <use xlink:href="#ArialMT-44" transform="translate(0 0.015625)"/>
      <use xlink:href="#ArialMT-69" transform="translate(72.216797 0.015625)"/>
      <use xlink:href="#ArialMT-73" transform="translate(94.433594 0.015625)"/>
      <use xlink:href="#ArialMT-74" transform="translate(144.433594 0.015625)"/>
      <use xlink:href="#ArialMT-61" transform="translate(172.216797 0.015625)"/>
      <use xlink:href="#ArialMT-6e" transform="translate(227.832031 0.015625)"/>
      <use xlink:href="#ArialMT-63" transform="translate(283.447266 0.015625)"/>
      <use xlink:href="#ArialMT-65" transform="translate(333.447266 0.015625)"/>
      <use xlink:href="#ArialMT-20" transform="translate(389.0625 0.015625)"/>
      <use xlink:href="#ArialMT-70" transform="translate(416.845703 0.015625)"/>
      <use xlink:href="#ArialMT-61" transform="translate(472.460938 0.015625)"/>
      <use xlink:href="#ArialMT-72" transform="translate(528.076172 0.015625)"/>
      <use xlink:href="#ArialMT-61" transform="translate(561.376953 0.015625)"/>
      <use xlink:href="#ArialMT-6d" transform="translate(616.992188 0.015625)"/>
      <use xlink:href="#ArialMT-65" transform="translate(700.292969 0.015625)"/>
      <use xlink:href="#ArialMT-74" transform="translate(755.908203 0.015625)"/>
      <use xlink:href="#ArialMT-65" transform="translate(783.691406 0.015625)"/>
      <use xlink:href="#ArialMT-72" transform="translate(839.306641 0.015625)"/>
      <use xlink:href="#ArialMT-20" transform="translate(872.607422 0.015625)"/>
      <use xlink:href="#DejaVuSans-Oblique-64" transform="translate(900.390625 0.015625)"/>
      <use xlink:href="#ArialMT-20" transform="translate(963.867188 0.015625)"/>
      <use xlink:href="#ArialMT-28" transform="translate(991.650391 0.015625)"/>
      <use xlink:href="#DejaVuSans-Oblique-6e" transform="translate(1024.951172 0.015625)"/>
      <use xlink:href="#DejaVuSans-Oblique-6d" transform="translate(1088.330078 0.015625)"/>
      <use xlink:href="#ArialMT-29" transform="translate(1185.742188 0.015625)"/>
     </g>
    </g>
   </g>
   <g id="matplotlib.axis_2">
    <g id="ytick_1">
     <g id="line2d_8">
      <path d="M 100.125851 377.47425 
L 449.04817 377.47425 
" clip-path="url(#p51fefafd40)" style="fill: none; stroke: #cccccc; stroke-width: 0.8; stroke-linecap: round"/>
     </g>
     <g id="text_9">
      <!-- $\mathdefault{10^{-1}}$ -->
      <g style="fill: #262626" transform="translate(53.525851 387.78675) scale(0.2 -0.2)">
       <use xlink:href="#ArialMT-31" transform="translate(0 0.99375)"/>
       <use xlink:href="#ArialMT-30" transform="translate(55.615234 0.99375)"/>
       <use xlink:href="#ArialMT-2212" transform="translate(112.972813 70.6875) scale(0.7)"/>
       <use xlink:href="#ArialMT-31" transform="translate(153.851719 70.6875) scale(0.7)"/>
      </g>
     </g>
    </g>
    <g id="ytick_2">
     <g id="line2d_9">
      <path d="M 100.125851 326.337875 
L 449.04817 326.337875 
" clip-path="url(#p51fefafd40)" style="fill: none; stroke: #cccccc; stroke-width: 0.8; stroke-linecap: round"/>
     </g>
     <g id="text_10">
      <!-- $\mathdefault{10^{0}}$ -->
      <g style="fill: #262626" transform="translate(61.725851 336.650375) scale(0.2 -0.2)">
       <use xlink:href="#ArialMT-31" transform="translate(0 0.99375)"/>
       <use xlink:href="#ArialMT-30" transform="translate(55.615234 0.99375)"/>
       <use xlink:href="#ArialMT-30" transform="translate(112.972813 70.6875) scale(0.7)"/>
      </g>
     </g>
    </g>
    <g id="ytick_3">
     <g id="line2d_10">
      <path d="M 100.125851 275.2015 
L 449.04817 275.2015 
" clip-path="url(#p51fefafd40)" style="fill: none; stroke: #cccccc; stroke-width: 0.8; stroke-linecap: round"/>
     </g>
     <g id="text_11">
      <!-- $\mathdefault{10^{1}}$ -->
      <g style="fill: #262626" transform="translate(61.725851 285.514) scale(0.2 -0.2)">
       <use xlink:href="#ArialMT-31" transform="translate(0 0.99375)"/>
       <use xlink:href="#ArialMT-30" transform="translate(55.615234 0.99375)"/>
       <use xlink:href="#ArialMT-31" transform="translate(112.972813 70.6875) scale(0.7)"/>
      </g>
     </g>
    </g>
    <g id="ytick_4">
     <g id="line2d_11">
      <path d="M 100.125851 224.065125 
L 449.04817 224.065125 
" clip-path="url(#p51fefafd40)" style="fill: none; stroke: #cccccc; stroke-width: 0.8; stroke-linecap: round"/>
     </g>
     <g id="text_12">
      <!-- $\mathdefault{10^{2}}$ -->
      <g style="fill: #262626" transform="translate(61.725851 234.377625) scale(0.2 -0.2)">
       <use xlink:href="#ArialMT-31" transform="translate(0 0.99375)"/>
       <use xlink:href="#ArialMT-30" transform="translate(55.615234 0.99375)"/>
       <use xlink:href="#ArialMT-32" transform="translate(112.972813 70.6875) scale(0.7)"/>
      </g>
     </g>
    </g>
    <g id="ytick_5">
     <g id="line2d_12">
      <path d="M 100.125851 172.92875 
L 449.04817 172.92875 
" clip-path="url(#p51fefafd40)" style="fill: none; stroke: #cccccc; stroke-width: 0.8; stroke-linecap: round"/>
     </g>
     <g id="text_13">
      <!-- $\mathdefault{10^{3}}$ -->
      <g style="fill: #262626" transform="translate(61.725851 183.24125) scale(0.2 -0.2)">
       <use xlink:href="#ArialMT-31" transform="translate(0 0.99375)"/>
       <use xlink:href="#ArialMT-30" transform="translate(55.615234 0.99375)"/>
       <use xlink:href="#ArialMT-33" transform="translate(112.972813 70.6875) scale(0.7)"/>
      </g>
     </g>
    </g>
    <g id="ytick_6">
     <g id="line2d_13">
      <path d="M 100.125851 121.792375 
L 449.04817 121.792375 
" clip-path="url(#p51fefafd40)" style="fill: none; stroke: #cccccc; stroke-width: 0.8; stroke-linecap: round"/>
     </g>
     <g id="text_14">
      <!-- $\mathdefault{10^{4}}$ -->
      <g style="fill: #262626" transform="translate(61.725851 132.004875) scale(0.2 -0.2)">
       <defs>
        <path id="ArialMT-34" d="M 2069 0 
L 2069 1097 
L 81 1097 
L 81 1613 
L 2172 4581 
L 2631 4581 
L 2631 1613 
L 3250 1613 
L 3250 1097 
L 2631 1097 
L 2631 0 
L 2069 0 
z
M 2069 1613 
L 2069 3678 
L 634 1613 
L 2069 1613 
z
" transform="scale(0.015625)"/>
       </defs>
       <use xlink:href="#ArialMT-31" transform="translate(0 0.201563)"/>
       <use xlink:href="#ArialMT-30" transform="translate(55.615234 0.201563)"/>
       <use xlink:href="#ArialMT-34" transform="translate(112.972813 69.895313) scale(0.7)"/>
      </g>
     </g>
    </g>
    <g id="ytick_7">
     <g id="line2d_14">
      <path d="M 100.125851 70.656 
L 449.04817 70.656 
" clip-path="url(#p51fefafd40)" style="fill: none; stroke: #cccccc; stroke-width: 0.8; stroke-linecap: round"/>
     </g>
     <g id="text_15">
      <!-- $\mathdefault{10^{5}}$ -->
      <g style="fill: #262626" transform="translate(61.725851 80.8685) scale(0.2 -0.2)">
       <defs>
        <path id="ArialMT-35" d="M 266 1200 
L 856 1250 
Q 922 819 1161 601 
Q 1400 384 1738 384 
Q 2144 384 2425 690 
Q 2706 997 2706 1503 
Q 2706 1984 2436 2262 
Q 2166 2541 1728 2541 
Q 1456 2541 1237 2417 
Q 1019 2294 894 2097 
L 366 2166 
L 809 4519 
L 3088 4519 
L 3088 3981 
L 1259 3981 
L 1013 2750 
Q 1425 3038 1878 3038 
Q 2478 3038 2890 2622 
Q 3303 2206 3303 1553 
Q 3303 931 2941 478 
Q 2500 -78 1738 -78 
Q 1113 -78 717 272 
Q 322 622 266 1200 
z
" transform="scale(0.015625)"/>
       </defs>
       <use xlink:href="#ArialMT-31" transform="translate(0 0.879688)"/>
       <use xlink:href="#ArialMT-30" transform="translate(55.615234 0.879688)"/>
       <use xlink:href="#ArialMT-35" transform="translate(112.972813 70.573438) scale(0.7)"/>
      </g>
     </g>
    </g>
    <g id="text_16">
     <!-- Unloaded detachment rate $k_0$ ($s^{-1}$) -->
     <g style="fill: #262626" transform="translate(44.245851 437.913313) rotate(-90) scale(0.24 -0.24)">
      <defs>
       <path id="ArialMT-55" d="M 3500 4581 
L 4106 4581 
L 4106 1934 
Q 4106 1244 3950 837 
Q 3794 431 3386 176 
Q 2978 -78 2316 -78 
Q 1672 -78 1262 144 
Q 853 366 678 786 
Q 503 1206 503 1934 
L 503 4581 
L 1109 4581 
L 1109 1938 
Q 1109 1341 1220 1058 
Q 1331 775 1601 622 
Q 1872 469 2263 469 
Q 2931 469 3215 772 
Q 3500 1075 3500 1938 
L 3500 4581 
z
" transform="scale(0.015625)"/>
       <path id="ArialMT-6c" d="M 409 0 
L 409 4581 
L 972 4581 
L 972 0 
L 409 0 
z
" transform="scale(0.015625)"/>
       <path id="ArialMT-6f" d="M 213 1659 
Q 213 2581 725 3025 
Q 1153 3394 1769 3394 
Q 2453 3394 2887 2945 
Q 3322 2497 3322 1706 
Q 3322 1066 3130 698 
Q 2938 331 2570 128 
Q 2203 -75 1769 -75 
Q 1072 -75 642 372 
Q 213 819 213 1659 
z
M 791 1659 
Q 791 1022 1069 705 
Q 1347 388 1769 388 
Q 2188 388 2466 706 
Q 2744 1025 2744 1678 
Q 2744 2294 2464 2611 
Q 2184 2928 1769 2928 
Q 1347 2928 1069 2612 
Q 791 2297 791 1659 
z
" transform="scale(0.015625)"/>
       <path id="ArialMT-64" d="M 2575 0 
L 2575 419 
Q 2259 -75 1647 -75 
Q 1250 -75 917 144 
Q 584 363 401 755 
Q 219 1147 219 1656 
Q 219 2153 384 2558 
Q 550 2963 881 3178 
Q 1213 3394 1622 3394 
Q 1922 3394 2156 3267 
Q 2391 3141 2538 2938 
L 2538 4581 
L 3097 4581 
L 3097 0 
L 2575 0 
z
M 797 1656 
Q 797 1019 1065 703 
Q 1334 388 1700 388 
Q 2069 388 2326 689 
Q 2584 991 2584 1609 
Q 2584 2291 2321 2609 
Q 2059 2928 1675 2928 
Q 1300 2928 1048 2622 
Q 797 2316 797 1656 
z
" transform="scale(0.015625)"/>
       <path id="ArialMT-68" d="M 422 0 
L 422 4581 
L 984 4581 
L 984 2938 
Q 1378 3394 1978 3394 
Q 2347 3394 2619 3248 
Q 2891 3103 3008 2847 
Q 3125 2591 3125 2103 
L 3125 0 
L 2563 0 
L 2563 2103 
Q 2563 2525 2380 2717 
Q 2197 2909 1863 2909 
Q 1613 2909 1392 2779 
Q 1172 2650 1078 2428 
Q 984 2206 984 1816 
L 984 0 
L 422 0 
z
" transform="scale(0.015625)"/>
       <path id="DejaVuSans-Oblique-6b" d="M 1172 4863 
L 1747 4863 
L 1197 2028 
L 3169 3500 
L 3916 3500 
L 1716 1825 
L 3322 0 
L 2625 0 
L 1131 1709 
L 800 0 
L 225 0 
L 1172 4863 
z
" transform="scale(0.015625)"/>
       <path id="DejaVuSans-30" d="M 2034 4250 
Q 1547 4250 1301 3770 
Q 1056 3291 1056 2328 
Q 1056 1369 1301 889 
Q 1547 409 2034 409 
Q 2525 409 2770 889 
Q 3016 1369 3016 2328 
Q 3016 3291 2770 3770 
Q 2525 4250 2034 4250 
z
M 2034 4750 
Q 2819 4750 3233 4129 
Q 3647 3509 3647 2328 
Q 3647 1150 3233 529 
Q 2819 -91 2034 -91 
Q 1250 -91 836 529 
Q 422 1150 422 2328 
Q 422 3509 836 4129 
Q 1250 4750 2034 4750 
z
" transform="scale(0.015625)"/>
       <path id="DejaVuSans-Oblique-73" d="M 3200 3397 
L 3091 2853 
Q 2863 2978 2609 3040 
Q 2356 3103 2088 3103 
Q 1634 3103 1373 2948 
Q 1113 2794 1113 2528 
Q 1113 2219 1719 2053 
Q 1766 2041 1788 2034 
L 1972 1978 
Q 2547 1819 2739 1644 
Q 2931 1469 2931 1166 
Q 2931 609 2489 259 
Q 2047 -91 1331 -91 
Q 1053 -91 747 -37 
Q 441 16 72 128 
L 184 722 
Q 500 559 806 475 
Q 1113 391 1394 391 
Q 1816 391 2080 572 
Q 2344 753 2344 1031 
Q 2344 1331 1650 1516 
L 1591 1531 
L 1394 1581 
Q 956 1697 753 1886 
Q 550 2075 550 2369 
Q 550 2928 970 3256 
Q 1391 3584 2113 3584 
Q 2397 3584 2667 3537 
Q 2938 3491 3200 3397 
z
" transform="scale(0.015625)"/>
       <path id="DejaVuSans-2212" d="M 678 2272 
L 4684 2272 
L 4684 1741 
L 678 1741 
L 678 2272 
z
" transform="scale(0.015625)"/>
       <path id="DejaVuSans-31" d="M 794 531 
L 1825 531 
L 1825 4091 
L 703 3866 
L 703 4441 
L 1819 4666 
L 2450 4666 
L 2450 531 
L 3481 531 
L 3481 0 
L 794 0 
L 794 531 
z
" transform="scale(0.015625)"/>
      </defs>
      <use xlink:href="#ArialMT-55" transform="translate(0 0.684375)"/>
      <use xlink:href="#ArialMT-6e" transform="translate(72.216797 0.684375)"/>
      <use xlink:href="#ArialMT-6c" transform="translate(127.832031 0.684375)"/>
      <use xlink:href="#ArialMT-6f" transform="translate(150.048828 0.684375)"/>
      <use xlink:href="#ArialMT-61" transform="translate(205.664062 0.684375)"/>
      <use xlink:href="#ArialMT-64" transform="translate(261.279297 0.684375)"/>
      <use xlink:href="#ArialMT-65" transform="translate(316.894531 0.684375)"/>
      <use xlink:href="#ArialMT-64" transform="translate(372.509766 0.684375)"/>
      <use xlink:href="#ArialMT-20" transform="translate(428.125 0.684375)"/>
      <use xlink:href="#ArialMT-64" transform="translate(455.908203 0.684375)"/>
      <use xlink:href="#ArialMT-65" transform="translate(511.523438 0.684375)"/>
      <use xlink:href="#ArialMT-74" transform="translate(567.138672 0.684375)"/>
      <use xlink:href="#ArialMT-61" transform="translate(594.921875 0.684375)"/>
      <use xlink:href="#ArialMT-63" transform="translate(650.537109 0.684375)"/>
      <use xlink:href="#ArialMT-68" transform="translate(700.537109 0.684375)"/>
      <use xlink:href="#ArialMT-6d" transform="translate(756.152344 0.684375)"/>
      <use xlink:href="#ArialMT-65" transform="translate(839.453125 0.684375)"/>
      <use xlink:href="#ArialMT-6e" transform="translate(895.068359 0.684375)"/>
      <use xlink:href="#ArialMT-74" transform="translate(950.683594 0.684375)"/>
      <use xlink:href="#ArialMT-20" transform="translate(978.466797 0.684375)"/>
      <use xlink:href="#ArialMT-72" transform="translate(1006.25 0.684375)"/>
      <use xlink:href="#ArialMT-61" transform="translate(1039.550781 0.684375)"/>
      <use xlink:href="#ArialMT-74" transform="translate(1095.166016 0.684375)"/>
      <use xlink:href="#ArialMT-65" transform="translate(1122.949219 0.684375)"/>
      <use xlink:href="#ArialMT-20" transform="translate(1178.564453 0.684375)"/>
      <use xlink:href="#DejaVuSans-Oblique-6b" transform="translate(1206.347656 0.684375)"/>
      <use xlink:href="#DejaVuSans-30" transform="translate(1264.257812 -15.721875) scale(0.7)"/>
      <use xlink:href="#ArialMT-20" transform="translate(1311.52832 0.684375)"/>
      <use xlink:href="#ArialMT-28" transform="translate(1339.311523 0.684375)"/>
      <use xlink:href="#DejaVuSans-Oblique-73" transform="translate(1372.612305 0.684375)"/>
      <use xlink:href="#DejaVuSans-2212" transform="translate(1429.36181 38.965625) scale(0.7)"/>
      <use xlink:href="#DejaVuSans-31" transform="translate(1488.014154 38.965625) scale(0.7)"/>
      <use xlink:href="#ArialMT-29" transform="translate(1535.284661 0.684375)"/>
     </g>
    </g>
   </g>
   <g id="QuadContourSet_1">
    <path d="M 177.801297 276.830231 
L 181.003559 275.2015 
L 177.801297 269.757268 
L 176.921187 275.2015 
z
M 115.338928 224.065125 
L 100.125851 208.929821 
L 100.125851 224.065125 
L 100.125851 227.074568 
z
M 114.895091 121.792375 
L 100.125851 118.548437 
L 100.125851 121.792375 
L 100.125851 123.059529 
z
" clip-path="url(#p51fefafd40)" style="fill: #00008d"/>
    <path d="M 177.801297 330.323997 
L 223.265616 326.337875 
L 223.677016 275.2015 
L 232.050672 243.731702 
L 273.74379 224.065125 
L 286.300046 175.698081 
L 296.472928 172.92875 
L 300.278948 121.792375 
L 286.300046 106.260423 
L 232.050672 85.781535 
L 177.801297 71.548131 
L 100.125851 91.654761 
L 100.125851 118.548437 
L 114.895091 121.792375 
L 100.125851 123.059529 
L 100.125851 172.92875 
L 100.125851 208.929821 
L 115.338928 224.065125 
L 100.125851 227.074568 
L 100.125851 275.2015 
L 100.125851 288.968319 
L 140.162536 326.337875 
z
M 176.921187 275.2015 
L 177.801297 269.757268 
L 181.003559 275.2015 
L 177.801297 276.830231 
z
M 286.300046 328.572245 
L 297.597741 326.337875 
L 309.983163 275.2015 
L 286.300046 246.183933 
L 275.610406 275.2015 
L 274.186225 326.337875 
z
M 340.549421 226.270527 
L 348.573003 224.065125 
L 340.549421 211.761288 
L 336.543074 224.065125 
z
" clip-path="url(#p51fefafd40)" style="fill: #0000e1"/>
    <path d="M 177.801297 337.5387 
L 232.050672 332.857096 
L 286.300046 338.136479 
L 316.800789 326.337875 
L 334.441283 275.2015 
L 340.549421 247.183316 
L 371.855406 224.065125 
L 340.549421 184.032587 
L 328.396169 172.92875 
L 336.59538 121.792375 
L 293.701207 70.656 
L 286.300046 70.656 
L 232.050672 70.656 
L 177.801297 70.656 
L 164.160125 70.656 
L 100.125851 79.843101 
L 100.125851 91.654761 
L 177.801297 71.548131 
L 232.050672 85.781535 
L 286.300046 106.260423 
L 300.278948 121.792375 
L 296.472928 172.92875 
L 286.300046 175.698081 
L 273.74379 224.065125 
L 232.050672 243.731702 
L 223.677016 275.2015 
L 223.265616 326.337875 
L 177.801297 330.323997 
L 140.162536 326.337875 
L 100.125851 288.968319 
L 100.125851 326.337875 
L 100.125851 334.604762 
z
M 274.186225 326.337875 
L 275.610406 275.2015 
L 286.300046 246.183933 
L 309.983163 275.2015 
L 297.597741 326.337875 
L 286.300046 328.572245 
z
M 336.543074 224.065125 
L 340.549421 211.761288 
L 348.573003 224.065125 
L 340.549421 226.270527 
z
M 394.798796 125.175483 
L 417.037411 121.792375 
L 394.798796 82.65022 
L 376.325656 121.792375 
z
" clip-path="url(#p51fefafd40)" style="fill: #4d4dff"/>
    <path d="M 394.798796 428.610625 
L 394.798796 428.610625 
L 394.798796 428.610625 
L 394.798796 428.610625 
z
M 177.801297 348.2932 
L 232.050672 350.376471 
L 286.300046 355.298677 
L 327.238204 326.337875 
L 340.549421 279.691528 
L 370.950901 275.2015 
L 383.334011 224.065125 
L 354.634583 172.92875 
L 394.798796 139.037717 
L 440.644836 121.792375 
L 433.754528 70.656 
L 394.798796 70.656 
L 340.549421 70.656 
L 293.701207 70.656 
L 336.59538 121.792375 
L 328.396169 172.92875 
L 340.549421 184.032587 
L 371.855406 224.065125 
L 340.549421 247.183316 
L 334.441283 275.2015 
L 316.800789 326.337875 
L 286.300046 338.136479 
L 232.050672 332.857096 
L 177.801297 337.5387 
L 100.125851 334.604762 
L 100.125851 359.407601 
z
M 376.325656 121.792375 
L 394.798796 82.65022 
L 417.037411 121.792375 
L 394.798796 125.175483 
z
M 164.160125 70.656 
L 113.908139 70.656 
L 100.125851 72.173418 
L 100.125851 79.843101 
z
" clip-path="url(#p51fefafd40)" style="fill: #c5c5ff"/>
    <path d="M 172.763838 377.47425 
L 177.801297 369.955726 
L 208.40443 377.47425 
L 232.050672 397.817634 
L 286.300046 393.694069 
L 340.549421 384.404575 
L 377.811126 377.47425 
L 340.549421 356.728847 
L 334.446189 326.337875 
L 340.549421 291.54484 
L 391.550414 326.337875 
L 394.798796 335.550454 
L 410.335834 326.337875 
L 394.798796 293.456992 
L 390.959674 275.2015 
L 391.018759 224.065125 
L 394.798796 175.791377 
L 435.457544 224.065125 
L 449.04817 241.211934 
L 449.04817 224.065125 
L 449.04817 172.92875 
L 449.04817 121.792375 
L 449.04817 70.656 
L 433.754528 70.656 
L 440.644836 121.792375 
L 394.798796 139.037717 
L 354.634583 172.92875 
L 383.334011 224.065125 
L 370.950901 275.2015 
L 340.549421 279.691528 
L 327.238204 326.337875 
L 286.300046 355.298677 
L 232.050672 350.376471 
L 177.801297 348.2932 
L 100.125851 359.407601 
L 100.125851 377.47425 
L 100.125851 428.610625 
L 164.97972 428.610625 
z
M 394.798796 428.610625 
L 394.798796 428.610625 
L 449.04817 428.610625 
L 449.04817 420.300964 
L 394.798796 389.553014 
L 384.193648 428.610625 
L 394.798796 428.610625 
z
M 113.908139 70.656 
L 100.125851 70.656 
L 100.125851 72.173418 
z
" clip-path="url(#p51fefafd40)" style="fill: #ffc5c5"/>
    <path d="M 177.801297 428.610625 
L 232.050672 428.610625 
L 286.300046 428.610625 
L 291.471524 428.610625 
L 340.549421 414.211698 
L 364.390732 428.610625 
L 384.193648 428.610625 
L 394.798796 389.553014 
L 449.04817 420.300964 
L 449.04817 394.558448 
L 435.345419 377.47425 
L 440.365513 326.337875 
L 449.04817 288.210838 
L 449.04817 275.2015 
L 449.04817 241.211934 
L 435.457544 224.065125 
L 394.798796 175.791377 
L 391.018759 224.065125 
L 390.959674 275.2015 
L 394.798796 293.456992 
L 410.335834 326.337875 
L 394.798796 335.550454 
L 391.550414 326.337875 
L 340.549421 291.54484 
L 334.446189 326.337875 
L 340.549421 356.728847 
L 377.811126 377.47425 
L 340.549421 384.404575 
L 286.300046 393.694069 
L 232.050672 397.817634 
L 208.40443 377.47425 
L 177.801297 369.955726 
L 172.763838 377.47425 
L 164.97972 428.610625 
z
M 339.957859 326.337875 
L 340.549421 318.678005 
L 354.889115 326.337875 
L 340.549421 328.213787 
z
" clip-path="url(#p51fefafd40)" style="fill: #ff4d4d"/>
    <path d="M 340.549421 428.610625 
L 364.390732 428.610625 
L 340.549421 414.211698 
L 291.471524 428.610625 
z
M 449.04817 394.558448 
L 449.04817 377.47425 
L 449.04817 326.337875 
L 449.04817 288.210838 
L 440.365513 326.337875 
L 435.345419 377.47425 
z
M 340.549421 328.213787 
L 354.889115 326.337875 
L 340.549421 318.678005 
L 339.957859 326.337875 
z
" clip-path="url(#p51fefafd40)" style="fill: #ea0000"/>
   </g>
   <g id="PathCollection_1">
    <defs>
     <path id="mfa5913b606" d="M -3.535534 7.071068 
L 0 3.535534 
L 3.535534 7.071068 
L 7.071068 3.535534 
L 3.535534 0 
L 7.071068 -3.535534 
L 3.535534 -7.071068 
L 0 -3.535534 
L -3.535534 -7.071068 
L -7.071068 -3.535534 
L -3.535534 0 
L -7.071068 3.535534 
z
" style="stroke: #000000"/>
    </defs>
    <g clip-path="url(#p51fefafd40)">
     <use xlink:href="#mfa5913b606" x="309.907421" y="232.761035" style="fill: #33ca84; stroke: #000000"/>
    </g>
   </g>
   <g id="PathCollection_2">
    <defs>
     <path id="m6f9126deb5" d="M 0 -8.660254 
L -1.944348 -2.676166 
L -8.236391 -2.676166 
L -3.146021 1.022204 
L -5.09037 7.006293 
L -0 3.307923 
L 5.09037 7.006293 
L 3.146021 1.022204 
L 8.236391 -2.676166 
L 1.944348 -2.676166 
z
" style="stroke: #000000"/>
    </defs>
    <g clip-path="url(#p51fefafd40)">
     <use xlink:href="#m6f9126deb5" x="345.663102" y="288.078251" style="fill: #bac284; stroke: #000000"/>
    </g>
   </g>
   <g id="PathCollection_3">
    <defs>
     <path id="m04113392d5" d="M -2.357023 7.071068 
L 2.357023 7.071068 
L 2.357023 2.357023 
L 7.071068 2.357023 
L 7.071068 -2.357023 
L 2.357023 -2.357023 
L 2.357023 -7.071068 
L -2.357023 -7.071068 
L -2.357023 -2.357023 
L -7.071068 -2.357023 
L -7.071068 2.357023 
L -2.357023 2.357023 
z
" style="stroke: #000000"/>
    </defs>
    <g clip-path="url(#p51fefafd40)">
     <use xlink:href="#m04113392d5" x="365.365276" y="315.899919" style="fill: #d15f02; stroke: #000000"/>
    </g>
   </g>
   <g id="patch_3">
    <path d="M 100.125851 428.610625 
L 100.125851 70.656 
" style="fill: none; stroke: #cccccc; stroke-width: 0.8; stroke-linejoin: miter; stroke-linecap: square"/>
   </g>
   <g id="patch_4">
    <path d="M 449.04817 428.610625 
L 449.04817 70.656 
" style="fill: none; stroke: #cccccc; stroke-width: 0.8; stroke-linejoin: miter; stroke-linecap: square"/>
   </g>
   <g id="patch_5">
    <path d="M 100.125851 428.610625 
L 449.04817 428.610625 
" style="fill: none; stroke: #cccccc; stroke-width: 0.8; stroke-linejoin: miter; stroke-linecap: square"/>
   </g>
   <g id="patch_6">
    <path d="M 100.125851 70.656 
L 449.04817 70.656 
" style="fill: none; stroke: #cccccc; stroke-width: 0.8; stroke-linejoin: miter; stroke-linecap: square"/>
   </g>
   <g id="text_17">
    <!-- Power stroke -->
    <g style="fill: #262626" transform="translate(204.565135 39.2715) scale(0.24 -0.24)">
     <defs>
      <path id="ArialMT-50" d="M 494 0 
L 494 4581 
L 2222 4581 
Q 2678 4581 2919 4538 
Q 3256 4481 3484 4323 
Q 3713 4166 3852 3881 
Q 3991 3597 3991 3256 
Q 3991 2672 3619 2267 
Q 3247 1863 2275 1863 
L 1100 1863 
L 1100 0 
L 494 0 
z
M 1100 2403 
L 2284 2403 
Q 2872 2403 3119 2622 
Q 3366 2841 3366 3238 
Q 3366 3525 3220 3729 
Q 3075 3934 2838 4000 
Q 2684 4041 2272 4041 
L 1100 4041 
L 1100 2403 
z
" transform="scale(0.015625)"/>
      <path id="ArialMT-77" d="M 1034 0 
L 19 3319 
L 600 3319 
L 1128 1403 
L 1325 691 
Q 1338 744 1497 1375 
L 2025 3319 
L 2603 3319 
L 3100 1394 
L 3266 759 
L 3456 1400 
L 4025 3319 
L 4572 3319 
L 3534 0 
L 2950 0 
L 2422 1988 
L 2294 2553 
L 1622 0 
L 1034 0 
z
" transform="scale(0.015625)"/>
      <path id="ArialMT-6b" d="M 425 0 
L 425 4581 
L 988 4581 
L 988 1969 
L 2319 3319 
L 3047 3319 
L 1778 2088 
L 3175 0 
L 2481 0 
L 1384 1697 
L 988 1316 
L 988 0 
L 425 0 
z
" transform="scale(0.015625)"/>
     </defs>
     <use xlink:href="#ArialMT-50"/>
     <use xlink:href="#ArialMT-6f" x="66.699219"/>
     <use xlink:href="#ArialMT-77" x="122.314453"/>
     <use xlink:href="#ArialMT-65" x="194.53125"/>
     <use xlink:href="#ArialMT-72" x="250.146484"/>
     <use xlink:href="#ArialMT-20" x="283.447266"/>
     <use xlink:href="#ArialMT-73" x="311.230469"/>
     <use xlink:href="#ArialMT-74" x="361.230469"/>
     <use xlink:href="#ArialMT-72" x="389.013672"/>
     <use xlink:href="#ArialMT-6f" x="422.314453"/>
     <use xlink:href="#ArialMT-6b" x="477.929688"/>
     <use xlink:href="#ArialMT-65" x="527.929688"/>
    </g>
    <!--  -->
    <g style="fill: #262626" transform="translate(274.58701 64.656) scale(0.24 -0.24)"/>
   </g>
   <g id="legend_1">
    <g id="patch_7">
     <path d="M 114.125851 172.34975 
L 238.150851 172.34975 
Q 242.150851 172.34975 242.150851 168.34975 
L 242.150851 84.656 
Q 242.150851 80.656 238.150851 80.656 
L 114.125851 80.656 
Q 110.125851 80.656 110.125851 84.656 
L 110.125851 168.34975 
Q 110.125851 172.34975 114.125851 172.34975 
z
" style="fill: #ffffff; opacity: 0.8; stroke: #cccccc; stroke-linejoin: miter"/>
    </g>
    <g id="PathCollection_4">
     <g>
      <use xlink:href="#mfa5913b606" x="138.125851" y="97.721625" style="fill: #33ca84; stroke: #000000"/>
     </g>
    </g>
    <g id="text_18">
     <!-- Myo5 -->
     <g style="fill: #262626" transform="translate(174.125851 102.971625) scale(0.2 -0.2)">
      <defs>
       <path id="ArialMT-4d" d="M 475 0 
L 475 4581 
L 1388 4581 
L 2472 1338 
Q 2622 884 2691 659 
Q 2769 909 2934 1394 
L 4031 4581 
L 4847 4581 
L 4847 0 
L 4263 0 
L 4263 3834 
L 2931 0 
L 2384 0 
L 1059 3900 
L 1059 0 
L 475 0 
z
" transform="scale(0.015625)"/>
       <path id="ArialMT-79" d="M 397 -1278 
L 334 -750 
Q 519 -800 656 -800 
Q 844 -800 956 -737 
Q 1069 -675 1141 -563 
Q 1194 -478 1313 -144 
Q 1328 -97 1363 -6 
L 103 3319 
L 709 3319 
L 1400 1397 
Q 1534 1031 1641 628 
Q 1738 1016 1872 1384 
L 2581 3319 
L 3144 3319 
L 1881 -56 
Q 1678 -603 1566 -809 
Q 1416 -1088 1222 -1217 
Q 1028 -1347 759 -1347 
Q 597 -1347 397 -1278 
z
" transform="scale(0.015625)"/>
      </defs>
      <use xlink:href="#ArialMT-4d"/>
      <use xlink:href="#ArialMT-79" x="83.300781"/>
      <use xlink:href="#ArialMT-6f" x="133.300781"/>
      <use xlink:href="#ArialMT-35" x="188.916016"/>
     </g>
    </g>
    <g id="PathCollection_5">
     <g>
      <use xlink:href="#m6f9126deb5" x="138.125851" y="126.306" style="fill: #bac284; stroke: #000000"/>
     </g>
    </g>
    <g id="text_19">
     <!-- Myo1c -->
     <g style="fill: #262626" transform="translate(174.125851 131.556) scale(0.2 -0.2)">
      <use xlink:href="#ArialMT-4d"/>
      <use xlink:href="#ArialMT-79" x="83.300781"/>
      <use xlink:href="#ArialMT-6f" x="133.300781"/>
      <use xlink:href="#ArialMT-31" x="188.916016"/>
      <use xlink:href="#ArialMT-63" x="244.53125"/>
     </g>
    </g>
    <g id="PathCollection_6">
     <g>
      <use xlink:href="#m04113392d5" x="138.125851" y="154.890375" style="fill: #d15f02; stroke: #000000"/>
     </g>
    </g>
    <g id="text_20">
     <!-- Myo1b -->
     <g style="fill: #262626" transform="translate(174.125851 160.140375) scale(0.2 -0.2)">
      <defs>
       <path id="ArialMT-62" d="M 941 0 
L 419 0 
L 419 4581 
L 981 4581 
L 981 2947 
Q 1338 3394 1891 3394 
Q 2197 3394 2470 3270 
Q 2744 3147 2920 2923 
Q 3097 2700 3197 2384 
Q 3297 2069 3297 1709 
Q 3297 856 2875 390 
Q 2453 -75 1863 -75 
Q 1275 -75 941 416 
L 941 0 
z
M 934 1684 
Q 934 1088 1097 822 
Q 1363 388 1816 388 
Q 2184 388 2453 708 
Q 2722 1028 2722 1663 
Q 2722 2313 2464 2622 
Q 2206 2931 1841 2931 
Q 1472 2931 1203 2611 
Q 934 2291 934 1684 
z
" transform="scale(0.015625)"/>
      </defs>
      <use xlink:href="#ArialMT-4d"/>
      <use xlink:href="#ArialMT-79" x="83.300781"/>
      <use xlink:href="#ArialMT-6f" x="133.300781"/>
      <use xlink:href="#ArialMT-31" x="188.916016"/>
      <use xlink:href="#ArialMT-62" x="244.53125"/>
     </g>
    </g>
   </g>
  </g>
  <g id="axes_2">
   <g id="patch_8">
    <path d="M 470.855815 428.610625 
L 488.753546 428.610625 
L 488.753546 70.656 
L 470.855815 70.656 
z
" style="fill: #ffffff"/>
   </g>
   <g id="matplotlib.axis_3"/>
   <g id="matplotlib.axis_4">
    <g id="ytick_8">
     <g id="line2d_15">
      <defs>
       <path id="me31586e936" d="M 0 0 
L 3.5 0 
" style="stroke: #262626; stroke-width: 0.8"/>
      </defs>
      <g>
       <use xlink:href="#me31586e936" x="488.753546" y="428.610625" style="fill: #262626; stroke: #262626; stroke-width: 0.8"/>
      </g>
     </g>
     <g id="text_21">
      <!-- −20 -->
      <g style="fill: #262626" transform="translate(495.753546 435.768438) scale(0.2 -0.2)">
       <use xlink:href="#ArialMT-2212"/>
       <use xlink:href="#ArialMT-32" x="58.398438"/>
       <use xlink:href="#ArialMT-30" x="114.013672"/>
      </g>
     </g>
    </g>
    <g id="ytick_9">
     <g id="line2d_16">
      <g>
       <use xlink:href="#me31586e936" x="488.753546" y="377.47425" style="fill: #262626; stroke: #262626; stroke-width: 0.8"/>
      </g>
     </g>
     <g id="text_22">
      <!-- −15 -->
      <g style="fill: #262626" transform="translate(495.753546 384.632062) scale(0.2 -0.2)">
       <use xlink:href="#ArialMT-2212"/>
       <use xlink:href="#ArialMT-31" x="58.398438"/>
       <use xlink:href="#ArialMT-35" x="114.013672"/>
      </g>
     </g>
    </g>
    <g id="ytick_10">
     <g id="line2d_17">
      <g>
       <use xlink:href="#me31586e936" x="488.753546" y="326.337875" style="fill: #262626; stroke: #262626; stroke-width: 0.8"/>
      </g>
     </g>
     <g id="text_23">
      <!-- −10 -->
      <g style="fill: #262626" transform="translate(495.753546 333.495688) scale(0.2 -0.2)">
       <use xlink:href="#ArialMT-2212"/>
       <use xlink:href="#ArialMT-31" x="58.398438"/>
       <use xlink:href="#ArialMT-30" x="114.013672"/>
      </g>
     </g>
    </g>
    <g id="ytick_11">
     <g id="line2d_18">
      <g>
       <use xlink:href="#me31586e936" x="488.753546" y="275.2015" style="fill: #262626; stroke: #262626; stroke-width: 0.8"/>
      </g>
     </g>
     <g id="text_24">
      <!-- −5 -->
      <g style="fill: #262626" transform="translate(495.753546 282.359312) scale(0.2 -0.2)">
       <use xlink:href="#ArialMT-2212"/>
       <use xlink:href="#ArialMT-35" x="58.398438"/>
      </g>
     </g>
    </g>
    <g id="ytick_12">
     <g id="line2d_19">
      <g>
       <use xlink:href="#me31586e936" x="488.753546" y="224.065125" style="fill: #262626; stroke: #262626; stroke-width: 0.8"/>
      </g>
     </g>
     <g id="text_25">
      <!-- 0 -->
      <g style="fill: #262626" transform="translate(495.753546 231.222938) scale(0.2 -0.2)">
       <use xlink:href="#ArialMT-30"/>
      </g>
     </g>
    </g>
    <g id="ytick_13">
     <g id="line2d_20">
      <g>
       <use xlink:href="#me31586e936" x="488.753546" y="172.92875" style="fill: #262626; stroke: #262626; stroke-width: 0.8"/>
      </g>
     </g>
     <g id="text_26">
      <!-- 5 -->
      <g style="fill: #262626" transform="translate(495.753546 180.086563) scale(0.2 -0.2)">
       <use xlink:href="#ArialMT-35"/>
      </g>
     </g>
    </g>
    <g id="ytick_14">
     <g id="line2d_21">
      <g>
       <use xlink:href="#me31586e936" x="488.753546" y="121.792375" style="fill: #262626; stroke: #262626; stroke-width: 0.8"/>
      </g>
     </g>
     <g id="text_27">
      <!-- 10 -->
      <g style="fill: #262626" transform="translate(495.753546 128.950187) scale(0.2 -0.2)">
       <use xlink:href="#ArialMT-31"/>
       <use xlink:href="#ArialMT-30" x="55.615234"/>
      </g>
     </g>
    </g>
    <g id="ytick_15">
     <g id="line2d_22">
      <g>
       <use xlink:href="#me31586e936" x="488.753546" y="70.656" style="fill: #262626; stroke: #262626; stroke-width: 0.8"/>
      </g>
     </g>
     <g id="text_28">
      <!-- 15 -->
      <g style="fill: #262626" transform="translate(495.753546 77.813813) scale(0.2 -0.2)">
       <use xlink:href="#ArialMT-31"/>
       <use xlink:href="#ArialMT-35" x="55.615234"/>
      </g>
     </g>
    </g>
    <g id="text_29">
     <!-- % Change in retraction time -->
     <g style="fill: #262626" transform="translate(551.149796 397.696438) rotate(-90) scale(0.24 -0.24)">
      <defs>
       <path id="ArialMT-25" d="M 372 3481 
Q 372 3972 619 4315 
Q 866 4659 1334 4659 
Q 1766 4659 2048 4351 
Q 2331 4044 2331 3447 
Q 2331 2866 2045 2552 
Q 1759 2238 1341 2238 
Q 925 2238 648 2547 
Q 372 2856 372 3481 
z
M 1350 4272 
Q 1141 4272 1002 4090 
Q 863 3909 863 3425 
Q 863 2984 1003 2804 
Q 1144 2625 1350 2625 
Q 1563 2625 1702 2806 
Q 1841 2988 1841 3469 
Q 1841 3913 1700 4092 
Q 1559 4272 1350 4272 
z
M 1353 -169 
L 3859 4659 
L 4316 4659 
L 1819 -169 
L 1353 -169 
z
M 3334 1075 
Q 3334 1569 3581 1911 
Q 3828 2253 4300 2253 
Q 4731 2253 5014 1945 
Q 5297 1638 5297 1041 
Q 5297 459 5011 145 
Q 4725 -169 4303 -169 
Q 3888 -169 3611 142 
Q 3334 453 3334 1075 
z
M 4316 1866 
Q 4103 1866 3964 1684 
Q 3825 1503 3825 1019 
Q 3825 581 3965 400 
Q 4106 219 4313 219 
Q 4528 219 4667 400 
Q 4806 581 4806 1063 
Q 4806 1506 4665 1686 
Q 4525 1866 4316 1866 
z
" transform="scale(0.015625)"/>
       <path id="ArialMT-43" d="M 3763 1606 
L 4369 1453 
Q 4178 706 3683 314 
Q 3188 -78 2472 -78 
Q 1731 -78 1267 223 
Q 803 525 561 1097 
Q 319 1669 319 2325 
Q 319 3041 592 3573 
Q 866 4106 1370 4382 
Q 1875 4659 2481 4659 
Q 3169 4659 3637 4309 
Q 4106 3959 4291 3325 
L 3694 3184 
Q 3534 3684 3231 3912 
Q 2928 4141 2469 4141 
Q 1941 4141 1586 3887 
Q 1231 3634 1087 3207 
Q 944 2781 944 2328 
Q 944 1744 1114 1308 
Q 1284 872 1643 656 
Q 2003 441 2422 441 
Q 2931 441 3284 734 
Q 3638 1028 3763 1606 
z
" transform="scale(0.015625)"/>
       <path id="ArialMT-67" d="M 319 -275 
L 866 -356 
Q 900 -609 1056 -725 
Q 1266 -881 1628 -881 
Q 2019 -881 2231 -725 
Q 2444 -569 2519 -288 
Q 2563 -116 2559 434 
Q 2191 0 1641 0 
Q 956 0 581 494 
Q 206 988 206 1678 
Q 206 2153 378 2554 
Q 550 2956 876 3175 
Q 1203 3394 1644 3394 
Q 2231 3394 2613 2919 
L 2613 3319 
L 3131 3319 
L 3131 450 
Q 3131 -325 2973 -648 
Q 2816 -972 2473 -1159 
Q 2131 -1347 1631 -1347 
Q 1038 -1347 672 -1080 
Q 306 -813 319 -275 
z
M 784 1719 
Q 784 1066 1043 766 
Q 1303 466 1694 466 
Q 2081 466 2343 764 
Q 2606 1063 2606 1700 
Q 2606 2309 2336 2618 
Q 2066 2928 1684 2928 
Q 1309 2928 1046 2623 
Q 784 2319 784 1719 
z
" transform="scale(0.015625)"/>
      </defs>
      <use xlink:href="#ArialMT-25"/>
      <use xlink:href="#ArialMT-20" x="88.916016"/>
      <use xlink:href="#ArialMT-43" x="116.699219"/>
      <use xlink:href="#ArialMT-68" x="188.916016"/>
      <use xlink:href="#ArialMT-61" x="244.53125"/>
      <use xlink:href="#ArialMT-6e" x="300.146484"/>
      <use xlink:href="#ArialMT-67" x="355.761719"/>
      <use xlink:href="#ArialMT-65" x="411.376953"/>
      <use xlink:href="#ArialMT-20" x="466.992188"/>
      <use xlink:href="#ArialMT-69" x="494.775391"/>
      <use xlink:href="#ArialMT-6e" x="516.992188"/>
      <use xlink:href="#ArialMT-20" x="572.607422"/>
      <use xlink:href="#ArialMT-72" x="600.390625"/>
      <use xlink:href="#ArialMT-65" x="633.691406"/>
      <use xlink:href="#ArialMT-74" x="689.306641"/>
      <use xlink:href="#ArialMT-72" x="717.089844"/>
      <use xlink:href="#ArialMT-61" x="750.390625"/>
      <use xlink:href="#ArialMT-63" x="806.005859"/>
      <use xlink:href="#ArialMT-74" x="856.005859"/>
      <use xlink:href="#ArialMT-69" x="883.789062"/>
      <use xlink:href="#ArialMT-6f" x="906.005859"/>
      <use xlink:href="#ArialMT-6e" x="961.621094"/>
      <use xlink:href="#ArialMT-20" x="1017.236328"/>
      <use xlink:href="#ArialMT-74" x="1045.019531"/>
      <use xlink:href="#ArialMT-69" x="1072.802734"/>
      <use xlink:href="#ArialMT-6d" x="1095.019531"/>
      <use xlink:href="#ArialMT-65" x="1178.320312"/>
     </g>
    </g>
   </g>
   <g id="QuadMesh_1">
    <path d="M 470.855815 428.610625 
L 488.753546 428.610625 
L 488.753546 377.47425 
L 470.855815 377.47425 
L 470.855815 428.610625 
" clip-path="url(#p3c236d8e0c)" style="fill: #00008d"/>
    <path d="M 470.855815 377.47425 
L 488.753546 377.47425 
L 488.753546 326.337875 
L 470.855815 326.337875 
L 470.855815 377.47425 
" clip-path="url(#p3c236d8e0c)" style="fill: #0000e1"/>
    <path d="M 470.855815 326.337875 
L 488.753546 326.337875 
L 488.753546 275.2015 
L 470.855815 275.2015 
L 470.855815 326.337875 
" clip-path="url(#p3c236d8e0c)" style="fill: #4d4dff"/>
    <path d="M 470.855815 275.2015 
L 488.753546 275.2015 
L 488.753546 224.065125 
L 470.855815 224.065125 
L 470.855815 275.2015 
" clip-path="url(#p3c236d8e0c)" style="fill: #c5c5ff"/>
    <path d="M 470.855815 224.065125 
L 488.753546 224.065125 
L 488.753546 172.92875 
L 470.855815 172.92875 
L 470.855815 224.065125 
" clip-path="url(#p3c236d8e0c)" style="fill: #ffc5c5"/>
    <path d="M 470.855815 172.92875 
L 488.753546 172.92875 
L 488.753546 121.792375 
L 470.855815 121.792375 
L 470.855815 172.92875 
" clip-path="url(#p3c236d8e0c)" style="fill: #ff4d4d"/>
    <path d="M 470.855815 121.792375 
L 488.753546 121.792375 
L 488.753546 70.656 
L 470.855815 70.656 
L 470.855815 121.792375 
" clip-path="url(#p3c236d8e0c)" style="fill: #ea0000"/>
   </g>
   <g id="LineCollection_1"/>
   <g id="patch_9">
    <path d="M 470.855815 428.610625 
L 479.804681 428.610625 
L 488.753546 428.610625 
L 488.753546 70.656 
L 479.804681 70.656 
L 470.855815 70.656 
L 470.855815 428.610625 
z
" style="fill: none; stroke: #cccccc; stroke-width: 0.8; stroke-linejoin: miter; stroke-linecap: square"/>
   </g>
  </g>
  <g id="axes_3">
   <g id="patch_10">
    <path d="M 100.125851 921.86125 
L 449.04817 921.86125 
L 449.04817 563.906625 
L 100.125851 563.906625 
z
" style="fill: #ffffff"/>
   </g>
   <g id="matplotlib.axis_5">
    <g id="xtick_8">
     <g id="line2d_23">
      <path d="M 100.125851 921.86125 
L 100.125851 563.906625 
" clip-path="url(#p6843bf8c61)" style="fill: none; stroke: #cccccc; stroke-width: 0.8; stroke-linecap: round"/>
     </g>
     <g id="text_30">
      <!-- $\mathdefault{0}$ -->
      <g style="fill: #262626" transform="translate(94.525851 943.176875) scale(0.2 -0.2)">
       <use xlink:href="#ArialMT-30" transform="translate(0 0.125)"/>
      </g>
     </g>
    </g>
    <g id="xtick_9">
     <g id="line2d_24">
      <path d="M 130.264392 921.86125 
L 130.264392 563.906625 
" clip-path="url(#p6843bf8c61)" style="fill: none; stroke: #cccccc; stroke-width: 0.8; stroke-linecap: round"/>
     </g>
     <g id="text_31">
      <!-- $\mathdefault{10^{-3}}$ -->
      <g style="fill: #262626" transform="translate(110.464392 949.48625) scale(0.2 -0.2)">
       <use xlink:href="#ArialMT-31" transform="translate(0 0.99375)"/>
       <use xlink:href="#ArialMT-30" transform="translate(55.615234 0.99375)"/>
       <use xlink:href="#ArialMT-2212" transform="translate(112.972813 70.6875) scale(0.7)"/>
       <use xlink:href="#ArialMT-33" transform="translate(153.851719 70.6875) scale(0.7)"/>
      </g>
     </g>
    </g>
    <g id="xtick_10">
     <g id="line2d_25">
      <path d="M 198.321619 921.86125 
L 198.321619 563.906625 
" clip-path="url(#p6843bf8c61)" style="fill: none; stroke: #cccccc; stroke-width: 0.8; stroke-linecap: round"/>
     </g>
     <g id="text_32">
      <!-- $\mathdefault{10^{-2}}$ -->
      <g style="fill: #262626" transform="translate(178.521619 949.48625) scale(0.2 -0.2)">
       <use xlink:href="#ArialMT-31" transform="translate(0 0.99375)"/>
       <use xlink:href="#ArialMT-30" transform="translate(55.615234 0.99375)"/>
       <use xlink:href="#ArialMT-2212" transform="translate(112.972813 70.6875) scale(0.7)"/>
       <use xlink:href="#ArialMT-32" transform="translate(153.851719 70.6875) scale(0.7)"/>
      </g>
     </g>
    </g>
    <g id="xtick_11">
     <g id="line2d_26">
      <path d="M 252.570994 921.86125 
L 252.570994 563.906625 
" clip-path="url(#p6843bf8c61)" style="fill: none; stroke: #cccccc; stroke-width: 0.8; stroke-linecap: round"/>
     </g>
     <g id="text_33">
      <!-- $\mathdefault{10^{-1}}$ -->
      <g style="fill: #262626" transform="translate(232.770994 949.48625) scale(0.2 -0.2)">
       <use xlink:href="#ArialMT-31" transform="translate(0 0.99375)"/>
       <use xlink:href="#ArialMT-30" transform="translate(55.615234 0.99375)"/>
       <use xlink:href="#ArialMT-2212" transform="translate(112.972813 70.6875) scale(0.7)"/>
       <use xlink:href="#ArialMT-31" transform="translate(153.851719 70.6875) scale(0.7)"/>
      </g>
     </g>
    </g>
    <g id="xtick_12">
     <g id="line2d_27">
      <path d="M 306.820368 921.86125 
L 306.820368 563.906625 
" clip-path="url(#p6843bf8c61)" style="fill: none; stroke: #cccccc; stroke-width: 0.8; stroke-linecap: round"/>
     </g>
     <g id="text_34">
      <!-- $\mathdefault{10^{0}}$ -->
      <g style="fill: #262626" transform="translate(291.120368 949.48625) scale(0.2 -0.2)">
       <use xlink:href="#ArialMT-31" transform="translate(0 0.99375)"/>
       <use xlink:href="#ArialMT-30" transform="translate(55.615234 0.99375)"/>
       <use xlink:href="#ArialMT-30" transform="translate(112.972813 70.6875) scale(0.7)"/>
      </g>
     </g>
    </g>
    <g id="xtick_13">
     <g id="line2d_28">
      <path d="M 361.069743 921.86125 
L 361.069743 563.906625 
" clip-path="url(#p6843bf8c61)" style="fill: none; stroke: #cccccc; stroke-width: 0.8; stroke-linecap: round"/>
     </g>
     <g id="text_35">
      <!-- $\mathdefault{10^{1}}$ -->
      <g style="fill: #262626" transform="translate(345.369743 949.48625) scale(0.2 -0.2)">
       <use xlink:href="#ArialMT-31" transform="translate(0 0.99375)"/>
       <use xlink:href="#ArialMT-30" transform="translate(55.615234 0.99375)"/>
       <use xlink:href="#ArialMT-31" transform="translate(112.972813 70.6875) scale(0.7)"/>
      </g>
     </g>
    </g>
    <g id="xtick_14">
     <g id="line2d_29">
      <path d="M 415.319118 921.86125 
L 415.319118 563.906625 
" clip-path="url(#p6843bf8c61)" style="fill: none; stroke: #cccccc; stroke-width: 0.8; stroke-linecap: round"/>
     </g>
     <g id="text_36">
      <!-- $\mathdefault{10^{2}}$ -->
      <g style="fill: #262626" transform="translate(399.619118 949.48625) scale(0.2 -0.2)">
       <use xlink:href="#ArialMT-31" transform="translate(0 0.99375)"/>
       <use xlink:href="#ArialMT-30" transform="translate(55.615234 0.99375)"/>
       <use xlink:href="#ArialMT-32" transform="translate(112.972813 70.6875) scale(0.7)"/>
      </g>
     </g>
    </g>
    <g id="text_37">
     <!-- Distance parameter $d$ ($nm$) -->
     <g style="fill: #262626" transform="translate(128.18701 975.70125) scale(0.24 -0.24)">
      <use xlink:href="#ArialMT-44" transform="translate(0 0.015625)"/>
      <use xlink:href="#ArialMT-69" transform="translate(72.216797 0.015625)"/>
      <use xlink:href="#ArialMT-73" transform="translate(94.433594 0.015625)"/>
      <use xlink:href="#ArialMT-74" transform="translate(144.433594 0.015625)"/>
      <use xlink:href="#ArialMT-61" transform="translate(172.216797 0.015625)"/>
      <use xlink:href="#ArialMT-6e" transform="translate(227.832031 0.015625)"/>
      <use xlink:href="#ArialMT-63" transform="translate(283.447266 0.015625)"/>
      <use xlink:href="#ArialMT-65" transform="translate(333.447266 0.015625)"/>
      <use xlink:href="#ArialMT-20" transform="translate(389.0625 0.015625)"/>
      <use xlink:href="#ArialMT-70" transform="translate(416.845703 0.015625)"/>
      <use xlink:href="#ArialMT-61" transform="translate(472.460938 0.015625)"/>
      <use xlink:href="#ArialMT-72" transform="translate(528.076172 0.015625)"/>
      <use xlink:href="#ArialMT-61" transform="translate(561.376953 0.015625)"/>
      <use xlink:href="#ArialMT-6d" transform="translate(616.992188 0.015625)"/>
      <use xlink:href="#ArialMT-65" transform="translate(700.292969 0.015625)"/>
      <use xlink:href="#ArialMT-74" transform="translate(755.908203 0.015625)"/>
      <use xlink:href="#ArialMT-65" transform="translate(783.691406 0.015625)"/>
      <use xlink:href="#ArialMT-72" transform="translate(839.306641 0.015625)"/>
      <use xlink:href="#ArialMT-20" transform="translate(872.607422 0.015625)"/>
      <use xlink:href="#DejaVuSans-Oblique-64" transform="translate(900.390625 0.015625)"/>
      <use xlink:href="#ArialMT-20" transform="translate(963.867188 0.015625)"/>
      <use xlink:href="#ArialMT-28" transform="translate(991.650391 0.015625)"/>
      <use xlink:href="#DejaVuSans-Oblique-6e" transform="translate(1024.951172 0.015625)"/>
      <use xlink:href="#DejaVuSans-Oblique-6d" transform="translate(1088.330078 0.015625)"/>
      <use xlink:href="#ArialMT-29" transform="translate(1185.742188 0.015625)"/>
     </g>
    </g>
   </g>
   <g id="matplotlib.axis_6">
    <g id="ytick_16">
     <g id="line2d_30">
      <path d="M 100.125851 870.724875 
L 449.04817 870.724875 
" clip-path="url(#p6843bf8c61)" style="fill: none; stroke: #cccccc; stroke-width: 0.8; stroke-linecap: round"/>
     </g>
     <g id="text_38">
      <!-- $\mathdefault{10^{-1}}$ -->
      <g style="fill: #262626" transform="translate(53.525851 881.037375) scale(0.2 -0.2)">
       <use xlink:href="#ArialMT-31" transform="translate(0 0.99375)"/>
       <use xlink:href="#ArialMT-30" transform="translate(55.615234 0.99375)"/>
       <use xlink:href="#ArialMT-2212" transform="translate(112.972813 70.6875) scale(0.7)"/>
       <use xlink:href="#ArialMT-31" transform="translate(153.851719 70.6875) scale(0.7)"/>
      </g>
     </g>
    </g>
    <g id="ytick_17">
     <g id="line2d_31">
      <path d="M 100.125851 819.5885 
L 449.04817 819.5885 
" clip-path="url(#p6843bf8c61)" style="fill: none; stroke: #cccccc; stroke-width: 0.8; stroke-linecap: round"/>
     </g>
     <g id="text_39">
      <!-- $\mathdefault{10^{0}}$ -->
      <g style="fill: #262626" transform="translate(61.725851 829.901) scale(0.2 -0.2)">
       <use xlink:href="#ArialMT-31" transform="translate(0 0.99375)"/>
       <use xlink:href="#ArialMT-30" transform="translate(55.615234 0.99375)"/>
       <use xlink:href="#ArialMT-30" transform="translate(112.972813 70.6875) scale(0.7)"/>
      </g>
     </g>
    </g>
    <g id="ytick_18">
     <g id="line2d_32">
      <path d="M 100.125851 768.452125 
L 449.04817 768.452125 
" clip-path="url(#p6843bf8c61)" style="fill: none; stroke: #cccccc; stroke-width: 0.8; stroke-linecap: round"/>
     </g>
     <g id="text_40">
      <!-- $\mathdefault{10^{1}}$ -->
      <g style="fill: #262626" transform="translate(61.725851 778.764625) scale(0.2 -0.2)">
       <use xlink:href="#ArialMT-31" transform="translate(0 0.99375)"/>
       <use xlink:href="#ArialMT-30" transform="translate(55.615234 0.99375)"/>
       <use xlink:href="#ArialMT-31" transform="translate(112.972813 70.6875) scale(0.7)"/>
      </g>
     </g>
    </g>
    <g id="ytick_19">
     <g id="line2d_33">
      <path d="M 100.125851 717.31575 
L 449.04817 717.31575 
" clip-path="url(#p6843bf8c61)" style="fill: none; stroke: #cccccc; stroke-width: 0.8; stroke-linecap: round"/>
     </g>
     <g id="text_41">
      <!-- $\mathdefault{10^{2}}$ -->
      <g style="fill: #262626" transform="translate(61.725851 727.62825) scale(0.2 -0.2)">
       <use xlink:href="#ArialMT-31" transform="translate(0 0.99375)"/>
       <use xlink:href="#ArialMT-30" transform="translate(55.615234 0.99375)"/>
       <use xlink:href="#ArialMT-32" transform="translate(112.972813 70.6875) scale(0.7)"/>
      </g>
     </g>
    </g>
    <g id="ytick_20">
     <g id="line2d_34">
      <path d="M 100.125851 666.179375 
L 449.04817 666.179375 
" clip-path="url(#p6843bf8c61)" style="fill: none; stroke: #cccccc; stroke-width: 0.8; stroke-linecap: round"/>
     </g>
     <g id="text_42">
      <!-- $\mathdefault{10^{3}}$ -->
      <g style="fill: #262626" transform="translate(61.725851 676.491875) scale(0.2 -0.2)">
       <use xlink:href="#ArialMT-31" transform="translate(0 0.99375)"/>
       <use xlink:href="#ArialMT-30" transform="translate(55.615234 0.99375)"/>
       <use xlink:href="#ArialMT-33" transform="translate(112.972813 70.6875) scale(0.7)"/>
      </g>
     </g>
    </g>
    <g id="ytick_21">
     <g id="line2d_35">
      <path d="M 100.125851 615.043 
L 449.04817 615.043 
" clip-path="url(#p6843bf8c61)" style="fill: none; stroke: #cccccc; stroke-width: 0.8; stroke-linecap: round"/>
     </g>
     <g id="text_43">
      <!-- $\mathdefault{10^{4}}$ -->
      <g style="fill: #262626" transform="translate(61.725851 625.2555) scale(0.2 -0.2)">
       <use xlink:href="#ArialMT-31" transform="translate(0 0.201563)"/>
       <use xlink:href="#ArialMT-30" transform="translate(55.615234 0.201563)"/>
       <use xlink:href="#ArialMT-34" transform="translate(112.972813 69.895313) scale(0.7)"/>
      </g>
     </g>
    </g>
    <g id="ytick_22">
     <g id="line2d_36">
      <path d="M 100.125851 563.906625 
L 449.04817 563.906625 
" clip-path="url(#p6843bf8c61)" style="fill: none; stroke: #cccccc; stroke-width: 0.8; stroke-linecap: round"/>
     </g>
     <g id="text_44">
      <!-- $\mathdefault{10^{5}}$ -->
      <g style="fill: #262626" transform="translate(61.725851 574.119125) scale(0.2 -0.2)">
       <use xlink:href="#ArialMT-31" transform="translate(0 0.879688)"/>
       <use xlink:href="#ArialMT-30" transform="translate(55.615234 0.879688)"/>
       <use xlink:href="#ArialMT-35" transform="translate(112.972813 70.573438) scale(0.7)"/>
      </g>
     </g>
    </g>
    <g id="text_45">
     <!-- Unloaded detachment rate $k_0$ ($s^{-1}$) -->
     <g style="fill: #262626" transform="translate(44.245851 931.163937) rotate(-90) scale(0.24 -0.24)">
      <use xlink:href="#ArialMT-55" transform="translate(0 0.684375)"/>
      <use xlink:href="#ArialMT-6e" transform="translate(72.216797 0.684375)"/>
      <use xlink:href="#ArialMT-6c" transform="translate(127.832031 0.684375)"/>
      <use xlink:href="#ArialMT-6f" transform="translate(150.048828 0.684375)"/>
      <use xlink:href="#ArialMT-61" transform="translate(205.664062 0.684375)"/>
      <use xlink:href="#ArialMT-64" transform="translate(261.279297 0.684375)"/>
      <use xlink:href="#ArialMT-65" transform="translate(316.894531 0.684375)"/>
      <use xlink:href="#ArialMT-64" transform="translate(372.509766 0.684375)"/>
      <use xlink:href="#ArialMT-20" transform="translate(428.125 0.684375)"/>
      <use xlink:href="#ArialMT-64" transform="translate(455.908203 0.684375)"/>
      <use xlink:href="#ArialMT-65" transform="translate(511.523438 0.684375)"/>
      <use xlink:href="#ArialMT-74" transform="translate(567.138672 0.684375)"/>
      <use xlink:href="#ArialMT-61" transform="translate(594.921875 0.684375)"/>
      <use xlink:href="#ArialMT-63" transform="translate(650.537109 0.684375)"/>
      <use xlink:href="#ArialMT-68" transform="translate(700.537109 0.684375)"/>
      <use xlink:href="#ArialMT-6d" transform="translate(756.152344 0.684375)"/>
      <use xlink:href="#ArialMT-65" transform="translate(839.453125 0.684375)"/>
      <use xlink:href="#ArialMT-6e" transform="translate(895.068359 0.684375)"/>
      <use xlink:href="#ArialMT-74" transform="translate(950.683594 0.684375)"/>
      <use xlink:href="#ArialMT-20" transform="translate(978.466797 0.684375)"/>
      <use xlink:href="#ArialMT-72" transform="translate(1006.25 0.684375)"/>
      <use xlink:href="#ArialMT-61" transform="translate(1039.550781 0.684375)"/>
      <use xlink:href="#ArialMT-74" transform="translate(1095.166016 0.684375)"/>
      <use xlink:href="#ArialMT-65" transform="translate(1122.949219 0.684375)"/>
      <use xlink:href="#ArialMT-20" transform="translate(1178.564453 0.684375)"/>
      <use xlink:href="#DejaVuSans-Oblique-6b" transform="translate(1206.347656 0.684375)"/>
      <use xlink:href="#DejaVuSans-30" transform="translate(1264.257812 -15.721875) scale(0.7)"/>
      <use xlink:href="#ArialMT-20" transform="translate(1311.52832 0.684375)"/>
      <use xlink:href="#ArialMT-28" transform="translate(1339.311523 0.684375)"/>
      <use xlink:href="#DejaVuSans-Oblique-73" transform="translate(1372.612305 0.684375)"/>
      <use xlink:href="#DejaVuSans-2212" transform="translate(1429.36181 38.965625) scale(0.7)"/>
      <use xlink:href="#DejaVuSans-31" transform="translate(1488.014154 38.965625) scale(0.7)"/>
      <use xlink:href="#ArialMT-29" transform="translate(1535.284661 0.684375)"/>
     </g>
    </g>
   </g>
   <g id="QuadContourSet_2">
    <path d="M 177.801297 771.821013 
L 206.722621 768.452125 
L 177.801297 748.758088 
L 172.716 768.452125 
z
M 340.549421 721.875036 
L 358.214959 717.31575 
L 340.549421 687.651027 
L 315.544588 717.31575 
z
" clip-path="url(#p6843bf8c61)" style="fill: #000052"/>
    <path d="M 121.170192 819.5885 
L 100.125851 793.208582 
L 100.125851 819.5885 
L 100.125851 821.695899 
z
M 177.801297 782.677722 
L 229.850874 768.452125 
L 177.801297 729.426132 
L 143.971411 768.452125 
z
M 172.716 768.452125 
L 177.801297 748.758088 
L 206.722621 768.452125 
L 177.801297 771.821013 
z
M 286.300046 727.01588 
L 340.549421 733.106611 
L 373.570068 717.31575 
L 340.549421 669.310725 
L 286.300046 672.664478 
L 279.07284 717.31575 
z
M 315.544588 717.31575 
L 340.549421 687.651027 
L 358.214959 717.31575 
L 340.549421 721.875036 
z
M 177.801297 667.814935 
L 192.691468 666.179375 
L 177.801297 636.298794 
L 100.125851 624.667828 
L 100.125851 666.179375 
L 100.125851 686.197935 
z
M 394.798796 566.648654 
L 409.508738 563.906625 
L 394.798796 563.906625 
L 382.351682 563.906625 
z
" clip-path="url(#p6843bf8c61)" style="fill: #0000b7"/>
    <path d="M 172.985178 819.5885 
L 177.801297 804.785672 
L 232.050672 785.957338 
L 278.718828 819.5885 
L 286.300046 822.793153 
L 304.916388 819.5885 
L 286.300046 780.492199 
L 281.642965 768.452125 
L 286.300046 753.648759 
L 340.549421 756.948496 
L 382.788528 717.31575 
L 382.738945 666.179375 
L 340.549421 624.143154 
L 332.754902 615.043 
L 340.549421 581.768766 
L 394.798796 582.52146 
L 433.805597 563.906625 
L 409.508738 563.906625 
L 394.798796 566.648654 
L 382.351682 563.906625 
L 340.549421 563.906625 
L 286.300046 563.906625 
L 232.050672 563.906625 
L 177.801297 563.906625 
L 167.243333 563.906625 
L 100.125851 584.16763 
L 100.125851 615.043 
L 100.125851 624.667828 
L 177.801297 636.298794 
L 192.691468 666.179375 
L 177.801297 667.814935 
L 100.125851 686.197935 
L 100.125851 717.31575 
L 100.125851 768.452125 
L 100.125851 793.208582 
L 121.170192 819.5885 
L 100.125851 821.695899 
L 100.125851 832.557589 
z
M 143.971411 768.452125 
L 177.801297 729.426132 
L 229.850874 768.452125 
L 177.801297 782.677722 
z
M 170.605097 717.31575 
L 177.801297 695.714432 
L 232.050672 666.531939 
L 264.647253 717.31575 
L 232.050672 731.055664 
L 177.801297 719.24994 
z
M 279.07284 717.31575 
L 286.300046 672.664478 
L 340.549421 669.310725 
L 373.570068 717.31575 
L 340.549421 733.106611 
L 286.300046 727.01588 
z
" clip-path="url(#p6843bf8c61)" style="fill: #2929ff"/>
    <path d="M 177.801297 833.898539 
L 232.050672 836.833842 
L 286.300046 845.648457 
L 332.768859 819.5885 
L 340.549421 784.984842 
L 372.66073 768.452125 
L 389.397388 717.31575 
L 394.798796 672.682471 
L 416.824456 666.179375 
L 418.632319 615.043 
L 445.510181 563.906625 
L 433.805597 563.906625 
L 394.798796 582.52146 
L 340.549421 581.768766 
L 332.754902 615.043 
L 340.549421 624.143154 
L 382.738945 666.179375 
L 382.788528 717.31575 
L 340.549421 756.948496 
L 286.300046 753.648759 
L 281.642965 768.452125 
L 286.300046 780.492199 
L 304.916388 819.5885 
L 286.300046 822.793153 
L 278.718828 819.5885 
L 232.050672 785.957338 
L 177.801297 804.785672 
L 172.985178 819.5885 
L 100.125851 832.557589 
L 100.125851 854.68753 
z
M 177.801297 719.24994 
L 232.050672 731.055664 
L 264.647253 717.31575 
L 232.050672 666.531939 
L 177.801297 695.714432 
L 170.605097 717.31575 
z
M 167.243333 563.906625 
L 114.966201 563.906625 
L 100.125851 566.49973 
L 100.125851 584.16763 
z
" clip-path="url(#p6843bf8c61)" style="fill: #b9b9ff"/>
    <path d="M 177.801297 921.86125 
L 232.050672 921.86125 
L 286.300046 921.86125 
L 340.549421 921.86125 
L 364.72317 921.86125 
L 340.549421 906.605565 
L 332.040841 870.724875 
L 340.549421 835.93962 
L 382.966948 870.724875 
L 394.798796 886.747606 
L 449.04817 874.178992 
L 449.04817 870.724875 
L 449.04817 819.5885 
L 449.04817 791.308762 
L 394.798796 782.18255 
L 388.295778 768.452125 
L 394.552719 717.31575 
L 394.798796 711.020993 
L 406.918122 717.31575 
L 449.04817 725.015895 
L 449.04817 717.31575 
L 449.04817 683.444476 
L 438.105186 666.179375 
L 447.577838 615.043 
L 449.04817 597.432028 
L 449.04817 563.906625 
L 445.510181 563.906625 
L 418.632319 615.043 
L 416.824456 666.179375 
L 394.798796 672.682471 
L 389.397388 717.31575 
L 372.66073 768.452125 
L 340.549421 784.984842 
L 332.768859 819.5885 
L 286.300046 845.648457 
L 232.050672 836.833842 
L 177.801297 833.898539 
L 100.125851 854.68753 
L 100.125851 870.724875 
L 100.125851 921.86125 
z
M 114.966201 563.906625 
L 100.125851 563.906625 
L 100.125851 566.49973 
z
" clip-path="url(#p6843bf8c61)" style="fill: #ffb9b9"/>
    <path d="M 340.549421 906.605565 
L 364.72317 921.86125 
L 394.798796 921.86125 
L 428.195765 921.86125 
L 449.04817 899.824367 
L 449.04817 874.178992 
L 394.798796 886.747606 
L 382.966948 870.724875 
L 340.549421 835.93962 
L 332.040841 870.724875 
z
M 394.798796 782.18255 
L 449.04817 791.308762 
L 449.04817 772.687977 
L 434.262809 768.452125 
L 449.04817 746.892828 
L 449.04817 725.015895 
L 406.918122 717.31575 
L 394.798796 711.020993 
L 394.552719 717.31575 
L 388.295778 768.452125 
z
M 449.04817 683.444476 
L 449.04817 666.179375 
L 449.04817 615.043 
L 449.04817 597.432028 
L 447.577838 615.043 
L 438.105186 666.179375 
z
" clip-path="url(#p6843bf8c61)" style="fill: #ff2929"/>
    <path d="M 449.04817 921.86125 
L 449.04817 899.824367 
L 428.195765 921.86125 
z
M 449.04817 772.687977 
L 449.04817 768.452125 
L 449.04817 746.892828 
L 434.262809 768.452125 
z
" clip-path="url(#p6843bf8c61)" style="fill: #cc0000"/>
   </g>
   <g id="PathCollection_7">
    <g clip-path="url(#p6843bf8c61)">
     <use xlink:href="#mfa5913b606" x="309.907421" y="726.01166" style="fill: #33ca84; stroke: #000000"/>
    </g>
   </g>
   <g id="PathCollection_8">
    <g clip-path="url(#p6843bf8c61)">
     <use xlink:href="#m6f9126deb5" x="345.663102" y="781.328876" style="fill: #bac284; stroke: #000000"/>
    </g>
   </g>
   <g id="PathCollection_9">
    <g clip-path="url(#p6843bf8c61)">
     <use xlink:href="#m04113392d5" x="365.365276" y="809.150544" style="fill: #d15f02; stroke: #000000"/>
    </g>
   </g>
   <g id="patch_11">
    <path d="M 100.125851 921.86125 
L 100.125851 563.906625 
" style="fill: none; stroke: #cccccc; stroke-width: 0.8; stroke-linejoin: miter; stroke-linecap: square"/>
   </g>
   <g id="patch_12">
    <path d="M 449.04817 921.86125 
L 449.04817 563.906625 
" style="fill: none; stroke: #cccccc; stroke-width: 0.8; stroke-linejoin: miter; stroke-linecap: square"/>
   </g>
   <g id="patch_13">
    <path d="M 100.125851 921.86125 
L 449.04817 921.86125 
" style="fill: none; stroke: #cccccc; stroke-width: 0.8; stroke-linejoin: miter; stroke-linecap: square"/>
   </g>
   <g id="patch_14">
    <path d="M 100.125851 563.906625 
L 449.04817 563.906625 
" style="fill: none; stroke: #cccccc; stroke-width: 0.8; stroke-linejoin: miter; stroke-linecap: square"/>
   </g>
   <g id="text_46">
    <!-- No power stroke -->
    <g style="fill: #262626" transform="translate(187.22326 532.522125) scale(0.24 -0.24)">
     <defs>
      <path id="ArialMT-4e" d="M 488 0 
L 488 4581 
L 1109 4581 
L 3516 984 
L 3516 4581 
L 4097 4581 
L 4097 0 
L 3475 0 
L 1069 3600 
L 1069 0 
L 488 0 
z
" transform="scale(0.015625)"/>
     </defs>
     <use xlink:href="#ArialMT-4e"/>
     <use xlink:href="#ArialMT-6f" x="72.216797"/>
     <use xlink:href="#ArialMT-20" x="127.832031"/>
     <use xlink:href="#ArialMT-70" x="155.615234"/>
     <use xlink:href="#ArialMT-6f" x="211.230469"/>
     <use xlink:href="#ArialMT-77" x="266.845703"/>
     <use xlink:href="#ArialMT-65" x="339.0625"/>
     <use xlink:href="#ArialMT-72" x="394.677734"/>
     <use xlink:href="#ArialMT-20" x="427.978516"/>
     <use xlink:href="#ArialMT-73" x="455.761719"/>
     <use xlink:href="#ArialMT-74" x="505.761719"/>
     <use xlink:href="#ArialMT-72" x="533.544922"/>
     <use xlink:href="#ArialMT-6f" x="566.845703"/>
     <use xlink:href="#ArialMT-6b" x="622.460938"/>
     <use xlink:href="#ArialMT-65" x="672.460938"/>
    </g>
    <!--  -->
    <g style="fill: #262626" transform="translate(274.58701 557.906625) scale(0.24 -0.24)"/>
   </g>
   <g id="legend_2">
    <g id="patch_15">
     <path d="M 114.125851 665.600375 
L 238.150851 665.600375 
Q 242.150851 665.600375 242.150851 661.600375 
L 242.150851 577.906625 
Q 242.150851 573.906625 238.150851 573.906625 
L 114.125851 573.906625 
Q 110.125851 573.906625 110.125851 577.906625 
L 110.125851 661.600375 
Q 110.125851 665.600375 114.125851 665.600375 
z
" style="fill: #ffffff; opacity: 0.8; stroke: #cccccc; stroke-linejoin: miter"/>
    </g>
    <g id="PathCollection_10">
     <g>
      <use xlink:href="#mfa5913b606" x="138.125851" y="590.97225" style="fill: #33ca84; stroke: #000000"/>
     </g>
    </g>
    <g id="text_47">
     <!-- Myo5 -->
     <g style="fill: #262626" transform="translate(174.125851 596.22225) scale(0.2 -0.2)">
      <use xlink:href="#ArialMT-4d"/>
      <use xlink:href="#ArialMT-79" x="83.300781"/>
      <use xlink:href="#ArialMT-6f" x="133.300781"/>
      <use xlink:href="#ArialMT-35" x="188.916016"/>
     </g>
    </g>
    <g id="PathCollection_11">
     <g>
      <use xlink:href="#m6f9126deb5" x="138.125851" y="619.556625" style="fill: #bac284; stroke: #000000"/>
     </g>
    </g>
    <g id="text_48">
     <!-- Myo1c -->
     <g style="fill: #262626" transform="translate(174.125851 624.806625) scale(0.2 -0.2)">
      <use xlink:href="#ArialMT-4d"/>
      <use xlink:href="#ArialMT-79" x="83.300781"/>
      <use xlink:href="#ArialMT-6f" x="133.300781"/>
      <use xlink:href="#ArialMT-31" x="188.916016"/>
      <use xlink:href="#ArialMT-63" x="244.53125"/>
     </g>
    </g>
    <g id="PathCollection_12">
     <g>
      <use xlink:href="#m04113392d5" x="138.125851" y="648.141" style="fill: #d15f02; stroke: #000000"/>
     </g>
    </g>
    <g id="text_49">
     <!-- Myo1b -->
     <g style="fill: #262626" transform="translate(174.125851 653.391) scale(0.2 -0.2)">
      <use xlink:href="#ArialMT-4d"/>
      <use xlink:href="#ArialMT-79" x="83.300781"/>
      <use xlink:href="#ArialMT-6f" x="133.300781"/>
      <use xlink:href="#ArialMT-31" x="188.916016"/>
      <use xlink:href="#ArialMT-62" x="244.53125"/>
     </g>
    </g>
   </g>
  </g>
  <g id="axes_4">
   <g id="patch_16">
    <path d="M 470.855815 921.86125 
L 488.753546 921.86125 
L 488.753546 563.906625 
L 470.855815 563.906625 
z
" style="fill: #ffffff"/>
   </g>
   <g id="matplotlib.axis_7"/>
   <g id="matplotlib.axis_8">
    <g id="ytick_23">
     <g id="line2d_37">
      <g>
       <use xlink:href="#me31586e936" x="488.753546" y="921.86125" style="fill: #262626; stroke: #262626; stroke-width: 0.8"/>
      </g>
     </g>
     <g id="text_50">
      <!-- −24 -->
      <g style="fill: #262626" transform="translate(495.753546 929.019063) scale(0.2 -0.2)">
       <use xlink:href="#ArialMT-2212"/>
       <use xlink:href="#ArialMT-32" x="58.398438"/>
       <use xlink:href="#ArialMT-34" x="114.013672"/>
      </g>
     </g>
    </g>
    <g id="ytick_24">
     <g id="line2d_38">
      <g>
       <use xlink:href="#me31586e936" x="488.753546" y="870.724875" style="fill: #262626; stroke: #262626; stroke-width: 0.8"/>
      </g>
     </g>
     <g id="text_51">
      <!-- −18 -->
      <g style="fill: #262626" transform="translate(495.753546 877.882687) scale(0.2 -0.2)">
       <defs>
        <path id="ArialMT-38" d="M 1131 2484 
Q 781 2613 612 2850 
Q 444 3088 444 3419 
Q 444 3919 803 4259 
Q 1163 4600 1759 4600 
Q 2359 4600 2725 4251 
Q 3091 3903 3091 3403 
Q 3091 3084 2923 2848 
Q 2756 2613 2416 2484 
Q 2838 2347 3058 2040 
Q 3278 1734 3278 1309 
Q 3278 722 2862 322 
Q 2447 -78 1769 -78 
Q 1091 -78 675 323 
Q 259 725 259 1325 
Q 259 1772 486 2073 
Q 713 2375 1131 2484 
z
M 1019 3438 
Q 1019 3113 1228 2906 
Q 1438 2700 1772 2700 
Q 2097 2700 2305 2904 
Q 2513 3109 2513 3406 
Q 2513 3716 2298 3927 
Q 2084 4138 1766 4138 
Q 1444 4138 1231 3931 
Q 1019 3725 1019 3438 
z
M 838 1322 
Q 838 1081 952 856 
Q 1066 631 1291 507 
Q 1516 384 1775 384 
Q 2178 384 2440 643 
Q 2703 903 2703 1303 
Q 2703 1709 2433 1975 
Q 2163 2241 1756 2241 
Q 1359 2241 1098 1978 
Q 838 1716 838 1322 
z
" transform="scale(0.015625)"/>
       </defs>
       <use xlink:href="#ArialMT-2212"/>
       <use xlink:href="#ArialMT-31" x="58.398438"/>
       <use xlink:href="#ArialMT-38" x="114.013672"/>
      </g>
     </g>
    </g>
    <g id="ytick_25">
     <g id="line2d_39">
      <g>
       <use xlink:href="#me31586e936" x="488.753546" y="819.5885" style="fill: #262626; stroke: #262626; stroke-width: 0.8"/>
      </g>
     </g>
     <g id="text_52">
      <!-- −12 -->
      <g style="fill: #262626" transform="translate(495.753546 826.746312) scale(0.2 -0.2)">
       <use xlink:href="#ArialMT-2212"/>
       <use xlink:href="#ArialMT-31" x="58.398438"/>
       <use xlink:href="#ArialMT-32" x="114.013672"/>
      </g>
     </g>
    </g>
    <g id="ytick_26">
     <g id="line2d_40">
      <g>
       <use xlink:href="#me31586e936" x="488.753546" y="768.452125" style="fill: #262626; stroke: #262626; stroke-width: 0.8"/>
      </g>
     </g>
     <g id="text_53">
      <!-- −6 -->
      <g style="fill: #262626" transform="translate(495.753546 775.609937) scale(0.2 -0.2)">
       <defs>
        <path id="ArialMT-36" d="M 3184 3459 
L 2625 3416 
Q 2550 3747 2413 3897 
Q 2184 4138 1850 4138 
Q 1581 4138 1378 3988 
Q 1113 3794 959 3422 
Q 806 3050 800 2363 
Q 1003 2672 1297 2822 
Q 1591 2972 1913 2972 
Q 2475 2972 2870 2558 
Q 3266 2144 3266 1488 
Q 3266 1056 3080 686 
Q 2894 316 2569 119 
Q 2244 -78 1831 -78 
Q 1128 -78 684 439 
Q 241 956 241 2144 
Q 241 3472 731 4075 
Q 1159 4600 1884 4600 
Q 2425 4600 2770 4297 
Q 3116 3994 3184 3459 
z
M 888 1484 
Q 888 1194 1011 928 
Q 1134 663 1356 523 
Q 1578 384 1822 384 
Q 2178 384 2434 671 
Q 2691 959 2691 1453 
Q 2691 1928 2437 2201 
Q 2184 2475 1800 2475 
Q 1419 2475 1153 2201 
Q 888 1928 888 1484 
z
" transform="scale(0.015625)"/>
       </defs>
       <use xlink:href="#ArialMT-2212"/>
       <use xlink:href="#ArialMT-36" x="58.398438"/>
      </g>
     </g>
    </g>
    <g id="ytick_27">
     <g id="line2d_41">
      <g>
       <use xlink:href="#me31586e936" x="488.753546" y="717.31575" style="fill: #262626; stroke: #262626; stroke-width: 0.8"/>
      </g>
     </g>
     <g id="text_54">
      <!-- 0 -->
      <g style="fill: #262626" transform="translate(495.753546 724.473562) scale(0.2 -0.2)">
       <use xlink:href="#ArialMT-30"/>
      </g>
     </g>
    </g>
    <g id="ytick_28">
     <g id="line2d_42">
      <g>
       <use xlink:href="#me31586e936" x="488.753546" y="666.179375" style="fill: #262626; stroke: #262626; stroke-width: 0.8"/>
      </g>
     </g>
     <g id="text_55">
      <!-- 6 -->
      <g style="fill: #262626" transform="translate(495.753546 673.337187) scale(0.2 -0.2)">
       <use xlink:href="#ArialMT-36"/>
      </g>
     </g>
    </g>
    <g id="ytick_29">
     <g id="line2d_43">
      <g>
       <use xlink:href="#me31586e936" x="488.753546" y="615.043" style="fill: #262626; stroke: #262626; stroke-width: 0.8"/>
      </g>
     </g>
     <g id="text_56">
      <!-- 12 -->
      <g style="fill: #262626" transform="translate(495.753546 622.200812) scale(0.2 -0.2)">
       <use xlink:href="#ArialMT-31"/>
       <use xlink:href="#ArialMT-32" x="55.615234"/>
      </g>
     </g>
    </g>
    <g id="ytick_30">
     <g id="line2d_44">
      <g>
       <use xlink:href="#me31586e936" x="488.753546" y="563.906625" style="fill: #262626; stroke: #262626; stroke-width: 0.8"/>
      </g>
     </g>
     <g id="text_57">
      <!-- 18 -->
      <g style="fill: #262626" transform="translate(495.753546 571.064437) scale(0.2 -0.2)">
       <use xlink:href="#ArialMT-31"/>
       <use xlink:href="#ArialMT-38" x="55.615234"/>
      </g>
     </g>
    </g>
    <g id="text_58">
     <!-- % Change in retraction time -->
     <g style="fill: #262626" transform="translate(551.149796 890.947062) rotate(-90) scale(0.24 -0.24)">
      <use xlink:href="#ArialMT-25"/>
      <use xlink:href="#ArialMT-20" x="88.916016"/>
      <use xlink:href="#ArialMT-43" x="116.699219"/>
      <use xlink:href="#ArialMT-68" x="188.916016"/>
      <use xlink:href="#ArialMT-61" x="244.53125"/>
      <use xlink:href="#ArialMT-6e" x="300.146484"/>
      <use xlink:href="#ArialMT-67" x="355.761719"/>
      <use xlink:href="#ArialMT-65" x="411.376953"/>
      <use xlink:href="#ArialMT-20" x="466.992188"/>
      <use xlink:href="#ArialMT-69" x="494.775391"/>
      <use xlink:href="#ArialMT-6e" x="516.992188"/>
      <use xlink:href="#ArialMT-20" x="572.607422"/>
      <use xlink:href="#ArialMT-72" x="600.390625"/>
      <use xlink:href="#ArialMT-65" x="633.691406"/>
      <use xlink:href="#ArialMT-74" x="689.306641"/>
      <use xlink:href="#ArialMT-72" x="717.089844"/>
      <use xlink:href="#ArialMT-61" x="750.390625"/>
      <use xlink:href="#ArialMT-63" x="806.005859"/>
      <use xlink:href="#ArialMT-74" x="856.005859"/>
      <use xlink:href="#ArialMT-69" x="883.789062"/>
      <use xlink:href="#ArialMT-6f" x="906.005859"/>
      <use xlink:href="#ArialMT-6e" x="961.621094"/>
      <use xlink:href="#ArialMT-20" x="1017.236328"/>
      <use xlink:href="#ArialMT-74" x="1045.019531"/>
      <use xlink:href="#ArialMT-69" x="1072.802734"/>
      <use xlink:href="#ArialMT-6d" x="1095.019531"/>
      <use xlink:href="#ArialMT-65" x="1178.320312"/>
     </g>
    </g>
   </g>
   <g id="QuadMesh_2">
    <path d="M 470.855815 921.86125 
L 488.753546 921.86125 
L 488.753546 870.724875 
L 470.855815 870.724875 
L 470.855815 921.86125 
" clip-path="url(#pd542c63bb5)" style="fill: #000052"/>
    <path d="M 470.855815 870.724875 
L 488.753546 870.724875 
L 488.753546 819.5885 
L 470.855815 819.5885 
L 470.855815 870.724875 
" clip-path="url(#pd542c63bb5)" style="fill: #0000b7"/>
    <path d="M 470.855815 819.5885 
L 488.753546 819.5885 
L 488.753546 768.452125 
L 470.855815 768.452125 
L 470.855815 819.5885 
" clip-path="url(#pd542c63bb5)" style="fill: #2929ff"/>
    <path d="M 470.855815 768.452125 
L 488.753546 768.452125 
L 488.753546 717.31575 
L 470.855815 717.31575 
L 470.855815 768.452125 
" clip-path="url(#pd542c63bb5)" style="fill: #b9b9ff"/>
    <path d="M 470.855815 717.31575 
L 488.753546 717.31575 
L 488.753546 666.179375 
L 470.855815 666.179375 
L 470.855815 717.31575 
" clip-path="url(#pd542c63bb5)" style="fill: #ffb9b9"/>
    <path d="M 470.855815 666.179375 
L 488.753546 666.179375 
L 488.753546 615.043 
L 470.855815 615.043 
L 470.855815 666.179375 
" clip-path="url(#pd542c63bb5)" style="fill: #ff2929"/>
    <path d="M 470.855815 615.043 
L 488.753546 615.043 
L 488.753546 563.906625 
L 470.855815 563.906625 
L 470.855815 615.043 
" clip-path="url(#pd542c63bb5)" style="fill: #cc0000"/>
   </g>
   <g id="LineCollection_2"/>
   <g id="patch_17">
    <path d="M 470.855815 921.86125 
L 479.804681 921.86125 
L 488.753546 921.86125 
L 488.753546 563.906625 
L 479.804681 563.906625 
L 470.855815 563.906625 
L 470.855815 921.86125 
z
" style="fill: none; stroke: #cccccc; stroke-width: 0.8; stroke-linejoin: miter; stroke-linecap: square"/>
   </g>
  </g>
 </g>
 <defs>
  <clipPath id="p51fefafd40">
   <rect x="100.125851" y="70.656" width="348.922319" height="357.954625"/>
  </clipPath>
  <clipPath id="p3c236d8e0c">
   <rect x="470.855815" y="70.656" width="17.897731" height="357.954625"/>
  </clipPath>
  <clipPath id="p6843bf8c61">
   <rect x="100.125851" y="563.906625" width="348.922319" height="357.954625"/>
  </clipPath>
  <clipPath id="pd542c63bb5">
   <rect x="470.855815" y="563.906625" width="17.897731" height="357.954625"/>
  </clipPath>
 </defs>
</svg>
