<?xml version="1.0" encoding="utf-8" standalone="no"?>
<!DOCTYPE svg PUBLIC "-//W3C//DTD SVG 1.1//EN"
  "http://www.w3.org/Graphics/SVG/1.1/DTD/svg11.dtd">
<svg xmlns:xlink="http://www.w3.org/1999/xlink" width="576pt" height="504pt" viewBox="0 0 576 504" xmlns="http://www.w3.org/2000/svg" version="1.1">
 <metadata>
  <rdf:RDF xmlns:dc="http://purl.org/dc/elements/1.1/" xmlns:cc="http://creativecommons.org/ns#" xmlns:rdf="http://www.w3.org/1999/02/22-rdf-syntax-ns#">
   <cc:Work>
    <dc:type rdf:resource="http://purl.org/dc/dcmitype/StillImage"/>
    <dc:date>2025-02-16T03:53:19.578641</dc:date>
    <dc:format>image/svg+xml</dc:format>
    <dc:creator>
     <cc:Agent>
      <dc:title>Matplotlib v3.9.1, https://matplotlib.org/</dc:title>
     </cc:Agent>
    </dc:creator>
   </cc:Work>
  </rdf:RDF>
 </metadata>
 <defs>
  <style type="text/css">*{stroke-linejoin: round; stroke-linecap: butt}</style>
 </defs>
 <g id="figure_1">
  <g id="patch_1">
   <path d="M 0 504 
L 576 504 
L 576 0 
L 0 0 
z
" style="fill: #ffffff"/>
  </g>
  <g id="axes_1">
   <g id="patch_2">
    <path d="M 100.125851 417.86125 
L 447.63697 417.86125 
L 447.63697 84.5415 
L 100.125851 84.5415 
z
" style="fill: #ffffff"/>
   </g>
   <g id="matplotlib.axis_1">
    <g id="xtick_1">
     <g id="line2d_1">
      <path d="M 100.125851 417.86125 
L 100.125851 84.5415 
" clip-path="url(#p4bac0cabb5)" style="fill: none; stroke: #cccccc; stroke-width: 0.8; stroke-linecap: round"/>
     </g>
     <g id="text_1">
      <!-- $\mathdefault{0}$ -->
      <g style="fill: #262626" transform="translate(94.525851 439.176875) scale(0.2 -0.2)">
       <defs>
        <path id="ArialMT-30" d="M 266 2259 
Q 266 3072 433 3567 
Q 600 4063 929 4331 
Q 1259 4600 1759 4600 
Q 2128 4600 2406 4451 
Q 2684 4303 2865 4023 
Q 3047 3744 3150 3342 
Q 3253 2941 3253 2259 
Q 3253 1453 3087 958 
Q 2922 463 2592 192 
Q 2263 -78 1759 -78 
Q 1097 -78 719 397 
Q 266 969 266 2259 
z
M 844 2259 
Q 844 1131 1108 757 
Q 1372 384 1759 384 
Q 2147 384 2411 759 
Q 2675 1134 2675 2259 
Q 2675 3391 2411 3762 
Q 2147 4134 1753 4134 
Q 1366 4134 1134 3806 
Q 844 3388 844 2259 
z
" transform="scale(0.015625)"/>
       </defs>
       <use xlink:href="#ArialMT-30" transform="translate(0 0.125)"/>
      </g>
     </g>
    </g>
    <g id="xtick_2">
     <g id="line2d_2">
      <path d="M 130.142498 417.86125 
L 130.142498 84.5415 
" clip-path="url(#p4bac0cabb5)" style="fill: none; stroke: #cccccc; stroke-width: 0.8; stroke-linecap: round"/>
     </g>
     <g id="text_2">
      <!-- $\mathdefault{10^{-3}}$ -->
      <g style="fill: #262626" transform="translate(110.342498 445.48625) scale(0.2 -0.2)">
       <defs>
        <path id="ArialMT-31" d="M 2384 0 
L 1822 0 
L 1822 3584 
Q 1619 3391 1289 3197 
Q 959 3003 697 2906 
L 697 3450 
Q 1169 3672 1522 3987 
Q 1875 4303 2022 4600 
L 2384 4600 
L 2384 0 
z
" transform="scale(0.015625)"/>
        <path id="ArialMT-2212" d="M 3381 1997 
L 356 1997 
L 356 2522 
L 3381 2522 
L 3381 1997 
z
" transform="scale(0.015625)"/>
        <path id="ArialMT-33" d="M 269 1209 
L 831 1284 
Q 928 806 1161 595 
Q 1394 384 1728 384 
Q 2125 384 2398 659 
Q 2672 934 2672 1341 
Q 2672 1728 2419 1979 
Q 2166 2231 1775 2231 
Q 1616 2231 1378 2169 
L 1441 2663 
Q 1497 2656 1531 2656 
Q 1891 2656 2178 2843 
Q 2466 3031 2466 3422 
Q 2466 3731 2256 3934 
Q 2047 4138 1716 4138 
Q 1388 4138 1169 3931 
Q 950 3725 888 3313 
L 325 3413 
Q 428 3978 793 4289 
Q 1159 4600 1703 4600 
Q 2078 4600 2393 4439 
Q 2709 4278 2876 4000 
Q 3044 3722 3044 3409 
Q 3044 3113 2884 2869 
Q 2725 2625 2413 2481 
Q 2819 2388 3044 2092 
Q 3269 1797 3269 1353 
Q 3269 753 2831 336 
Q 2394 -81 1725 -81 
Q 1122 -81 723 278 
Q 325 638 269 1209 
z
" transform="scale(0.015625)"/>
       </defs>
       <use xlink:href="#ArialMT-31" transform="translate(0 0.99375)"/>
       <use xlink:href="#ArialMT-30" transform="translate(55.615234 0.99375)"/>
       <use xlink:href="#ArialMT-2212" transform="translate(112.972813 70.6875) scale(0.7)"/>
       <use xlink:href="#ArialMT-33" transform="translate(153.851719 70.6875) scale(0.7)"/>
      </g>
     </g>
    </g>
    <g id="xtick_3">
     <g id="line2d_3">
      <path d="M 197.924471 417.86125 
L 197.924471 84.5415 
" clip-path="url(#p4bac0cabb5)" style="fill: none; stroke: #cccccc; stroke-width: 0.8; stroke-linecap: round"/>
     </g>
     <g id="text_3">
      <!-- $\mathdefault{10^{-2}}$ -->
      <g style="fill: #262626" transform="translate(178.124471 445.48625) scale(0.2 -0.2)">
       <defs>
        <path id="ArialMT-32" d="M 3222 541 
L 3222 0 
L 194 0 
Q 188 203 259 391 
Q 375 700 629 1000 
Q 884 1300 1366 1694 
Q 2113 2306 2375 2664 
Q 2638 3022 2638 3341 
Q 2638 3675 2398 3904 
Q 2159 4134 1775 4134 
Q 1369 4134 1125 3890 
Q 881 3647 878 3216 
L 300 3275 
Q 359 3922 746 4261 
Q 1134 4600 1788 4600 
Q 2447 4600 2831 4234 
Q 3216 3869 3216 3328 
Q 3216 3053 3103 2787 
Q 2991 2522 2730 2228 
Q 2469 1934 1863 1422 
Q 1356 997 1212 845 
Q 1069 694 975 541 
L 3222 541 
z
" transform="scale(0.015625)"/>
       </defs>
       <use xlink:href="#ArialMT-31" transform="translate(0 0.99375)"/>
       <use xlink:href="#ArialMT-30" transform="translate(55.615234 0.99375)"/>
       <use xlink:href="#ArialMT-2212" transform="translate(112.972813 70.6875) scale(0.7)"/>
       <use xlink:href="#ArialMT-32" transform="translate(153.851719 70.6875) scale(0.7)"/>
      </g>
     </g>
    </g>
    <g id="xtick_4">
     <g id="line2d_4">
      <path d="M 251.954437 417.86125 
L 251.954437 84.5415 
" clip-path="url(#p4bac0cabb5)" style="fill: none; stroke: #cccccc; stroke-width: 0.8; stroke-linecap: round"/>
     </g>
     <g id="text_4">
      <!-- $\mathdefault{10^{-1}}$ -->
      <g style="fill: #262626" transform="translate(232.154437 445.48625) scale(0.2 -0.2)">
       <use xlink:href="#ArialMT-31" transform="translate(0 0.99375)"/>
       <use xlink:href="#ArialMT-30" transform="translate(55.615234 0.99375)"/>
       <use xlink:href="#ArialMT-2212" transform="translate(112.972813 70.6875) scale(0.7)"/>
       <use xlink:href="#ArialMT-31" transform="translate(153.851719 70.6875) scale(0.7)"/>
      </g>
     </g>
    </g>
    <g id="xtick_5">
     <g id="line2d_5">
      <path d="M 305.984402 417.86125 
L 305.984402 84.5415 
" clip-path="url(#p4bac0cabb5)" style="fill: none; stroke: #cccccc; stroke-width: 0.8; stroke-linecap: round"/>
     </g>
     <g id="text_5">
      <!-- $\mathdefault{10^{0}}$ -->
      <g style="fill: #262626" transform="translate(290.284402 445.48625) scale(0.2 -0.2)">
       <use xlink:href="#ArialMT-31" transform="translate(0 0.99375)"/>
       <use xlink:href="#ArialMT-30" transform="translate(55.615234 0.99375)"/>
       <use xlink:href="#ArialMT-30" transform="translate(112.972813 70.6875) scale(0.7)"/>
      </g>
     </g>
    </g>
    <g id="xtick_6">
     <g id="line2d_6">
      <path d="M 360.014368 417.86125 
L 360.014368 84.5415 
" clip-path="url(#p4bac0cabb5)" style="fill: none; stroke: #cccccc; stroke-width: 0.8; stroke-linecap: round"/>
     </g>
     <g id="text_6">
      <!-- $\mathdefault{10^{1}}$ -->
      <g style="fill: #262626" transform="translate(344.314368 445.48625) scale(0.2 -0.2)">
       <use xlink:href="#ArialMT-31" transform="translate(0 0.99375)"/>
       <use xlink:href="#ArialMT-30" transform="translate(55.615234 0.99375)"/>
       <use xlink:href="#ArialMT-31" transform="translate(112.972813 70.6875) scale(0.7)"/>
      </g>
     </g>
    </g>
    <g id="xtick_7">
     <g id="line2d_7">
      <path d="M 414.044333 417.86125 
L 414.044333 84.5415 
" clip-path="url(#p4bac0cabb5)" style="fill: none; stroke: #cccccc; stroke-width: 0.8; stroke-linecap: round"/>
     </g>
     <g id="text_7">
      <!-- $\mathdefault{10^{2}}$ -->
      <g style="fill: #262626" transform="translate(398.344333 445.48625) scale(0.2 -0.2)">
       <use xlink:href="#ArialMT-31" transform="translate(0 0.99375)"/>
       <use xlink:href="#ArialMT-30" transform="translate(55.615234 0.99375)"/>
       <use xlink:href="#ArialMT-32" transform="translate(112.972813 70.6875) scale(0.7)"/>
      </g>
     </g>
    </g>
    <g id="text_8">
     <!-- Distance parameter $d$ ($nm$) -->
     <g style="fill: #262626" transform="translate(127.48141 471.70125) scale(0.24 -0.24)">
      <defs>
       <path id="ArialMT-44" d="M 494 0 
L 494 4581 
L 2072 4581 
Q 2606 4581 2888 4516 
Q 3281 4425 3559 4188 
Q 3922 3881 4101 3404 
Q 4281 2928 4281 2316 
Q 4281 1794 4159 1391 
Q 4038 988 3847 723 
Q 3656 459 3429 307 
Q 3203 156 2883 78 
Q 2563 0 2147 0 
L 494 0 
z
M 1100 541 
L 2078 541 
Q 2531 541 2789 625 
Q 3047 709 3200 863 
Q 3416 1078 3536 1442 
Q 3656 1806 3656 2325 
Q 3656 3044 3420 3430 
Q 3184 3816 2847 3947 
Q 2603 4041 2063 4041 
L 1100 4041 
L 1100 541 
z
" transform="scale(0.015625)"/>
       <path id="ArialMT-69" d="M 425 3934 
L 425 4581 
L 988 4581 
L 988 3934 
L 425 3934 
z
M 425 0 
L 425 3319 
L 988 3319 
L 988 0 
L 425 0 
z
" transform="scale(0.015625)"/>
       <path id="ArialMT-73" d="M 197 991 
L 753 1078 
Q 800 744 1014 566 
Q 1228 388 1613 388 
Q 2000 388 2187 545 
Q 2375 703 2375 916 
Q 2375 1106 2209 1216 
Q 2094 1291 1634 1406 
Q 1016 1563 777 1677 
Q 538 1791 414 1992 
Q 291 2194 291 2438 
Q 291 2659 392 2848 
Q 494 3038 669 3163 
Q 800 3259 1026 3326 
Q 1253 3394 1513 3394 
Q 1903 3394 2198 3281 
Q 2494 3169 2634 2976 
Q 2775 2784 2828 2463 
L 2278 2388 
Q 2241 2644 2061 2787 
Q 1881 2931 1553 2931 
Q 1166 2931 1000 2803 
Q 834 2675 834 2503 
Q 834 2394 903 2306 
Q 972 2216 1119 2156 
Q 1203 2125 1616 2013 
Q 2213 1853 2448 1751 
Q 2684 1650 2818 1456 
Q 2953 1263 2953 975 
Q 2953 694 2789 445 
Q 2625 197 2315 61 
Q 2006 -75 1616 -75 
Q 969 -75 630 194 
Q 291 463 197 991 
z
" transform="scale(0.015625)"/>
       <path id="ArialMT-74" d="M 1650 503 
L 1731 6 
Q 1494 -44 1306 -44 
Q 1000 -44 831 53 
Q 663 150 594 308 
Q 525 466 525 972 
L 525 2881 
L 113 2881 
L 113 3319 
L 525 3319 
L 525 4141 
L 1084 4478 
L 1084 3319 
L 1650 3319 
L 1650 2881 
L 1084 2881 
L 1084 941 
Q 1084 700 1114 631 
Q 1144 563 1211 522 
Q 1278 481 1403 481 
Q 1497 481 1650 503 
z
" transform="scale(0.015625)"/>
       <path id="ArialMT-61" d="M 2588 409 
Q 2275 144 1986 34 
Q 1697 -75 1366 -75 
Q 819 -75 525 192 
Q 231 459 231 875 
Q 231 1119 342 1320 
Q 453 1522 633 1644 
Q 813 1766 1038 1828 
Q 1203 1872 1538 1913 
Q 2219 1994 2541 2106 
Q 2544 2222 2544 2253 
Q 2544 2597 2384 2738 
Q 2169 2928 1744 2928 
Q 1347 2928 1158 2789 
Q 969 2650 878 2297 
L 328 2372 
Q 403 2725 575 2942 
Q 747 3159 1072 3276 
Q 1397 3394 1825 3394 
Q 2250 3394 2515 3294 
Q 2781 3194 2906 3042 
Q 3031 2891 3081 2659 
Q 3109 2516 3109 2141 
L 3109 1391 
Q 3109 606 3145 398 
Q 3181 191 3288 0 
L 2700 0 
Q 2613 175 2588 409 
z
M 2541 1666 
Q 2234 1541 1622 1453 
Q 1275 1403 1131 1340 
Q 988 1278 909 1158 
Q 831 1038 831 891 
Q 831 666 1001 516 
Q 1172 366 1500 366 
Q 1825 366 2078 508 
Q 2331 650 2450 897 
Q 2541 1088 2541 1459 
L 2541 1666 
z
" transform="scale(0.015625)"/>
       <path id="ArialMT-6e" d="M 422 0 
L 422 3319 
L 928 3319 
L 928 2847 
Q 1294 3394 1984 3394 
Q 2284 3394 2536 3286 
Q 2788 3178 2913 3003 
Q 3038 2828 3088 2588 
Q 3119 2431 3119 2041 
L 3119 0 
L 2556 0 
L 2556 2019 
Q 2556 2363 2490 2533 
Q 2425 2703 2258 2804 
Q 2091 2906 1866 2906 
Q 1506 2906 1245 2678 
Q 984 2450 984 1813 
L 984 0 
L 422 0 
z
" transform="scale(0.015625)"/>
       <path id="ArialMT-63" d="M 2588 1216 
L 3141 1144 
Q 3050 572 2676 248 
Q 2303 -75 1759 -75 
Q 1078 -75 664 370 
Q 250 816 250 1647 
Q 250 2184 428 2587 
Q 606 2991 970 3192 
Q 1334 3394 1763 3394 
Q 2303 3394 2647 3120 
Q 2991 2847 3088 2344 
L 2541 2259 
Q 2463 2594 2264 2762 
Q 2066 2931 1784 2931 
Q 1359 2931 1093 2626 
Q 828 2322 828 1663 
Q 828 994 1084 691 
Q 1341 388 1753 388 
Q 2084 388 2306 591 
Q 2528 794 2588 1216 
z
" transform="scale(0.015625)"/>
       <path id="ArialMT-65" d="M 2694 1069 
L 3275 997 
Q 3138 488 2766 206 
Q 2394 -75 1816 -75 
Q 1088 -75 661 373 
Q 234 822 234 1631 
Q 234 2469 665 2931 
Q 1097 3394 1784 3394 
Q 2450 3394 2872 2941 
Q 3294 2488 3294 1666 
Q 3294 1616 3291 1516 
L 816 1516 
Q 847 969 1125 678 
Q 1403 388 1819 388 
Q 2128 388 2347 550 
Q 2566 713 2694 1069 
z
M 847 1978 
L 2700 1978 
Q 2663 2397 2488 2606 
Q 2219 2931 1791 2931 
Q 1403 2931 1139 2672 
Q 875 2413 847 1978 
z
" transform="scale(0.015625)"/>
       <path id="ArialMT-20" transform="scale(0.015625)"/>
       <path id="ArialMT-70" d="M 422 -1272 
L 422 3319 
L 934 3319 
L 934 2888 
Q 1116 3141 1344 3267 
Q 1572 3394 1897 3394 
Q 2322 3394 2647 3175 
Q 2972 2956 3137 2557 
Q 3303 2159 3303 1684 
Q 3303 1175 3120 767 
Q 2938 359 2589 142 
Q 2241 -75 1856 -75 
Q 1575 -75 1351 44 
Q 1128 163 984 344 
L 984 -1272 
L 422 -1272 
z
M 931 1641 
Q 931 1000 1190 694 
Q 1450 388 1819 388 
Q 2194 388 2461 705 
Q 2728 1022 2728 1688 
Q 2728 2322 2467 2637 
Q 2206 2953 1844 2953 
Q 1484 2953 1207 2617 
Q 931 2281 931 1641 
z
" transform="scale(0.015625)"/>
       <path id="ArialMT-72" d="M 416 0 
L 416 3319 
L 922 3319 
L 922 2816 
Q 1116 3169 1280 3281 
Q 1444 3394 1641 3394 
Q 1925 3394 2219 3213 
L 2025 2691 
Q 1819 2813 1613 2813 
Q 1428 2813 1281 2702 
Q 1134 2591 1072 2394 
Q 978 2094 978 1738 
L 978 0 
L 416 0 
z
" transform="scale(0.015625)"/>
       <path id="ArialMT-6d" d="M 422 0 
L 422 3319 
L 925 3319 
L 925 2853 
Q 1081 3097 1340 3245 
Q 1600 3394 1931 3394 
Q 2300 3394 2536 3241 
Q 2772 3088 2869 2813 
Q 3263 3394 3894 3394 
Q 4388 3394 4653 3120 
Q 4919 2847 4919 2278 
L 4919 0 
L 4359 0 
L 4359 2091 
Q 4359 2428 4304 2576 
Q 4250 2725 4106 2815 
Q 3963 2906 3769 2906 
Q 3419 2906 3187 2673 
Q 2956 2441 2956 1928 
L 2956 0 
L 2394 0 
L 2394 2156 
Q 2394 2531 2256 2718 
Q 2119 2906 1806 2906 
Q 1569 2906 1367 2781 
Q 1166 2656 1075 2415 
Q 984 2175 984 1722 
L 984 0 
L 422 0 
z
" transform="scale(0.015625)"/>
       <path id="DejaVuSans-Oblique-64" d="M 2675 525 
Q 2444 222 2128 65 
Q 1813 -91 1428 -91 
Q 903 -91 598 267 
Q 294 625 294 1247 
Q 294 1766 478 2236 
Q 663 2706 1013 3078 
Q 1244 3325 1534 3454 
Q 1825 3584 2144 3584 
Q 2481 3584 2739 3421 
Q 2997 3259 3138 2956 
L 3513 4863 
L 4091 4863 
L 3144 0 
L 2566 0 
L 2675 525 
z
M 891 1350 
Q 891 897 1095 644 
Q 1300 391 1663 391 
Q 1931 391 2161 520 
Q 2391 650 2566 903 
Q 2750 1166 2856 1509 
Q 2963 1853 2963 2188 
Q 2963 2622 2758 2865 
Q 2553 3109 2194 3109 
Q 1922 3109 1687 2981 
Q 1453 2853 1288 2613 
Q 1106 2353 998 2009 
Q 891 1666 891 1350 
z
" transform="scale(0.015625)"/>
       <path id="ArialMT-28" d="M 1497 -1347 
Q 1031 -759 709 28 
Q 388 816 388 1659 
Q 388 2403 628 3084 
Q 909 3875 1497 4659 
L 1900 4659 
Q 1522 4009 1400 3731 
Q 1209 3300 1100 2831 
Q 966 2247 966 1656 
Q 966 153 1900 -1347 
L 1497 -1347 
z
" transform="scale(0.015625)"/>
       <path id="DejaVuSans-Oblique-6e" d="M 3566 2113 
L 3156 0 
L 2578 0 
L 2988 2091 
Q 3016 2238 3031 2350 
Q 3047 2463 3047 2528 
Q 3047 2791 2881 2937 
Q 2716 3084 2419 3084 
Q 1956 3084 1622 2776 
Q 1288 2469 1184 1941 
L 800 0 
L 225 0 
L 903 3500 
L 1478 3500 
L 1363 2950 
Q 1603 3253 1940 3418 
Q 2278 3584 2650 3584 
Q 3113 3584 3367 3334 
Q 3622 3084 3622 2631 
Q 3622 2519 3608 2391 
Q 3594 2263 3566 2113 
z
" transform="scale(0.015625)"/>
       <path id="DejaVuSans-Oblique-6d" d="M 5747 2113 
L 5338 0 
L 4763 0 
L 5166 2094 
Q 5191 2228 5203 2325 
Q 5216 2422 5216 2491 
Q 5216 2772 5059 2928 
Q 4903 3084 4622 3084 
Q 4203 3084 3875 2770 
Q 3547 2456 3450 1953 
L 3066 0 
L 2491 0 
L 2900 2094 
Q 2925 2209 2937 2307 
Q 2950 2406 2950 2484 
Q 2950 2769 2794 2926 
Q 2638 3084 2363 3084 
Q 1938 3084 1609 2770 
Q 1281 2456 1184 1953 
L 800 0 
L 225 0 
L 909 3500 
L 1484 3500 
L 1375 2956 
Q 1609 3263 1923 3423 
Q 2238 3584 2597 3584 
Q 2978 3584 3223 3384 
Q 3469 3184 3519 2828 
Q 3781 3197 4126 3390 
Q 4472 3584 4856 3584 
Q 5306 3584 5551 3325 
Q 5797 3066 5797 2591 
Q 5797 2488 5784 2364 
Q 5772 2241 5747 2113 
z
" transform="scale(0.015625)"/>
       <path id="ArialMT-29" d="M 791 -1347 
L 388 -1347 
Q 1322 153 1322 1656 
Q 1322 2244 1188 2822 
Q 1081 3291 891 3722 
Q 769 4003 388 4659 
L 791 4659 
Q 1378 3875 1659 3084 
Q 1900 2403 1900 1659 
Q 1900 816 1576 28 
Q 1253 -759 791 -1347 
z
" transform="scale(0.015625)"/>
      </defs>
      <use xlink:href="#ArialMT-44" transform="translate(0 0.015625)"/>
      <use xlink:href="#ArialMT-69" transform="translate(72.216797 0.015625)"/>
      <use xlink:href="#ArialMT-73" transform="translate(94.433594 0.015625)"/>
      <use xlink:href="#ArialMT-74" transform="translate(144.433594 0.015625)"/>
      <use xlink:href="#ArialMT-61" transform="translate(172.216797 0.015625)"/>
      <use xlink:href="#ArialMT-6e" transform="translate(227.832031 0.015625)"/>
      <use xlink:href="#ArialMT-63" transform="translate(283.447266 0.015625)"/>
      <use xlink:href="#ArialMT-65" transform="translate(333.447266 0.015625)"/>
      <use xlink:href="#ArialMT-20" transform="translate(389.0625 0.015625)"/>
      <use xlink:href="#ArialMT-70" transform="translate(416.845703 0.015625)"/>
      <use xlink:href="#ArialMT-61" transform="translate(472.460938 0.015625)"/>
      <use xlink:href="#ArialMT-72" transform="translate(528.076172 0.015625)"/>
      <use xlink:href="#ArialMT-61" transform="translate(561.376953 0.015625)"/>
      <use xlink:href="#ArialMT-6d" transform="translate(616.992188 0.015625)"/>
      <use xlink:href="#ArialMT-65" transform="translate(700.292969 0.015625)"/>
      <use xlink:href="#ArialMT-74" transform="translate(755.908203 0.015625)"/>
      <use xlink:href="#ArialMT-65" transform="translate(783.691406 0.015625)"/>
      <use xlink:href="#ArialMT-72" transform="translate(839.306641 0.015625)"/>
      <use xlink:href="#ArialMT-20" transform="translate(872.607422 0.015625)"/>
      <use xlink:href="#DejaVuSans-Oblique-64" transform="translate(900.390625 0.015625)"/>
      <use xlink:href="#ArialMT-20" transform="translate(963.867188 0.015625)"/>
      <use xlink:href="#ArialMT-28" transform="translate(991.650391 0.015625)"/>
      <use xlink:href="#DejaVuSans-Oblique-6e" transform="translate(1024.951172 0.015625)"/>
      <use xlink:href="#DejaVuSans-Oblique-6d" transform="translate(1088.330078 0.015625)"/>
      <use xlink:href="#ArialMT-29" transform="translate(1185.742188 0.015625)"/>
     </g>
    </g>
   </g>
   <g id="matplotlib.axis_2">
    <g id="ytick_1">
     <g id="line2d_8">
      <path d="M 100.125851 370.244143 
L 447.63697 370.244143 
" clip-path="url(#p4bac0cabb5)" style="fill: none; stroke: #cccccc; stroke-width: 0.8; stroke-linecap: round"/>
     </g>
     <g id="text_9">
      <!-- $\mathdefault{10^{-1}}$ -->
      <g style="fill: #262626" transform="translate(53.525851 380.556643) scale(0.2 -0.2)">
       <use xlink:href="#ArialMT-31" transform="translate(0 0.99375)"/>
       <use xlink:href="#ArialMT-30" transform="translate(55.615234 0.99375)"/>
       <use xlink:href="#ArialMT-2212" transform="translate(112.972813 70.6875) scale(0.7)"/>
       <use xlink:href="#ArialMT-31" transform="translate(153.851719 70.6875) scale(0.7)"/>
      </g>
     </g>
    </g>
    <g id="ytick_2">
     <g id="line2d_9">
      <path d="M 100.125851 322.627036 
L 447.63697 322.627036 
" clip-path="url(#p4bac0cabb5)" style="fill: none; stroke: #cccccc; stroke-width: 0.8; stroke-linecap: round"/>
     </g>
     <g id="text_10">
      <!-- $\mathdefault{10^{0}}$ -->
      <g style="fill: #262626" transform="translate(61.725851 332.939536) scale(0.2 -0.2)">
       <use xlink:href="#ArialMT-31" transform="translate(0 0.99375)"/>
       <use xlink:href="#ArialMT-30" transform="translate(55.615234 0.99375)"/>
       <use xlink:href="#ArialMT-30" transform="translate(112.972813 70.6875) scale(0.7)"/>
      </g>
     </g>
    </g>
    <g id="ytick_3">
     <g id="line2d_10">
      <path d="M 100.125851 275.009929 
L 447.63697 275.009929 
" clip-path="url(#p4bac0cabb5)" style="fill: none; stroke: #cccccc; stroke-width: 0.8; stroke-linecap: round"/>
     </g>
     <g id="text_11">
      <!-- $\mathdefault{10^{1}}$ -->
      <g style="fill: #262626" transform="translate(61.725851 285.322429) scale(0.2 -0.2)">
       <use xlink:href="#ArialMT-31" transform="translate(0 0.99375)"/>
       <use xlink:href="#ArialMT-30" transform="translate(55.615234 0.99375)"/>
       <use xlink:href="#ArialMT-31" transform="translate(112.972813 70.6875) scale(0.7)"/>
      </g>
     </g>
    </g>
    <g id="ytick_4">
     <g id="line2d_11">
      <path d="M 100.125851 227.392821 
L 447.63697 227.392821 
" clip-path="url(#p4bac0cabb5)" style="fill: none; stroke: #cccccc; stroke-width: 0.8; stroke-linecap: round"/>
     </g>
     <g id="text_12">
      <!-- $\mathdefault{10^{2}}$ -->
      <g style="fill: #262626" transform="translate(61.725851 237.705321) scale(0.2 -0.2)">
       <use xlink:href="#ArialMT-31" transform="translate(0 0.99375)"/>
       <use xlink:href="#ArialMT-30" transform="translate(55.615234 0.99375)"/>
       <use xlink:href="#ArialMT-32" transform="translate(112.972813 70.6875) scale(0.7)"/>
      </g>
     </g>
    </g>
    <g id="ytick_5">
     <g id="line2d_12">
      <path d="M 100.125851 179.775714 
L 447.63697 179.775714 
" clip-path="url(#p4bac0cabb5)" style="fill: none; stroke: #cccccc; stroke-width: 0.8; stroke-linecap: round"/>
     </g>
     <g id="text_13">
      <!-- $\mathdefault{10^{3}}$ -->
      <g style="fill: #262626" transform="translate(61.725851 190.088214) scale(0.2 -0.2)">
       <use xlink:href="#ArialMT-31" transform="translate(0 0.99375)"/>
       <use xlink:href="#ArialMT-30" transform="translate(55.615234 0.99375)"/>
       <use xlink:href="#ArialMT-33" transform="translate(112.972813 70.6875) scale(0.7)"/>
      </g>
     </g>
    </g>
    <g id="ytick_6">
     <g id="line2d_13">
      <path d="M 100.125851 132.158607 
L 447.63697 132.158607 
" clip-path="url(#p4bac0cabb5)" style="fill: none; stroke: #cccccc; stroke-width: 0.8; stroke-linecap: round"/>
     </g>
     <g id="text_14">
      <!-- $\mathdefault{10^{4}}$ -->
      <g style="fill: #262626" transform="translate(61.725851 142.371107) scale(0.2 -0.2)">
       <defs>
        <path id="ArialMT-34" d="M 2069 0 
L 2069 1097 
L 81 1097 
L 81 1613 
L 2172 4581 
L 2631 4581 
L 2631 1613 
L 3250 1613 
L 3250 1097 
L 2631 1097 
L 2631 0 
L 2069 0 
z
M 2069 1613 
L 2069 3678 
L 634 1613 
L 2069 1613 
z
" transform="scale(0.015625)"/>
       </defs>
       <use xlink:href="#ArialMT-31" transform="translate(0 0.201563)"/>
       <use xlink:href="#ArialMT-30" transform="translate(55.615234 0.201563)"/>
       <use xlink:href="#ArialMT-34" transform="translate(112.972813 69.895313) scale(0.7)"/>
      </g>
     </g>
    </g>
    <g id="ytick_7">
     <g id="line2d_14">
      <path d="M 100.125851 84.5415 
L 447.63697 84.5415 
" clip-path="url(#p4bac0cabb5)" style="fill: none; stroke: #cccccc; stroke-width: 0.8; stroke-linecap: round"/>
     </g>
     <g id="text_15">
      <!-- $\mathdefault{10^{5}}$ -->
      <g style="fill: #262626" transform="translate(61.725851 94.754) scale(0.2 -0.2)">
       <defs>
        <path id="ArialMT-35" d="M 266 1200 
L 856 1250 
Q 922 819 1161 601 
Q 1400 384 1738 384 
Q 2144 384 2425 690 
Q 2706 997 2706 1503 
Q 2706 1984 2436 2262 
Q 2166 2541 1728 2541 
Q 1456 2541 1237 2417 
Q 1019 2294 894 2097 
L 366 2166 
L 809 4519 
L 3088 4519 
L 3088 3981 
L 1259 3981 
L 1013 2750 
Q 1425 3038 1878 3038 
Q 2478 3038 2890 2622 
Q 3303 2206 3303 1553 
Q 3303 931 2941 478 
Q 2500 -78 1738 -78 
Q 1113 -78 717 272 
Q 322 622 266 1200 
z
" transform="scale(0.015625)"/>
       </defs>
       <use xlink:href="#ArialMT-31" transform="translate(0 0.879688)"/>
       <use xlink:href="#ArialMT-30" transform="translate(55.615234 0.879688)"/>
       <use xlink:href="#ArialMT-35" transform="translate(112.972813 70.573438) scale(0.7)"/>
      </g>
     </g>
    </g>
    <g id="text_16">
     <!-- Unloaded detachment rate $k_0$ ($s^{-1}$) -->
     <g style="fill: #262626" transform="translate(44.245851 439.481375) rotate(-90) scale(0.24 -0.24)">
      <defs>
       <path id="ArialMT-55" d="M 3500 4581 
L 4106 4581 
L 4106 1934 
Q 4106 1244 3950 837 
Q 3794 431 3386 176 
Q 2978 -78 2316 -78 
Q 1672 -78 1262 144 
Q 853 366 678 786 
Q 503 1206 503 1934 
L 503 4581 
L 1109 4581 
L 1109 1938 
Q 1109 1341 1220 1058 
Q 1331 775 1601 622 
Q 1872 469 2263 469 
Q 2931 469 3215 772 
Q 3500 1075 3500 1938 
L 3500 4581 
z
" transform="scale(0.015625)"/>
       <path id="ArialMT-6c" d="M 409 0 
L 409 4581 
L 972 4581 
L 972 0 
L 409 0 
z
" transform="scale(0.015625)"/>
       <path id="ArialMT-6f" d="M 213 1659 
Q 213 2581 725 3025 
Q 1153 3394 1769 3394 
Q 2453 3394 2887 2945 
Q 3322 2497 3322 1706 
Q 3322 1066 3130 698 
Q 2938 331 2570 128 
Q 2203 -75 1769 -75 
Q 1072 -75 642 372 
Q 213 819 213 1659 
z
M 791 1659 
Q 791 1022 1069 705 
Q 1347 388 1769 388 
Q 2188 388 2466 706 
Q 2744 1025 2744 1678 
Q 2744 2294 2464 2611 
Q 2184 2928 1769 2928 
Q 1347 2928 1069 2612 
Q 791 2297 791 1659 
z
" transform="scale(0.015625)"/>
       <path id="ArialMT-64" d="M 2575 0 
L 2575 419 
Q 2259 -75 1647 -75 
Q 1250 -75 917 144 
Q 584 363 401 755 
Q 219 1147 219 1656 
Q 219 2153 384 2558 
Q 550 2963 881 3178 
Q 1213 3394 1622 3394 
Q 1922 3394 2156 3267 
Q 2391 3141 2538 2938 
L 2538 4581 
L 3097 4581 
L 3097 0 
L 2575 0 
z
M 797 1656 
Q 797 1019 1065 703 
Q 1334 388 1700 388 
Q 2069 388 2326 689 
Q 2584 991 2584 1609 
Q 2584 2291 2321 2609 
Q 2059 2928 1675 2928 
Q 1300 2928 1048 2622 
Q 797 2316 797 1656 
z
" transform="scale(0.015625)"/>
       <path id="ArialMT-68" d="M 422 0 
L 422 4581 
L 984 4581 
L 984 2938 
Q 1378 3394 1978 3394 
Q 2347 3394 2619 3248 
Q 2891 3103 3008 2847 
Q 3125 2591 3125 2103 
L 3125 0 
L 2563 0 
L 2563 2103 
Q 2563 2525 2380 2717 
Q 2197 2909 1863 2909 
Q 1613 2909 1392 2779 
Q 1172 2650 1078 2428 
Q 984 2206 984 1816 
L 984 0 
L 422 0 
z
" transform="scale(0.015625)"/>
       <path id="DejaVuSans-Oblique-6b" d="M 1172 4863 
L 1747 4863 
L 1197 2028 
L 3169 3500 
L 3916 3500 
L 1716 1825 
L 3322 0 
L 2625 0 
L 1131 1709 
L 800 0 
L 225 0 
L 1172 4863 
z
" transform="scale(0.015625)"/>
       <path id="DejaVuSans-30" d="M 2034 4250 
Q 1547 4250 1301 3770 
Q 1056 3291 1056 2328 
Q 1056 1369 1301 889 
Q 1547 409 2034 409 
Q 2525 409 2770 889 
Q 3016 1369 3016 2328 
Q 3016 3291 2770 3770 
Q 2525 4250 2034 4250 
z
M 2034 4750 
Q 2819 4750 3233 4129 
Q 3647 3509 3647 2328 
Q 3647 1150 3233 529 
Q 2819 -91 2034 -91 
Q 1250 -91 836 529 
Q 422 1150 422 2328 
Q 422 3509 836 4129 
Q 1250 4750 2034 4750 
z
" transform="scale(0.015625)"/>
       <path id="DejaVuSans-Oblique-73" d="M 3200 3397 
L 3091 2853 
Q 2863 2978 2609 3040 
Q 2356 3103 2088 3103 
Q 1634 3103 1373 2948 
Q 1113 2794 1113 2528 
Q 1113 2219 1719 2053 
Q 1766 2041 1788 2034 
L 1972 1978 
Q 2547 1819 2739 1644 
Q 2931 1469 2931 1166 
Q 2931 609 2489 259 
Q 2047 -91 1331 -91 
Q 1053 -91 747 -37 
Q 441 16 72 128 
L 184 722 
Q 500 559 806 475 
Q 1113 391 1394 391 
Q 1816 391 2080 572 
Q 2344 753 2344 1031 
Q 2344 1331 1650 1516 
L 1591 1531 
L 1394 1581 
Q 956 1697 753 1886 
Q 550 2075 550 2369 
Q 550 2928 970 3256 
Q 1391 3584 2113 3584 
Q 2397 3584 2667 3537 
Q 2938 3491 3200 3397 
z
" transform="scale(0.015625)"/>
       <path id="DejaVuSans-2212" d="M 678 2272 
L 4684 2272 
L 4684 1741 
L 678 1741 
L 678 2272 
z
" transform="scale(0.015625)"/>
       <path id="DejaVuSans-31" d="M 794 531 
L 1825 531 
L 1825 4091 
L 703 3866 
L 703 4441 
L 1819 4666 
L 2450 4666 
L 2450 531 
L 3481 531 
L 3481 0 
L 794 0 
L 794 531 
z
" transform="scale(0.015625)"/>
      </defs>
      <use xlink:href="#ArialMT-55" transform="translate(0 0.684375)"/>
      <use xlink:href="#ArialMT-6e" transform="translate(72.216797 0.684375)"/>
      <use xlink:href="#ArialMT-6c" transform="translate(127.832031 0.684375)"/>
      <use xlink:href="#ArialMT-6f" transform="translate(150.048828 0.684375)"/>
      <use xlink:href="#ArialMT-61" transform="translate(205.664062 0.684375)"/>
      <use xlink:href="#ArialMT-64" transform="translate(261.279297 0.684375)"/>
      <use xlink:href="#ArialMT-65" transform="translate(316.894531 0.684375)"/>
      <use xlink:href="#ArialMT-64" transform="translate(372.509766 0.684375)"/>
      <use xlink:href="#ArialMT-20" transform="translate(428.125 0.684375)"/>
      <use xlink:href="#ArialMT-64" transform="translate(455.908203 0.684375)"/>
      <use xlink:href="#ArialMT-65" transform="translate(511.523438 0.684375)"/>
      <use xlink:href="#ArialMT-74" transform="translate(567.138672 0.684375)"/>
      <use xlink:href="#ArialMT-61" transform="translate(594.921875 0.684375)"/>
      <use xlink:href="#ArialMT-63" transform="translate(650.537109 0.684375)"/>
      <use xlink:href="#ArialMT-68" transform="translate(700.537109 0.684375)"/>
      <use xlink:href="#ArialMT-6d" transform="translate(756.152344 0.684375)"/>
      <use xlink:href="#ArialMT-65" transform="translate(839.453125 0.684375)"/>
      <use xlink:href="#ArialMT-6e" transform="translate(895.068359 0.684375)"/>
      <use xlink:href="#ArialMT-74" transform="translate(950.683594 0.684375)"/>
      <use xlink:href="#ArialMT-20" transform="translate(978.466797 0.684375)"/>
      <use xlink:href="#ArialMT-72" transform="translate(1006.25 0.684375)"/>
      <use xlink:href="#ArialMT-61" transform="translate(1039.550781 0.684375)"/>
      <use xlink:href="#ArialMT-74" transform="translate(1095.166016 0.684375)"/>
      <use xlink:href="#ArialMT-65" transform="translate(1122.949219 0.684375)"/>
      <use xlink:href="#ArialMT-20" transform="translate(1178.564453 0.684375)"/>
      <use xlink:href="#DejaVuSans-Oblique-6b" transform="translate(1206.347656 0.684375)"/>
      <use xlink:href="#DejaVuSans-30" transform="translate(1264.257812 -15.721875) scale(0.7)"/>
      <use xlink:href="#ArialMT-20" transform="translate(1311.52832 0.684375)"/>
      <use xlink:href="#ArialMT-28" transform="translate(1339.311523 0.684375)"/>
      <use xlink:href="#DejaVuSans-Oblique-73" transform="translate(1372.612305 0.684375)"/>
      <use xlink:href="#DejaVuSans-2212" transform="translate(1429.36181 38.965625) scale(0.7)"/>
      <use xlink:href="#DejaVuSans-31" transform="translate(1488.014154 38.965625) scale(0.7)"/>
      <use xlink:href="#ArialMT-29" transform="translate(1535.284661 0.684375)"/>
     </g>
    </g>
   </g>
   <g id="QuadContourSet_1">
    <path d="M 177.487143 417.86125 
L 231.517108 417.86125 
L 258.762621 417.86125 
L 231.517108 414.104974 
L 177.487143 374.126244 
L 158.34644 417.86125 
z
M 447.63697 383.753516 
L 447.63697 370.244143 
L 447.63697 322.627036 
L 447.63697 275.009929 
L 447.63697 227.645337 
L 393.607005 269.523197 
L 393.287805 275.009929 
L 393.607005 278.079278 
L 421.580174 322.627036 
L 444.287951 370.244143 
z
" clip-path="url(#p4bac0cabb5)" style="fill: #0101ff"/>
    <path d="M 177.487143 374.126244 
L 231.517108 414.104974 
L 258.762621 417.86125 
L 285.547074 417.86125 
L 339.577039 417.86125 
L 393.607005 417.86125 
L 447.63697 417.86125 
L 447.63697 383.753516 
L 444.287951 370.244143 
L 421.580174 322.627036 
L 393.607005 278.079278 
L 393.287805 275.009929 
L 393.607005 269.523197 
L 447.63697 227.645337 
L 447.63697 227.392821 
L 447.63697 179.775714 
L 447.63697 132.158607 
L 447.63697 84.5415 
L 443.726216 84.5415 
L 440.387221 132.158607 
L 444.327544 179.775714 
L 419.81085 227.392821 
L 393.607005 231.953883 
L 384.825347 275.009929 
L 342.801017 322.627036 
L 339.577039 322.936515 
L 298.88212 370.244143 
L 285.547074 374.690826 
L 231.517108 378.686912 
L 226.888683 370.244143 
L 177.487143 346.428558 
L 100.125851 359.286971 
L 100.125851 370.244143 
L 100.125851 417.86125 
L 158.34644 417.86125 
z
" clip-path="url(#p4bac0cabb5)" style="fill: #4949ff"/>
    <path d="M 231.517108 378.686912 
L 285.547074 374.690826 
L 298.88212 370.244143 
L 339.577039 322.936515 
L 342.801017 322.627036 
L 384.825347 275.009929 
L 393.607005 231.953883 
L 419.81085 227.392821 
L 444.327544 179.775714 
L 440.387221 132.158607 
L 443.726216 84.5415 
L 431.000646 84.5415 
L 424.952453 132.158607 
L 423.476616 179.775714 
L 393.607005 189.482104 
L 388.354257 227.392821 
L 371.459602 275.009929 
L 339.577039 287.204964 
L 329.944367 322.627036 
L 285.547074 340.35413 
L 231.517108 342.401996 
L 177.487143 335.305852 
L 100.125851 338.771105 
L 100.125851 359.286971 
L 177.487143 346.428558 
L 226.888683 370.244143 
z
" clip-path="url(#p4bac0cabb5)" style="fill: #9191ff"/>
    <path d="M 177.487143 335.305852 
L 231.517108 342.401996 
L 285.547074 340.35413 
L 329.944367 322.627036 
L 339.577039 287.204964 
L 371.459602 275.009929 
L 388.354257 227.392821 
L 393.607005 189.482104 
L 423.476616 179.775714 
L 424.952453 132.158607 
L 431.000646 84.5415 
L 401.130755 84.5415 
L 393.607005 92.072185 
L 384.562876 132.158607 
L 386.415134 179.775714 
L 378.039057 227.392821 
L 339.577039 271.360101 
L 285.547074 249.175687 
L 270.022977 275.009929 
L 285.547074 282.544567 
L 313.013021 322.627036 
L 285.547074 327.957991 
L 231.517108 328.366132 
L 177.487143 328.112672 
L 100.125851 328.677601 
L 100.125851 338.771105 
z
M 231.517108 186.981271 
L 260.665695 179.775714 
L 231.517108 154.204729 
L 213.376118 179.775714 
z
" clip-path="url(#p4bac0cabb5)" style="fill: #d9d9ff"/>
    <path d="M 177.487143 328.112672 
L 231.517108 328.366132 
L 285.547074 327.957991 
L 313.013021 322.627036 
L 285.547074 282.544567 
L 270.022977 275.009929 
L 285.547074 249.175687 
L 339.577039 271.360101 
L 378.039057 227.392821 
L 386.415134 179.775714 
L 384.562876 132.158607 
L 393.607005 92.072185 
L 401.130755 84.5415 
L 393.607005 84.5415 
L 339.577039 84.5415 
L 332.804399 84.5415 
L 328.865837 132.158607 
L 339.577039 155.926295 
L 356.421243 179.775714 
L 359.193023 227.392821 
L 339.577039 234.109757 
L 310.560201 227.392821 
L 313.347156 179.775714 
L 285.547074 169.843277 
L 241.440773 132.158607 
L 268.604779 84.5415 
L 231.517108 84.5415 
L 177.487143 84.5415 
L 100.125851 84.5415 
L 100.125851 114.019479 
L 125.629063 132.158607 
L 148.467868 179.775714 
L 100.125851 193.160095 
L 100.125851 227.392821 
L 100.125851 275.009929 
L 100.125851 322.627036 
L 100.125851 328.677601 
z
M 171.628909 322.627036 
L 176.345448 275.009929 
L 177.487143 269.957904 
L 182.834345 275.009929 
L 191.218129 322.627036 
L 177.487143 322.786126 
z
M 213.376118 179.775714 
L 231.517108 154.204729 
L 260.665695 179.775714 
L 231.517108 186.981271 
z
" clip-path="url(#p4bac0cabb5)" style="fill: #ffd9d9"/>
    <path d="M 177.487143 322.786126 
L 191.218129 322.627036 
L 182.834345 275.009929 
L 177.487143 269.957904 
L 176.345448 275.009929 
L 171.628909 322.627036 
z
M 339.577039 234.109757 
L 359.193023 227.392821 
L 356.421243 179.775714 
L 339.577039 155.926295 
L 328.865837 132.158607 
L 332.804399 84.5415 
L 285.547074 84.5415 
L 268.604779 84.5415 
L 241.440773 132.158607 
L 285.547074 169.843277 
L 313.347156 179.775714 
L 310.560201 227.392821 
z
M 148.467868 179.775714 
L 125.629063 132.158607 
L 100.125851 114.019479 
L 100.125851 132.158607 
L 100.125851 179.775714 
L 100.125851 193.160095 
z
" clip-path="url(#p4bac0cabb5)" style="fill: #ff9191"/>
   </g>
   <g id="PathCollection_1">
    <defs>
     <path id="m024042cf90" d="M -3.535534 7.071068 
L 0 3.535534 
L 3.535534 7.071068 
L 7.071068 3.535534 
L 3.535534 0 
L 7.071068 -3.535534 
L 3.535534 -7.071068 
L 0 -3.535534 
L -3.535534 -7.071068 
L -7.071068 -3.535534 
L -3.535534 0 
L -7.071068 3.535534 
z
" style="stroke: #000000"/>
    </defs>
    <g clip-path="url(#p4bac0cabb5)">
     <use xlink:href="#m024042cf90" x="309.058969" y="235.490268" style="fill: #33ca84; stroke: #000000"/>
    </g>
   </g>
   <g id="PathCollection_2">
    <defs>
     <path id="m3298193870" d="M 0 -8.660254 
L -1.944348 -2.676166 
L -8.236391 -2.676166 
L -3.146021 1.022204 
L -5.09037 7.006293 
L -0 3.307923 
L 5.09037 7.006293 
L 3.146021 1.022204 
L 8.236391 -2.676166 
L 1.944348 -2.676166 
z
" style="stroke: #000000"/>
    </defs>
    <g clip-path="url(#p4bac0cabb5)">
     <use xlink:href="#m3298193870" x="344.670038" y="287.000486" style="fill: #bac284; stroke: #000000"/>
    </g>
   </g>
   <g id="PathCollection_3">
    <defs>
     <path id="m6b447c2d31" d="M -2.357023 7.071068 
L 2.357023 7.071068 
L 2.357023 2.357023 
L 7.071068 2.357023 
L 7.071068 -2.357023 
L 2.357023 -2.357023 
L 2.357023 -7.071068 
L -2.357023 -7.071068 
L -2.357023 -2.357023 
L -7.071068 -2.357023 
L -7.071068 2.357023 
L -2.357023 2.357023 
z
" style="stroke: #000000"/>
    </defs>
    <g clip-path="url(#p4bac0cabb5)">
     <use xlink:href="#m6b447c2d31" x="364.292528" y="312.907433" style="fill: #d15f02; stroke: #000000"/>
    </g>
   </g>
   <g id="patch_3">
    <path d="M 100.125851 417.86125 
L 100.125851 84.5415 
" style="fill: none; stroke: #cccccc; stroke-width: 0.8; stroke-linejoin: miter; stroke-linecap: square"/>
   </g>
   <g id="patch_4">
    <path d="M 447.63697 417.86125 
L 447.63697 84.5415 
" style="fill: none; stroke: #cccccc; stroke-width: 0.8; stroke-linejoin: miter; stroke-linecap: square"/>
   </g>
   <g id="patch_5">
    <path d="M 100.125851 417.86125 
L 447.63697 417.86125 
" style="fill: none; stroke: #cccccc; stroke-width: 0.8; stroke-linejoin: miter; stroke-linecap: square"/>
   </g>
   <g id="patch_6">
    <path d="M 100.125851 84.5415 
L 447.63697 84.5415 
" style="fill: none; stroke: #cccccc; stroke-width: 0.8; stroke-linejoin: miter; stroke-linecap: square"/>
   </g>
   <g id="text_17">
    <!-- Spring constant = 0.2 ($\frac{pN}{nm}$) -->
    <g style="fill: #262626" transform="translate(133.72141 51.3615) scale(0.24 -0.24)">
     <defs>
      <path id="ArialMT-53" d="M 288 1472 
L 859 1522 
Q 900 1178 1048 958 
Q 1197 738 1509 602 
Q 1822 466 2213 466 
Q 2559 466 2825 569 
Q 3091 672 3220 851 
Q 3350 1031 3350 1244 
Q 3350 1459 3225 1620 
Q 3100 1781 2813 1891 
Q 2628 1963 1997 2114 
Q 1366 2266 1113 2400 
Q 784 2572 623 2826 
Q 463 3081 463 3397 
Q 463 3744 659 4045 
Q 856 4347 1234 4503 
Q 1613 4659 2075 4659 
Q 2584 4659 2973 4495 
Q 3363 4331 3572 4012 
Q 3781 3694 3797 3291 
L 3216 3247 
Q 3169 3681 2898 3903 
Q 2628 4125 2100 4125 
Q 1550 4125 1298 3923 
Q 1047 3722 1047 3438 
Q 1047 3191 1225 3031 
Q 1400 2872 2139 2705 
Q 2878 2538 3153 2413 
Q 3553 2228 3743 1945 
Q 3934 1663 3934 1294 
Q 3934 928 3725 604 
Q 3516 281 3123 101 
Q 2731 -78 2241 -78 
Q 1619 -78 1198 103 
Q 778 284 539 648 
Q 300 1013 288 1472 
z
" transform="scale(0.015625)"/>
      <path id="ArialMT-67" d="M 319 -275 
L 866 -356 
Q 900 -609 1056 -725 
Q 1266 -881 1628 -881 
Q 2019 -881 2231 -725 
Q 2444 -569 2519 -288 
Q 2563 -116 2559 434 
Q 2191 0 1641 0 
Q 956 0 581 494 
Q 206 988 206 1678 
Q 206 2153 378 2554 
Q 550 2956 876 3175 
Q 1203 3394 1644 3394 
Q 2231 3394 2613 2919 
L 2613 3319 
L 3131 3319 
L 3131 450 
Q 3131 -325 2973 -648 
Q 2816 -972 2473 -1159 
Q 2131 -1347 1631 -1347 
Q 1038 -1347 672 -1080 
Q 306 -813 319 -275 
z
M 784 1719 
Q 784 1066 1043 766 
Q 1303 466 1694 466 
Q 2081 466 2343 764 
Q 2606 1063 2606 1700 
Q 2606 2309 2336 2618 
Q 2066 2928 1684 2928 
Q 1309 2928 1046 2623 
Q 784 2319 784 1719 
z
" transform="scale(0.015625)"/>
      <path id="ArialMT-3d" d="M 3381 2694 
L 356 2694 
L 356 3219 
L 3381 3219 
L 3381 2694 
z
M 3381 1303 
L 356 1303 
L 356 1828 
L 3381 1828 
L 3381 1303 
z
" transform="scale(0.015625)"/>
      <path id="ArialMT-2e" d="M 581 0 
L 581 641 
L 1222 641 
L 1222 0 
L 581 0 
z
" transform="scale(0.015625)"/>
      <path id="DejaVuSans-Oblique-70" d="M 3175 2156 
Q 3175 2616 2975 2859 
Q 2775 3103 2400 3103 
Q 2144 3103 1911 2972 
Q 1678 2841 1497 2591 
Q 1319 2344 1212 1994 
Q 1106 1644 1106 1300 
Q 1106 863 1306 627 
Q 1506 391 1875 391 
Q 2147 391 2380 519 
Q 2613 647 2778 891 
Q 2956 1147 3065 1494 
Q 3175 1841 3175 2156 
z
M 1394 2969 
Q 1625 3272 1939 3428 
Q 2253 3584 2638 3584 
Q 3175 3584 3472 3232 
Q 3769 2881 3769 2247 
Q 3769 1728 3584 1258 
Q 3400 788 3053 416 
Q 2822 169 2531 39 
Q 2241 -91 1919 -91 
Q 1547 -91 1294 64 
Q 1041 219 916 525 
L 556 -1331 
L -19 -1331 
L 922 3500 
L 1497 3500 
L 1394 2969 
z
" transform="scale(0.015625)"/>
      <path id="DejaVuSans-Oblique-4e" d="M 1081 4666 
L 1931 4666 
L 3219 666 
L 4000 4666 
L 4616 4666 
L 3706 0 
L 2853 0 
L 1569 4025 
L 788 0 
L 172 0 
L 1081 4666 
z
" transform="scale(0.015625)"/>
     </defs>
     <use xlink:href="#ArialMT-53" transform="translate(0 0.610938)"/>
     <use xlink:href="#ArialMT-70" transform="translate(66.699219 0.610938)"/>
     <use xlink:href="#ArialMT-72" transform="translate(122.314453 0.610938)"/>
     <use xlink:href="#ArialMT-69" transform="translate(155.615234 0.610938)"/>
     <use xlink:href="#ArialMT-6e" transform="translate(177.832031 0.610938)"/>
     <use xlink:href="#ArialMT-67" transform="translate(233.447266 0.610938)"/>
     <use xlink:href="#ArialMT-20" transform="translate(289.0625 0.610938)"/>
     <use xlink:href="#ArialMT-63" transform="translate(316.845703 0.610938)"/>
     <use xlink:href="#ArialMT-6f" transform="translate(366.845703 0.610938)"/>
     <use xlink:href="#ArialMT-6e" transform="translate(422.460938 0.610938)"/>
     <use xlink:href="#ArialMT-73" transform="translate(478.076172 0.610938)"/>
     <use xlink:href="#ArialMT-74" transform="translate(528.076172 0.610938)"/>
     <use xlink:href="#ArialMT-61" transform="translate(555.859375 0.610938)"/>
     <use xlink:href="#ArialMT-6e" transform="translate(611.474609 0.610938)"/>
     <use xlink:href="#ArialMT-74" transform="translate(667.089844 0.610938)"/>
     <use xlink:href="#ArialMT-20" transform="translate(694.873047 0.610938)"/>
     <use xlink:href="#ArialMT-3d" transform="translate(722.65625 0.610938)"/>
     <use xlink:href="#ArialMT-20" transform="translate(781.054688 0.610938)"/>
     <use xlink:href="#ArialMT-30" transform="translate(808.837891 0.610938)"/>
     <use xlink:href="#ArialMT-2e" transform="translate(864.453125 0.610938)"/>
     <use xlink:href="#ArialMT-32" transform="translate(892.236328 0.610938)"/>
     <use xlink:href="#ArialMT-20" transform="translate(947.851562 0.610938)"/>
     <use xlink:href="#ArialMT-28" transform="translate(975.634766 0.610938)"/>
     <use xlink:href="#DejaVuSans-Oblique-70" transform="translate(1016.935547 58.965625) scale(0.7)"/>
     <use xlink:href="#DejaVuSans-Oblique-4e" transform="translate(1061.369141 58.965625) scale(0.7)"/>
     <use xlink:href="#DejaVuSans-Oblique-6e" transform="translate(1008.935547 -26.042187) scale(0.7)"/>
     <use xlink:href="#DejaVuSans-Oblique-6d" transform="translate(1053.300781 -26.042187) scale(0.7)"/>
     <use xlink:href="#ArialMT-29" transform="translate(1133.989258 0.610938)"/>
     <path d="M 1008.935547 19.407813 
L 1008.935547 25.657813 
L 1121.489258 25.657813 
L 1121.489258 19.407813 
L 1008.935547 19.407813 
z
"/>
    </g>
    <!-- 100 non-power stroke myosins -->
    <g style="fill: #262626" transform="translate(110.480785 78.5415) scale(0.24 -0.24)">
     <defs>
      <path id="ArialMT-2d" d="M 203 1375 
L 203 1941 
L 1931 1941 
L 1931 1375 
L 203 1375 
z
" transform="scale(0.015625)"/>
      <path id="ArialMT-77" d="M 1034 0 
L 19 3319 
L 600 3319 
L 1128 1403 
L 1325 691 
Q 1338 744 1497 1375 
L 2025 3319 
L 2603 3319 
L 3100 1394 
L 3266 759 
L 3456 1400 
L 4025 3319 
L 4572 3319 
L 3534 0 
L 2950 0 
L 2422 1988 
L 2294 2553 
L 1622 0 
L 1034 0 
z
" transform="scale(0.015625)"/>
      <path id="ArialMT-6b" d="M 425 0 
L 425 4581 
L 988 4581 
L 988 1969 
L 2319 3319 
L 3047 3319 
L 1778 2088 
L 3175 0 
L 2481 0 
L 1384 1697 
L 988 1316 
L 988 0 
L 425 0 
z
" transform="scale(0.015625)"/>
      <path id="ArialMT-79" d="M 397 -1278 
L 334 -750 
Q 519 -800 656 -800 
Q 844 -800 956 -737 
Q 1069 -675 1141 -563 
Q 1194 -478 1313 -144 
Q 1328 -97 1363 -6 
L 103 3319 
L 709 3319 
L 1400 1397 
Q 1534 1031 1641 628 
Q 1738 1016 1872 1384 
L 2581 3319 
L 3144 3319 
L 1881 -56 
Q 1678 -603 1566 -809 
Q 1416 -1088 1222 -1217 
Q 1028 -1347 759 -1347 
Q 597 -1347 397 -1278 
z
" transform="scale(0.015625)"/>
     </defs>
     <use xlink:href="#ArialMT-31"/>
     <use xlink:href="#ArialMT-30" x="55.615234"/>
     <use xlink:href="#ArialMT-30" x="111.230469"/>
     <use xlink:href="#ArialMT-20" x="166.845703"/>
     <use xlink:href="#ArialMT-6e" x="194.628906"/>
     <use xlink:href="#ArialMT-6f" x="250.244141"/>
     <use xlink:href="#ArialMT-6e" x="305.859375"/>
     <use xlink:href="#ArialMT-2d" x="361.474609"/>
     <use xlink:href="#ArialMT-70" x="394.775391"/>
     <use xlink:href="#ArialMT-6f" x="450.390625"/>
     <use xlink:href="#ArialMT-77" x="506.005859"/>
     <use xlink:href="#ArialMT-65" x="578.222656"/>
     <use xlink:href="#ArialMT-72" x="633.837891"/>
     <use xlink:href="#ArialMT-20" x="667.138672"/>
     <use xlink:href="#ArialMT-73" x="694.921875"/>
     <use xlink:href="#ArialMT-74" x="744.921875"/>
     <use xlink:href="#ArialMT-72" x="772.705078"/>
     <use xlink:href="#ArialMT-6f" x="806.005859"/>
     <use xlink:href="#ArialMT-6b" x="861.621094"/>
     <use xlink:href="#ArialMT-65" x="911.621094"/>
     <use xlink:href="#ArialMT-20" x="967.236328"/>
     <use xlink:href="#ArialMT-6d" x="995.019531"/>
     <use xlink:href="#ArialMT-79" x="1078.320312"/>
     <use xlink:href="#ArialMT-6f" x="1128.320312"/>
     <use xlink:href="#ArialMT-73" x="1183.935547"/>
     <use xlink:href="#ArialMT-69" x="1233.935547"/>
     <use xlink:href="#ArialMT-6e" x="1256.152344"/>
     <use xlink:href="#ArialMT-73" x="1311.767578"/>
    </g>
   </g>
   <g id="legend_1">
    <g id="patch_7">
     <path d="M 114.125851 186.23525 
L 238.150851 186.23525 
Q 242.150851 186.23525 242.150851 182.23525 
L 242.150851 98.5415 
Q 242.150851 94.5415 238.150851 94.5415 
L 114.125851 94.5415 
Q 110.125851 94.5415 110.125851 98.5415 
L 110.125851 182.23525 
Q 110.125851 186.23525 114.125851 186.23525 
z
" style="fill: #ffffff; opacity: 0.8; stroke: #cccccc; stroke-linejoin: miter"/>
    </g>
    <g id="PathCollection_4">
     <g>
      <use xlink:href="#m024042cf90" x="138.125851" y="111.607125" style="fill: #33ca84; stroke: #000000"/>
     </g>
    </g>
    <g id="text_18">
     <!-- Myo5 -->
     <g style="fill: #262626" transform="translate(174.125851 116.857125) scale(0.2 -0.2)">
      <defs>
       <path id="ArialMT-4d" d="M 475 0 
L 475 4581 
L 1388 4581 
L 2472 1338 
Q 2622 884 2691 659 
Q 2769 909 2934 1394 
L 4031 4581 
L 4847 4581 
L 4847 0 
L 4263 0 
L 4263 3834 
L 2931 0 
L 2384 0 
L 1059 3900 
L 1059 0 
L 475 0 
z
" transform="scale(0.015625)"/>
      </defs>
      <use xlink:href="#ArialMT-4d"/>
      <use xlink:href="#ArialMT-79" x="83.300781"/>
      <use xlink:href="#ArialMT-6f" x="133.300781"/>
      <use xlink:href="#ArialMT-35" x="188.916016"/>
     </g>
    </g>
    <g id="PathCollection_5">
     <g>
      <use xlink:href="#m3298193870" x="138.125851" y="140.1915" style="fill: #bac284; stroke: #000000"/>
     </g>
    </g>
    <g id="text_19">
     <!-- Myo1c -->
     <g style="fill: #262626" transform="translate(174.125851 145.4415) scale(0.2 -0.2)">
      <use xlink:href="#ArialMT-4d"/>
      <use xlink:href="#ArialMT-79" x="83.300781"/>
      <use xlink:href="#ArialMT-6f" x="133.300781"/>
      <use xlink:href="#ArialMT-31" x="188.916016"/>
      <use xlink:href="#ArialMT-63" x="244.53125"/>
     </g>
    </g>
    <g id="PathCollection_6">
     <g>
      <use xlink:href="#m6b447c2d31" x="138.125851" y="168.775875" style="fill: #d15f02; stroke: #000000"/>
     </g>
    </g>
    <g id="text_20">
     <!-- Myo1b -->
     <g style="fill: #262626" transform="translate(174.125851 174.025875) scale(0.2 -0.2)">
      <defs>
       <path id="ArialMT-62" d="M 941 0 
L 419 0 
L 419 4581 
L 981 4581 
L 981 2947 
Q 1338 3394 1891 3394 
Q 2197 3394 2470 3270 
Q 2744 3147 2920 2923 
Q 3097 2700 3197 2384 
Q 3297 2069 3297 1709 
Q 3297 856 2875 390 
Q 2453 -75 1863 -75 
Q 1275 -75 941 416 
L 941 0 
z
M 934 1684 
Q 934 1088 1097 822 
Q 1363 388 1816 388 
Q 2184 388 2453 708 
Q 2722 1028 2722 1663 
Q 2722 2313 2464 2622 
Q 2206 2931 1841 2931 
Q 1472 2931 1203 2611 
Q 934 2291 934 1684 
z
" transform="scale(0.015625)"/>
      </defs>
      <use xlink:href="#ArialMT-4d"/>
      <use xlink:href="#ArialMT-79" x="83.300781"/>
      <use xlink:href="#ArialMT-6f" x="133.300781"/>
      <use xlink:href="#ArialMT-31" x="188.916016"/>
      <use xlink:href="#ArialMT-62" x="244.53125"/>
     </g>
    </g>
   </g>
  </g>
  <g id="axes_2">
   <g id="patch_8">
    <path d="M 469.356415 417.86125 
L 486.022403 417.86125 
L 486.022403 84.5415 
L 469.356415 84.5415 
z
" style="fill: #ffffff"/>
   </g>
   <g id="matplotlib.axis_3"/>
   <g id="matplotlib.axis_4">
    <g id="ytick_8">
     <g id="line2d_15">
      <defs>
       <path id="mf29f3789ca" d="M 0 0 
L 3.5 0 
" style="stroke: #262626; stroke-width: 0.8"/>
      </defs>
      <g>
       <use xlink:href="#mf29f3789ca" x="486.022403" y="417.86125" style="fill: #262626; stroke: #262626; stroke-width: 0.8"/>
      </g>
     </g>
     <g id="text_21">
      <!-- −40 -->
      <g style="fill: #262626" transform="translate(493.022403 425.019062) scale(0.2 -0.2)">
       <use xlink:href="#ArialMT-2212"/>
       <use xlink:href="#ArialMT-34" x="58.398438"/>
       <use xlink:href="#ArialMT-30" x="114.013672"/>
      </g>
     </g>
    </g>
    <g id="ytick_9">
     <g id="line2d_16">
      <g>
       <use xlink:href="#mf29f3789ca" x="486.022403" y="362.307958" style="fill: #262626; stroke: #262626; stroke-width: 0.8"/>
      </g>
     </g>
     <g id="text_22">
      <!-- −30 -->
      <g style="fill: #262626" transform="translate(493.022403 369.465771) scale(0.2 -0.2)">
       <use xlink:href="#ArialMT-2212"/>
       <use xlink:href="#ArialMT-33" x="58.398438"/>
       <use xlink:href="#ArialMT-30" x="114.013672"/>
      </g>
     </g>
    </g>
    <g id="ytick_10">
     <g id="line2d_17">
      <g>
       <use xlink:href="#mf29f3789ca" x="486.022403" y="306.754667" style="fill: #262626; stroke: #262626; stroke-width: 0.8"/>
      </g>
     </g>
     <g id="text_23">
      <!-- −20 -->
      <g style="fill: #262626" transform="translate(493.022403 313.912479) scale(0.2 -0.2)">
       <use xlink:href="#ArialMT-2212"/>
       <use xlink:href="#ArialMT-32" x="58.398438"/>
       <use xlink:href="#ArialMT-30" x="114.013672"/>
      </g>
     </g>
    </g>
    <g id="ytick_11">
     <g id="line2d_18">
      <g>
       <use xlink:href="#mf29f3789ca" x="486.022403" y="251.201375" style="fill: #262626; stroke: #262626; stroke-width: 0.8"/>
      </g>
     </g>
     <g id="text_24">
      <!-- −10 -->
      <g style="fill: #262626" transform="translate(493.022403 258.359187) scale(0.2 -0.2)">
       <use xlink:href="#ArialMT-2212"/>
       <use xlink:href="#ArialMT-31" x="58.398438"/>
       <use xlink:href="#ArialMT-30" x="114.013672"/>
      </g>
     </g>
    </g>
    <g id="ytick_12">
     <g id="line2d_19">
      <g>
       <use xlink:href="#mf29f3789ca" x="486.022403" y="195.648083" style="fill: #262626; stroke: #262626; stroke-width: 0.8"/>
      </g>
     </g>
     <g id="text_25">
      <!-- 0 -->
      <g style="fill: #262626" transform="translate(493.022403 202.805896) scale(0.2 -0.2)">
       <use xlink:href="#ArialMT-30"/>
      </g>
     </g>
    </g>
    <g id="ytick_13">
     <g id="line2d_20">
      <g>
       <use xlink:href="#mf29f3789ca" x="486.022403" y="140.094792" style="fill: #262626; stroke: #262626; stroke-width: 0.8"/>
      </g>
     </g>
     <g id="text_26">
      <!-- 10 -->
      <g style="fill: #262626" transform="translate(493.022403 147.252604) scale(0.2 -0.2)">
       <use xlink:href="#ArialMT-31"/>
       <use xlink:href="#ArialMT-30" x="55.615234"/>
      </g>
     </g>
    </g>
    <g id="ytick_14">
     <g id="line2d_21">
      <g>
       <use xlink:href="#mf29f3789ca" x="486.022403" y="84.5415" style="fill: #262626; stroke: #262626; stroke-width: 0.8"/>
      </g>
     </g>
     <g id="text_27">
      <!-- 20 -->
      <g style="fill: #262626" transform="translate(493.022403 91.699312) scale(0.2 -0.2)">
       <use xlink:href="#ArialMT-32"/>
       <use xlink:href="#ArialMT-30" x="55.615234"/>
      </g>
     </g>
    </g>
    <g id="text_28">
     <!-- % Change in 95 percentile internalization -->
     <g style="fill: #262626" transform="translate(548.418653 469.32575) rotate(-90) scale(0.24 -0.24)">
      <defs>
       <path id="ArialMT-25" d="M 372 3481 
Q 372 3972 619 4315 
Q 866 4659 1334 4659 
Q 1766 4659 2048 4351 
Q 2331 4044 2331 3447 
Q 2331 2866 2045 2552 
Q 1759 2238 1341 2238 
Q 925 2238 648 2547 
Q 372 2856 372 3481 
z
M 1350 4272 
Q 1141 4272 1002 4090 
Q 863 3909 863 3425 
Q 863 2984 1003 2804 
Q 1144 2625 1350 2625 
Q 1563 2625 1702 2806 
Q 1841 2988 1841 3469 
Q 1841 3913 1700 4092 
Q 1559 4272 1350 4272 
z
M 1353 -169 
L 3859 4659 
L 4316 4659 
L 1819 -169 
L 1353 -169 
z
M 3334 1075 
Q 3334 1569 3581 1911 
Q 3828 2253 4300 2253 
Q 4731 2253 5014 1945 
Q 5297 1638 5297 1041 
Q 5297 459 5011 145 
Q 4725 -169 4303 -169 
Q 3888 -169 3611 142 
Q 3334 453 3334 1075 
z
M 4316 1866 
Q 4103 1866 3964 1684 
Q 3825 1503 3825 1019 
Q 3825 581 3965 400 
Q 4106 219 4313 219 
Q 4528 219 4667 400 
Q 4806 581 4806 1063 
Q 4806 1506 4665 1686 
Q 4525 1866 4316 1866 
z
" transform="scale(0.015625)"/>
       <path id="ArialMT-43" d="M 3763 1606 
L 4369 1453 
Q 4178 706 3683 314 
Q 3188 -78 2472 -78 
Q 1731 -78 1267 223 
Q 803 525 561 1097 
Q 319 1669 319 2325 
Q 319 3041 592 3573 
Q 866 4106 1370 4382 
Q 1875 4659 2481 4659 
Q 3169 4659 3637 4309 
Q 4106 3959 4291 3325 
L 3694 3184 
Q 3534 3684 3231 3912 
Q 2928 4141 2469 4141 
Q 1941 4141 1586 3887 
Q 1231 3634 1087 3207 
Q 944 2781 944 2328 
Q 944 1744 1114 1308 
Q 1284 872 1643 656 
Q 2003 441 2422 441 
Q 2931 441 3284 734 
Q 3638 1028 3763 1606 
z
" transform="scale(0.015625)"/>
       <path id="ArialMT-39" d="M 350 1059 
L 891 1109 
Q 959 728 1153 556 
Q 1347 384 1650 384 
Q 1909 384 2104 503 
Q 2300 622 2425 820 
Q 2550 1019 2634 1356 
Q 2719 1694 2719 2044 
Q 2719 2081 2716 2156 
Q 2547 1888 2255 1720 
Q 1963 1553 1622 1553 
Q 1053 1553 659 1965 
Q 266 2378 266 3053 
Q 266 3750 677 4175 
Q 1088 4600 1706 4600 
Q 2153 4600 2523 4359 
Q 2894 4119 3086 3673 
Q 3278 3228 3278 2384 
Q 3278 1506 3087 986 
Q 2897 466 2520 194 
Q 2144 -78 1638 -78 
Q 1100 -78 759 220 
Q 419 519 350 1059 
z
M 2653 3081 
Q 2653 3566 2395 3850 
Q 2138 4134 1775 4134 
Q 1400 4134 1122 3828 
Q 844 3522 844 3034 
Q 844 2597 1108 2323 
Q 1372 2050 1759 2050 
Q 2150 2050 2401 2323 
Q 2653 2597 2653 3081 
z
" transform="scale(0.015625)"/>
       <path id="ArialMT-7a" d="M 125 0 
L 125 456 
L 2238 2881 
Q 1878 2863 1603 2863 
L 250 2863 
L 250 3319 
L 2963 3319 
L 2963 2947 
L 1166 841 
L 819 456 
Q 1197 484 1528 484 
L 3063 484 
L 3063 0 
L 125 0 
z
" transform="scale(0.015625)"/>
      </defs>
      <use xlink:href="#ArialMT-25"/>
      <use xlink:href="#ArialMT-20" x="88.916016"/>
      <use xlink:href="#ArialMT-43" x="116.699219"/>
      <use xlink:href="#ArialMT-68" x="188.916016"/>
      <use xlink:href="#ArialMT-61" x="244.53125"/>
      <use xlink:href="#ArialMT-6e" x="300.146484"/>
      <use xlink:href="#ArialMT-67" x="355.761719"/>
      <use xlink:href="#ArialMT-65" x="411.376953"/>
      <use xlink:href="#ArialMT-20" x="466.992188"/>
      <use xlink:href="#ArialMT-69" x="494.775391"/>
      <use xlink:href="#ArialMT-6e" x="516.992188"/>
      <use xlink:href="#ArialMT-20" x="572.607422"/>
      <use xlink:href="#ArialMT-39" x="600.390625"/>
      <use xlink:href="#ArialMT-35" x="656.005859"/>
      <use xlink:href="#ArialMT-20" x="711.621094"/>
      <use xlink:href="#ArialMT-70" x="739.404297"/>
      <use xlink:href="#ArialMT-65" x="795.019531"/>
      <use xlink:href="#ArialMT-72" x="850.634766"/>
      <use xlink:href="#ArialMT-63" x="883.935547"/>
      <use xlink:href="#ArialMT-65" x="933.935547"/>
      <use xlink:href="#ArialMT-6e" x="989.550781"/>
      <use xlink:href="#ArialMT-74" x="1045.166016"/>
      <use xlink:href="#ArialMT-69" x="1072.949219"/>
      <use xlink:href="#ArialMT-6c" x="1095.166016"/>
      <use xlink:href="#ArialMT-65" x="1117.382812"/>
      <use xlink:href="#ArialMT-20" x="1172.998047"/>
      <use xlink:href="#ArialMT-69" x="1200.78125"/>
      <use xlink:href="#ArialMT-6e" x="1222.998047"/>
      <use xlink:href="#ArialMT-74" x="1278.613281"/>
      <use xlink:href="#ArialMT-65" x="1306.396484"/>
      <use xlink:href="#ArialMT-72" x="1362.011719"/>
      <use xlink:href="#ArialMT-6e" x="1395.3125"/>
      <use xlink:href="#ArialMT-61" x="1450.927734"/>
      <use xlink:href="#ArialMT-6c" x="1506.542969"/>
      <use xlink:href="#ArialMT-69" x="1528.759766"/>
      <use xlink:href="#ArialMT-7a" x="1550.976562"/>
      <use xlink:href="#ArialMT-61" x="1600.976562"/>
      <use xlink:href="#ArialMT-74" x="1656.591797"/>
      <use xlink:href="#ArialMT-69" x="1684.375"/>
      <use xlink:href="#ArialMT-6f" x="1706.591797"/>
      <use xlink:href="#ArialMT-6e" x="1762.207031"/>
     </g>
    </g>
   </g>
   <g id="QuadMesh_1">
    <path d="M 469.356415 417.86125 
L 486.022403 417.86125 
L 486.022403 362.307958 
L 469.356415 362.307958 
L 469.356415 417.86125 
" clip-path="url(#pf1726586ea)" style="fill: #0101ff"/>
    <path d="M 469.356415 362.307958 
L 486.022403 362.307958 
L 486.022403 306.754667 
L 469.356415 306.754667 
L 469.356415 362.307958 
" clip-path="url(#pf1726586ea)" style="fill: #4949ff"/>
    <path d="M 469.356415 306.754667 
L 486.022403 306.754667 
L 486.022403 251.201375 
L 469.356415 251.201375 
L 469.356415 306.754667 
" clip-path="url(#pf1726586ea)" style="fill: #9191ff"/>
    <path d="M 469.356415 251.201375 
L 486.022403 251.201375 
L 486.022403 195.648083 
L 469.356415 195.648083 
L 469.356415 251.201375 
" clip-path="url(#pf1726586ea)" style="fill: #d9d9ff"/>
    <path d="M 469.356415 195.648083 
L 486.022403 195.648083 
L 486.022403 140.094792 
L 469.356415 140.094792 
L 469.356415 195.648083 
" clip-path="url(#pf1726586ea)" style="fill: #ffd9d9"/>
    <path d="M 469.356415 140.094792 
L 486.022403 140.094792 
L 486.022403 84.5415 
L 469.356415 84.5415 
L 469.356415 140.094792 
" clip-path="url(#pf1726586ea)" style="fill: #ff9191"/>
   </g>
   <g id="LineCollection_1"/>
   <g id="patch_9">
    <path d="M 469.356415 417.86125 
L 477.689409 417.86125 
L 486.022403 417.86125 
L 486.022403 84.5415 
L 477.689409 84.5415 
L 469.356415 84.5415 
L 469.356415 417.86125 
z
" style="fill: none; stroke: #cccccc; stroke-width: 0.8; stroke-linejoin: miter; stroke-linecap: square"/>
   </g>
  </g>
 </g>
 <defs>
  <clipPath id="p4bac0cabb5">
   <rect x="100.125851" y="84.5415" width="347.511119" height="333.31975"/>
  </clipPath>
  <clipPath id="pf1726586ea">
   <rect x="469.356415" y="84.5415" width="16.665987" height="333.31975"/>
  </clipPath>
 </defs>
</svg>
