<?xml version="1.0" encoding="utf-8" standalone="no"?>
<!DOCTYPE svg PUBLIC "-//W3C//DTD SVG 1.1//EN"
  "http://www.w3.org/Graphics/SVG/1.1/DTD/svg11.dtd">
<svg xmlns:xlink="http://www.w3.org/1999/xlink" width="504pt" height="432pt" viewBox="0 0 504 432" xmlns="http://www.w3.org/2000/svg" version="1.1">
 <metadata>
  <rdf:RDF xmlns:dc="http://purl.org/dc/elements/1.1/" xmlns:cc="http://creativecommons.org/ns#" xmlns:rdf="http://www.w3.org/1999/02/22-rdf-syntax-ns#">
   <cc:Work>
    <dc:type rdf:resource="http://purl.org/dc/dcmitype/StillImage"/>
    <dc:date>2025-02-16T01:16:34.263555</dc:date>
    <dc:format>image/svg+xml</dc:format>
    <dc:creator>
     <cc:Agent>
      <dc:title>Matplotlib v3.9.1, https://matplotlib.org/</dc:title>
     </cc:Agent>
    </dc:creator>
   </cc:Work>
  </rdf:RDF>
 </metadata>
 <defs>
  <style type="text/css">*{stroke-linejoin: round; stroke-linecap: butt}</style>
 </defs>
 <g id="figure_1">
  <g id="patch_1">
   <path d="M 0 432 
L 504 432 
L 504 0 
L 0 0 
z
" style="fill: #ffffff"/>
  </g>
  <g id="axes_1">
   <g id="patch_2">
    <path d="M 80.84 354.76 
L 482.4 354.76 
L 482.4 21.6 
L 80.84 21.6 
z
" style="fill: #ffffff"/>
   </g>
   <g id="matplotlib.axis_1">
    <g id="xtick_1">
     <g id="line2d_1">
      <path d="M 95.405308 354.76 
L 95.405308 21.6 
" clip-path="url(#pb1ee4dd6e1)" style="fill: none; stroke: #cccccc; stroke-width: 0.8; stroke-linecap: round"/>
     </g>
     <g id="text_1">
      <!-- 0 -->
      <g style="fill: #262626" transform="translate(89.84437 376.075625) scale(0.2 -0.2)">
       <defs>
        <path id="ArialMT-30" d="M 266 2259 
Q 266 3072 433 3567 
Q 600 4063 929 4331 
Q 1259 4600 1759 4600 
Q 2128 4600 2406 4451 
Q 2684 4303 2865 4023 
Q 3047 3744 3150 3342 
Q 3253 2941 3253 2259 
Q 3253 1453 3087 958 
Q 2922 463 2592 192 
Q 2263 -78 1759 -78 
Q 1097 -78 719 397 
Q 266 969 266 2259 
z
M 844 2259 
Q 844 1131 1108 757 
Q 1372 384 1759 384 
Q 2147 384 2411 759 
Q 2675 1134 2675 2259 
Q 2675 3391 2411 3762 
Q 2147 4134 1753 4134 
Q 1366 4134 1134 3806 
Q 844 3388 844 2259 
z
" transform="scale(0.015625)"/>
       </defs>
       <use xlink:href="#ArialMT-30"/>
      </g>
     </g>
    </g>
    <g id="xtick_2">
     <g id="line2d_2">
      <path d="M 169.153701 354.76 
L 169.153701 21.6 
" clip-path="url(#pb1ee4dd6e1)" style="fill: none; stroke: #cccccc; stroke-width: 0.8; stroke-linecap: round"/>
     </g>
     <g id="text_2">
      <!-- 2 -->
      <g style="fill: #262626" transform="translate(163.592763 376.075625) scale(0.2 -0.2)">
       <defs>
        <path id="ArialMT-32" d="M 3222 541 
L 3222 0 
L 194 0 
Q 188 203 259 391 
Q 375 700 629 1000 
Q 884 1300 1366 1694 
Q 2113 2306 2375 2664 
Q 2638 3022 2638 3341 
Q 2638 3675 2398 3904 
Q 2159 4134 1775 4134 
Q 1369 4134 1125 3890 
Q 881 3647 878 3216 
L 300 3275 
Q 359 3922 746 4261 
Q 1134 4600 1788 4600 
Q 2447 4600 2831 4234 
Q 3216 3869 3216 3328 
Q 3216 3053 3103 2787 
Q 2991 2522 2730 2228 
Q 2469 1934 1863 1422 
Q 1356 997 1212 845 
Q 1069 694 975 541 
L 3222 541 
z
" transform="scale(0.015625)"/>
       </defs>
       <use xlink:href="#ArialMT-32"/>
      </g>
     </g>
    </g>
    <g id="xtick_3">
     <g id="line2d_3">
      <path d="M 242.902094 354.76 
L 242.902094 21.6 
" clip-path="url(#pb1ee4dd6e1)" style="fill: none; stroke: #cccccc; stroke-width: 0.8; stroke-linecap: round"/>
     </g>
     <g id="text_3">
      <!-- 4 -->
      <g style="fill: #262626" transform="translate(237.341156 376.075625) scale(0.2 -0.2)">
       <defs>
        <path id="ArialMT-34" d="M 2069 0 
L 2069 1097 
L 81 1097 
L 81 1613 
L 2172 4581 
L 2631 4581 
L 2631 1613 
L 3250 1613 
L 3250 1097 
L 2631 1097 
L 2631 0 
L 2069 0 
z
M 2069 1613 
L 2069 3678 
L 634 1613 
L 2069 1613 
z
" transform="scale(0.015625)"/>
       </defs>
       <use xlink:href="#ArialMT-34"/>
      </g>
     </g>
    </g>
    <g id="xtick_4">
     <g id="line2d_4">
      <path d="M 316.650487 354.76 
L 316.650487 21.6 
" clip-path="url(#pb1ee4dd6e1)" style="fill: none; stroke: #cccccc; stroke-width: 0.8; stroke-linecap: round"/>
     </g>
     <g id="text_4">
      <!-- 6 -->
      <g style="fill: #262626" transform="translate(311.089549 376.075625) scale(0.2 -0.2)">
       <defs>
        <path id="ArialMT-36" d="M 3184 3459 
L 2625 3416 
Q 2550 3747 2413 3897 
Q 2184 4138 1850 4138 
Q 1581 4138 1378 3988 
Q 1113 3794 959 3422 
Q 806 3050 800 2363 
Q 1003 2672 1297 2822 
Q 1591 2972 1913 2972 
Q 2475 2972 2870 2558 
Q 3266 2144 3266 1488 
Q 3266 1056 3080 686 
Q 2894 316 2569 119 
Q 2244 -78 1831 -78 
Q 1128 -78 684 439 
Q 241 956 241 2144 
Q 241 3472 731 4075 
Q 1159 4600 1884 4600 
Q 2425 4600 2770 4297 
Q 3116 3994 3184 3459 
z
M 888 1484 
Q 888 1194 1011 928 
Q 1134 663 1356 523 
Q 1578 384 1822 384 
Q 2178 384 2434 671 
Q 2691 959 2691 1453 
Q 2691 1928 2437 2201 
Q 2184 2475 1800 2475 
Q 1419 2475 1153 2201 
Q 888 1928 888 1484 
z
" transform="scale(0.015625)"/>
       </defs>
       <use xlink:href="#ArialMT-36"/>
      </g>
     </g>
    </g>
    <g id="xtick_5">
     <g id="line2d_5">
      <path d="M 390.39888 354.76 
L 390.39888 21.6 
" clip-path="url(#pb1ee4dd6e1)" style="fill: none; stroke: #cccccc; stroke-width: 0.8; stroke-linecap: round"/>
     </g>
     <g id="text_5">
      <!-- 8 -->
      <g style="fill: #262626" transform="translate(384.837942 376.075625) scale(0.2 -0.2)">
       <defs>
        <path id="ArialMT-38" d="M 1131 2484 
Q 781 2613 612 2850 
Q 444 3088 444 3419 
Q 444 3919 803 4259 
Q 1163 4600 1759 4600 
Q 2359 4600 2725 4251 
Q 3091 3903 3091 3403 
Q 3091 3084 2923 2848 
Q 2756 2613 2416 2484 
Q 2838 2347 3058 2040 
Q 3278 1734 3278 1309 
Q 3278 722 2862 322 
Q 2447 -78 1769 -78 
Q 1091 -78 675 323 
Q 259 725 259 1325 
Q 259 1772 486 2073 
Q 713 2375 1131 2484 
z
M 1019 3438 
Q 1019 3113 1228 2906 
Q 1438 2700 1772 2700 
Q 2097 2700 2305 2904 
Q 2513 3109 2513 3406 
Q 2513 3716 2298 3927 
Q 2084 4138 1766 4138 
Q 1444 4138 1231 3931 
Q 1019 3725 1019 3438 
z
M 838 1322 
Q 838 1081 952 856 
Q 1066 631 1291 507 
Q 1516 384 1775 384 
Q 2178 384 2440 643 
Q 2703 903 2703 1303 
Q 2703 1709 2433 1975 
Q 2163 2241 1756 2241 
Q 1359 2241 1098 1978 
Q 838 1716 838 1322 
z
" transform="scale(0.015625)"/>
       </defs>
       <use xlink:href="#ArialMT-38"/>
      </g>
     </g>
    </g>
    <g id="xtick_6">
     <g id="line2d_6">
      <path d="M 464.147273 354.76 
L 464.147273 21.6 
" clip-path="url(#pb1ee4dd6e1)" style="fill: none; stroke: #cccccc; stroke-width: 0.8; stroke-linecap: round"/>
     </g>
     <g id="text_6">
      <!-- 10 -->
      <g style="fill: #262626" transform="translate(453.025398 376.075625) scale(0.2 -0.2)">
       <defs>
        <path id="ArialMT-31" d="M 2384 0 
L 1822 0 
L 1822 3584 
Q 1619 3391 1289 3197 
Q 959 3003 697 2906 
L 697 3450 
Q 1169 3672 1522 3987 
Q 1875 4303 2022 4600 
L 2384 4600 
L 2384 0 
z
" transform="scale(0.015625)"/>
       </defs>
       <use xlink:href="#ArialMT-31"/>
       <use xlink:href="#ArialMT-30" x="55.615234"/>
      </g>
     </g>
    </g>
    <g id="text_7">
     <!-- time ($s$) -->
     <g style="fill: #262626" transform="translate(241.3 401.570625) scale(0.24 -0.24)">
      <defs>
       <path id="ArialMT-74" d="M 1650 503 
L 1731 6 
Q 1494 -44 1306 -44 
Q 1000 -44 831 53 
Q 663 150 594 308 
Q 525 466 525 972 
L 525 2881 
L 113 2881 
L 113 3319 
L 525 3319 
L 525 4141 
L 1084 4478 
L 1084 3319 
L 1650 3319 
L 1650 2881 
L 1084 2881 
L 1084 941 
Q 1084 700 1114 631 
Q 1144 563 1211 522 
Q 1278 481 1403 481 
Q 1497 481 1650 503 
z
" transform="scale(0.015625)"/>
       <path id="ArialMT-69" d="M 425 3934 
L 425 4581 
L 988 4581 
L 988 3934 
L 425 3934 
z
M 425 0 
L 425 3319 
L 988 3319 
L 988 0 
L 425 0 
z
" transform="scale(0.015625)"/>
       <path id="ArialMT-6d" d="M 422 0 
L 422 3319 
L 925 3319 
L 925 2853 
Q 1081 3097 1340 3245 
Q 1600 3394 1931 3394 
Q 2300 3394 2536 3241 
Q 2772 3088 2869 2813 
Q 3263 3394 3894 3394 
Q 4388 3394 4653 3120 
Q 4919 2847 4919 2278 
L 4919 0 
L 4359 0 
L 4359 2091 
Q 4359 2428 4304 2576 
Q 4250 2725 4106 2815 
Q 3963 2906 3769 2906 
Q 3419 2906 3187 2673 
Q 2956 2441 2956 1928 
L 2956 0 
L 2394 0 
L 2394 2156 
Q 2394 2531 2256 2718 
Q 2119 2906 1806 2906 
Q 1569 2906 1367 2781 
Q 1166 2656 1075 2415 
Q 984 2175 984 1722 
L 984 0 
L 422 0 
z
" transform="scale(0.015625)"/>
       <path id="ArialMT-65" d="M 2694 1069 
L 3275 997 
Q 3138 488 2766 206 
Q 2394 -75 1816 -75 
Q 1088 -75 661 373 
Q 234 822 234 1631 
Q 234 2469 665 2931 
Q 1097 3394 1784 3394 
Q 2450 3394 2872 2941 
Q 3294 2488 3294 1666 
Q 3294 1616 3291 1516 
L 816 1516 
Q 847 969 1125 678 
Q 1403 388 1819 388 
Q 2128 388 2347 550 
Q 2566 713 2694 1069 
z
M 847 1978 
L 2700 1978 
Q 2663 2397 2488 2606 
Q 2219 2931 1791 2931 
Q 1403 2931 1139 2672 
Q 875 2413 847 1978 
z
" transform="scale(0.015625)"/>
       <path id="ArialMT-20" transform="scale(0.015625)"/>
       <path id="ArialMT-28" d="M 1497 -1347 
Q 1031 -759 709 28 
Q 388 816 388 1659 
Q 388 2403 628 3084 
Q 909 3875 1497 4659 
L 1900 4659 
Q 1522 4009 1400 3731 
Q 1209 3300 1100 2831 
Q 966 2247 966 1656 
Q 966 153 1900 -1347 
L 1497 -1347 
z
" transform="scale(0.015625)"/>
       <path id="DejaVuSans-Oblique-73" d="M 3200 3397 
L 3091 2853 
Q 2863 2978 2609 3040 
Q 2356 3103 2088 3103 
Q 1634 3103 1373 2948 
Q 1113 2794 1113 2528 
Q 1113 2219 1719 2053 
Q 1766 2041 1788 2034 
L 1972 1978 
Q 2547 1819 2739 1644 
Q 2931 1469 2931 1166 
Q 2931 609 2489 259 
Q 2047 -91 1331 -91 
Q 1053 -91 747 -37 
Q 441 16 72 128 
L 184 722 
Q 500 559 806 475 
Q 1113 391 1394 391 
Q 1816 391 2080 572 
Q 2344 753 2344 1031 
Q 2344 1331 1650 1516 
L 1591 1531 
L 1394 1581 
Q 956 1697 753 1886 
Q 550 2075 550 2369 
Q 550 2928 970 3256 
Q 1391 3584 2113 3584 
Q 2397 3584 2667 3537 
Q 2938 3491 3200 3397 
z
" transform="scale(0.015625)"/>
       <path id="ArialMT-29" d="M 791 -1347 
L 388 -1347 
Q 1322 153 1322 1656 
Q 1322 2244 1188 2822 
Q 1081 3291 891 3722 
Q 769 4003 388 4659 
L 791 4659 
Q 1378 3875 1659 3084 
Q 1900 2403 1900 1659 
Q 1900 816 1576 28 
Q 1253 -759 791 -1347 
z
" transform="scale(0.015625)"/>
      </defs>
      <use xlink:href="#ArialMT-74" transform="translate(0 0.203125)"/>
      <use xlink:href="#ArialMT-69" transform="translate(27.783203 0.203125)"/>
      <use xlink:href="#ArialMT-6d" transform="translate(50 0.203125)"/>
      <use xlink:href="#ArialMT-65" transform="translate(133.300781 0.203125)"/>
      <use xlink:href="#ArialMT-20" transform="translate(188.916016 0.203125)"/>
      <use xlink:href="#ArialMT-28" transform="translate(216.699219 0.203125)"/>
      <use xlink:href="#DejaVuSans-Oblique-73" transform="translate(250 0.203125)"/>
      <use xlink:href="#ArialMT-29" transform="translate(302.099609 0.203125)"/>
     </g>
    </g>
   </g>
   <g id="matplotlib.axis_2">
    <g id="ytick_1">
     <g id="line2d_7">
      <path d="M 80.84 339.616364 
L 482.4 339.616364 
" clip-path="url(#pb1ee4dd6e1)" style="fill: none; stroke: #cccccc; stroke-width: 0.8; stroke-linecap: round"/>
     </g>
     <g id="text_8">
      <!-- 0 -->
      <g style="fill: #262626" transform="translate(62.718125 346.774176) scale(0.2 -0.2)">
       <use xlink:href="#ArialMT-30"/>
      </g>
     </g>
    </g>
    <g id="ytick_2">
     <g id="line2d_8">
      <path d="M 80.84 284.726239 
L 482.4 284.726239 
" clip-path="url(#pb1ee4dd6e1)" style="fill: none; stroke: #cccccc; stroke-width: 0.8; stroke-linecap: round"/>
     </g>
     <g id="text_9">
      <!-- 10 -->
      <g style="fill: #262626" transform="translate(51.59625 291.884052) scale(0.2 -0.2)">
       <use xlink:href="#ArialMT-31"/>
       <use xlink:href="#ArialMT-30" x="55.615234"/>
      </g>
     </g>
    </g>
    <g id="ytick_3">
     <g id="line2d_9">
      <path d="M 80.84 229.836115 
L 482.4 229.836115 
" clip-path="url(#pb1ee4dd6e1)" style="fill: none; stroke: #cccccc; stroke-width: 0.8; stroke-linecap: round"/>
     </g>
     <g id="text_10">
      <!-- 20 -->
      <g style="fill: #262626" transform="translate(51.59625 236.993928) scale(0.2 -0.2)">
       <use xlink:href="#ArialMT-32"/>
       <use xlink:href="#ArialMT-30" x="55.615234"/>
      </g>
     </g>
    </g>
    <g id="ytick_4">
     <g id="line2d_10">
      <path d="M 80.84 174.945991 
L 482.4 174.945991 
" clip-path="url(#pb1ee4dd6e1)" style="fill: none; stroke: #cccccc; stroke-width: 0.8; stroke-linecap: round"/>
     </g>
     <g id="text_11">
      <!-- 30 -->
      <g style="fill: #262626" transform="translate(51.59625 182.103804) scale(0.2 -0.2)">
       <defs>
        <path id="ArialMT-33" d="M 269 1209 
L 831 1284 
Q 928 806 1161 595 
Q 1394 384 1728 384 
Q 2125 384 2398 659 
Q 2672 934 2672 1341 
Q 2672 1728 2419 1979 
Q 2166 2231 1775 2231 
Q 1616 2231 1378 2169 
L 1441 2663 
Q 1497 2656 1531 2656 
Q 1891 2656 2178 2843 
Q 2466 3031 2466 3422 
Q 2466 3731 2256 3934 
Q 2047 4138 1716 4138 
Q 1388 4138 1169 3931 
Q 950 3725 888 3313 
L 325 3413 
Q 428 3978 793 4289 
Q 1159 4600 1703 4600 
Q 2078 4600 2393 4439 
Q 2709 4278 2876 4000 
Q 3044 3722 3044 3409 
Q 3044 3113 2884 2869 
Q 2725 2625 2413 2481 
Q 2819 2388 3044 2092 
Q 3269 1797 3269 1353 
Q 3269 753 2831 336 
Q 2394 -81 1725 -81 
Q 1122 -81 723 278 
Q 325 638 269 1209 
z
" transform="scale(0.015625)"/>
       </defs>
       <use xlink:href="#ArialMT-33"/>
       <use xlink:href="#ArialMT-30" x="55.615234"/>
      </g>
     </g>
    </g>
    <g id="ytick_5">
     <g id="line2d_11">
      <path d="M 80.84 120.055867 
L 482.4 120.055867 
" clip-path="url(#pb1ee4dd6e1)" style="fill: none; stroke: #cccccc; stroke-width: 0.8; stroke-linecap: round"/>
     </g>
     <g id="text_12">
      <!-- 40 -->
      <g style="fill: #262626" transform="translate(51.59625 127.213679) scale(0.2 -0.2)">
       <use xlink:href="#ArialMT-34"/>
       <use xlink:href="#ArialMT-30" x="55.615234"/>
      </g>
     </g>
    </g>
    <g id="ytick_6">
     <g id="line2d_12">
      <path d="M 80.84 65.165743 
L 482.4 65.165743 
" clip-path="url(#pb1ee4dd6e1)" style="fill: none; stroke: #cccccc; stroke-width: 0.8; stroke-linecap: round"/>
     </g>
     <g id="text_13">
      <!-- 50 -->
      <g style="fill: #262626" transform="translate(51.59625 72.323555) scale(0.2 -0.2)">
       <defs>
        <path id="ArialMT-35" d="M 266 1200 
L 856 1250 
Q 922 819 1161 601 
Q 1400 384 1738 384 
Q 2144 384 2425 690 
Q 2706 997 2706 1503 
Q 2706 1984 2436 2262 
Q 2166 2541 1728 2541 
Q 1456 2541 1237 2417 
Q 1019 2294 894 2097 
L 366 2166 
L 809 4519 
L 3088 4519 
L 3088 3981 
L 1259 3981 
L 1013 2750 
Q 1425 3038 1878 3038 
Q 2478 3038 2890 2622 
Q 3303 2206 3303 1553 
Q 3303 931 2941 478 
Q 2500 -78 1738 -78 
Q 1113 -78 717 272 
Q 322 622 266 1200 
z
" transform="scale(0.015625)"/>
       </defs>
       <use xlink:href="#ArialMT-35"/>
       <use xlink:href="#ArialMT-30" x="55.615234"/>
      </g>
     </g>
    </g>
    <g id="text_14">
     <!-- internalization ($nm$) -->
     <g style="fill: #262626" transform="translate(42.31625 292.94) rotate(-90) scale(0.24 -0.24)">
      <defs>
       <path id="ArialMT-6e" d="M 422 0 
L 422 3319 
L 928 3319 
L 928 2847 
Q 1294 3394 1984 3394 
Q 2284 3394 2536 3286 
Q 2788 3178 2913 3003 
Q 3038 2828 3088 2588 
Q 3119 2431 3119 2041 
L 3119 0 
L 2556 0 
L 2556 2019 
Q 2556 2363 2490 2533 
Q 2425 2703 2258 2804 
Q 2091 2906 1866 2906 
Q 1506 2906 1245 2678 
Q 984 2450 984 1813 
L 984 0 
L 422 0 
z
" transform="scale(0.015625)"/>
       <path id="ArialMT-72" d="M 416 0 
L 416 3319 
L 922 3319 
L 922 2816 
Q 1116 3169 1280 3281 
Q 1444 3394 1641 3394 
Q 1925 3394 2219 3213 
L 2025 2691 
Q 1819 2813 1613 2813 
Q 1428 2813 1281 2702 
Q 1134 2591 1072 2394 
Q 978 2094 978 1738 
L 978 0 
L 416 0 
z
" transform="scale(0.015625)"/>
       <path id="ArialMT-61" d="M 2588 409 
Q 2275 144 1986 34 
Q 1697 -75 1366 -75 
Q 819 -75 525 192 
Q 231 459 231 875 
Q 231 1119 342 1320 
Q 453 1522 633 1644 
Q 813 1766 1038 1828 
Q 1203 1872 1538 1913 
Q 2219 1994 2541 2106 
Q 2544 2222 2544 2253 
Q 2544 2597 2384 2738 
Q 2169 2928 1744 2928 
Q 1347 2928 1158 2789 
Q 969 2650 878 2297 
L 328 2372 
Q 403 2725 575 2942 
Q 747 3159 1072 3276 
Q 1397 3394 1825 3394 
Q 2250 3394 2515 3294 
Q 2781 3194 2906 3042 
Q 3031 2891 3081 2659 
Q 3109 2516 3109 2141 
L 3109 1391 
Q 3109 606 3145 398 
Q 3181 191 3288 0 
L 2700 0 
Q 2613 175 2588 409 
z
M 2541 1666 
Q 2234 1541 1622 1453 
Q 1275 1403 1131 1340 
Q 988 1278 909 1158 
Q 831 1038 831 891 
Q 831 666 1001 516 
Q 1172 366 1500 366 
Q 1825 366 2078 508 
Q 2331 650 2450 897 
Q 2541 1088 2541 1459 
L 2541 1666 
z
" transform="scale(0.015625)"/>
       <path id="ArialMT-6c" d="M 409 0 
L 409 4581 
L 972 4581 
L 972 0 
L 409 0 
z
" transform="scale(0.015625)"/>
       <path id="ArialMT-7a" d="M 125 0 
L 125 456 
L 2238 2881 
Q 1878 2863 1603 2863 
L 250 2863 
L 250 3319 
L 2963 3319 
L 2963 2947 
L 1166 841 
L 819 456 
Q 1197 484 1528 484 
L 3063 484 
L 3063 0 
L 125 0 
z
" transform="scale(0.015625)"/>
       <path id="ArialMT-6f" d="M 213 1659 
Q 213 2581 725 3025 
Q 1153 3394 1769 3394 
Q 2453 3394 2887 2945 
Q 3322 2497 3322 1706 
Q 3322 1066 3130 698 
Q 2938 331 2570 128 
Q 2203 -75 1769 -75 
Q 1072 -75 642 372 
Q 213 819 213 1659 
z
M 791 1659 
Q 791 1022 1069 705 
Q 1347 388 1769 388 
Q 2188 388 2466 706 
Q 2744 1025 2744 1678 
Q 2744 2294 2464 2611 
Q 2184 2928 1769 2928 
Q 1347 2928 1069 2612 
Q 791 2297 791 1659 
z
" transform="scale(0.015625)"/>
       <path id="DejaVuSans-Oblique-6e" d="M 3566 2113 
L 3156 0 
L 2578 0 
L 2988 2091 
Q 3016 2238 3031 2350 
Q 3047 2463 3047 2528 
Q 3047 2791 2881 2937 
Q 2716 3084 2419 3084 
Q 1956 3084 1622 2776 
Q 1288 2469 1184 1941 
L 800 0 
L 225 0 
L 903 3500 
L 1478 3500 
L 1363 2950 
Q 1603 3253 1940 3418 
Q 2278 3584 2650 3584 
Q 3113 3584 3367 3334 
Q 3622 3084 3622 2631 
Q 3622 2519 3608 2391 
Q 3594 2263 3566 2113 
z
" transform="scale(0.015625)"/>
       <path id="DejaVuSans-Oblique-6d" d="M 5747 2113 
L 5338 0 
L 4763 0 
L 5166 2094 
Q 5191 2228 5203 2325 
Q 5216 2422 5216 2491 
Q 5216 2772 5059 2928 
Q 4903 3084 4622 3084 
Q 4203 3084 3875 2770 
Q 3547 2456 3450 1953 
L 3066 0 
L 2491 0 
L 2900 2094 
Q 2925 2209 2937 2307 
Q 2950 2406 2950 2484 
Q 2950 2769 2794 2926 
Q 2638 3084 2363 3084 
Q 1938 3084 1609 2770 
Q 1281 2456 1184 1953 
L 800 0 
L 225 0 
L 909 3500 
L 1484 3500 
L 1375 2956 
Q 1609 3263 1923 3423 
Q 2238 3584 2597 3584 
Q 2978 3584 3223 3384 
Q 3469 3184 3519 2828 
Q 3781 3197 4126 3390 
Q 4472 3584 4856 3584 
Q 5306 3584 5551 3325 
Q 5797 3066 5797 2591 
Q 5797 2488 5784 2364 
Q 5772 2241 5747 2113 
z
" transform="scale(0.015625)"/>
      </defs>
      <use xlink:href="#ArialMT-69" transform="translate(0 0.203125)"/>
      <use xlink:href="#ArialMT-6e" transform="translate(22.216797 0.203125)"/>
      <use xlink:href="#ArialMT-74" transform="translate(77.832031 0.203125)"/>
      <use xlink:href="#ArialMT-65" transform="translate(105.615234 0.203125)"/>
      <use xlink:href="#ArialMT-72" transform="translate(161.230469 0.203125)"/>
      <use xlink:href="#ArialMT-6e" transform="translate(194.53125 0.203125)"/>
      <use xlink:href="#ArialMT-61" transform="translate(250.146484 0.203125)"/>
      <use xlink:href="#ArialMT-6c" transform="translate(305.761719 0.203125)"/>
      <use xlink:href="#ArialMT-69" transform="translate(327.978516 0.203125)"/>
      <use xlink:href="#ArialMT-7a" transform="translate(350.195312 0.203125)"/>
      <use xlink:href="#ArialMT-61" transform="translate(400.195312 0.203125)"/>
      <use xlink:href="#ArialMT-74" transform="translate(455.810547 0.203125)"/>
      <use xlink:href="#ArialMT-69" transform="translate(483.59375 0.203125)"/>
      <use xlink:href="#ArialMT-6f" transform="translate(505.810547 0.203125)"/>
      <use xlink:href="#ArialMT-6e" transform="translate(561.425781 0.203125)"/>
      <use xlink:href="#ArialMT-20" transform="translate(617.041016 0.203125)"/>
      <use xlink:href="#ArialMT-28" transform="translate(644.824219 0.203125)"/>
      <use xlink:href="#DejaVuSans-Oblique-6e" transform="translate(678.125 0.203125)"/>
      <use xlink:href="#DejaVuSans-Oblique-6d" transform="translate(741.503906 0.203125)"/>
      <use xlink:href="#ArialMT-29" transform="translate(838.916016 0.203125)"/>
     </g>
    </g>
   </g>
   <g id="PolyCollection_1">
    <defs>
     <path id="m795f207790" d="M 135.966924 -120.667167 
L 135.966924 -92.383636 
L 139.654343 -92.383636 
L 139.654343 -118.711256 
L 139.654343 -118.711256 
L 135.966924 -120.667167 
z
" style="stroke: #ff0000; stroke-opacity: 0.1"/>
    </defs>
    <g clip-path="url(#pb1ee4dd6e1)">
     <use xlink:href="#m795f207790" x="0" y="432" style="fill: #ff0000; fill-opacity: 0.1; stroke: #ff0000; stroke-opacity: 0.1"/>
    </g>
   </g>
   <g id="PolyCollection_2">
    <defs>
     <path id="m2146f82571" d="M 165.466281 -189.203104 
L 165.466281 -92.383636 
L 169.153701 -92.383636 
L 172.84112 -92.383636 
L 176.52854 -92.383636 
L 180.21596 -92.383636 
L 183.903379 -92.383636 
L 187.590799 -92.383636 
L 191.278219 -92.383636 
L 191.278219 -184.603762 
L 191.278219 -184.603762 
L 187.590799 -185.175777 
L 183.903379 -185.777103 
L 180.21596 -186.251238 
L 176.52854 -187.770708 
L 172.84112 -188.697279 
L 169.153701 -189.113114 
L 165.466281 -189.203104 
z
" style="stroke: #ff0000; stroke-opacity: 0.1"/>
    </defs>
    <g clip-path="url(#pb1ee4dd6e1)">
     <use xlink:href="#m2146f82571" x="0" y="432" style="fill: #ff0000; fill-opacity: 0.1; stroke: #ff0000; stroke-opacity: 0.1"/>
    </g>
   </g>
   <g id="PolyCollection_3">
    <defs>
     <path id="m2f037dd2e8" d="M 202.340478 -191.220338 
L 202.340478 -92.383636 
L 206.027897 -92.383636 
L 206.027897 -190.39274 
L 206.027897 -190.39274 
L 202.340478 -191.220338 
z
" style="stroke: #ff0000; stroke-opacity: 0.1"/>
    </defs>
    <g clip-path="url(#pb1ee4dd6e1)">
     <use xlink:href="#m2f037dd2e8" x="0" y="432" style="fill: #ff0000; fill-opacity: 0.1; stroke: #ff0000; stroke-opacity: 0.1"/>
    </g>
   </g>
   <g id="PolyCollection_4">
    <defs>
     <path id="macc762b617" d="M 209.715317 -191.110858 
L 209.715317 -92.383636 
L 213.402736 -92.383636 
L 213.402736 -190.20665 
L 213.402736 -190.20665 
L 209.715317 -191.110858 
z
" style="stroke: #ff0000; stroke-opacity: 0.1"/>
    </defs>
    <g clip-path="url(#pb1ee4dd6e1)">
     <use xlink:href="#macc762b617" x="0" y="432" style="fill: #ff0000; fill-opacity: 0.1; stroke: #ff0000; stroke-opacity: 0.1"/>
    </g>
   </g>
   <g id="PolyCollection_5">
    <defs>
     <path id="m8a5e150143" d="M 235.527254 -213.221607 
L 235.527254 -92.383636 
L 239.214674 -92.383636 
L 242.902094 -92.383636 
L 246.589513 -92.383636 
L 246.589513 -203.497565 
L 246.589513 -203.497565 
L 242.902094 -208.448075 
L 239.214674 -213.192426 
L 235.527254 -213.221607 
z
" style="stroke: #ff0000; stroke-opacity: 0.1"/>
    </defs>
    <g clip-path="url(#pb1ee4dd6e1)">
     <use xlink:href="#m8a5e150143" x="0" y="432" style="fill: #ff0000; fill-opacity: 0.1; stroke: #ff0000; stroke-opacity: 0.1"/>
    </g>
   </g>
   <g id="PolyCollection_6">
    <defs>
     <path id="mca27d0add4" d="M 265.026612 -267.836938 
L 265.026612 -92.383636 
L 268.714031 -92.383636 
L 272.401451 -92.383636 
L 272.401451 -262.448336 
L 272.401451 -262.448336 
L 268.714031 -263.665739 
L 265.026612 -267.836938 
z
" style="stroke: #ff0000; stroke-opacity: 0.1"/>
    </defs>
    <g clip-path="url(#pb1ee4dd6e1)">
     <use xlink:href="#mca27d0add4" x="0" y="432" style="fill: #ff0000; fill-opacity: 0.1; stroke: #ff0000; stroke-opacity: 0.1"/>
    </g>
   </g>
   <g id="PolyCollection_7">
    <defs>
     <path id="mde85860c5f" d="M 290.838549 -296.915517 
L 290.838549 -92.383636 
L 294.525969 -92.383636 
L 294.525969 -292.057484 
L 294.525969 -292.057484 
L 290.838549 -296.915517 
z
" style="stroke: #ff0000; stroke-opacity: 0.1"/>
    </defs>
    <g clip-path="url(#pb1ee4dd6e1)">
     <use xlink:href="#mde85860c5f" x="0" y="432" style="fill: #ff0000; fill-opacity: 0.1; stroke: #ff0000; stroke-opacity: 0.1"/>
    </g>
   </g>
   <g id="PolyCollection_8">
    <defs>
     <path id="m02e5d22001" d="M 320.337906 -331.854282 
L 320.337906 -92.383636 
L 324.025326 -92.383636 
L 327.712746 -92.383636 
L 327.712746 -329.75808 
L 327.712746 -329.75808 
L 324.025326 -330.712031 
L 320.337906 -331.854282 
z
" style="stroke: #ff0000; stroke-opacity: 0.1"/>
    </defs>
    <g clip-path="url(#pb1ee4dd6e1)">
     <use xlink:href="#m02e5d22001" x="0" y="432" style="fill: #ff0000; fill-opacity: 0.1; stroke: #ff0000; stroke-opacity: 0.1"/>
    </g>
   </g>
   <g id="PolyCollection_9">
    <defs>
     <path id="md45bfecbce" d="M 353.524683 -345.396169 
L 353.524683 -92.383636 
L 357.212103 -92.383636 
L 360.899522 -92.383636 
L 364.586942 -92.383636 
L 368.274362 -92.383636 
L 371.961781 -92.383636 
L 375.649201 -92.383636 
L 375.649201 -316.925112 
L 375.649201 -316.925112 
L 371.961781 -319.885598 
L 368.274362 -328.070337 
L 364.586942 -335.816127 
L 360.899522 -341.94581 
L 357.212103 -343.528232 
L 353.524683 -345.396169 
z
" style="stroke: #ff0000; stroke-opacity: 0.1"/>
    </defs>
    <g clip-path="url(#pb1ee4dd6e1)">
     <use xlink:href="#md45bfecbce" x="0" y="432" style="fill: #ff0000; fill-opacity: 0.1; stroke: #ff0000; stroke-opacity: 0.1"/>
    </g>
   </g>
   <g id="PolyCollection_10">
    <defs>
     <path id="m0a0bbbe01a" d="M 386.71146 -323.675268 
L 386.71146 -92.383636 
L 390.39888 -92.383636 
L 390.39888 -323.420951 
L 390.39888 -323.420951 
L 386.71146 -323.675268 
z
" style="stroke: #ff0000; stroke-opacity: 0.1"/>
    </defs>
    <g clip-path="url(#pb1ee4dd6e1)">
     <use xlink:href="#m0a0bbbe01a" x="0" y="432" style="fill: #ff0000; fill-opacity: 0.1; stroke: #ff0000; stroke-opacity: 0.1"/>
    </g>
   </g>
   <g id="PolyCollection_11">
    <defs>
     <path id="mcbaf51e73f" d="M 438.335335 -391.445317 
L 438.335335 -92.383636 
L 442.022755 -92.383636 
L 445.710174 -92.383636 
L 449.397594 -92.383636 
L 453.085014 -92.383636 
L 453.085014 -369.631226 
L 453.085014 -369.631226 
L 449.397594 -374.067938 
L 445.710174 -377.29475 
L 442.022755 -385.914064 
L 438.335335 -391.445317 
z
" style="stroke: #ff0000; stroke-opacity: 0.1"/>
    </defs>
    <g clip-path="url(#pb1ee4dd6e1)">
     <use xlink:href="#mcbaf51e73f" x="0" y="432" style="fill: #ff0000; fill-opacity: 0.1; stroke: #ff0000; stroke-opacity: 0.1"/>
    </g>
   </g>
   <g id="line2d_13">
    <path d="M 99.092727 335.274555 
L 102.780147 336.235132 
L 106.467567 334.143818 
L 110.154986 334.950703 
L 113.842406 329.039037 
L 117.529826 326.415289 
L 121.217245 325.010102 
L 124.904665 323.473178 
L 128.592084 317.363907 
L 132.279504 316.34844 
L 135.966924 310.552043 
L 139.654343 306.330992 
L 143.341763 315.064011 
L 147.029183 308.762625 
L 150.716602 285.994201 
L 154.404022 260.958816 
L 158.091442 252.198352 
L 161.778861 247.922411 
L 165.466281 246.500757 
L 169.153701 239.013744 
L 172.84112 242.180904 
L 176.52854 245.902455 
L 180.21596 247.620515 
L 183.903379 240.715338 
L 187.590799 248.054147 
L 191.278219 248.877499 
L 194.965638 246.725806 
L 198.653058 242.784696 
L 202.340478 241.736294 
L 206.027897 239.002766 
L 209.715317 242.532201 
L 213.402736 243.487289 
L 217.090156 239.529711 
L 220.777576 238.168436 
L 224.464995 243.712339 
L 228.152415 229.451884 
L 231.839835 224.868559 
L 235.527254 213.923468 
L 239.214674 223.19441 
L 242.902094 223.068163 
L 246.589513 220.729844 
L 250.276933 223.101097 
L 253.964353 230.231324 
L 257.651772 195.463919 
L 261.339192 172.421045 
L 265.026612 170.604182 
L 268.714031 170.571248 
L 272.401451 163.902098 
L 276.088871 167.618159 
L 279.77629 169.489913 
L 283.46371 149.356215 
L 287.151129 140.529883 
L 290.838549 133.904645 
L 294.525969 134.93658 
L 298.213388 144.926582 
L 301.900808 139.075295 
L 305.588228 132.417123 
L 309.275647 120.154669 
L 312.963067 119.528922 
L 316.650487 104.637231 
L 320.337906 99.856301 
L 324.025326 100.718076 
L 327.712746 103.407692 
L 331.400165 99.922169 
L 335.087585 103.896214 
L 338.775005 88.214106 
L 342.462424 97.572872 
L 346.149844 92.726074 
L 349.837264 87.670694 
L 353.524683 87.001034 
L 357.212103 87.24804 
L 360.899522 91.864299 
L 364.586942 90.744541 
L 368.274362 98.632251 
L 371.961781 106.734034 
L 375.649201 120.182114 
L 379.336621 112.277936 
L 383.02404 113.562365 
L 386.71146 106.393715 
L 390.39888 114.111266 
L 394.086299 103.341824 
L 397.773719 107.370759 
L 401.461139 105.960083 
L 405.148558 101.393225 
L 408.835978 101.815879 
L 412.523398 93.812898 
L 416.210817 91.74903 
L 419.898237 82.895253 
L 423.585657 71.560442 
L 427.273076 66.065941 
L 430.960496 51.580437 
L 434.647916 51.141316 
L 438.335335 36.743636 
L 442.022755 41.579456 
L 445.710174 48.040024 
L 449.397594 65.648776 
L 453.085014 61.120341 
L 456.772433 62.62433 
L 460.459853 52.936223 
L 464.147273 43.248116 
" clip-path="url(#pb1ee4dd6e1)" style="fill: none; stroke: #1f77b4; stroke-width: 1.5; stroke-linecap: round"/>
   </g>
   <g id="line2d_14">
    <path d="M 99.092727 335.270774 
L 102.780147 336.111501 
L 106.467567 335.078399 
L 110.154986 332.923169 
L 113.842406 330.217812 
L 117.529826 325.884784 
L 121.217245 323.231168 
L 124.904665 321.484397 
L 128.592084 316.145154 
L 132.279504 311.526514 
L 135.966924 311.332833 
L 139.654343 313.288744 
L 143.341763 308.72373 
L 147.029183 295.934438 
L 150.716602 276.08707 
L 154.404022 258.117716 
L 158.091442 248.349718 
L 161.778861 244.652739 
L 165.466281 242.796896 
L 169.153701 242.886886 
L 172.84112 243.302721 
L 176.52854 244.229292 
L 180.21596 245.748762 
L 183.903379 246.222897 
L 187.590799 246.824223 
L 191.278219 247.396238 
L 194.965638 245.759869 
L 198.653058 241.610926 
L 202.340478 240.779662 
L 206.027897 241.60726 
L 209.715317 240.889142 
L 213.402736 241.79335 
L 217.090156 241.582902 
L 220.777576 240.221198 
L 224.464995 234.639559 
L 228.152415 227.371613 
L 231.839835 221.275507 
L 235.527254 218.778393 
L 239.214674 218.807574 
L 242.902094 223.551925 
L 246.589513 228.502435 
L 250.276933 222.297 
L 253.964353 208.211229 
L 257.651772 190.252038 
L 261.339192 173.309472 
L 265.026612 164.163062 
L 268.714031 168.334261 
L 272.401451 169.551664 
L 276.088871 165.783393 
L 279.77629 158.311668 
L 283.46371 146.545776 
L 287.151129 136.878318 
L 290.838549 135.084483 
L 294.525969 139.942516 
L 298.213388 139.706917 
L 301.900808 136.81558 
L 305.588228 128.929006 
L 309.275647 118.517228 
L 312.963067 109.956877 
L 316.650487 104.094634 
L 320.337906 100.145718 
L 324.025326 101.287969 
L 327.712746 102.24192 
L 331.400165 100.091149 
L 335.087585 97.490108 
L 338.775005 94.786062 
L 342.462424 92.620604 
L 346.149844 89.638719 
L 349.837264 89.233861 
L 353.524683 86.603831 
L 357.212103 88.471768 
L 360.899522 90.05419 
L 364.586942 96.183873 
L 368.274362 103.929663 
L 371.961781 112.114402 
L 375.649201 115.074888 
L 379.336621 114.733455 
L 383.02404 111.487518 
L 386.71146 108.324732 
L 390.39888 108.579049 
L 394.086299 106.605385 
L 397.773719 106.07383 
L 401.461139 103.420343 
L 405.148558 102.122256 
L 408.835978 98.133287 
L 412.523398 92.99718 
L 416.210817 87.105347 
L 419.898237 77.381518 
L 423.585657 69.251819 
L 427.273076 59.040477 
L 430.960496 50.331344 
L 434.647916 41.795458 
L 438.335335 40.554683 
L 442.022755 46.085936 
L 445.710174 54.70525 
L 449.397594 57.932062 
L 453.085014 62.368774 
L 456.772433 62.348872 
L 460.459853 56.00373 
L 464.147273 41.753013 
" clip-path="url(#pb1ee4dd6e1)" style="fill: none; stroke: #ff7f0e; stroke-width: 1.5; stroke-linecap: round"/>
   </g>
   <g id="patch_3">
    <path d="M 80.84 354.76 
L 80.84 21.6 
" style="fill: none; stroke: #cccccc; stroke-width: 0.8; stroke-linejoin: miter; stroke-linecap: square"/>
   </g>
   <g id="patch_4">
    <path d="M 482.4 354.76 
L 482.4 21.6 
" style="fill: none; stroke: #cccccc; stroke-width: 0.8; stroke-linejoin: miter; stroke-linecap: square"/>
   </g>
   <g id="patch_5">
    <path d="M 80.84 354.76 
L 482.4 354.76 
" style="fill: none; stroke: #cccccc; stroke-width: 0.8; stroke-linejoin: miter; stroke-linecap: square"/>
   </g>
   <g id="patch_6">
    <path d="M 80.84 21.6 
L 482.4 21.6 
" style="fill: none; stroke: #cccccc; stroke-width: 0.8; stroke-linejoin: miter; stroke-linecap: square"/>
   </g>
   <g id="legend_1">
    <g id="patch_7">
     <path d="M 94.84 122.471875 
L 242.2025 122.471875 
Q 246.2025 122.471875 246.2025 118.471875 
L 246.2025 35.6 
Q 246.2025 31.6 242.2025 31.6 
L 94.84 31.6 
Q 90.84 31.6 90.84 35.6 
L 90.84 118.471875 
Q 90.84 122.471875 94.84 122.471875 
z
" style="fill: #ffffff; opacity: 0.8; stroke: #cccccc; stroke-linejoin: miter"/>
    </g>
    <g id="line2d_15">
     <path d="M 98.84 46.915625 
L 118.84 46.915625 
L 138.84 46.915625 
" style="fill: none; stroke: #1f77b4; stroke-width: 1.5; stroke-linecap: round"/>
    </g>
    <g id="text_15">
     <!-- raw -->
     <g style="fill: #262626" transform="translate(154.84 53.915625) scale(0.2 -0.2)">
      <defs>
       <path id="ArialMT-77" d="M 1034 0 
L 19 3319 
L 600 3319 
L 1128 1403 
L 1325 691 
Q 1338 744 1497 1375 
L 2025 3319 
L 2603 3319 
L 3100 1394 
L 3266 759 
L 3456 1400 
L 4025 3319 
L 4572 3319 
L 3534 0 
L 2950 0 
L 2422 1988 
L 2294 2553 
L 1622 0 
L 1034 0 
z
" transform="scale(0.015625)"/>
      </defs>
      <use xlink:href="#ArialMT-72"/>
      <use xlink:href="#ArialMT-61" x="33.300781"/>
      <use xlink:href="#ArialMT-77" x="88.916016"/>
     </g>
    </g>
    <g id="line2d_16">
     <path d="M 98.84 75.20625 
L 118.84 75.20625 
L 138.84 75.20625 
" style="fill: none; stroke: #ff7f0e; stroke-width: 1.5; stroke-linecap: round"/>
    </g>
    <g id="text_16">
     <!-- filtered -->
     <g style="fill: #262626" transform="translate(154.84 82.20625) scale(0.2 -0.2)">
      <defs>
       <path id="ArialMT-66" d="M 556 0 
L 556 2881 
L 59 2881 
L 59 3319 
L 556 3319 
L 556 3672 
Q 556 4006 616 4169 
Q 697 4388 901 4523 
Q 1106 4659 1475 4659 
Q 1713 4659 2000 4603 
L 1916 4113 
Q 1741 4144 1584 4144 
Q 1328 4144 1222 4034 
Q 1116 3925 1116 3625 
L 1116 3319 
L 1763 3319 
L 1763 2881 
L 1116 2881 
L 1116 0 
L 556 0 
z
" transform="scale(0.015625)"/>
       <path id="ArialMT-64" d="M 2575 0 
L 2575 419 
Q 2259 -75 1647 -75 
Q 1250 -75 917 144 
Q 584 363 401 755 
Q 219 1147 219 1656 
Q 219 2153 384 2558 
Q 550 2963 881 3178 
Q 1213 3394 1622 3394 
Q 1922 3394 2156 3267 
Q 2391 3141 2538 2938 
L 2538 4581 
L 3097 4581 
L 3097 0 
L 2575 0 
z
M 797 1656 
Q 797 1019 1065 703 
Q 1334 388 1700 388 
Q 2069 388 2326 689 
Q 2584 991 2584 1609 
Q 2584 2291 2321 2609 
Q 2059 2928 1675 2928 
Q 1300 2928 1048 2622 
Q 797 2316 797 1656 
z
" transform="scale(0.015625)"/>
      </defs>
      <use xlink:href="#ArialMT-66"/>
      <use xlink:href="#ArialMT-69" x="27.783203"/>
      <use xlink:href="#ArialMT-6c" x="50"/>
      <use xlink:href="#ArialMT-74" x="72.216797"/>
      <use xlink:href="#ArialMT-65" x="100"/>
      <use xlink:href="#ArialMT-72" x="155.615234"/>
      <use xlink:href="#ArialMT-65" x="188.916016"/>
      <use xlink:href="#ArialMT-64" x="244.53125"/>
     </g>
    </g>
    <g id="patch_8">
     <path d="M 98.84 110.496875 
L 138.84 110.496875 
L 138.84 96.496875 
L 98.84 96.496875 
z
" style="fill: #ff0000; fill-opacity: 0.1; stroke: #ff0000; stroke-opacity: 0.1; stroke-linejoin: miter"/>
    </g>
    <g id="text_17">
     <!-- retraction -->
     <g style="fill: #262626" transform="translate(154.84 110.496875) scale(0.2 -0.2)">
      <defs>
       <path id="ArialMT-63" d="M 2588 1216 
L 3141 1144 
Q 3050 572 2676 248 
Q 2303 -75 1759 -75 
Q 1078 -75 664 370 
Q 250 816 250 1647 
Q 250 2184 428 2587 
Q 606 2991 970 3192 
Q 1334 3394 1763 3394 
Q 2303 3394 2647 3120 
Q 2991 2847 3088 2344 
L 2541 2259 
Q 2463 2594 2264 2762 
Q 2066 2931 1784 2931 
Q 1359 2931 1093 2626 
Q 828 2322 828 1663 
Q 828 994 1084 691 
Q 1341 388 1753 388 
Q 2084 388 2306 591 
Q 2528 794 2588 1216 
z
" transform="scale(0.015625)"/>
      </defs>
      <use xlink:href="#ArialMT-72"/>
      <use xlink:href="#ArialMT-65" x="33.300781"/>
      <use xlink:href="#ArialMT-74" x="88.916016"/>
      <use xlink:href="#ArialMT-72" x="116.699219"/>
      <use xlink:href="#ArialMT-61" x="150"/>
      <use xlink:href="#ArialMT-63" x="205.615234"/>
      <use xlink:href="#ArialMT-74" x="255.615234"/>
      <use xlink:href="#ArialMT-69" x="283.398438"/>
      <use xlink:href="#ArialMT-6f" x="305.615234"/>
      <use xlink:href="#ArialMT-6e" x="361.230469"/>
     </g>
    </g>
   </g>
  </g>
 </g>
 <defs>
  <clipPath id="pb1ee4dd6e1">
   <rect x="80.84" y="21.6" width="401.56" height="333.16"/>
  </clipPath>
 </defs>
</svg>
