<?xml version="1.0" encoding="utf-8" standalone="no"?>
<!DOCTYPE svg PUBLIC "-//W3C//DTD SVG 1.1//EN"
  "http://www.w3.org/Graphics/SVG/1.1/DTD/svg11.dtd">
<svg xmlns:xlink="http://www.w3.org/1999/xlink" width="461.04375pt" height="399.130625pt" viewBox="0 0 461.04375 399.130625" xmlns="http://www.w3.org/2000/svg" version="1.1">
 <metadata>
  <rdf:RDF xmlns:dc="http://purl.org/dc/elements/1.1/" xmlns:cc="http://creativecommons.org/ns#" xmlns:rdf="http://www.w3.org/1999/02/22-rdf-syntax-ns#">
   <cc:Work>
    <dc:type rdf:resource="http://purl.org/dc/dcmitype/StillImage"/>
    <dc:date>2025-02-15T22:48:02.417645</dc:date>
    <dc:format>image/svg+xml</dc:format>
    <dc:creator>
     <cc:Agent>
      <dc:title>Matplotlib v3.9.1, https://matplotlib.org/</dc:title>
     </cc:Agent>
    </dc:creator>
   </cc:Work>
  </rdf:RDF>
 </metadata>
 <defs>
  <style type="text/css">*{stroke-linejoin: round; stroke-linecap: butt}</style>
 </defs>
 <g id="figure_1">
  <g id="patch_1">
   <path d="M 0 399.130625 
L 461.04375 399.130625 
L 461.04375 0 
L 0 0 
z
" style="fill: #ffffff"/>
  </g>
  <g id="axes_1">
   <g id="patch_2">
    <path d="M 63.24375 339.84 
L 453.84375 339.84 
L 453.84375 7.2 
L 63.24375 7.2 
z
" style="fill: #ffffff"/>
   </g>
   <g id="matplotlib.axis_1">
    <g id="xtick_1">
     <g id="line2d_1">
      <path d="M 78.615135 339.84 
L 78.615135 7.2 
" clip-path="url(#p8adc476e46)" style="fill: none; stroke: #cccccc; stroke-width: 0.8; stroke-linecap: round"/>
     </g>
     <g id="text_1">
      <!-- 0 -->
      <g style="fill: #262626" transform="translate(73.054197 361.155625) scale(0.2 -0.2)">
       <defs>
        <path id="ArialMT-30" d="M 266 2259 
Q 266 3072 433 3567 
Q 600 4063 929 4331 
Q 1259 4600 1759 4600 
Q 2128 4600 2406 4451 
Q 2684 4303 2865 4023 
Q 3047 3744 3150 3342 
Q 3253 2941 3253 2259 
Q 3253 1453 3087 958 
Q 2922 463 2592 192 
Q 2263 -78 1759 -78 
Q 1097 -78 719 397 
Q 266 969 266 2259 
z
M 844 2259 
Q 844 1131 1108 757 
Q 1372 384 1759 384 
Q 2147 384 2411 759 
Q 2675 1134 2675 2259 
Q 2675 3391 2411 3762 
Q 2147 4134 1753 4134 
Q 1366 4134 1134 3806 
Q 844 3388 844 2259 
z
" transform="scale(0.015625)"/>
       </defs>
       <use xlink:href="#ArialMT-30"/>
      </g>
     </g>
    </g>
    <g id="xtick_2">
     <g id="line2d_2">
      <path d="M 197.773158 339.84 
L 197.773158 7.2 
" clip-path="url(#p8adc476e46)" style="fill: none; stroke: #cccccc; stroke-width: 0.8; stroke-linecap: round"/>
     </g>
     <g id="text_2">
      <!-- 5 -->
      <g style="fill: #262626" transform="translate(192.212221 361.155625) scale(0.2 -0.2)">
       <defs>
        <path id="ArialMT-35" d="M 266 1200 
L 856 1250 
Q 922 819 1161 601 
Q 1400 384 1738 384 
Q 2144 384 2425 690 
Q 2706 997 2706 1503 
Q 2706 1984 2436 2262 
Q 2166 2541 1728 2541 
Q 1456 2541 1237 2417 
Q 1019 2294 894 2097 
L 366 2166 
L 809 4519 
L 3088 4519 
L 3088 3981 
L 1259 3981 
L 1013 2750 
Q 1425 3038 1878 3038 
Q 2478 3038 2890 2622 
Q 3303 2206 3303 1553 
Q 3303 931 2941 478 
Q 2500 -78 1738 -78 
Q 1113 -78 717 272 
Q 322 622 266 1200 
z
" transform="scale(0.015625)"/>
       </defs>
       <use xlink:href="#ArialMT-35"/>
      </g>
     </g>
    </g>
    <g id="xtick_3">
     <g id="line2d_3">
      <path d="M 316.931181 339.84 
L 316.931181 7.2 
" clip-path="url(#p8adc476e46)" style="fill: none; stroke: #cccccc; stroke-width: 0.8; stroke-linecap: round"/>
     </g>
     <g id="text_3">
      <!-- 10 -->
      <g style="fill: #262626" transform="translate(305.809306 361.155625) scale(0.2 -0.2)">
       <defs>
        <path id="ArialMT-31" d="M 2384 0 
L 1822 0 
L 1822 3584 
Q 1619 3391 1289 3197 
Q 959 3003 697 2906 
L 697 3450 
Q 1169 3672 1522 3987 
Q 1875 4303 2022 4600 
L 2384 4600 
L 2384 0 
z
" transform="scale(0.015625)"/>
       </defs>
       <use xlink:href="#ArialMT-31"/>
       <use xlink:href="#ArialMT-30" x="55.615234"/>
      </g>
     </g>
    </g>
    <g id="xtick_4">
     <g id="line2d_4">
      <path d="M 436.089205 339.84 
L 436.089205 7.2 
" clip-path="url(#p8adc476e46)" style="fill: none; stroke: #cccccc; stroke-width: 0.8; stroke-linecap: round"/>
     </g>
     <g id="text_4">
      <!-- 15 -->
      <g style="fill: #262626" transform="translate(424.96733 361.155625) scale(0.2 -0.2)">
       <use xlink:href="#ArialMT-31"/>
       <use xlink:href="#ArialMT-35" x="55.615234"/>
      </g>
     </g>
    </g>
    <g id="text_5">
     <!-- Time ($s$) -->
     <g style="fill: #262626" transform="translate(214.26375 386.650625) scale(0.24 -0.24)">
      <defs>
       <path id="ArialMT-54" d="M 1659 0 
L 1659 4041 
L 150 4041 
L 150 4581 
L 3781 4581 
L 3781 4041 
L 2266 4041 
L 2266 0 
L 1659 0 
z
" transform="scale(0.015625)"/>
       <path id="ArialMT-69" d="M 425 3934 
L 425 4581 
L 988 4581 
L 988 3934 
L 425 3934 
z
M 425 0 
L 425 3319 
L 988 3319 
L 988 0 
L 425 0 
z
" transform="scale(0.015625)"/>
       <path id="ArialMT-6d" d="M 422 0 
L 422 3319 
L 925 3319 
L 925 2853 
Q 1081 3097 1340 3245 
Q 1600 3394 1931 3394 
Q 2300 3394 2536 3241 
Q 2772 3088 2869 2813 
Q 3263 3394 3894 3394 
Q 4388 3394 4653 3120 
Q 4919 2847 4919 2278 
L 4919 0 
L 4359 0 
L 4359 2091 
Q 4359 2428 4304 2576 
Q 4250 2725 4106 2815 
Q 3963 2906 3769 2906 
Q 3419 2906 3187 2673 
Q 2956 2441 2956 1928 
L 2956 0 
L 2394 0 
L 2394 2156 
Q 2394 2531 2256 2718 
Q 2119 2906 1806 2906 
Q 1569 2906 1367 2781 
Q 1166 2656 1075 2415 
Q 984 2175 984 1722 
L 984 0 
L 422 0 
z
" transform="scale(0.015625)"/>
       <path id="ArialMT-65" d="M 2694 1069 
L 3275 997 
Q 3138 488 2766 206 
Q 2394 -75 1816 -75 
Q 1088 -75 661 373 
Q 234 822 234 1631 
Q 234 2469 665 2931 
Q 1097 3394 1784 3394 
Q 2450 3394 2872 2941 
Q 3294 2488 3294 1666 
Q 3294 1616 3291 1516 
L 816 1516 
Q 847 969 1125 678 
Q 1403 388 1819 388 
Q 2128 388 2347 550 
Q 2566 713 2694 1069 
z
M 847 1978 
L 2700 1978 
Q 2663 2397 2488 2606 
Q 2219 2931 1791 2931 
Q 1403 2931 1139 2672 
Q 875 2413 847 1978 
z
" transform="scale(0.015625)"/>
       <path id="ArialMT-20" transform="scale(0.015625)"/>
       <path id="ArialMT-28" d="M 1497 -1347 
Q 1031 -759 709 28 
Q 388 816 388 1659 
Q 388 2403 628 3084 
Q 909 3875 1497 4659 
L 1900 4659 
Q 1522 4009 1400 3731 
Q 1209 3300 1100 2831 
Q 966 2247 966 1656 
Q 966 153 1900 -1347 
L 1497 -1347 
z
" transform="scale(0.015625)"/>
       <path id="DejaVuSans-Oblique-73" d="M 3200 3397 
L 3091 2853 
Q 2863 2978 2609 3040 
Q 2356 3103 2088 3103 
Q 1634 3103 1373 2948 
Q 1113 2794 1113 2528 
Q 1113 2219 1719 2053 
Q 1766 2041 1788 2034 
L 1972 1978 
Q 2547 1819 2739 1644 
Q 2931 1469 2931 1166 
Q 2931 609 2489 259 
Q 2047 -91 1331 -91 
Q 1053 -91 747 -37 
Q 441 16 72 128 
L 184 722 
Q 500 559 806 475 
Q 1113 391 1394 391 
Q 1816 391 2080 572 
Q 2344 753 2344 1031 
Q 2344 1331 1650 1516 
L 1591 1531 
L 1394 1581 
Q 956 1697 753 1886 
Q 550 2075 550 2369 
Q 550 2928 970 3256 
Q 1391 3584 2113 3584 
Q 2397 3584 2667 3537 
Q 2938 3491 3200 3397 
z
" transform="scale(0.015625)"/>
       <path id="ArialMT-29" d="M 791 -1347 
L 388 -1347 
Q 1322 153 1322 1656 
Q 1322 2244 1188 2822 
Q 1081 3291 891 3722 
Q 769 4003 388 4659 
L 791 4659 
Q 1378 3875 1659 3084 
Q 1900 2403 1900 1659 
Q 1900 816 1576 28 
Q 1253 -759 791 -1347 
z
" transform="scale(0.015625)"/>
      </defs>
      <use xlink:href="#ArialMT-54" transform="translate(0 0.203125)"/>
      <use xlink:href="#ArialMT-69" transform="translate(61.083984 0.203125)"/>
      <use xlink:href="#ArialMT-6d" transform="translate(83.300781 0.203125)"/>
      <use xlink:href="#ArialMT-65" transform="translate(166.601562 0.203125)"/>
      <use xlink:href="#ArialMT-20" transform="translate(222.216797 0.203125)"/>
      <use xlink:href="#ArialMT-28" transform="translate(250 0.203125)"/>
      <use xlink:href="#DejaVuSans-Oblique-73" transform="translate(283.300781 0.203125)"/>
      <use xlink:href="#ArialMT-29" transform="translate(335.400391 0.203125)"/>
     </g>
    </g>
   </g>
   <g id="matplotlib.axis_2">
    <g id="ytick_1">
     <g id="line2d_5">
      <path d="M 63.24375 321.766088 
L 453.84375 321.766088 
" clip-path="url(#p8adc476e46)" style="fill: none; stroke: #cccccc; stroke-width: 0.8; stroke-linecap: round"/>
     </g>
     <g id="text_6">
      <!-- 0 -->
      <g style="fill: #262626" transform="translate(45.121875 328.9239) scale(0.2 -0.2)">
       <use xlink:href="#ArialMT-30"/>
      </g>
     </g>
    </g>
    <g id="ytick_2">
     <g id="line2d_6">
      <path d="M 63.24375 278.744221 
L 453.84375 278.744221 
" clip-path="url(#p8adc476e46)" style="fill: none; stroke: #cccccc; stroke-width: 0.8; stroke-linecap: round"/>
     </g>
     <g id="text_7">
      <!-- 10 -->
      <g style="fill: #262626" transform="translate(34 285.902034) scale(0.2 -0.2)">
       <use xlink:href="#ArialMT-31"/>
       <use xlink:href="#ArialMT-30" x="55.615234"/>
      </g>
     </g>
    </g>
    <g id="ytick_3">
     <g id="line2d_7">
      <path d="M 63.24375 235.722355 
L 453.84375 235.722355 
" clip-path="url(#p8adc476e46)" style="fill: none; stroke: #cccccc; stroke-width: 0.8; stroke-linecap: round"/>
     </g>
     <g id="text_8">
      <!-- 20 -->
      <g style="fill: #262626" transform="translate(34 242.880167) scale(0.2 -0.2)">
       <defs>
        <path id="ArialMT-32" d="M 3222 541 
L 3222 0 
L 194 0 
Q 188 203 259 391 
Q 375 700 629 1000 
Q 884 1300 1366 1694 
Q 2113 2306 2375 2664 
Q 2638 3022 2638 3341 
Q 2638 3675 2398 3904 
Q 2159 4134 1775 4134 
Q 1369 4134 1125 3890 
Q 881 3647 878 3216 
L 300 3275 
Q 359 3922 746 4261 
Q 1134 4600 1788 4600 
Q 2447 4600 2831 4234 
Q 3216 3869 3216 3328 
Q 3216 3053 3103 2787 
Q 2991 2522 2730 2228 
Q 2469 1934 1863 1422 
Q 1356 997 1212 845 
Q 1069 694 975 541 
L 3222 541 
z
" transform="scale(0.015625)"/>
       </defs>
       <use xlink:href="#ArialMT-32"/>
       <use xlink:href="#ArialMT-30" x="55.615234"/>
      </g>
     </g>
    </g>
    <g id="ytick_4">
     <g id="line2d_8">
      <path d="M 63.24375 192.700488 
L 453.84375 192.700488 
" clip-path="url(#p8adc476e46)" style="fill: none; stroke: #cccccc; stroke-width: 0.8; stroke-linecap: round"/>
     </g>
     <g id="text_9">
      <!-- 30 -->
      <g style="fill: #262626" transform="translate(34 199.8583) scale(0.2 -0.2)">
       <defs>
        <path id="ArialMT-33" d="M 269 1209 
L 831 1284 
Q 928 806 1161 595 
Q 1394 384 1728 384 
Q 2125 384 2398 659 
Q 2672 934 2672 1341 
Q 2672 1728 2419 1979 
Q 2166 2231 1775 2231 
Q 1616 2231 1378 2169 
L 1441 2663 
Q 1497 2656 1531 2656 
Q 1891 2656 2178 2843 
Q 2466 3031 2466 3422 
Q 2466 3731 2256 3934 
Q 2047 4138 1716 4138 
Q 1388 4138 1169 3931 
Q 950 3725 888 3313 
L 325 3413 
Q 428 3978 793 4289 
Q 1159 4600 1703 4600 
Q 2078 4600 2393 4439 
Q 2709 4278 2876 4000 
Q 3044 3722 3044 3409 
Q 3044 3113 2884 2869 
Q 2725 2625 2413 2481 
Q 2819 2388 3044 2092 
Q 3269 1797 3269 1353 
Q 3269 753 2831 336 
Q 2394 -81 1725 -81 
Q 1122 -81 723 278 
Q 325 638 269 1209 
z
" transform="scale(0.015625)"/>
       </defs>
       <use xlink:href="#ArialMT-33"/>
       <use xlink:href="#ArialMT-30" x="55.615234"/>
      </g>
     </g>
    </g>
    <g id="ytick_5">
     <g id="line2d_9">
      <path d="M 63.24375 149.678621 
L 453.84375 149.678621 
" clip-path="url(#p8adc476e46)" style="fill: none; stroke: #cccccc; stroke-width: 0.8; stroke-linecap: round"/>
     </g>
     <g id="text_10">
      <!-- 40 -->
      <g style="fill: #262626" transform="translate(34 156.836434) scale(0.2 -0.2)">
       <defs>
        <path id="ArialMT-34" d="M 2069 0 
L 2069 1097 
L 81 1097 
L 81 1613 
L 2172 4581 
L 2631 4581 
L 2631 1613 
L 3250 1613 
L 3250 1097 
L 2631 1097 
L 2631 0 
L 2069 0 
z
M 2069 1613 
L 2069 3678 
L 634 1613 
L 2069 1613 
z
" transform="scale(0.015625)"/>
       </defs>
       <use xlink:href="#ArialMT-34"/>
       <use xlink:href="#ArialMT-30" x="55.615234"/>
      </g>
     </g>
    </g>
    <g id="ytick_6">
     <g id="line2d_10">
      <path d="M 63.24375 106.656755 
L 453.84375 106.656755 
" clip-path="url(#p8adc476e46)" style="fill: none; stroke: #cccccc; stroke-width: 0.8; stroke-linecap: round"/>
     </g>
     <g id="text_11">
      <!-- 50 -->
      <g style="fill: #262626" transform="translate(34 113.814567) scale(0.2 -0.2)">
       <use xlink:href="#ArialMT-35"/>
       <use xlink:href="#ArialMT-30" x="55.615234"/>
      </g>
     </g>
    </g>
    <g id="ytick_7">
     <g id="line2d_11">
      <path d="M 63.24375 63.634888 
L 453.84375 63.634888 
" clip-path="url(#p8adc476e46)" style="fill: none; stroke: #cccccc; stroke-width: 0.8; stroke-linecap: round"/>
     </g>
     <g id="text_12">
      <!-- 60 -->
      <g style="fill: #262626" transform="translate(34 70.7927) scale(0.2 -0.2)">
       <defs>
        <path id="ArialMT-36" d="M 3184 3459 
L 2625 3416 
Q 2550 3747 2413 3897 
Q 2184 4138 1850 4138 
Q 1581 4138 1378 3988 
Q 1113 3794 959 3422 
Q 806 3050 800 2363 
Q 1003 2672 1297 2822 
Q 1591 2972 1913 2972 
Q 2475 2972 2870 2558 
Q 3266 2144 3266 1488 
Q 3266 1056 3080 686 
Q 2894 316 2569 119 
Q 2244 -78 1831 -78 
Q 1128 -78 684 439 
Q 241 956 241 2144 
Q 241 3472 731 4075 
Q 1159 4600 1884 4600 
Q 2425 4600 2770 4297 
Q 3116 3994 3184 3459 
z
M 888 1484 
Q 888 1194 1011 928 
Q 1134 663 1356 523 
Q 1578 384 1822 384 
Q 2178 384 2434 671 
Q 2691 959 2691 1453 
Q 2691 1928 2437 2201 
Q 2184 2475 1800 2475 
Q 1419 2475 1153 2201 
Q 888 1928 888 1484 
z
" transform="scale(0.015625)"/>
       </defs>
       <use xlink:href="#ArialMT-36"/>
       <use xlink:href="#ArialMT-30" x="55.615234"/>
      </g>
     </g>
    </g>
    <g id="ytick_8">
     <g id="line2d_12">
      <path d="M 63.24375 20.613021 
L 453.84375 20.613021 
" clip-path="url(#p8adc476e46)" style="fill: none; stroke: #cccccc; stroke-width: 0.8; stroke-linecap: round"/>
     </g>
     <g id="text_13">
      <!-- 70 -->
      <g style="fill: #262626" transform="translate(34 27.770834) scale(0.2 -0.2)">
       <defs>
        <path id="ArialMT-37" d="M 303 3981 
L 303 4522 
L 3269 4522 
L 3269 4084 
Q 2831 3619 2401 2847 
Q 1972 2075 1738 1259 
Q 1569 684 1522 0 
L 944 0 
Q 953 541 1156 1306 
Q 1359 2072 1739 2783 
Q 2119 3494 2547 3981 
L 303 3981 
z
" transform="scale(0.015625)"/>
       </defs>
       <use xlink:href="#ArialMT-37"/>
       <use xlink:href="#ArialMT-30" x="55.615234"/>
      </g>
     </g>
    </g>
    <g id="text_14">
     <!-- Internalization ($nm$) -->
     <g style="fill: #262626" transform="translate(24.72 278.88) rotate(-90) scale(0.24 -0.24)">
      <defs>
       <path id="ArialMT-49" d="M 597 0 
L 597 4581 
L 1203 4581 
L 1203 0 
L 597 0 
z
" transform="scale(0.015625)"/>
       <path id="ArialMT-6e" d="M 422 0 
L 422 3319 
L 928 3319 
L 928 2847 
Q 1294 3394 1984 3394 
Q 2284 3394 2536 3286 
Q 2788 3178 2913 3003 
Q 3038 2828 3088 2588 
Q 3119 2431 3119 2041 
L 3119 0 
L 2556 0 
L 2556 2019 
Q 2556 2363 2490 2533 
Q 2425 2703 2258 2804 
Q 2091 2906 1866 2906 
Q 1506 2906 1245 2678 
Q 984 2450 984 1813 
L 984 0 
L 422 0 
z
" transform="scale(0.015625)"/>
       <path id="ArialMT-74" d="M 1650 503 
L 1731 6 
Q 1494 -44 1306 -44 
Q 1000 -44 831 53 
Q 663 150 594 308 
Q 525 466 525 972 
L 525 2881 
L 113 2881 
L 113 3319 
L 525 3319 
L 525 4141 
L 1084 4478 
L 1084 3319 
L 1650 3319 
L 1650 2881 
L 1084 2881 
L 1084 941 
Q 1084 700 1114 631 
Q 1144 563 1211 522 
Q 1278 481 1403 481 
Q 1497 481 1650 503 
z
" transform="scale(0.015625)"/>
       <path id="ArialMT-72" d="M 416 0 
L 416 3319 
L 922 3319 
L 922 2816 
Q 1116 3169 1280 3281 
Q 1444 3394 1641 3394 
Q 1925 3394 2219 3213 
L 2025 2691 
Q 1819 2813 1613 2813 
Q 1428 2813 1281 2702 
Q 1134 2591 1072 2394 
Q 978 2094 978 1738 
L 978 0 
L 416 0 
z
" transform="scale(0.015625)"/>
       <path id="ArialMT-61" d="M 2588 409 
Q 2275 144 1986 34 
Q 1697 -75 1366 -75 
Q 819 -75 525 192 
Q 231 459 231 875 
Q 231 1119 342 1320 
Q 453 1522 633 1644 
Q 813 1766 1038 1828 
Q 1203 1872 1538 1913 
Q 2219 1994 2541 2106 
Q 2544 2222 2544 2253 
Q 2544 2597 2384 2738 
Q 2169 2928 1744 2928 
Q 1347 2928 1158 2789 
Q 969 2650 878 2297 
L 328 2372 
Q 403 2725 575 2942 
Q 747 3159 1072 3276 
Q 1397 3394 1825 3394 
Q 2250 3394 2515 3294 
Q 2781 3194 2906 3042 
Q 3031 2891 3081 2659 
Q 3109 2516 3109 2141 
L 3109 1391 
Q 3109 606 3145 398 
Q 3181 191 3288 0 
L 2700 0 
Q 2613 175 2588 409 
z
M 2541 1666 
Q 2234 1541 1622 1453 
Q 1275 1403 1131 1340 
Q 988 1278 909 1158 
Q 831 1038 831 891 
Q 831 666 1001 516 
Q 1172 366 1500 366 
Q 1825 366 2078 508 
Q 2331 650 2450 897 
Q 2541 1088 2541 1459 
L 2541 1666 
z
" transform="scale(0.015625)"/>
       <path id="ArialMT-6c" d="M 409 0 
L 409 4581 
L 972 4581 
L 972 0 
L 409 0 
z
" transform="scale(0.015625)"/>
       <path id="ArialMT-7a" d="M 125 0 
L 125 456 
L 2238 2881 
Q 1878 2863 1603 2863 
L 250 2863 
L 250 3319 
L 2963 3319 
L 2963 2947 
L 1166 841 
L 819 456 
Q 1197 484 1528 484 
L 3063 484 
L 3063 0 
L 125 0 
z
" transform="scale(0.015625)"/>
       <path id="ArialMT-6f" d="M 213 1659 
Q 213 2581 725 3025 
Q 1153 3394 1769 3394 
Q 2453 3394 2887 2945 
Q 3322 2497 3322 1706 
Q 3322 1066 3130 698 
Q 2938 331 2570 128 
Q 2203 -75 1769 -75 
Q 1072 -75 642 372 
Q 213 819 213 1659 
z
M 791 1659 
Q 791 1022 1069 705 
Q 1347 388 1769 388 
Q 2188 388 2466 706 
Q 2744 1025 2744 1678 
Q 2744 2294 2464 2611 
Q 2184 2928 1769 2928 
Q 1347 2928 1069 2612 
Q 791 2297 791 1659 
z
" transform="scale(0.015625)"/>
       <path id="DejaVuSans-Oblique-6e" d="M 3566 2113 
L 3156 0 
L 2578 0 
L 2988 2091 
Q 3016 2238 3031 2350 
Q 3047 2463 3047 2528 
Q 3047 2791 2881 2937 
Q 2716 3084 2419 3084 
Q 1956 3084 1622 2776 
Q 1288 2469 1184 1941 
L 800 0 
L 225 0 
L 903 3500 
L 1478 3500 
L 1363 2950 
Q 1603 3253 1940 3418 
Q 2278 3584 2650 3584 
Q 3113 3584 3367 3334 
Q 3622 3084 3622 2631 
Q 3622 2519 3608 2391 
Q 3594 2263 3566 2113 
z
" transform="scale(0.015625)"/>
       <path id="DejaVuSans-Oblique-6d" d="M 5747 2113 
L 5338 0 
L 4763 0 
L 5166 2094 
Q 5191 2228 5203 2325 
Q 5216 2422 5216 2491 
Q 5216 2772 5059 2928 
Q 4903 3084 4622 3084 
Q 4203 3084 3875 2770 
Q 3547 2456 3450 1953 
L 3066 0 
L 2491 0 
L 2900 2094 
Q 2925 2209 2937 2307 
Q 2950 2406 2950 2484 
Q 2950 2769 2794 2926 
Q 2638 3084 2363 3084 
Q 1938 3084 1609 2770 
Q 1281 2456 1184 1953 
L 800 0 
L 225 0 
L 909 3500 
L 1484 3500 
L 1375 2956 
Q 1609 3263 1923 3423 
Q 2238 3584 2597 3584 
Q 2978 3584 3223 3384 
Q 3469 3184 3519 2828 
Q 3781 3197 4126 3390 
Q 4472 3584 4856 3584 
Q 5306 3584 5551 3325 
Q 5797 3066 5797 2591 
Q 5797 2488 5784 2364 
Q 5772 2241 5747 2113 
z
" transform="scale(0.015625)"/>
      </defs>
      <use xlink:href="#ArialMT-49" transform="translate(0 0.203125)"/>
      <use xlink:href="#ArialMT-6e" transform="translate(27.783203 0.203125)"/>
      <use xlink:href="#ArialMT-74" transform="translate(83.398438 0.203125)"/>
      <use xlink:href="#ArialMT-65" transform="translate(111.181641 0.203125)"/>
      <use xlink:href="#ArialMT-72" transform="translate(166.796875 0.203125)"/>
      <use xlink:href="#ArialMT-6e" transform="translate(200.097656 0.203125)"/>
      <use xlink:href="#ArialMT-61" transform="translate(255.712891 0.203125)"/>
      <use xlink:href="#ArialMT-6c" transform="translate(311.328125 0.203125)"/>
      <use xlink:href="#ArialMT-69" transform="translate(333.544922 0.203125)"/>
      <use xlink:href="#ArialMT-7a" transform="translate(355.761719 0.203125)"/>
      <use xlink:href="#ArialMT-61" transform="translate(405.761719 0.203125)"/>
      <use xlink:href="#ArialMT-74" transform="translate(461.376953 0.203125)"/>
      <use xlink:href="#ArialMT-69" transform="translate(489.160156 0.203125)"/>
      <use xlink:href="#ArialMT-6f" transform="translate(511.376953 0.203125)"/>
      <use xlink:href="#ArialMT-6e" transform="translate(566.992188 0.203125)"/>
      <use xlink:href="#ArialMT-20" transform="translate(622.607422 0.203125)"/>
      <use xlink:href="#ArialMT-28" transform="translate(650.390625 0.203125)"/>
      <use xlink:href="#DejaVuSans-Oblique-6e" transform="translate(683.691406 0.203125)"/>
      <use xlink:href="#DejaVuSans-Oblique-6d" transform="translate(747.070312 0.203125)"/>
      <use xlink:href="#ArialMT-29" transform="translate(844.482422 0.203125)"/>
     </g>
    </g>
   </g>
   <g id="PolyCollection_1">
    <defs>
     <path id="mea0f40012a" d="M 80.998295 -83.4708 
L 80.998295 -78.767024 
L 83.381456 -78.119627 
L 85.764616 -76.916895 
L 88.147777 -79.27982 
L 90.530937 -78.585158 
L 92.914098 -86.052088 
L 95.297258 -90.478482 
L 97.680419 -92.608173 
L 100.063579 -91.68014 
L 102.44674 -96.564586 
L 104.8299 -105.769701 
L 107.213061 -116.982145 
L 109.596221 -119.648508 
L 111.979381 -124.902718 
L 114.362542 -126.885483 
L 116.745702 -132.231874 
L 119.128863 -132.560474 
L 121.512023 -136.663651 
L 123.895184 -145.148013 
L 126.278344 -152.434937 
L 128.661505 -154.862039 
L 131.044665 -155.140313 
L 133.427826 -162.336631 
L 135.810986 -167.219892 
L 138.194147 -170.498251 
L 140.577307 -172.926117 
L 142.960468 -171.666906 
L 145.343628 -176.018396 
L 147.726788 -179.0398 
L 150.109949 -180.597481 
L 152.493109 -180.591623 
L 154.87627 -188.509109 
L 157.25943 -188.360131 
L 159.642591 -192.672355 
L 162.025751 -196.572629 
L 164.408912 -200.172436 
L 166.792072 -204.855245 
L 169.175233 -208.738218 
L 171.558393 -212.353616 
L 173.941554 -220.05487 
L 176.324714 -230.230857 
L 178.707874 -233.040468 
L 181.091035 -233.661289 
L 183.474195 -235.745593 
L 185.857356 -241.54126 
L 188.240516 -244.35929 
L 190.623677 -243.837202 
L 193.006837 -246.475742 
L 195.389998 -246.64438 
L 197.773158 -247.331403 
L 200.156319 -250.838405 
L 202.539479 -252.610659 
L 204.92264 -257.99858 
L 207.3058 -260.553571 
L 209.68896 -264.579132 
L 212.072121 -266.072157 
L 214.455281 -270.119028 
L 216.838442 -271.199704 
L 219.221602 -274.502935 
L 221.604763 -277.941211 
L 223.987923 -278.511331 
L 226.371084 -281.597487 
L 228.754244 -284.488413 
L 231.137405 -283.852457 
L 233.520565 -285.339269 
L 235.903726 -287.363995 
L 238.286886 -289.818859 
L 240.670047 -288.400314 
L 243.053207 -291.058991 
L 245.436367 -293.375549 
L 247.819528 -291.116006 
L 250.202688 -291.611379 
L 252.585849 -292.20175 
L 254.969009 -294.476027 
L 257.35217 -296.562354 
L 259.73533 -295.814904 
L 262.118491 -294.979991 
L 264.501651 -297.943626 
L 266.884812 -298.56529 
L 269.267972 -298.05009 
L 271.651133 -294.792046 
L 274.034293 -293.15881 
L 276.417453 -296.121419 
L 278.800614 -295.201955 
L 281.183774 -297.247599 
L 283.566935 -293.477853 
L 285.950095 -292.57581 
L 288.333256 -295.058321 
L 290.716416 -293.884017 
L 293.099577 -293.828979 
L 295.482737 -293.354357 
L 297.865898 -293.400786 
L 300.249058 -295.807245 
L 302.632219 -296.56481 
L 305.015379 -295.187315 
L 307.39854 -296.857583 
L 309.7817 -300.609355 
L 312.16486 -301.714365 
L 314.548021 -302.298093 
L 316.931181 -304.277695 
L 319.314342 -307.560562 
L 321.697502 -309.500464 
L 324.080663 -308.833862 
L 326.463823 -309.4182 
L 328.846984 -308.507807 
L 331.230144 -310.641019 
L 333.613305 -311.807962 
L 335.996465 -312.68409 
L 338.379626 -316.576537 
L 340.762786 -319.073214 
L 343.145946 -319.372054 
L 345.529107 -320.241296 
L 347.912267 -320.037842 
L 350.295428 -323.046779 
L 352.678588 -323.577047 
L 355.061749 -323.650499 
L 357.444909 -321.341726 
L 359.82807 -321.858103 
L 362.21123 -324.263172 
L 364.594391 -326.173912 
L 366.977551 -328.993782 
L 369.360712 -327.914729 
L 371.743872 -329.022634 
L 374.127032 -327.920933 
L 376.510193 -328.80905 
L 378.893353 -327.650283 
L 381.276514 -326.938357 
L 383.659674 -327.440446 
L 386.042835 -325.03123 
L 388.425995 -323.817332 
L 390.809156 -326.059796 
L 393.192316 -323.687621 
L 395.575477 -318.024292 
L 397.958637 -317.085264 
L 400.341798 -317.095909 
L 402.724958 -314.580879 
L 405.108119 -314.059254 
L 407.491279 -312.451453 
L 409.874439 -309.249519 
L 412.2576 -311.518523 
L 414.64076 -311.699424 
L 417.023921 -311.48423 
L 419.407081 -310.435311 
L 421.790242 -309.41148 
L 424.173402 -309.427439 
L 426.556563 -308.222867 
L 428.939723 -305.684188 
L 431.322884 -305.275686 
L 433.706044 -303.857058 
L 436.089205 -302.282557 
L 436.089205 -349.660269 
L 436.089205 -349.660269 
L 433.706044 -349.124028 
L 431.322884 -349.188938 
L 428.939723 -343.904625 
L 426.556563 -346.030233 
L 424.173402 -347.703824 
L 421.790242 -348.347184 
L 419.407081 -347.897696 
L 417.023921 -346.219941 
L 414.64076 -347.809513 
L 412.2576 -347.604652 
L 409.874439 -347.193394 
L 407.491279 -346.774257 
L 405.108119 -347.264489 
L 402.724958 -347.90804 
L 400.341798 -349.268564 
L 397.958637 -351.410225 
L 395.575477 -353.996839 
L 393.192316 -357.433352 
L 390.809156 -358.811967 
L 388.425995 -358.682491 
L 386.042835 -361.583635 
L 383.659674 -362.348716 
L 381.276514 -361.165782 
L 378.893353 -360.656776 
L 376.510193 -364.61761 
L 374.127032 -364.882627 
L 371.743872 -367.150256 
L 369.360712 -369.195321 
L 366.977551 -373.914898 
L 364.594391 -375.107107 
L 362.21123 -376.810625 
L 359.82807 -373.757654 
L 357.444909 -372.370313 
L 355.061749 -372.927514 
L 352.678588 -374.423555 
L 350.295428 -372.477198 
L 347.912267 -371.144511 
L 345.529107 -371.496757 
L 343.145946 -370.579874 
L 340.762786 -370.153796 
L 338.379626 -366.699114 
L 335.996465 -366.493728 
L 333.613305 -365.119813 
L 331.230144 -363.598605 
L 328.846984 -362.105792 
L 326.463823 -362.815889 
L 324.080663 -363.00586 
L 321.697502 -365.689227 
L 319.314342 -365.305949 
L 316.931181 -367.193473 
L 314.548021 -365.845334 
L 312.16486 -360.195193 
L 309.7817 -356.536965 
L 307.39854 -353.973127 
L 305.015379 -352.530764 
L 302.632219 -351.578468 
L 300.249058 -352.774139 
L 297.865898 -353.247482 
L 295.482737 -354.498523 
L 293.099577 -353.208636 
L 290.716416 -350.848343 
L 288.333256 -351.266566 
L 285.950095 -349.499234 
L 283.566935 -348.928459 
L 281.183774 -348.028271 
L 278.800614 -350.91786 
L 276.417453 -351.961628 
L 274.034293 -350.930373 
L 271.651133 -346.373802 
L 269.267972 -347.273104 
L 266.884812 -348.308843 
L 264.501651 -349.107614 
L 262.118491 -346.677024 
L 259.73533 -349.826652 
L 257.35217 -350.133238 
L 254.969009 -347.69223 
L 252.585849 -343.442241 
L 250.202688 -339.918288 
L 247.819528 -339.254939 
L 245.436367 -339.786798 
L 243.053207 -341.199179 
L 240.670047 -342.353525 
L 238.286886 -341.788964 
L 235.903726 -335.914078 
L 233.520565 -332.497255 
L 231.137405 -328.739701 
L 228.754244 -325.674444 
L 226.371084 -323.526792 
L 223.987923 -321.485458 
L 221.604763 -317.427142 
L 219.221602 -314.779259 
L 216.838442 -314.98133 
L 214.455281 -314.43793 
L 212.072121 -313.076236 
L 209.68896 -310.054834 
L 207.3058 -312.11071 
L 204.92264 -311.165871 
L 202.539479 -308.805555 
L 200.156319 -306.212523 
L 197.773158 -304.200537 
L 195.389998 -301.224964 
L 193.006837 -300.59483 
L 190.623677 -299.458919 
L 188.240516 -300.867795 
L 185.857356 -301.283054 
L 183.474195 -295.366017 
L 181.091035 -291.230077 
L 178.707874 -289.750714 
L 176.324714 -288.629561 
L 173.941554 -288.065138 
L 171.558393 -284.101013 
L 169.175233 -281.790149 
L 166.792072 -275.121292 
L 164.408912 -266.688168 
L 162.025751 -258.320726 
L 159.642591 -253.438086 
L 157.25943 -247.225727 
L 154.87627 -242.385931 
L 152.493109 -237.668612 
L 150.109949 -234.173681 
L 147.726788 -231.764029 
L 145.343628 -228.061832 
L 142.960468 -226.843424 
L 140.577307 -223.765822 
L 138.194147 -221.46702 
L 135.810986 -219.089437 
L 133.427826 -217.615501 
L 131.044665 -211.959752 
L 128.661505 -208.623472 
L 126.278344 -205.621215 
L 123.895184 -198.713792 
L 121.512023 -194.982811 
L 119.128863 -192.382464 
L 116.745702 -190.068804 
L 114.362542 -178.970088 
L 111.979381 -179.031925 
L 109.596221 -175.48171 
L 107.213061 -169.180883 
L 104.8299 -160.793282 
L 102.44674 -151.961479 
L 100.063579 -146.036681 
L 97.680419 -143.805802 
L 95.297258 -140.041498 
L 92.914098 -134.136907 
L 90.530937 -123.556881 
L 88.147777 -115.404379 
L 85.764616 -104.278514 
L 83.381456 -88.839846 
L 80.998295 -83.4708 
z
" style="stroke: #009e73; stroke-opacity: 0.2"/>
    </defs>
    <g clip-path="url(#p8adc476e46)">
     <use xlink:href="#mea0f40012a" x="0" y="399.130625" style="fill: #009e73; fill-opacity: 0.2; stroke: #009e73; stroke-opacity: 0.2"/>
    </g>
   </g>
   <g id="PolyCollection_2">
    <defs>
     <path id="ma6bae521f4" d="M 80.998295 -84.175976 
L 80.998295 -78.528635 
L 83.381456 -74.410625 
L 85.764616 -78.146482 
L 88.147777 -80.364554 
L 90.530937 -79.420448 
L 92.914098 -87.226544 
L 95.297258 -94.503902 
L 97.680419 -100.21825 
L 100.063579 -102.33495 
L 102.44674 -103.808843 
L 104.8299 -109.109942 
L 107.213061 -113.696754 
L 109.596221 -121.282253 
L 111.979381 -127.168133 
L 114.362542 -135.647039 
L 116.745702 -142.471949 
L 119.128863 -146.856414 
L 121.512023 -146.169263 
L 123.895184 -147.427275 
L 126.278344 -152.02489 
L 128.661505 -154.567378 
L 131.044665 -153.552235 
L 133.427826 -157.546357 
L 135.810986 -157.649178 
L 138.194147 -158.085994 
L 140.577307 -157.150029 
L 142.960468 -162.04264 
L 145.343628 -162.964598 
L 147.726788 -166.416802 
L 150.109949 -167.638121 
L 152.493109 -168.44736 
L 154.87627 -169.631745 
L 157.25943 -170.381913 
L 159.642591 -172.330744 
L 162.025751 -174.421836 
L 164.408912 -176.510654 
L 166.792072 -178.807311 
L 169.175233 -182.032562 
L 171.558393 -183.063119 
L 173.941554 -185.204521 
L 176.324714 -187.853231 
L 178.707874 -188.91999 
L 181.091035 -189.824185 
L 183.474195 -194.473078 
L 185.857356 -200.139018 
L 188.240516 -201.432158 
L 190.623677 -203.118975 
L 193.006837 -208.530804 
L 195.389998 -210.069242 
L 197.773158 -211.812572 
L 200.156319 -213.53301 
L 202.539479 -219.164326 
L 204.92264 -219.037952 
L 207.3058 -217.055012 
L 209.68896 -222.364159 
L 212.072121 -223.077115 
L 214.455281 -222.305973 
L 216.838442 -223.287804 
L 219.221602 -221.378165 
L 221.604763 -226.289087 
L 223.987923 -226.820412 
L 226.371084 -229.014991 
L 228.754244 -224.957056 
L 231.137405 -227.406651 
L 233.520565 -231.442423 
L 235.903726 -235.133803 
L 238.286886 -238.558486 
L 240.670047 -238.895087 
L 243.053207 -240.218335 
L 245.436367 -239.278228 
L 247.819528 -239.336539 
L 250.202688 -238.032443 
L 252.585849 -238.483176 
L 254.969009 -238.370727 
L 257.35217 -238.661217 
L 259.73533 -239.591146 
L 262.118491 -239.443288 
L 264.501651 -239.95808 
L 266.884812 -238.818543 
L 269.267972 -240.29383 
L 271.651133 -242.519706 
L 274.034293 -244.076964 
L 276.417453 -245.478978 
L 278.800614 -246.969889 
L 281.183774 -251.280492 
L 283.566935 -253.176494 
L 285.950095 -254.911189 
L 288.333256 -253.83844 
L 290.716416 -253.128116 
L 293.099577 -249.920841 
L 295.482737 -247.491616 
L 297.865898 -249.010211 
L 300.249058 -253.737521 
L 302.632219 -254.58525 
L 305.015379 -254.52941 
L 307.39854 -255.124029 
L 309.7817 -255.217508 
L 312.16486 -256.853318 
L 314.548021 -256.060406 
L 316.931181 -255.996244 
L 319.314342 -255.314693 
L 321.697502 -254.560895 
L 324.080663 -256.64094 
L 326.463823 -256.232009 
L 328.846984 -254.456722 
L 331.230144 -254.218549 
L 333.613305 -255.241206 
L 335.996465 -255.038141 
L 338.379626 -252.540885 
L 340.762786 -250.771681 
L 343.145946 -250.485728 
L 345.529107 -251.844581 
L 347.912267 -252.376345 
L 350.295428 -253.760009 
L 352.678588 -255.466414 
L 355.061749 -257.947788 
L 357.444909 -257.600248 
L 359.82807 -255.832959 
L 362.21123 -255.246169 
L 364.594391 -256.212128 
L 366.977551 -258.943518 
L 369.360712 -262.224816 
L 371.743872 -259.949157 
L 374.127032 -256.599587 
L 376.510193 -260.091548 
L 378.893353 -259.346879 
L 381.276514 -260.507619 
L 383.659674 -260.664658 
L 386.042835 -260.32798 
L 388.425995 -256.723682 
L 390.809156 -257.717631 
L 393.192316 -256.532553 
L 395.575477 -256.067064 
L 397.958637 -258.139724 
L 400.341798 -260.982459 
L 402.724958 -261.274628 
L 405.108119 -260.187901 
L 407.491279 -264.509812 
L 409.874439 -265.584203 
L 412.2576 -271.292431 
L 414.64076 -274.032209 
L 417.023921 -272.02943 
L 419.407081 -272.39416 
L 421.790242 -269.475432 
L 424.173402 -270.098894 
L 426.556563 -271.825688 
L 428.939723 -269.772541 
L 431.322884 -272.784223 
L 433.706044 -271.055839 
L 436.089205 -270.953919 
L 436.089205 -322.424674 
L 436.089205 -322.424674 
L 433.706044 -323.728852 
L 431.322884 -325.227825 
L 428.939723 -322.339775 
L 426.556563 -320.22568 
L 424.173402 -321.424022 
L 421.790242 -321.085228 
L 419.407081 -322.601338 
L 417.023921 -320.180402 
L 414.64076 -321.669564 
L 412.2576 -317.58966 
L 409.874439 -313.805113 
L 407.491279 -311.57399 
L 405.108119 -309.388127 
L 402.724958 -306.132381 
L 400.341798 -305.588491 
L 397.958637 -301.069468 
L 395.575477 -300.154977 
L 393.192316 -300.677556 
L 390.809156 -299.052221 
L 388.425995 -299.638896 
L 386.042835 -302.479991 
L 383.659674 -300.934399 
L 381.276514 -300.932973 
L 378.893353 -300.324081 
L 376.510193 -298.839436 
L 374.127032 -298.801452 
L 371.743872 -298.781058 
L 369.360712 -301.03847 
L 366.977551 -300.320886 
L 364.594391 -298.702764 
L 362.21123 -300.511235 
L 359.82807 -299.028874 
L 357.444909 -301.403156 
L 355.061749 -301.852238 
L 352.678588 -299.302204 
L 350.295428 -299.069757 
L 347.912267 -300.443382 
L 345.529107 -298.254731 
L 343.145946 -297.970148 
L 340.762786 -299.29393 
L 338.379626 -298.880632 
L 335.996465 -299.706099 
L 333.613305 -297.937037 
L 331.230144 -296.516769 
L 328.846984 -295.411706 
L 326.463823 -296.683084 
L 324.080663 -295.213664 
L 321.697502 -293.332112 
L 319.314342 -292.155265 
L 316.931181 -290.558782 
L 314.548021 -292.650733 
L 312.16486 -292.586325 
L 309.7817 -291.570554 
L 307.39854 -292.338759 
L 305.015379 -293.927183 
L 302.632219 -295.894088 
L 300.249058 -292.964497 
L 297.865898 -288.667254 
L 295.482737 -288.801979 
L 293.099577 -289.576448 
L 290.716416 -288.840062 
L 288.333256 -290.891742 
L 285.950095 -293.041332 
L 283.566935 -295.933314 
L 281.183774 -297.614924 
L 278.800614 -294.892887 
L 276.417453 -293.127759 
L 274.034293 -294.902629 
L 271.651133 -295.198629 
L 269.267972 -295.263374 
L 266.884812 -295.819427 
L 264.501651 -297.683533 
L 262.118491 -297.525033 
L 259.73533 -297.923553 
L 257.35217 -292.355029 
L 254.969009 -290.030506 
L 252.585849 -289.765329 
L 250.202688 -289.865435 
L 247.819528 -289.506386 
L 245.436367 -291.215302 
L 243.053207 -290.891125 
L 240.670047 -290.319259 
L 238.286886 -291.096834 
L 235.903726 -294.335807 
L 233.520565 -293.344256 
L 231.137405 -293.135204 
L 228.754244 -290.921229 
L 226.371084 -291.908324 
L 223.987923 -290.106172 
L 221.604763 -296.240379 
L 219.221602 -294.127981 
L 216.838442 -298.87239 
L 214.455281 -298.225127 
L 212.072121 -297.768044 
L 209.68896 -297.535236 
L 207.3058 -294.772764 
L 204.92264 -293.871824 
L 202.539479 -290.366799 
L 200.156319 -281.377134 
L 197.773158 -272.77089 
L 195.389998 -271.258182 
L 193.006837 -267.846954 
L 190.623677 -263.97323 
L 188.240516 -264.742247 
L 185.857356 -260.116296 
L 183.474195 -257.182882 
L 181.091035 -252.212802 
L 178.707874 -247.679033 
L 176.324714 -245.742865 
L 173.941554 -244.223473 
L 171.558393 -241.816031 
L 169.175233 -239.569755 
L 166.792072 -232.669093 
L 164.408912 -225.514563 
L 162.025751 -222.21059 
L 159.642591 -220.611123 
L 157.25943 -216.574178 
L 154.87627 -213.888333 
L 152.493109 -213.652279 
L 150.109949 -212.232268 
L 147.726788 -211.548436 
L 145.343628 -208.836323 
L 142.960468 -208.699226 
L 140.577307 -205.470026 
L 138.194147 -205.854833 
L 135.810986 -205.601147 
L 133.427826 -206.752268 
L 131.044665 -207.884719 
L 128.661505 -205.230443 
L 126.278344 -205.446881 
L 123.895184 -206.869483 
L 121.512023 -208.278072 
L 119.128863 -205.341594 
L 116.745702 -203.246249 
L 114.362542 -199.986116 
L 111.979381 -188.96321 
L 109.596221 -188.010764 
L 107.213061 -179.84309 
L 104.8299 -165.90612 
L 102.44674 -154.220752 
L 100.063579 -146.556084 
L 97.680419 -141.237171 
L 95.297258 -129.85678 
L 92.914098 -113.017514 
L 90.530937 -101.978598 
L 88.147777 -98.169953 
L 85.764616 -94.731366 
L 83.381456 -92.702293 
L 80.998295 -84.175976 
z
" style="stroke: #000000; stroke-opacity: 0.2"/>
    </defs>
    <g clip-path="url(#p8adc476e46)">
     <use xlink:href="#ma6bae521f4" x="0" y="399.130625" style="fill-opacity: 0.2; stroke: #000000; stroke-opacity: 0.2"/>
    </g>
   </g>
   <g id="PolyCollection_3">
    <defs>
     <path id="m4259d6e2e7" d="M 80.998295 -83.338402 
L 80.998295 -76.419928 
L 83.381456 -77.136652 
L 85.764616 -78.175091 
L 88.147777 -80.126068 
L 90.530937 -81.523701 
L 92.914098 -81.46534 
L 95.297258 -85.485997 
L 97.680419 -88.705574 
L 100.063579 -91.589588 
L 102.44674 -89.464022 
L 104.8299 -91.504349 
L 107.213061 -91.00299 
L 109.596221 -94.02893 
L 111.979381 -99.073251 
L 114.362542 -100.018385 
L 116.745702 -103.744045 
L 119.128863 -105.520845 
L 121.512023 -109.786324 
L 123.895184 -109.350014 
L 126.278344 -110.473939 
L 128.661505 -111.930625 
L 131.044665 -112.707635 
L 133.427826 -115.619504 
L 135.810986 -119.931133 
L 138.194147 -121.23553 
L 140.577307 -128.730266 
L 142.960468 -131.9576 
L 145.343628 -133.117771 
L 147.726788 -134.075795 
L 150.109949 -139.2161 
L 152.493109 -143.843401 
L 154.87627 -143.595648 
L 157.25943 -144.360857 
L 159.642591 -145.36513 
L 162.025751 -149.828513 
L 164.408912 -149.811216 
L 166.792072 -153.335117 
L 169.175233 -155.635089 
L 171.558393 -156.87929 
L 173.941554 -156.306418 
L 176.324714 -155.255418 
L 178.707874 -156.799434 
L 181.091035 -159.421587 
L 183.474195 -163.324153 
L 185.857356 -165.854295 
L 188.240516 -168.210232 
L 190.623677 -173.391936 
L 193.006837 -178.748778 
L 195.389998 -179.642104 
L 197.773158 -180.771497 
L 200.156319 -180.95273 
L 202.539479 -180.753775 
L 204.92264 -185.777807 
L 207.3058 -187.389261 
L 209.68896 -191.13198 
L 212.072121 -191.766039 
L 214.455281 -189.075881 
L 216.838442 -191.052653 
L 219.221602 -191.615756 
L 221.604763 -191.735911 
L 223.987923 -194.059234 
L 226.371084 -190.864689 
L 228.754244 -191.667522 
L 231.137405 -190.539099 
L 233.520565 -190.395401 
L 235.903726 -188.985589 
L 238.286886 -190.531921 
L 240.670047 -187.472888 
L 243.053207 -191.943736 
L 245.436367 -193.337704 
L 247.819528 -191.240515 
L 250.202688 -193.183763 
L 252.585849 -193.433593 
L 254.969009 -193.923226 
L 257.35217 -192.90038 
L 259.73533 -193.403763 
L 262.118491 -194.48514 
L 264.501651 -192.524434 
L 266.884812 -196.613109 
L 269.267972 -199.053041 
L 271.651133 -208.140376 
L 274.034293 -211.115091 
L 276.417453 -210.728462 
L 278.800614 -211.480673 
L 281.183774 -212.474099 
L 283.566935 -212.742645 
L 285.950095 -212.267382 
L 288.333256 -207.066567 
L 290.716416 -207.640954 
L 293.099577 -206.988947 
L 295.482737 -210.092776 
L 297.865898 -211.805514 
L 300.249058 -208.862303 
L 302.632219 -208.900029 
L 305.015379 -207.523949 
L 307.39854 -207.511894 
L 309.7817 -208.870929 
L 312.16486 -208.939537 
L 314.548021 -208.318078 
L 316.931181 -211.589422 
L 319.314342 -216.547113 
L 321.697502 -217.99797 
L 324.080663 -217.724334 
L 326.463823 -217.38372 
L 328.846984 -217.046768 
L 331.230144 -217.089787 
L 333.613305 -215.814748 
L 335.996465 -217.86079 
L 338.379626 -215.479455 
L 340.762786 -212.821363 
L 343.145946 -215.479274 
L 345.529107 -213.299649 
L 347.912267 -210.989494 
L 350.295428 -213.197849 
L 352.678588 -213.282581 
L 355.061749 -211.856415 
L 357.444909 -217.537184 
L 359.82807 -214.8392 
L 362.21123 -212.576381 
L 364.594391 -209.005107 
L 366.977551 -208.21154 
L 369.360712 -208.095559 
L 371.743872 -210.312103 
L 374.127032 -211.643391 
L 376.510193 -214.155493 
L 378.893353 -216.21183 
L 381.276514 -220.918145 
L 383.659674 -218.83874 
L 386.042835 -217.702216 
L 388.425995 -216.658842 
L 390.809156 -214.864124 
L 393.192316 -213.305588 
L 395.575477 -214.559533 
L 397.958637 -213.188218 
L 400.341798 -210.322247 
L 402.724958 -208.066883 
L 405.108119 -205.883956 
L 407.491279 -206.626085 
L 409.874439 -207.654396 
L 412.2576 -206.112734 
L 414.64076 -206.249962 
L 417.023921 -209.284732 
L 419.407081 -208.011518 
L 421.790242 -204.8556 
L 424.173402 -206.655886 
L 426.556563 -203.130198 
L 428.939723 -204.256098 
L 431.322884 -205.406306 
L 433.706044 -203.67053 
L 436.089205 -199.56441 
L 436.089205 -233.822314 
L 436.089205 -233.822314 
L 433.706044 -234.770546 
L 431.322884 -231.588519 
L 428.939723 -228.648064 
L 426.556563 -229.791173 
L 424.173402 -229.157271 
L 421.790242 -228.479497 
L 419.407081 -232.577784 
L 417.023921 -230.394656 
L 414.64076 -230.176973 
L 412.2576 -230.894997 
L 409.874439 -236.389561 
L 407.491279 -234.827239 
L 405.108119 -233.329363 
L 402.724958 -233.964368 
L 400.341798 -235.392393 
L 397.958637 -236.76551 
L 395.575477 -235.58851 
L 393.192316 -238.892446 
L 390.809156 -238.595169 
L 388.425995 -240.728347 
L 386.042835 -242.831306 
L 383.659674 -242.59609 
L 381.276514 -242.900813 
L 378.893353 -244.040615 
L 376.510193 -244.959024 
L 374.127032 -245.82554 
L 371.743872 -247.978545 
L 369.360712 -248.852807 
L 366.977551 -250.851351 
L 364.594391 -249.32928 
L 362.21123 -247.600059 
L 359.82807 -247.84183 
L 357.444909 -249.266058 
L 355.061749 -248.570269 
L 352.678588 -245.870656 
L 350.295428 -245.455617 
L 347.912267 -245.413212 
L 345.529107 -246.937021 
L 343.145946 -247.520118 
L 340.762786 -243.361214 
L 338.379626 -244.240953 
L 335.996465 -246.506696 
L 333.613305 -246.504181 
L 331.230144 -247.020286 
L 328.846984 -246.774341 
L 326.463823 -246.552114 
L 324.080663 -249.506258 
L 321.697502 -250.315339 
L 319.314342 -249.434411 
L 316.931181 -245.776256 
L 314.548021 -242.779314 
L 312.16486 -242.793862 
L 309.7817 -244.933973 
L 307.39854 -244.817358 
L 305.015379 -248.327359 
L 302.632219 -247.0911 
L 300.249058 -248.839663 
L 297.865898 -246.974866 
L 295.482737 -244.189669 
L 293.099577 -243.455946 
L 290.716416 -241.540531 
L 288.333256 -245.087012 
L 285.950095 -248.223834 
L 283.566935 -248.663504 
L 281.183774 -249.386647 
L 278.800614 -253.244612 
L 276.417453 -254.3116 
L 274.034293 -257.251996 
L 271.651133 -254.663266 
L 269.267972 -248.229746 
L 266.884812 -245.315607 
L 264.501651 -246.94343 
L 262.118491 -247.922552 
L 259.73533 -249.468565 
L 257.35217 -248.770921 
L 254.969009 -249.960116 
L 252.585849 -249.909107 
L 250.202688 -249.267668 
L 247.819528 -246.824836 
L 245.436367 -246.34527 
L 243.053207 -245.426812 
L 240.670047 -242.316491 
L 238.286886 -242.480513 
L 235.903726 -241.747402 
L 233.520565 -242.075673 
L 231.137405 -241.691054 
L 228.754244 -244.050987 
L 226.371084 -244.637276 
L 223.987923 -249.045412 
L 221.604763 -251.502103 
L 219.221602 -251.704717 
L 216.838442 -248.215877 
L 214.455281 -247.078582 
L 212.072121 -250.459527 
L 209.68896 -248.730252 
L 207.3058 -244.458714 
L 204.92264 -242.858586 
L 202.539479 -238.977091 
L 200.156319 -238.502796 
L 197.773158 -239.998347 
L 195.389998 -237.207731 
L 193.006837 -237.242054 
L 190.623677 -233.876213 
L 188.240516 -233.053498 
L 185.857356 -234.027716 
L 183.474195 -232.296542 
L 181.091035 -229.678427 
L 178.707874 -226.770836 
L 176.324714 -226.12002 
L 173.941554 -227.202188 
L 171.558393 -228.557412 
L 169.175233 -225.966931 
L 166.792072 -225.810354 
L 164.408912 -223.318364 
L 162.025751 -220.881804 
L 159.642591 -218.930627 
L 157.25943 -219.856026 
L 154.87627 -219.919262 
L 152.493109 -219.286464 
L 150.109949 -215.87226 
L 147.726788 -214.380744 
L 145.343628 -213.820097 
L 142.960468 -210.048528 
L 140.577307 -207.017615 
L 138.194147 -204.371379 
L 135.810986 -201.766523 
L 133.427826 -195.126935 
L 131.044665 -194.842996 
L 128.661505 -191.755209 
L 126.278344 -188.799286 
L 123.895184 -188.16505 
L 121.512023 -186.461747 
L 119.128863 -181.787998 
L 116.745702 -176.296254 
L 114.362542 -171.103482 
L 111.979381 -161.174121 
L 109.596221 -152.437105 
L 107.213061 -144.480995 
L 104.8299 -145.166324 
L 102.44674 -143.521827 
L 100.063579 -141.948376 
L 97.680419 -137.938136 
L 95.297258 -132.085118 
L 92.914098 -122.398291 
L 90.530937 -108.261024 
L 88.147777 -104.548377 
L 85.764616 -92.533022 
L 83.381456 -86.191059 
L 80.998295 -83.338402 
z
" style="stroke: #d55e00; stroke-opacity: 0.2"/>
    </defs>
    <g clip-path="url(#p8adc476e46)">
     <use xlink:href="#m4259d6e2e7" x="0" y="399.130625" style="fill: #d55e00; fill-opacity: 0.2; stroke: #d55e00; stroke-opacity: 0.2"/>
    </g>
   </g>
   <g id="line2d_13">
    <path d="M 80.998295 318.011713 
L 83.381456 315.650888 
L 85.764616 308.53292 
L 88.147777 301.788526 
L 90.530937 298.059605 
L 92.914098 289.036127 
L 95.297258 283.870635 
L 97.680419 280.923637 
L 100.063579 280.272215 
L 102.44674 274.867593 
L 104.8299 265.849134 
L 107.213061 256.049111 
L 111.979381 247.163303 
L 114.362542 246.20284 
L 116.745702 237.980286 
L 119.128863 236.659156 
L 121.512023 233.307394 
L 123.895184 227.199723 
L 126.278344 220.102549 
L 128.661505 217.387869 
L 131.044665 215.580592 
L 133.427826 209.154559 
L 135.810986 205.97596 
L 138.194147 203.14799 
L 140.577307 200.784655 
L 142.960468 199.87546 
L 145.343628 197.090511 
L 147.726788 193.728711 
L 150.109949 191.745044 
L 152.493109 190.000507 
L 154.87627 183.683105 
L 157.25943 181.337696 
L 159.642591 176.075405 
L 162.025751 171.683948 
L 164.408912 165.700323 
L 166.792072 159.142356 
L 169.175233 153.866442 
L 171.558393 150.90331 
L 173.941554 145.070621 
L 176.324714 139.700416 
L 178.707874 137.735034 
L 181.091035 136.684942 
L 183.474195 133.57482 
L 185.857356 127.718468 
L 188.240516 126.517082 
L 190.623677 127.482565 
L 193.006837 125.595339 
L 195.389998 125.195953 
L 197.773158 123.364655 
L 200.156319 120.605161 
L 202.539479 118.422518 
L 204.92264 114.548399 
L 207.3058 112.798485 
L 209.68896 111.813642 
L 212.072121 109.556428 
L 214.455281 106.852146 
L 216.838442 106.040108 
L 219.221602 104.489528 
L 221.604763 101.446448 
L 223.987923 99.13223 
L 228.754244 94.049197 
L 231.137405 92.834546 
L 235.903726 87.491589 
L 238.286886 83.326713 
L 240.670047 83.753705 
L 243.053207 83.00154 
L 245.436367 82.549452 
L 247.819528 83.945153 
L 250.202688 83.365792 
L 252.585849 81.308629 
L 254.969009 78.046496 
L 257.35217 75.782829 
L 259.73533 76.309847 
L 262.118491 78.302118 
L 264.501651 75.605005 
L 266.884812 75.693559 
L 269.267972 76.469028 
L 271.651133 78.547701 
L 274.034293 77.086033 
L 276.417453 75.089101 
L 278.800614 76.070717 
L 281.183774 76.49269 
L 283.566935 77.927469 
L 285.950095 78.093103 
L 288.333256 75.968182 
L 290.716416 76.764445 
L 293.099577 75.611817 
L 295.482737 75.204185 
L 297.865898 75.806491 
L 300.249058 74.839933 
L 305.015379 75.271586 
L 307.39854 73.71527 
L 309.7817 70.557465 
L 312.16486 68.175846 
L 314.548021 65.058912 
L 316.931181 63.395041 
L 319.314342 62.69737 
L 321.697502 61.535779 
L 324.080663 63.210764 
L 326.463823 63.013581 
L 328.846984 63.823826 
L 331.230144 62.010813 
L 333.613305 60.666738 
L 335.996465 59.541716 
L 338.379626 57.492799 
L 340.762786 54.51712 
L 343.145946 54.154661 
L 345.529107 53.261599 
L 347.912267 53.539448 
L 350.295428 51.368637 
L 352.678588 50.130324 
L 355.061749 50.841619 
L 357.444909 52.274606 
L 359.82807 51.322747 
L 362.21123 48.593726 
L 364.594391 48.490115 
L 366.977551 47.676285 
L 369.360712 50.5756 
L 371.743872 51.04418 
L 374.127032 52.728845 
L 376.510193 52.417295 
L 378.893353 54.977096 
L 381.276514 55.078556 
L 383.659674 54.236044 
L 386.042835 55.823193 
L 388.425995 57.880713 
L 390.809156 56.694744 
L 393.192316 58.570139 
L 395.575477 63.12006 
L 397.958637 64.882881 
L 400.341798 65.948389 
L 402.724958 67.886165 
L 405.108119 68.468753 
L 407.491279 69.51777 
L 409.874439 70.909169 
L 412.2576 69.569037 
L 414.64076 69.376156 
L 417.023921 70.27854 
L 419.407081 69.964122 
L 424.173402 70.564994 
L 426.556563 72.004075 
L 428.939723 74.336219 
L 431.322884 71.898313 
L 433.706044 72.640082 
L 436.089205 73.159212 
L 436.089205 73.159212 
" clip-path="url(#p8adc476e46)" style="fill: none; stroke: #009e73; stroke-width: 1.5; stroke-linecap: round"/>
   </g>
   <g id="line2d_14">
    <path d="M 80.998295 317.778319 
L 83.381456 315.574166 
L 88.147777 309.863372 
L 90.530937 308.431102 
L 92.914098 299.008596 
L 95.297258 286.950284 
L 97.680419 278.402915 
L 100.063579 274.685108 
L 102.44674 270.115827 
L 104.8299 261.622594 
L 107.213061 252.360703 
L 109.596221 244.484116 
L 111.979381 241.064953 
L 114.362542 231.314047 
L 116.745702 226.271526 
L 119.128863 223.031621 
L 121.512023 221.906958 
L 123.895184 221.982246 
L 126.278344 220.394739 
L 128.661505 219.231715 
L 131.044665 218.412148 
L 133.427826 216.981313 
L 135.810986 217.505462 
L 138.194147 217.160212 
L 140.577307 217.820597 
L 142.960468 213.759692 
L 145.343628 213.230164 
L 147.726788 210.148006 
L 150.109949 209.19543 
L 152.493109 208.080805 
L 154.87627 207.370586 
L 157.25943 205.652579 
L 159.642591 202.659692 
L 162.025751 200.814412 
L 164.408912 198.118017 
L 166.792072 193.392423 
L 169.175233 188.329466 
L 171.558393 186.69105 
L 173.941554 184.416628 
L 176.324714 182.332577 
L 178.707874 180.831113 
L 181.091035 178.112132 
L 183.474195 173.302645 
L 185.857356 169.002968 
L 188.240516 166.043422 
L 190.623677 165.584522 
L 193.006837 160.941746 
L 195.389998 158.466913 
L 197.773158 156.838894 
L 200.156319 151.675553 
L 202.539479 144.365062 
L 204.92264 142.675737 
L 207.3058 143.216737 
L 209.68896 139.180927 
L 212.072121 138.708045 
L 214.455281 138.865075 
L 216.838442 138.050528 
L 219.221602 141.377552 
L 221.604763 137.865892 
L 223.987923 140.667333 
L 226.371084 138.668967 
L 228.754244 141.191483 
L 231.137405 138.859697 
L 233.520565 136.737285 
L 235.903726 134.39582 
L 238.286886 134.302965 
L 240.670047 134.523452 
L 243.053207 133.575895 
L 245.436367 133.88386 
L 247.819528 134.709163 
L 250.202688 135.181686 
L 254.969009 134.930008 
L 257.35217 133.622502 
L 259.73533 130.373276 
L 262.118491 130.646465 
L 264.501651 130.309818 
L 266.884812 131.81164 
L 269.267972 131.352023 
L 271.651133 130.271457 
L 274.034293 129.640828 
L 276.417453 129.827256 
L 278.800614 128.199237 
L 281.183774 124.682917 
L 283.566935 124.575721 
L 285.950095 125.154365 
L 288.333256 126.765534 
L 290.716416 128.146536 
L 293.099577 129.38198 
L 295.482737 130.983828 
L 297.865898 130.291893 
L 300.249058 125.779616 
L 302.632219 123.890956 
L 305.015379 124.902328 
L 307.39854 125.399231 
L 309.7817 125.736594 
L 312.16486 124.410803 
L 314.548021 124.775055 
L 316.931181 125.853112 
L 319.314342 125.395646 
L 321.697502 125.184122 
L 324.080663 123.203323 
L 326.463823 122.673079 
L 328.846984 124.196411 
L 331.230144 123.762966 
L 333.613305 122.541503 
L 335.996465 121.758505 
L 338.379626 123.419866 
L 340.762786 124.097819 
L 343.145946 124.902687 
L 345.529107 124.080969 
L 347.912267 122.720761 
L 350.295428 122.715742 
L 352.678588 121.746316 
L 355.061749 119.230612 
L 357.444909 119.628923 
L 359.82807 121.699709 
L 362.21123 121.251923 
L 364.594391 121.673179 
L 366.977551 119.498423 
L 369.360712 117.498982 
L 371.743872 119.765517 
L 374.127032 121.430105 
L 376.510193 119.665133 
L 378.893353 119.295145 
L 381.276514 118.410329 
L 383.659674 118.331097 
L 386.042835 117.726639 
L 388.425995 120.949336 
L 393.192316 120.52557 
L 395.575477 121.019605 
L 397.958637 119.526029 
L 400.341798 115.84515 
L 402.724958 115.427121 
L 405.108119 114.342611 
L 407.491279 111.088724 
L 409.874439 109.435967 
L 412.2576 104.68958 
L 414.64076 101.279738 
L 417.023921 103.025709 
L 419.407081 101.632876 
L 421.790242 103.850295 
L 424.173402 103.369167 
L 426.556563 103.104941 
L 428.939723 103.074467 
L 431.322884 100.124601 
L 433.706044 101.73828 
L 436.089205 102.441329 
L 436.089205 102.441329 
" clip-path="url(#p8adc476e46)" style="fill: none; stroke: #000000; stroke-width: 1.5; stroke-linecap: round"/>
   </g>
   <g id="line2d_15">
    <path d="M 80.998295 319.25146 
L 83.381456 317.466769 
L 85.764616 313.776569 
L 88.147777 306.793403 
L 90.530937 304.238262 
L 95.297258 290.345068 
L 97.680419 285.80877 
L 100.063579 282.361643 
L 102.44674 282.6377 
L 104.8299 280.795289 
L 107.213061 281.388632 
L 109.596221 275.897608 
L 111.979381 269.006939 
L 114.362542 263.569692 
L 116.745702 259.110475 
L 119.128863 255.476203 
L 121.512023 251.00659 
L 123.895184 250.373093 
L 126.278344 249.494013 
L 128.661505 247.287708 
L 131.044665 245.355309 
L 133.427826 243.757405 
L 135.810986 238.281797 
L 138.194147 236.32717 
L 140.577307 231.256685 
L 142.960468 228.127561 
L 145.343628 225.661691 
L 147.726788 224.902355 
L 150.109949 221.586445 
L 152.493109 217.565693 
L 154.87627 217.37317 
L 157.25943 217.022183 
L 159.642591 216.982747 
L 162.025751 213.775466 
L 164.408912 212.565835 
L 166.792072 209.557889 
L 169.175233 208.329615 
L 171.558393 206.412274 
L 176.324714 208.442906 
L 178.707874 207.34549 
L 181.091035 204.580618 
L 183.474195 201.320277 
L 185.857356 199.18962 
L 188.240516 198.49876 
L 190.623677 195.496551 
L 193.006837 191.135209 
L 195.389998 190.705707 
L 197.773158 188.745703 
L 200.156319 189.402862 
L 202.539479 189.265192 
L 204.92264 184.812429 
L 207.3058 183.206638 
L 209.68896 179.199509 
L 212.072121 178.017842 
L 214.455281 181.053393 
L 216.838442 179.49636 
L 219.221602 177.470389 
L 223.987923 177.578302 
L 226.371084 181.379642 
L 228.754244 181.271371 
L 231.137405 183.015549 
L 233.520565 182.895088 
L 235.903726 183.764129 
L 238.286886 182.624408 
L 240.670047 184.235936 
L 243.053207 180.445351 
L 245.436367 179.289138 
L 247.819528 180.097949 
L 250.202688 177.90491 
L 252.585849 177.459275 
L 254.969009 177.188954 
L 257.35217 178.294974 
L 259.73533 177.694461 
L 262.118491 177.926779 
L 264.501651 179.396693 
L 266.884812 178.166267 
L 269.267972 175.489232 
L 271.651133 167.728804 
L 274.034293 164.947082 
L 276.417453 166.610594 
L 278.800614 166.767982 
L 281.183774 168.200252 
L 283.566935 168.427551 
L 285.950095 168.885017 
L 288.333256 173.053836 
L 290.716416 174.539883 
L 293.099577 173.908178 
L 295.482737 171.989403 
L 297.865898 169.740435 
L 300.249058 170.279642 
L 302.632219 171.13506 
L 305.015379 171.204971 
L 307.39854 172.965999 
L 309.7817 172.228174 
L 312.16486 173.263926 
L 314.548021 173.581929 
L 316.931181 170.447786 
L 319.314342 166.139863 
L 321.697502 164.97397 
L 324.080663 165.515329 
L 326.463823 167.162708 
L 328.846984 167.22007 
L 331.230144 167.075589 
L 333.613305 167.971161 
L 335.996465 166.946882 
L 338.379626 169.270421 
L 340.762786 171.039337 
L 343.145946 167.630929 
L 345.529107 169.01229 
L 347.912267 170.929272 
L 350.295428 169.803892 
L 352.678588 169.554007 
L 355.061749 168.917283 
L 357.444909 165.729004 
L 359.82807 167.79011 
L 362.21123 169.042405 
L 364.594391 169.963431 
L 366.977551 169.59918 
L 369.360712 170.656442 
L 371.743872 169.985301 
L 374.127032 170.39616 
L 376.510193 169.573367 
L 378.893353 169.004402 
L 381.276514 167.221146 
L 383.659674 168.41321 
L 386.042835 168.863864 
L 388.425995 170.437031 
L 390.809156 172.400979 
L 393.192316 173.031608 
L 395.575477 174.056604 
L 397.958637 174.153761 
L 400.341798 176.273305 
L 402.724958 178.115 
L 405.108119 179.523966 
L 407.491279 178.403963 
L 409.874439 177.108646 
L 412.2576 180.62676 
L 414.64076 180.917157 
L 417.023921 179.290931 
L 419.407081 178.835974 
L 421.790242 182.463076 
L 424.173402 181.224047 
L 426.556563 182.66994 
L 428.939723 182.678544 
L 431.322884 180.633213 
L 433.706044 179.910087 
L 436.089205 182.437263 
L 436.089205 182.437263 
" clip-path="url(#p8adc476e46)" style="fill: none; stroke: #d55e00; stroke-width: 1.5; stroke-linecap: round"/>
   </g>
   <g id="patch_3">
    <path d="M 63.24375 339.84 
L 63.24375 7.2 
" style="fill: none; stroke: #cccccc; stroke-width: 0.8; stroke-linejoin: miter; stroke-linecap: square"/>
   </g>
   <g id="patch_4">
    <path d="M 453.84375 339.84 
L 453.84375 7.2 
" style="fill: none; stroke: #cccccc; stroke-width: 0.8; stroke-linejoin: miter; stroke-linecap: square"/>
   </g>
   <g id="patch_5">
    <path d="M 63.24375 339.84 
L 453.84375 339.84 
" style="fill: none; stroke: #cccccc; stroke-width: 0.8; stroke-linejoin: miter; stroke-linecap: square"/>
   </g>
   <g id="patch_6">
    <path d="M 63.24375 7.2 
L 453.84375 7.2 
" style="fill: none; stroke: #cccccc; stroke-width: 0.8; stroke-linejoin: miter; stroke-linecap: square"/>
   </g>
   <g id="legend_1">
    <g id="patch_7">
     <path d="M 99.090625 329.84 
L 439.84375 329.84 
Q 443.84375 329.84 443.84375 325.84 
L 443.84375 241.718125 
Q 443.84375 237.718125 439.84375 237.718125 
L 99.090625 237.718125 
Q 95.090625 237.718125 95.090625 241.718125 
L 95.090625 325.84 
Q 95.090625 329.84 99.090625 329.84 
z
" style="fill: #ffffff; opacity: 0.8; stroke: #cccccc; stroke-linejoin: miter"/>
    </g>
    <g id="line2d_16">
     <path d="M 103.090625 253.2775 
L 123.090625 253.2775 
L 143.090625 253.2775 
" style="fill: none; stroke: #009e73; stroke-width: 1.5; stroke-linecap: round"/>
    </g>
    <g id="text_15">
     <!-- Weakly force-sensitive myosin -->
     <g style="fill: #262626" transform="translate(159.090625 260.2775) scale(0.2 -0.2)">
      <defs>
       <path id="ArialMT-57" d="M 1294 0 
L 78 4581 
L 700 4581 
L 1397 1578 
Q 1509 1106 1591 641 
Q 1766 1375 1797 1488 
L 2669 4581 
L 3400 4581 
L 4056 2263 
Q 4303 1400 4413 641 
Q 4500 1075 4641 1638 
L 5359 4581 
L 5969 4581 
L 4713 0 
L 4128 0 
L 3163 3491 
Q 3041 3928 3019 4028 
Q 2947 3713 2884 3491 
L 1913 0 
L 1294 0 
z
" transform="scale(0.015625)"/>
       <path id="ArialMT-6b" d="M 425 0 
L 425 4581 
L 988 4581 
L 988 1969 
L 2319 3319 
L 3047 3319 
L 1778 2088 
L 3175 0 
L 2481 0 
L 1384 1697 
L 988 1316 
L 988 0 
L 425 0 
z
" transform="scale(0.015625)"/>
       <path id="ArialMT-79" d="M 397 -1278 
L 334 -750 
Q 519 -800 656 -800 
Q 844 -800 956 -737 
Q 1069 -675 1141 -563 
Q 1194 -478 1313 -144 
Q 1328 -97 1363 -6 
L 103 3319 
L 709 3319 
L 1400 1397 
Q 1534 1031 1641 628 
Q 1738 1016 1872 1384 
L 2581 3319 
L 3144 3319 
L 1881 -56 
Q 1678 -603 1566 -809 
Q 1416 -1088 1222 -1217 
Q 1028 -1347 759 -1347 
Q 597 -1347 397 -1278 
z
" transform="scale(0.015625)"/>
       <path id="ArialMT-66" d="M 556 0 
L 556 2881 
L 59 2881 
L 59 3319 
L 556 3319 
L 556 3672 
Q 556 4006 616 4169 
Q 697 4388 901 4523 
Q 1106 4659 1475 4659 
Q 1713 4659 2000 4603 
L 1916 4113 
Q 1741 4144 1584 4144 
Q 1328 4144 1222 4034 
Q 1116 3925 1116 3625 
L 1116 3319 
L 1763 3319 
L 1763 2881 
L 1116 2881 
L 1116 0 
L 556 0 
z
" transform="scale(0.015625)"/>
       <path id="ArialMT-63" d="M 2588 1216 
L 3141 1144 
Q 3050 572 2676 248 
Q 2303 -75 1759 -75 
Q 1078 -75 664 370 
Q 250 816 250 1647 
Q 250 2184 428 2587 
Q 606 2991 970 3192 
Q 1334 3394 1763 3394 
Q 2303 3394 2647 3120 
Q 2991 2847 3088 2344 
L 2541 2259 
Q 2463 2594 2264 2762 
Q 2066 2931 1784 2931 
Q 1359 2931 1093 2626 
Q 828 2322 828 1663 
Q 828 994 1084 691 
Q 1341 388 1753 388 
Q 2084 388 2306 591 
Q 2528 794 2588 1216 
z
" transform="scale(0.015625)"/>
       <path id="ArialMT-2d" d="M 203 1375 
L 203 1941 
L 1931 1941 
L 1931 1375 
L 203 1375 
z
" transform="scale(0.015625)"/>
       <path id="ArialMT-73" d="M 197 991 
L 753 1078 
Q 800 744 1014 566 
Q 1228 388 1613 388 
Q 2000 388 2187 545 
Q 2375 703 2375 916 
Q 2375 1106 2209 1216 
Q 2094 1291 1634 1406 
Q 1016 1563 777 1677 
Q 538 1791 414 1992 
Q 291 2194 291 2438 
Q 291 2659 392 2848 
Q 494 3038 669 3163 
Q 800 3259 1026 3326 
Q 1253 3394 1513 3394 
Q 1903 3394 2198 3281 
Q 2494 3169 2634 2976 
Q 2775 2784 2828 2463 
L 2278 2388 
Q 2241 2644 2061 2787 
Q 1881 2931 1553 2931 
Q 1166 2931 1000 2803 
Q 834 2675 834 2503 
Q 834 2394 903 2306 
Q 972 2216 1119 2156 
Q 1203 2125 1616 2013 
Q 2213 1853 2448 1751 
Q 2684 1650 2818 1456 
Q 2953 1263 2953 975 
Q 2953 694 2789 445 
Q 2625 197 2315 61 
Q 2006 -75 1616 -75 
Q 969 -75 630 194 
Q 291 463 197 991 
z
" transform="scale(0.015625)"/>
       <path id="ArialMT-76" d="M 1344 0 
L 81 3319 
L 675 3319 
L 1388 1331 
Q 1503 1009 1600 663 
Q 1675 925 1809 1294 
L 2547 3319 
L 3125 3319 
L 1869 0 
L 1344 0 
z
" transform="scale(0.015625)"/>
      </defs>
      <use xlink:href="#ArialMT-57"/>
      <use xlink:href="#ArialMT-65" x="92.634766"/>
      <use xlink:href="#ArialMT-61" x="148.25"/>
      <use xlink:href="#ArialMT-6b" x="203.865234"/>
      <use xlink:href="#ArialMT-6c" x="253.865234"/>
      <use xlink:href="#ArialMT-79" x="276.082031"/>
      <use xlink:href="#ArialMT-20" x="326.082031"/>
      <use xlink:href="#ArialMT-66" x="353.865234"/>
      <use xlink:href="#ArialMT-6f" x="381.648438"/>
      <use xlink:href="#ArialMT-72" x="437.263672"/>
      <use xlink:href="#ArialMT-63" x="470.564453"/>
      <use xlink:href="#ArialMT-65" x="520.564453"/>
      <use xlink:href="#ArialMT-2d" x="576.179688"/>
      <use xlink:href="#ArialMT-73" x="609.480469"/>
      <use xlink:href="#ArialMT-65" x="659.480469"/>
      <use xlink:href="#ArialMT-6e" x="715.095703"/>
      <use xlink:href="#ArialMT-73" x="770.710938"/>
      <use xlink:href="#ArialMT-69" x="820.710938"/>
      <use xlink:href="#ArialMT-74" x="842.927734"/>
      <use xlink:href="#ArialMT-69" x="870.710938"/>
      <use xlink:href="#ArialMT-76" x="892.927734"/>
      <use xlink:href="#ArialMT-65" x="942.927734"/>
      <use xlink:href="#ArialMT-20" x="998.542969"/>
      <use xlink:href="#ArialMT-6d" x="1026.326172"/>
      <use xlink:href="#ArialMT-79" x="1109.626953"/>
      <use xlink:href="#ArialMT-6f" x="1159.626953"/>
      <use xlink:href="#ArialMT-73" x="1215.242188"/>
      <use xlink:href="#ArialMT-69" x="1265.242188"/>
      <use xlink:href="#ArialMT-6e" x="1287.458984"/>
     </g>
    </g>
    <g id="line2d_17">
     <path d="M 103.090625 281.861875 
L 123.090625 281.861875 
L 143.090625 281.861875 
" style="fill: none; stroke: #000000; stroke-width: 1.5; stroke-linecap: round"/>
    </g>
    <g id="text_16">
     <!-- 0 myosin control -->
     <g style="fill: #262626" transform="translate(159.090625 288.861875) scale(0.2 -0.2)">
      <use xlink:href="#ArialMT-30"/>
      <use xlink:href="#ArialMT-20" x="55.615234"/>
      <use xlink:href="#ArialMT-6d" x="83.398438"/>
      <use xlink:href="#ArialMT-79" x="166.699219"/>
      <use xlink:href="#ArialMT-6f" x="216.699219"/>
      <use xlink:href="#ArialMT-73" x="272.314453"/>
      <use xlink:href="#ArialMT-69" x="322.314453"/>
      <use xlink:href="#ArialMT-6e" x="344.53125"/>
      <use xlink:href="#ArialMT-20" x="400.146484"/>
      <use xlink:href="#ArialMT-63" x="427.929688"/>
      <use xlink:href="#ArialMT-6f" x="477.929688"/>
      <use xlink:href="#ArialMT-6e" x="533.544922"/>
      <use xlink:href="#ArialMT-74" x="589.160156"/>
      <use xlink:href="#ArialMT-72" x="616.943359"/>
      <use xlink:href="#ArialMT-6f" x="650.244141"/>
      <use xlink:href="#ArialMT-6c" x="705.859375"/>
     </g>
    </g>
    <g id="line2d_18">
     <path d="M 103.090625 310.630625 
L 123.090625 310.630625 
L 143.090625 310.630625 
" style="fill: none; stroke: #d55e00; stroke-width: 1.5; stroke-linecap: round"/>
    </g>
    <g id="text_17">
     <!-- Strongly force-sensitive myosin -->
     <g style="fill: #262626" transform="translate(159.090625 317.630625) scale(0.2 -0.2)">
      <defs>
       <path id="ArialMT-53" d="M 288 1472 
L 859 1522 
Q 900 1178 1048 958 
Q 1197 738 1509 602 
Q 1822 466 2213 466 
Q 2559 466 2825 569 
Q 3091 672 3220 851 
Q 3350 1031 3350 1244 
Q 3350 1459 3225 1620 
Q 3100 1781 2813 1891 
Q 2628 1963 1997 2114 
Q 1366 2266 1113 2400 
Q 784 2572 623 2826 
Q 463 3081 463 3397 
Q 463 3744 659 4045 
Q 856 4347 1234 4503 
Q 1613 4659 2075 4659 
Q 2584 4659 2973 4495 
Q 3363 4331 3572 4012 
Q 3781 3694 3797 3291 
L 3216 3247 
Q 3169 3681 2898 3903 
Q 2628 4125 2100 4125 
Q 1550 4125 1298 3923 
Q 1047 3722 1047 3438 
Q 1047 3191 1225 3031 
Q 1400 2872 2139 2705 
Q 2878 2538 3153 2413 
Q 3553 2228 3743 1945 
Q 3934 1663 3934 1294 
Q 3934 928 3725 604 
Q 3516 281 3123 101 
Q 2731 -78 2241 -78 
Q 1619 -78 1198 103 
Q 778 284 539 648 
Q 300 1013 288 1472 
z
" transform="scale(0.015625)"/>
       <path id="ArialMT-67" d="M 319 -275 
L 866 -356 
Q 900 -609 1056 -725 
Q 1266 -881 1628 -881 
Q 2019 -881 2231 -725 
Q 2444 -569 2519 -288 
Q 2563 -116 2559 434 
Q 2191 0 1641 0 
Q 956 0 581 494 
Q 206 988 206 1678 
Q 206 2153 378 2554 
Q 550 2956 876 3175 
Q 1203 3394 1644 3394 
Q 2231 3394 2613 2919 
L 2613 3319 
L 3131 3319 
L 3131 450 
Q 3131 -325 2973 -648 
Q 2816 -972 2473 -1159 
Q 2131 -1347 1631 -1347 
Q 1038 -1347 672 -1080 
Q 306 -813 319 -275 
z
M 784 1719 
Q 784 1066 1043 766 
Q 1303 466 1694 466 
Q 2081 466 2343 764 
Q 2606 1063 2606 1700 
Q 2606 2309 2336 2618 
Q 2066 2928 1684 2928 
Q 1309 2928 1046 2623 
Q 784 2319 784 1719 
z
" transform="scale(0.015625)"/>
      </defs>
      <use xlink:href="#ArialMT-53"/>
      <use xlink:href="#ArialMT-74" x="66.699219"/>
      <use xlink:href="#ArialMT-72" x="94.482422"/>
      <use xlink:href="#ArialMT-6f" x="127.783203"/>
      <use xlink:href="#ArialMT-6e" x="183.398438"/>
      <use xlink:href="#ArialMT-67" x="239.013672"/>
      <use xlink:href="#ArialMT-6c" x="294.628906"/>
      <use xlink:href="#ArialMT-79" x="316.845703"/>
      <use xlink:href="#ArialMT-20" x="366.845703"/>
      <use xlink:href="#ArialMT-66" x="394.628906"/>
      <use xlink:href="#ArialMT-6f" x="422.412109"/>
      <use xlink:href="#ArialMT-72" x="478.027344"/>
      <use xlink:href="#ArialMT-63" x="511.328125"/>
      <use xlink:href="#ArialMT-65" x="561.328125"/>
      <use xlink:href="#ArialMT-2d" x="616.943359"/>
      <use xlink:href="#ArialMT-73" x="650.244141"/>
      <use xlink:href="#ArialMT-65" x="700.244141"/>
      <use xlink:href="#ArialMT-6e" x="755.859375"/>
      <use xlink:href="#ArialMT-73" x="811.474609"/>
      <use xlink:href="#ArialMT-69" x="861.474609"/>
      <use xlink:href="#ArialMT-74" x="883.691406"/>
      <use xlink:href="#ArialMT-69" x="911.474609"/>
      <use xlink:href="#ArialMT-76" x="933.691406"/>
      <use xlink:href="#ArialMT-65" x="983.691406"/>
      <use xlink:href="#ArialMT-20" x="1039.306641"/>
      <use xlink:href="#ArialMT-6d" x="1067.089844"/>
      <use xlink:href="#ArialMT-79" x="1150.390625"/>
      <use xlink:href="#ArialMT-6f" x="1200.390625"/>
      <use xlink:href="#ArialMT-73" x="1256.005859"/>
      <use xlink:href="#ArialMT-69" x="1306.005859"/>
      <use xlink:href="#ArialMT-6e" x="1328.222656"/>
     </g>
    </g>
   </g>
  </g>
 </g>
 <defs>
  <clipPath id="p8adc476e46">
   <rect x="63.24375" y="7.2" width="390.6" height="332.64"/>
  </clipPath>
 </defs>
</svg>
