<?xml version="1.0" encoding="utf-8" standalone="no"?>
<!DOCTYPE svg PUBLIC "-//W3C//DTD SVG 1.1//EN"
  "http://www.w3.org/Graphics/SVG/1.1/DTD/svg11.dtd">
<svg xmlns:xlink="http://www.w3.org/1999/xlink" width="504pt" height="504pt" viewBox="0 0 504 504" xmlns="http://www.w3.org/2000/svg" version="1.1">
 <metadata>
  <rdf:RDF xmlns:dc="http://purl.org/dc/elements/1.1/" xmlns:cc="http://creativecommons.org/ns#" xmlns:rdf="http://www.w3.org/1999/02/22-rdf-syntax-ns#">
   <cc:Work>
    <dc:type rdf:resource="http://purl.org/dc/dcmitype/StillImage"/>
    <dc:date>2025-02-15T22:51:43.195339</dc:date>
    <dc:format>image/svg+xml</dc:format>
    <dc:creator>
     <cc:Agent>
      <dc:title>Matplotlib v3.9.1, https://matplotlib.org/</dc:title>
     </cc:Agent>
    </dc:creator>
   </cc:Work>
  </rdf:RDF>
 </metadata>
 <defs>
  <style type="text/css">*{stroke-linejoin: round; stroke-linecap: butt}</style>
 </defs>
 <g id="figure_1">
  <g id="patch_1">
   <path d="M 0 504 
L 504 504 
L 504 0 
L 0 0 
z
" style="fill: #ffffff"/>
  </g>
  <g id="axes_1">
   <g id="patch_2">
    <path d="M 80.84 427.48 
L 462.915 427.48 
L 462.915 21.6 
L 80.84 21.6 
z
" style="fill: #ffffff"/>
   </g>
   <g id="matplotlib.axis_1">
    <g id="xtick_1">
     <g id="line2d_1">
      <path d="M 142.382282 427.48 
L 142.382282 21.6 
" clip-path="url(#p33a46fafbf)" style="fill: none; stroke: #cccccc; stroke-width: 0.8; stroke-linecap: round"/>
     </g>
     <g id="text_1">
      <!-- 2.5 -->
      <g style="fill: #262626" transform="translate(128.482282 448.795625) scale(0.2 -0.2)">
       <defs>
        <path id="ArialMT-32" d="M 3222 541 
L 3222 0 
L 194 0 
Q 188 203 259 391 
Q 375 700 629 1000 
Q 884 1300 1366 1694 
Q 2113 2306 2375 2664 
Q 2638 3022 2638 3341 
Q 2638 3675 2398 3904 
Q 2159 4134 1775 4134 
Q 1369 4134 1125 3890 
Q 881 3647 878 3216 
L 300 3275 
Q 359 3922 746 4261 
Q 1134 4600 1788 4600 
Q 2447 4600 2831 4234 
Q 3216 3869 3216 3328 
Q 3216 3053 3103 2787 
Q 2991 2522 2730 2228 
Q 2469 1934 1863 1422 
Q 1356 997 1212 845 
Q 1069 694 975 541 
L 3222 541 
z
" transform="scale(0.015625)"/>
        <path id="ArialMT-2e" d="M 581 0 
L 581 641 
L 1222 641 
L 1222 0 
L 581 0 
z
" transform="scale(0.015625)"/>
        <path id="ArialMT-35" d="M 266 1200 
L 856 1250 
Q 922 819 1161 601 
Q 1400 384 1738 384 
Q 2144 384 2425 690 
Q 2706 997 2706 1503 
Q 2706 1984 2436 2262 
Q 2166 2541 1728 2541 
Q 1456 2541 1237 2417 
Q 1019 2294 894 2097 
L 366 2166 
L 809 4519 
L 3088 4519 
L 3088 3981 
L 1259 3981 
L 1013 2750 
Q 1425 3038 1878 3038 
Q 2478 3038 2890 2622 
Q 3303 2206 3303 1553 
Q 3303 931 2941 478 
Q 2500 -78 1738 -78 
Q 1113 -78 717 272 
Q 322 622 266 1200 
z
" transform="scale(0.015625)"/>
       </defs>
       <use xlink:href="#ArialMT-32"/>
       <use xlink:href="#ArialMT-2e" x="55.615234"/>
       <use xlink:href="#ArialMT-35" x="83.398438"/>
      </g>
     </g>
    </g>
    <g id="xtick_2">
     <g id="line2d_2">
      <path d="M 206.488826 427.48 
L 206.488826 21.6 
" clip-path="url(#p33a46fafbf)" style="fill: none; stroke: #cccccc; stroke-width: 0.8; stroke-linecap: round"/>
     </g>
     <g id="text_2">
      <!-- 5.0 -->
      <g style="fill: #262626" transform="translate(192.588826 448.795625) scale(0.2 -0.2)">
       <defs>
        <path id="ArialMT-30" d="M 266 2259 
Q 266 3072 433 3567 
Q 600 4063 929 4331 
Q 1259 4600 1759 4600 
Q 2128 4600 2406 4451 
Q 2684 4303 2865 4023 
Q 3047 3744 3150 3342 
Q 3253 2941 3253 2259 
Q 3253 1453 3087 958 
Q 2922 463 2592 192 
Q 2263 -78 1759 -78 
Q 1097 -78 719 397 
Q 266 969 266 2259 
z
M 844 2259 
Q 844 1131 1108 757 
Q 1372 384 1759 384 
Q 2147 384 2411 759 
Q 2675 1134 2675 2259 
Q 2675 3391 2411 3762 
Q 2147 4134 1753 4134 
Q 1366 4134 1134 3806 
Q 844 3388 844 2259 
z
" transform="scale(0.015625)"/>
       </defs>
       <use xlink:href="#ArialMT-35"/>
       <use xlink:href="#ArialMT-2e" x="55.615234"/>
       <use xlink:href="#ArialMT-30" x="83.398438"/>
      </g>
     </g>
    </g>
    <g id="xtick_3">
     <g id="line2d_3">
      <path d="M 270.595369 427.48 
L 270.595369 21.6 
" clip-path="url(#p33a46fafbf)" style="fill: none; stroke: #cccccc; stroke-width: 0.8; stroke-linecap: round"/>
     </g>
     <g id="text_3">
      <!-- 7.5 -->
      <g style="fill: #262626" transform="translate(256.695369 448.795625) scale(0.2 -0.2)">
       <defs>
        <path id="ArialMT-37" d="M 303 3981 
L 303 4522 
L 3269 4522 
L 3269 4084 
Q 2831 3619 2401 2847 
Q 1972 2075 1738 1259 
Q 1569 684 1522 0 
L 944 0 
Q 953 541 1156 1306 
Q 1359 2072 1739 2783 
Q 2119 3494 2547 3981 
L 303 3981 
z
" transform="scale(0.015625)"/>
       </defs>
       <use xlink:href="#ArialMT-37"/>
       <use xlink:href="#ArialMT-2e" x="55.615234"/>
       <use xlink:href="#ArialMT-35" x="83.398438"/>
      </g>
     </g>
    </g>
    <g id="xtick_4">
     <g id="line2d_4">
      <path d="M 334.701913 427.48 
L 334.701913 21.6 
" clip-path="url(#p33a46fafbf)" style="fill: none; stroke: #cccccc; stroke-width: 0.8; stroke-linecap: round"/>
     </g>
     <g id="text_4">
      <!-- 10.0 -->
      <g style="fill: #262626" transform="translate(315.240975 448.795625) scale(0.2 -0.2)">
       <defs>
        <path id="ArialMT-31" d="M 2384 0 
L 1822 0 
L 1822 3584 
Q 1619 3391 1289 3197 
Q 959 3003 697 2906 
L 697 3450 
Q 1169 3672 1522 3987 
Q 1875 4303 2022 4600 
L 2384 4600 
L 2384 0 
z
" transform="scale(0.015625)"/>
       </defs>
       <use xlink:href="#ArialMT-31"/>
       <use xlink:href="#ArialMT-30" x="55.615234"/>
       <use xlink:href="#ArialMT-2e" x="111.230469"/>
       <use xlink:href="#ArialMT-30" x="139.013672"/>
      </g>
     </g>
    </g>
    <g id="xtick_5">
     <g id="line2d_5">
      <path d="M 398.808456 427.48 
L 398.808456 21.6 
" clip-path="url(#p33a46fafbf)" style="fill: none; stroke: #cccccc; stroke-width: 0.8; stroke-linecap: round"/>
     </g>
     <g id="text_5">
      <!-- 12.5 -->
      <g style="fill: #262626" transform="translate(379.347519 448.795625) scale(0.2 -0.2)">
       <use xlink:href="#ArialMT-31"/>
       <use xlink:href="#ArialMT-32" x="55.615234"/>
       <use xlink:href="#ArialMT-2e" x="111.230469"/>
       <use xlink:href="#ArialMT-35" x="139.013672"/>
      </g>
     </g>
    </g>
    <g id="xtick_6">
     <g id="line2d_6">
      <path d="M 462.915 427.48 
L 462.915 21.6 
" clip-path="url(#p33a46fafbf)" style="fill: none; stroke: #cccccc; stroke-width: 0.8; stroke-linecap: round"/>
     </g>
     <g id="text_6">
      <!-- 15.0 -->
      <g style="fill: #262626" transform="translate(443.454062 448.795625) scale(0.2 -0.2)">
       <use xlink:href="#ArialMT-31"/>
       <use xlink:href="#ArialMT-35" x="55.615234"/>
       <use xlink:href="#ArialMT-2e" x="111.230469"/>
       <use xlink:href="#ArialMT-30" x="139.013672"/>
      </g>
     </g>
    </g>
    <g id="text_7">
     <!-- Time ($s$) -->
     <g style="fill: #262626" transform="translate(227.5975 474.290625) scale(0.24 -0.24)">
      <defs>
       <path id="ArialMT-54" d="M 1659 0 
L 1659 4041 
L 150 4041 
L 150 4581 
L 3781 4581 
L 3781 4041 
L 2266 4041 
L 2266 0 
L 1659 0 
z
" transform="scale(0.015625)"/>
       <path id="ArialMT-69" d="M 425 3934 
L 425 4581 
L 988 4581 
L 988 3934 
L 425 3934 
z
M 425 0 
L 425 3319 
L 988 3319 
L 988 0 
L 425 0 
z
" transform="scale(0.015625)"/>
       <path id="ArialMT-6d" d="M 422 0 
L 422 3319 
L 925 3319 
L 925 2853 
Q 1081 3097 1340 3245 
Q 1600 3394 1931 3394 
Q 2300 3394 2536 3241 
Q 2772 3088 2869 2813 
Q 3263 3394 3894 3394 
Q 4388 3394 4653 3120 
Q 4919 2847 4919 2278 
L 4919 0 
L 4359 0 
L 4359 2091 
Q 4359 2428 4304 2576 
Q 4250 2725 4106 2815 
Q 3963 2906 3769 2906 
Q 3419 2906 3187 2673 
Q 2956 2441 2956 1928 
L 2956 0 
L 2394 0 
L 2394 2156 
Q 2394 2531 2256 2718 
Q 2119 2906 1806 2906 
Q 1569 2906 1367 2781 
Q 1166 2656 1075 2415 
Q 984 2175 984 1722 
L 984 0 
L 422 0 
z
" transform="scale(0.015625)"/>
       <path id="ArialMT-65" d="M 2694 1069 
L 3275 997 
Q 3138 488 2766 206 
Q 2394 -75 1816 -75 
Q 1088 -75 661 373 
Q 234 822 234 1631 
Q 234 2469 665 2931 
Q 1097 3394 1784 3394 
Q 2450 3394 2872 2941 
Q 3294 2488 3294 1666 
Q 3294 1616 3291 1516 
L 816 1516 
Q 847 969 1125 678 
Q 1403 388 1819 388 
Q 2128 388 2347 550 
Q 2566 713 2694 1069 
z
M 847 1978 
L 2700 1978 
Q 2663 2397 2488 2606 
Q 2219 2931 1791 2931 
Q 1403 2931 1139 2672 
Q 875 2413 847 1978 
z
" transform="scale(0.015625)"/>
       <path id="ArialMT-20" transform="scale(0.015625)"/>
       <path id="ArialMT-28" d="M 1497 -1347 
Q 1031 -759 709 28 
Q 388 816 388 1659 
Q 388 2403 628 3084 
Q 909 3875 1497 4659 
L 1900 4659 
Q 1522 4009 1400 3731 
Q 1209 3300 1100 2831 
Q 966 2247 966 1656 
Q 966 153 1900 -1347 
L 1497 -1347 
z
" transform="scale(0.015625)"/>
       <path id="DejaVuSans-Oblique-73" d="M 3200 3397 
L 3091 2853 
Q 2863 2978 2609 3040 
Q 2356 3103 2088 3103 
Q 1634 3103 1373 2948 
Q 1113 2794 1113 2528 
Q 1113 2219 1719 2053 
Q 1766 2041 1788 2034 
L 1972 1978 
Q 2547 1819 2739 1644 
Q 2931 1469 2931 1166 
Q 2931 609 2489 259 
Q 2047 -91 1331 -91 
Q 1053 -91 747 -37 
Q 441 16 72 128 
L 184 722 
Q 500 559 806 475 
Q 1113 391 1394 391 
Q 1816 391 2080 572 
Q 2344 753 2344 1031 
Q 2344 1331 1650 1516 
L 1591 1531 
L 1394 1581 
Q 956 1697 753 1886 
Q 550 2075 550 2369 
Q 550 2928 970 3256 
Q 1391 3584 2113 3584 
Q 2397 3584 2667 3537 
Q 2938 3491 3200 3397 
z
" transform="scale(0.015625)"/>
       <path id="ArialMT-29" d="M 791 -1347 
L 388 -1347 
Q 1322 153 1322 1656 
Q 1322 2244 1188 2822 
Q 1081 3291 891 3722 
Q 769 4003 388 4659 
L 791 4659 
Q 1378 3875 1659 3084 
Q 1900 2403 1900 1659 
Q 1900 816 1576 28 
Q 1253 -759 791 -1347 
z
" transform="scale(0.015625)"/>
      </defs>
      <use xlink:href="#ArialMT-54" transform="translate(0 0.203125)"/>
      <use xlink:href="#ArialMT-69" transform="translate(61.083984 0.203125)"/>
      <use xlink:href="#ArialMT-6d" transform="translate(83.300781 0.203125)"/>
      <use xlink:href="#ArialMT-65" transform="translate(166.601562 0.203125)"/>
      <use xlink:href="#ArialMT-20" transform="translate(222.216797 0.203125)"/>
      <use xlink:href="#ArialMT-28" transform="translate(250 0.203125)"/>
      <use xlink:href="#DejaVuSans-Oblique-73" transform="translate(283.300781 0.203125)"/>
      <use xlink:href="#ArialMT-29" transform="translate(335.400391 0.203125)"/>
     </g>
    </g>
   </g>
   <g id="matplotlib.axis_2">
    <g id="ytick_1">
     <g id="line2d_7">
      <path d="M 80.84 399.271496 
L 462.915 399.271496 
" clip-path="url(#p33a46fafbf)" style="fill: none; stroke: #cccccc; stroke-width: 0.8; stroke-linecap: round"/>
     </g>
     <g id="text_8">
      <!-- 0 -->
      <g style="fill: #262626" transform="translate(62.718125 406.429309) scale(0.2 -0.2)">
       <use xlink:href="#ArialMT-30"/>
      </g>
     </g>
    </g>
    <g id="ytick_2">
     <g id="line2d_8">
      <path d="M 80.84 339.756118 
L 462.915 339.756118 
" clip-path="url(#p33a46fafbf)" style="fill: none; stroke: #cccccc; stroke-width: 0.8; stroke-linecap: round"/>
     </g>
     <g id="text_9">
      <!-- 10 -->
      <g style="fill: #262626" transform="translate(51.59625 346.913931) scale(0.2 -0.2)">
       <use xlink:href="#ArialMT-31"/>
       <use xlink:href="#ArialMT-30" x="55.615234"/>
      </g>
     </g>
    </g>
    <g id="ytick_3">
     <g id="line2d_9">
      <path d="M 80.84 280.24074 
L 462.915 280.24074 
" clip-path="url(#p33a46fafbf)" style="fill: none; stroke: #cccccc; stroke-width: 0.8; stroke-linecap: round"/>
     </g>
     <g id="text_10">
      <!-- 20 -->
      <g style="fill: #262626" transform="translate(51.59625 287.398552) scale(0.2 -0.2)">
       <use xlink:href="#ArialMT-32"/>
       <use xlink:href="#ArialMT-30" x="55.615234"/>
      </g>
     </g>
    </g>
    <g id="ytick_4">
     <g id="line2d_10">
      <path d="M 80.84 220.725362 
L 462.915 220.725362 
" clip-path="url(#p33a46fafbf)" style="fill: none; stroke: #cccccc; stroke-width: 0.8; stroke-linecap: round"/>
     </g>
     <g id="text_11">
      <!-- 30 -->
      <g style="fill: #262626" transform="translate(51.59625 227.883174) scale(0.2 -0.2)">
       <defs>
        <path id="ArialMT-33" d="M 269 1209 
L 831 1284 
Q 928 806 1161 595 
Q 1394 384 1728 384 
Q 2125 384 2398 659 
Q 2672 934 2672 1341 
Q 2672 1728 2419 1979 
Q 2166 2231 1775 2231 
Q 1616 2231 1378 2169 
L 1441 2663 
Q 1497 2656 1531 2656 
Q 1891 2656 2178 2843 
Q 2466 3031 2466 3422 
Q 2466 3731 2256 3934 
Q 2047 4138 1716 4138 
Q 1388 4138 1169 3931 
Q 950 3725 888 3313 
L 325 3413 
Q 428 3978 793 4289 
Q 1159 4600 1703 4600 
Q 2078 4600 2393 4439 
Q 2709 4278 2876 4000 
Q 3044 3722 3044 3409 
Q 3044 3113 2884 2869 
Q 2725 2625 2413 2481 
Q 2819 2388 3044 2092 
Q 3269 1797 3269 1353 
Q 3269 753 2831 336 
Q 2394 -81 1725 -81 
Q 1122 -81 723 278 
Q 325 638 269 1209 
z
" transform="scale(0.015625)"/>
       </defs>
       <use xlink:href="#ArialMT-33"/>
       <use xlink:href="#ArialMT-30" x="55.615234"/>
      </g>
     </g>
    </g>
    <g id="ytick_5">
     <g id="line2d_11">
      <path d="M 80.84 161.209984 
L 462.915 161.209984 
" clip-path="url(#p33a46fafbf)" style="fill: none; stroke: #cccccc; stroke-width: 0.8; stroke-linecap: round"/>
     </g>
     <g id="text_12">
      <!-- 40 -->
      <g style="fill: #262626" transform="translate(51.59625 168.367796) scale(0.2 -0.2)">
       <defs>
        <path id="ArialMT-34" d="M 2069 0 
L 2069 1097 
L 81 1097 
L 81 1613 
L 2172 4581 
L 2631 4581 
L 2631 1613 
L 3250 1613 
L 3250 1097 
L 2631 1097 
L 2631 0 
L 2069 0 
z
M 2069 1613 
L 2069 3678 
L 634 1613 
L 2069 1613 
z
" transform="scale(0.015625)"/>
       </defs>
       <use xlink:href="#ArialMT-34"/>
       <use xlink:href="#ArialMT-30" x="55.615234"/>
      </g>
     </g>
    </g>
    <g id="ytick_6">
     <g id="line2d_12">
      <path d="M 80.84 101.694606 
L 462.915 101.694606 
" clip-path="url(#p33a46fafbf)" style="fill: none; stroke: #cccccc; stroke-width: 0.8; stroke-linecap: round"/>
     </g>
     <g id="text_13">
      <!-- 50 -->
      <g style="fill: #262626" transform="translate(51.59625 108.852418) scale(0.2 -0.2)">
       <use xlink:href="#ArialMT-35"/>
       <use xlink:href="#ArialMT-30" x="55.615234"/>
      </g>
     </g>
    </g>
    <g id="ytick_7">
     <g id="line2d_13">
      <path d="M 80.84 42.179227 
L 462.915 42.179227 
" clip-path="url(#p33a46fafbf)" style="fill: none; stroke: #cccccc; stroke-width: 0.8; stroke-linecap: round"/>
     </g>
     <g id="text_14">
      <!-- 60 -->
      <g style="fill: #262626" transform="translate(51.59625 49.33704) scale(0.2 -0.2)">
       <defs>
        <path id="ArialMT-36" d="M 3184 3459 
L 2625 3416 
Q 2550 3747 2413 3897 
Q 2184 4138 1850 4138 
Q 1581 4138 1378 3988 
Q 1113 3794 959 3422 
Q 806 3050 800 2363 
Q 1003 2672 1297 2822 
Q 1591 2972 1913 2972 
Q 2475 2972 2870 2558 
Q 3266 2144 3266 1488 
Q 3266 1056 3080 686 
Q 2894 316 2569 119 
Q 2244 -78 1831 -78 
Q 1128 -78 684 439 
Q 241 956 241 2144 
Q 241 3472 731 4075 
Q 1159 4600 1884 4600 
Q 2425 4600 2770 4297 
Q 3116 3994 3184 3459 
z
M 888 1484 
Q 888 1194 1011 928 
Q 1134 663 1356 523 
Q 1578 384 1822 384 
Q 2178 384 2434 671 
Q 2691 959 2691 1453 
Q 2691 1928 2437 2201 
Q 2184 2475 1800 2475 
Q 1419 2475 1153 2201 
Q 888 1928 888 1484 
z
" transform="scale(0.015625)"/>
       </defs>
       <use xlink:href="#ArialMT-36"/>
       <use xlink:href="#ArialMT-30" x="55.615234"/>
      </g>
     </g>
    </g>
    <g id="text_15">
     <!-- Internalization ($nm$) -->
     <g style="fill: #262626" transform="translate(42.31625 329.9) rotate(-90) scale(0.24 -0.24)">
      <defs>
       <path id="ArialMT-49" d="M 597 0 
L 597 4581 
L 1203 4581 
L 1203 0 
L 597 0 
z
" transform="scale(0.015625)"/>
       <path id="ArialMT-6e" d="M 422 0 
L 422 3319 
L 928 3319 
L 928 2847 
Q 1294 3394 1984 3394 
Q 2284 3394 2536 3286 
Q 2788 3178 2913 3003 
Q 3038 2828 3088 2588 
Q 3119 2431 3119 2041 
L 3119 0 
L 2556 0 
L 2556 2019 
Q 2556 2363 2490 2533 
Q 2425 2703 2258 2804 
Q 2091 2906 1866 2906 
Q 1506 2906 1245 2678 
Q 984 2450 984 1813 
L 984 0 
L 422 0 
z
" transform="scale(0.015625)"/>
       <path id="ArialMT-74" d="M 1650 503 
L 1731 6 
Q 1494 -44 1306 -44 
Q 1000 -44 831 53 
Q 663 150 594 308 
Q 525 466 525 972 
L 525 2881 
L 113 2881 
L 113 3319 
L 525 3319 
L 525 4141 
L 1084 4478 
L 1084 3319 
L 1650 3319 
L 1650 2881 
L 1084 2881 
L 1084 941 
Q 1084 700 1114 631 
Q 1144 563 1211 522 
Q 1278 481 1403 481 
Q 1497 481 1650 503 
z
" transform="scale(0.015625)"/>
       <path id="ArialMT-72" d="M 416 0 
L 416 3319 
L 922 3319 
L 922 2816 
Q 1116 3169 1280 3281 
Q 1444 3394 1641 3394 
Q 1925 3394 2219 3213 
L 2025 2691 
Q 1819 2813 1613 2813 
Q 1428 2813 1281 2702 
Q 1134 2591 1072 2394 
Q 978 2094 978 1738 
L 978 0 
L 416 0 
z
" transform="scale(0.015625)"/>
       <path id="ArialMT-61" d="M 2588 409 
Q 2275 144 1986 34 
Q 1697 -75 1366 -75 
Q 819 -75 525 192 
Q 231 459 231 875 
Q 231 1119 342 1320 
Q 453 1522 633 1644 
Q 813 1766 1038 1828 
Q 1203 1872 1538 1913 
Q 2219 1994 2541 2106 
Q 2544 2222 2544 2253 
Q 2544 2597 2384 2738 
Q 2169 2928 1744 2928 
Q 1347 2928 1158 2789 
Q 969 2650 878 2297 
L 328 2372 
Q 403 2725 575 2942 
Q 747 3159 1072 3276 
Q 1397 3394 1825 3394 
Q 2250 3394 2515 3294 
Q 2781 3194 2906 3042 
Q 3031 2891 3081 2659 
Q 3109 2516 3109 2141 
L 3109 1391 
Q 3109 606 3145 398 
Q 3181 191 3288 0 
L 2700 0 
Q 2613 175 2588 409 
z
M 2541 1666 
Q 2234 1541 1622 1453 
Q 1275 1403 1131 1340 
Q 988 1278 909 1158 
Q 831 1038 831 891 
Q 831 666 1001 516 
Q 1172 366 1500 366 
Q 1825 366 2078 508 
Q 2331 650 2450 897 
Q 2541 1088 2541 1459 
L 2541 1666 
z
" transform="scale(0.015625)"/>
       <path id="ArialMT-6c" d="M 409 0 
L 409 4581 
L 972 4581 
L 972 0 
L 409 0 
z
" transform="scale(0.015625)"/>
       <path id="ArialMT-7a" d="M 125 0 
L 125 456 
L 2238 2881 
Q 1878 2863 1603 2863 
L 250 2863 
L 250 3319 
L 2963 3319 
L 2963 2947 
L 1166 841 
L 819 456 
Q 1197 484 1528 484 
L 3063 484 
L 3063 0 
L 125 0 
z
" transform="scale(0.015625)"/>
       <path id="ArialMT-6f" d="M 213 1659 
Q 213 2581 725 3025 
Q 1153 3394 1769 3394 
Q 2453 3394 2887 2945 
Q 3322 2497 3322 1706 
Q 3322 1066 3130 698 
Q 2938 331 2570 128 
Q 2203 -75 1769 -75 
Q 1072 -75 642 372 
Q 213 819 213 1659 
z
M 791 1659 
Q 791 1022 1069 705 
Q 1347 388 1769 388 
Q 2188 388 2466 706 
Q 2744 1025 2744 1678 
Q 2744 2294 2464 2611 
Q 2184 2928 1769 2928 
Q 1347 2928 1069 2612 
Q 791 2297 791 1659 
z
" transform="scale(0.015625)"/>
       <path id="DejaVuSans-Oblique-6e" d="M 3566 2113 
L 3156 0 
L 2578 0 
L 2988 2091 
Q 3016 2238 3031 2350 
Q 3047 2463 3047 2528 
Q 3047 2791 2881 2937 
Q 2716 3084 2419 3084 
Q 1956 3084 1622 2776 
Q 1288 2469 1184 1941 
L 800 0 
L 225 0 
L 903 3500 
L 1478 3500 
L 1363 2950 
Q 1603 3253 1940 3418 
Q 2278 3584 2650 3584 
Q 3113 3584 3367 3334 
Q 3622 3084 3622 2631 
Q 3622 2519 3608 2391 
Q 3594 2263 3566 2113 
z
" transform="scale(0.015625)"/>
       <path id="DejaVuSans-Oblique-6d" d="M 5747 2113 
L 5338 0 
L 4763 0 
L 5166 2094 
Q 5191 2228 5203 2325 
Q 5216 2422 5216 2491 
Q 5216 2772 5059 2928 
Q 4903 3084 4622 3084 
Q 4203 3084 3875 2770 
Q 3547 2456 3450 1953 
L 3066 0 
L 2491 0 
L 2900 2094 
Q 2925 2209 2937 2307 
Q 2950 2406 2950 2484 
Q 2950 2769 2794 2926 
Q 2638 3084 2363 3084 
Q 1938 3084 1609 2770 
Q 1281 2456 1184 1953 
L 800 0 
L 225 0 
L 909 3500 
L 1484 3500 
L 1375 2956 
Q 1609 3263 1923 3423 
Q 2238 3584 2597 3584 
Q 2978 3584 3223 3384 
Q 3469 3184 3519 2828 
Q 3781 3197 4126 3390 
Q 4472 3584 4856 3584 
Q 5306 3584 5551 3325 
Q 5797 3066 5797 2591 
Q 5797 2488 5784 2364 
Q 5772 2241 5747 2113 
z
" transform="scale(0.015625)"/>
      </defs>
      <use xlink:href="#ArialMT-49" transform="translate(0 0.203125)"/>
      <use xlink:href="#ArialMT-6e" transform="translate(27.783203 0.203125)"/>
      <use xlink:href="#ArialMT-74" transform="translate(83.398438 0.203125)"/>
      <use xlink:href="#ArialMT-65" transform="translate(111.181641 0.203125)"/>
      <use xlink:href="#ArialMT-72" transform="translate(166.796875 0.203125)"/>
      <use xlink:href="#ArialMT-6e" transform="translate(200.097656 0.203125)"/>
      <use xlink:href="#ArialMT-61" transform="translate(255.712891 0.203125)"/>
      <use xlink:href="#ArialMT-6c" transform="translate(311.328125 0.203125)"/>
      <use xlink:href="#ArialMT-69" transform="translate(333.544922 0.203125)"/>
      <use xlink:href="#ArialMT-7a" transform="translate(355.761719 0.203125)"/>
      <use xlink:href="#ArialMT-61" transform="translate(405.761719 0.203125)"/>
      <use xlink:href="#ArialMT-74" transform="translate(461.376953 0.203125)"/>
      <use xlink:href="#ArialMT-69" transform="translate(489.160156 0.203125)"/>
      <use xlink:href="#ArialMT-6f" transform="translate(511.376953 0.203125)"/>
      <use xlink:href="#ArialMT-6e" transform="translate(566.992188 0.203125)"/>
      <use xlink:href="#ArialMT-20" transform="translate(622.607422 0.203125)"/>
      <use xlink:href="#ArialMT-28" transform="translate(650.390625 0.203125)"/>
      <use xlink:href="#DejaVuSans-Oblique-6e" transform="translate(683.691406 0.203125)"/>
      <use xlink:href="#DejaVuSans-Oblique-6d" transform="translate(747.070312 0.203125)"/>
      <use xlink:href="#ArialMT-29" transform="translate(844.482422 0.203125)"/>
     </g>
    </g>
   </g>
   <g id="PolyCollection_1">
    <defs>
     <path id="m416d11d058" d="M 80.84 -76.52 
L 80.84 -109.043369 
L 83.404262 -100.615991 
L 85.968523 -104.317848 
L 88.532785 -99.473296 
L 91.097047 -95.211995 
L 93.661309 -94.479956 
L 96.22557 -98.104442 
L 98.789832 -107.448357 
L 101.354094 -105.841441 
L 103.918356 -106.073551 
L 106.482617 -107.448357 
L 109.046879 -119.214547 
L 111.611141 -129.63569 
L 114.175403 -140.592471 
L 116.739664 -149.811403 
L 119.303926 -169.136046 
L 121.868188 -199.03062 
L 124.43245 -212.064488 
L 126.996711 -227.758693 
L 129.560973 -229.91315 
L 132.125235 -225.913717 
L 134.689497 -218.878999 
L 137.253758 -257.688977 
L 139.81802 -266.396077 
L 142.382282 -281.013054 
L 144.946544 -284.798232 
L 147.510805 -284.137611 
L 150.075067 -282.179555 
L 152.639329 -286.893173 
L 155.203591 -298.290368 
L 157.767852 -309.372131 
L 160.332114 -307.479542 
L 162.896376 -310.967144 
L 165.460638 -311.603958 
L 168.024899 -319.15646 
L 170.589161 -321.781088 
L 173.153423 -330.30369 
L 175.717685 -330.160853 
L 178.281946 -335.177999 
L 180.846208 -347.057269 
L 183.41047 -355.079942 
L 185.974732 -364.048909 
L 188.538993 -372.226322 
L 191.103255 -381.171484 
L 193.667517 -383.254522 
L 196.231779 -400.341387 
L 198.79604 -399.960489 
L 201.360302 -396.228874 
L 203.924564 -405.096666 
L 206.488826 -396.282438 
L 209.053087 -393.473312 
L 211.617349 -404.662203 
L 214.181611 -409.399627 
L 216.745872 -407.757003 
L 219.310134 -405.03715 
L 221.874396 -408.245029 
L 224.438658 -409.143711 
L 227.002919 -414.851236 
L 229.567181 -411.048203 
L 232.131443 -404.37653 
L 234.695705 -399.793845 
L 237.259966 -403.305253 
L 239.824228 -400.656818 
L 242.38849 -395.276628 
L 244.952752 -398.353573 
L 247.517013 -403.352865 
L 250.081275 -403.477847 
L 252.645537 -395.28258 
L 255.209799 -407.703439 
L 257.77406 -416.499812 
L 260.338322 -413.172902 
L 262.902584 -409.429385 
L 265.466846 -416.291508 
L 268.031107 -418.761396 
L 270.595369 -426.182964 
L 273.159631 -440.740426 
L 275.723893 -440.520219 
L 278.288154 -431.331044 
L 280.852416 -420.695646 
L 283.416678 -422.814394 
L 285.98094 -425.534247 
L 288.545201 -424.689128 
L 291.109463 -427.319708 
L 293.673725 -428.510015 
L 296.237987 -435.758988 
L 298.802248 -430.057415 
L 301.36651 -440.055999 
L 303.930772 -436.979054 
L 306.495034 -426.730506 
L 309.059295 -437.342098 
L 311.623557 -431.307238 
L 314.187819 -417.696071 
L 316.752081 -418.755445 
L 319.316342 -434.967434 
L 321.880604 -438.699048 
L 324.444866 -443.835225 
L 327.009128 -445.01363 
L 329.573389 -452.762532 
L 332.137651 -455.631173 
L 334.701913 -450.655688 
L 337.266174 -459.273514 
L 339.830436 -457.291652 
L 342.394698 -455.458579 
L 344.95896 -452.214991 
L 347.523221 -453.381492 
L 350.087483 -449.090433 
L 352.651745 -448.233412 
L 355.216007 -455.494288 
L 357.780268 -446.37058 
L 360.34453 -446.049197 
L 362.908792 -443.394811 
L 365.473054 -451.536515 
L 368.037315 -456.940512 
L 370.601577 -448.048914 
L 373.165839 -449.971261 
L 375.730101 -444.108996 
L 378.294362 -445.620687 
L 380.858624 -441.728381 
L 383.422886 -442.264019 
L 385.987148 -443.192459 
L 388.551409 -445.567123 
L 391.115671 -436.711235 
L 393.679933 -420.939659 
L 396.244195 -424.689128 
L 398.808456 -414.744108 
L 401.372718 -421.630038 
L 403.93698 -424.016604 
L 406.501242 -407.447523 
L 409.065503 -409.697204 
L 411.629765 -405.662062 
L 414.194027 -404.203935 
L 416.758289 -402.769614 
L 419.32255 -406.489326 
L 421.886812 -411.821903 
L 424.451074 -401.775708 
L 427.015336 -399.954537 
L 429.579597 -408.863989 
L 432.143859 -425.397361 
L 434.708121 -427.760122 
L 437.272383 -438.913304 
L 439.836644 -446.168228 
L 442.400906 -435.568539 
L 444.965168 -458.321268 
L 447.52943 -448.822614 
L 450.093691 -449.167803 
L 452.657953 -445.918264 
L 455.222215 -454.143289 
L 457.786477 -463.927617 
L 460.350738 -458.612894 
L 462.915 -457.571375 
L 462.915 -76.52 
L 462.915 -76.52 
L 460.350738 -76.52 
L 457.786477 -76.52 
L 455.222215 -76.52 
L 452.657953 -76.52 
L 450.093691 -76.52 
L 447.52943 -76.52 
L 444.965168 -76.52 
L 442.400906 -76.52 
L 439.836644 -76.52 
L 437.272383 -76.52 
L 434.708121 -76.52 
L 432.143859 -76.52 
L 429.579597 -76.52 
L 427.015336 -76.52 
L 424.451074 -76.52 
L 421.886812 -76.52 
L 419.32255 -76.52 
L 416.758289 -76.52 
L 414.194027 -76.52 
L 411.629765 -76.52 
L 409.065503 -76.52 
L 406.501242 -76.52 
L 403.93698 -76.52 
L 401.372718 -76.52 
L 398.808456 -76.52 
L 396.244195 -76.52 
L 393.679933 -76.52 
L 391.115671 -76.52 
L 388.551409 -76.52 
L 385.987148 -76.52 
L 383.422886 -76.52 
L 380.858624 -76.52 
L 378.294362 -76.52 
L 375.730101 -76.52 
L 373.165839 -76.52 
L 370.601577 -76.52 
L 368.037315 -76.52 
L 365.473054 -76.52 
L 362.908792 -76.52 
L 360.34453 -76.52 
L 357.780268 -76.52 
L 355.216007 -76.52 
L 352.651745 -76.52 
L 350.087483 -76.52 
L 347.523221 -76.52 
L 344.95896 -76.52 
L 342.394698 -76.52 
L 339.830436 -76.52 
L 337.266174 -76.52 
L 334.701913 -76.52 
L 332.137651 -76.52 
L 329.573389 -76.52 
L 327.009128 -76.52 
L 324.444866 -76.52 
L 321.880604 -76.52 
L 319.316342 -76.52 
L 316.752081 -76.52 
L 314.187819 -76.52 
L 311.623557 -76.52 
L 309.059295 -76.52 
L 306.495034 -76.52 
L 303.930772 -76.52 
L 301.36651 -76.52 
L 298.802248 -76.52 
L 296.237987 -76.52 
L 293.673725 -76.52 
L 291.109463 -76.52 
L 288.545201 -76.52 
L 285.98094 -76.52 
L 283.416678 -76.52 
L 280.852416 -76.52 
L 278.288154 -76.52 
L 275.723893 -76.52 
L 273.159631 -76.52 
L 270.595369 -76.52 
L 268.031107 -76.52 
L 265.466846 -76.52 
L 262.902584 -76.52 
L 260.338322 -76.52 
L 257.77406 -76.52 
L 255.209799 -76.52 
L 252.645537 -76.52 
L 250.081275 -76.52 
L 247.517013 -76.52 
L 244.952752 -76.52 
L 242.38849 -76.52 
L 239.824228 -76.52 
L 237.259966 -76.52 
L 234.695705 -76.52 
L 232.131443 -76.52 
L 229.567181 -76.52 
L 227.002919 -76.52 
L 224.438658 -76.52 
L 221.874396 -76.52 
L 219.310134 -76.52 
L 216.745872 -76.52 
L 214.181611 -76.52 
L 211.617349 -76.52 
L 209.053087 -76.52 
L 206.488826 -76.52 
L 203.924564 -76.52 
L 201.360302 -76.52 
L 198.79604 -76.52 
L 196.231779 -76.52 
L 193.667517 -76.52 
L 191.103255 -76.52 
L 188.538993 -76.52 
L 185.974732 -76.52 
L 183.41047 -76.52 
L 180.846208 -76.52 
L 178.281946 -76.52 
L 175.717685 -76.52 
L 173.153423 -76.52 
L 170.589161 -76.52 
L 168.024899 -76.52 
L 165.460638 -76.52 
L 162.896376 -76.52 
L 160.332114 -76.52 
L 157.767852 -76.52 
L 155.203591 -76.52 
L 152.639329 -76.52 
L 150.075067 -76.52 
L 147.510805 -76.52 
L 144.946544 -76.52 
L 142.382282 -76.52 
L 139.81802 -76.52 
L 137.253758 -76.52 
L 134.689497 -76.52 
L 132.125235 -76.52 
L 129.560973 -76.52 
L 126.996711 -76.52 
L 124.43245 -76.52 
L 121.868188 -76.52 
L 119.303926 -76.52 
L 116.739664 -76.52 
L 114.175403 -76.52 
L 111.611141 -76.52 
L 109.046879 -76.52 
L 106.482617 -76.52 
L 103.918356 -76.52 
L 101.354094 -76.52 
L 98.789832 -76.52 
L 96.22557 -76.52 
L 93.661309 -76.52 
L 91.097047 -76.52 
L 88.532785 -76.52 
L 85.968523 -76.52 
L 83.404262 -76.52 
L 80.84 -76.52 
z
" style="stroke: #000000; stroke-opacity: 0.1"/>
    </defs>
    <g clip-path="url(#p33a46fafbf)">
     <use xlink:href="#m416d11d058" x="0" y="504" style="fill-opacity: 0.1; stroke: #000000; stroke-opacity: 0.1"/>
    </g>
   </g>
   <g id="line2d_14">
    <path d="M 80.84 394.956631 
L 83.404262 403.384009 
L 85.968523 399.682152 
L 88.532785 404.526704 
L 91.097047 408.788005 
L 93.661309 409.520044 
L 96.22557 405.895558 
L 98.789832 396.551643 
L 101.354094 398.158559 
L 103.918356 397.926449 
L 106.482617 396.551643 
L 109.046879 384.785453 
L 111.611141 374.36431 
L 114.175403 363.407529 
L 116.739664 354.188597 
L 119.303926 334.863954 
L 121.868188 304.96938 
L 124.43245 291.935512 
L 126.996711 276.241307 
L 129.560973 274.08685 
L 132.125235 278.086283 
L 134.689497 285.121001 
L 137.253758 246.311023 
L 139.81802 237.603923 
L 142.382282 222.986946 
L 144.946544 219.201768 
L 147.510805 219.862389 
L 150.075067 221.820445 
L 152.639329 217.106827 
L 157.767852 194.627869 
L 160.332114 196.520458 
L 162.896376 193.032856 
L 165.460638 192.396042 
L 168.024899 184.84354 
L 170.589161 182.218912 
L 173.153423 173.69631 
L 175.717685 173.839147 
L 178.281946 168.822001 
L 180.846208 156.942731 
L 183.41047 148.920058 
L 185.974732 139.951091 
L 188.538993 131.773678 
L 191.103255 122.828516 
L 193.667517 120.745478 
L 196.231779 103.658613 
L 198.79604 104.039511 
L 201.360302 107.771126 
L 203.924564 98.903334 
L 206.488826 107.717562 
L 209.053087 110.526688 
L 211.617349 99.337797 
L 214.181611 94.600373 
L 216.745872 96.242997 
L 219.310134 98.96285 
L 221.874396 95.754971 
L 224.438658 94.856289 
L 227.002919 89.148764 
L 229.567181 92.951797 
L 232.131443 99.62347 
L 234.695705 104.206155 
L 237.259966 100.694747 
L 239.824228 103.343182 
L 242.38849 108.723372 
L 244.952752 105.646427 
L 247.517013 100.647135 
L 250.081275 100.522153 
L 252.645537 108.71742 
L 255.209799 96.296561 
L 257.77406 87.500188 
L 260.338322 90.827098 
L 262.902584 94.570615 
L 265.466846 87.708492 
L 268.031107 85.238604 
L 270.595369 77.817036 
L 273.159631 63.259574 
L 275.723893 63.479781 
L 278.288154 72.668956 
L 280.852416 83.304354 
L 283.416678 81.185606 
L 285.98094 78.465753 
L 288.545201 79.310872 
L 291.109463 76.680292 
L 293.673725 75.489985 
L 296.237987 68.241012 
L 298.802248 73.942585 
L 301.36651 63.944001 
L 303.930772 67.020946 
L 306.495034 77.269494 
L 309.059295 66.657902 
L 311.623557 72.692762 
L 314.187819 86.303929 
L 316.752081 85.244555 
L 319.316342 69.032566 
L 321.880604 65.300952 
L 324.444866 60.164775 
L 327.009128 58.98637 
L 329.573389 51.237468 
L 332.137651 48.368827 
L 334.701913 53.344312 
L 337.266174 44.726486 
L 339.830436 46.708348 
L 342.394698 48.541421 
L 344.95896 51.785009 
L 347.523221 50.618508 
L 350.087483 54.909567 
L 352.651745 55.766588 
L 355.216007 48.505712 
L 357.780268 57.62942 
L 360.34453 57.950803 
L 362.908792 60.605189 
L 365.473054 52.463485 
L 368.037315 47.059488 
L 370.601577 55.951086 
L 373.165839 54.028739 
L 375.730101 59.891004 
L 378.294362 58.379313 
L 380.858624 62.271619 
L 383.422886 61.735981 
L 385.987148 60.807541 
L 388.551409 58.432877 
L 391.115671 67.288765 
L 393.679933 83.060341 
L 396.244195 79.310872 
L 398.808456 89.255892 
L 401.372718 82.369962 
L 403.93698 79.983396 
L 406.501242 96.552477 
L 409.065503 94.302796 
L 411.629765 98.337938 
L 416.758289 101.230386 
L 419.32255 97.510674 
L 421.886812 92.178097 
L 424.451074 102.224292 
L 427.015336 104.045463 
L 429.579597 95.136011 
L 432.143859 78.602639 
L 434.708121 76.239878 
L 437.272383 65.086696 
L 439.836644 57.831772 
L 442.400906 68.431461 
L 444.965168 45.678732 
L 447.52943 55.177386 
L 450.093691 54.832197 
L 452.657953 58.081736 
L 455.222215 49.856711 
L 457.786477 40.072383 
L 460.350738 45.387106 
L 462.915 46.428625 
L 462.915 46.428625 
" clip-path="url(#p33a46fafbf)" style="fill: none; stroke: #000000; stroke-opacity: 0.5; stroke-width: 1.5; stroke-linecap: round"/>
   </g>
   <g id="LineCollection_1">
    <path d="M 80.84 48.430425 
L 462.915 48.430425 
" clip-path="url(#p33a46fafbf)" style="fill: none; stroke: #000000; stroke-width: 5"/>
   </g>
   <g id="patch_3">
    <path d="M 80.84 427.48 
L 80.84 21.6 
" style="fill: none; stroke: #cccccc; stroke-width: 0.8; stroke-linejoin: miter; stroke-linecap: square"/>
   </g>
   <g id="patch_4">
    <path d="M 462.915 427.48 
L 462.915 21.6 
" style="fill: none; stroke: #cccccc; stroke-width: 0.8; stroke-linejoin: miter; stroke-linecap: square"/>
   </g>
   <g id="patch_5">
    <path d="M 80.84 427.48 
L 462.915 427.48 
" style="fill: none; stroke: #cccccc; stroke-width: 0.8; stroke-linejoin: miter; stroke-linecap: square"/>
   </g>
   <g id="patch_6">
    <path d="M 80.84 21.6 
L 462.915 21.6 
" style="fill: none; stroke: #cccccc; stroke-width: 0.8; stroke-linejoin: miter; stroke-linecap: square"/>
   </g>
   <g id="legend_1">
    <g id="patch_7">
     <path d="M 260.4025 417.48 
L 448.915 417.48 
Q 452.915 417.48 452.915 413.48 
L 452.915 358.89875 
Q 452.915 354.89875 448.915 354.89875 
L 260.4025 354.89875 
Q 256.4025 354.89875 256.4025 358.89875 
L 256.4025 413.48 
Q 256.4025 417.48 260.4025 417.48 
z
" style="fill: #ffffff; opacity: 0.8; stroke: #cccccc; stroke-linejoin: miter"/>
    </g>
    <g id="line2d_15">
     <path d="M 264.4025 370.214375 
L 284.4025 370.214375 
L 304.4025 370.214375 
" style="fill: none; stroke: #000000; stroke-opacity: 0.5; stroke-width: 1.5; stroke-linecap: round"/>
    </g>
    <g id="text_16">
     <!-- Internalization -->
     <g style="fill: #262626" transform="translate(320.4025 377.214375) scale(0.2 -0.2)">
      <use xlink:href="#ArialMT-49"/>
      <use xlink:href="#ArialMT-6e" x="27.783203"/>
      <use xlink:href="#ArialMT-74" x="83.398438"/>
      <use xlink:href="#ArialMT-65" x="111.181641"/>
      <use xlink:href="#ArialMT-72" x="166.796875"/>
      <use xlink:href="#ArialMT-6e" x="200.097656"/>
      <use xlink:href="#ArialMT-61" x="255.712891"/>
      <use xlink:href="#ArialMT-6c" x="311.328125"/>
      <use xlink:href="#ArialMT-69" x="333.544922"/>
      <use xlink:href="#ArialMT-7a" x="355.761719"/>
      <use xlink:href="#ArialMT-61" x="405.761719"/>
      <use xlink:href="#ArialMT-74" x="461.376953"/>
      <use xlink:href="#ArialMT-69" x="489.160156"/>
      <use xlink:href="#ArialMT-6f" x="511.376953"/>
      <use xlink:href="#ArialMT-6e" x="566.992188"/>
     </g>
    </g>
    <g id="line2d_16">
     <path d="M 264.4025 398.505 
L 304.4025 398.505 
" style="fill: none; stroke: #000000; stroke-width: 5"/>
    </g>
    <g id="text_17">
     <!-- 95 Percentile -->
     <g style="fill: #262626" transform="translate(320.4025 405.505) scale(0.2 -0.2)">
      <defs>
       <path id="ArialMT-39" d="M 350 1059 
L 891 1109 
Q 959 728 1153 556 
Q 1347 384 1650 384 
Q 1909 384 2104 503 
Q 2300 622 2425 820 
Q 2550 1019 2634 1356 
Q 2719 1694 2719 2044 
Q 2719 2081 2716 2156 
Q 2547 1888 2255 1720 
Q 1963 1553 1622 1553 
Q 1053 1553 659 1965 
Q 266 2378 266 3053 
Q 266 3750 677 4175 
Q 1088 4600 1706 4600 
Q 2153 4600 2523 4359 
Q 2894 4119 3086 3673 
Q 3278 3228 3278 2384 
Q 3278 1506 3087 986 
Q 2897 466 2520 194 
Q 2144 -78 1638 -78 
Q 1100 -78 759 220 
Q 419 519 350 1059 
z
M 2653 3081 
Q 2653 3566 2395 3850 
Q 2138 4134 1775 4134 
Q 1400 4134 1122 3828 
Q 844 3522 844 3034 
Q 844 2597 1108 2323 
Q 1372 2050 1759 2050 
Q 2150 2050 2401 2323 
Q 2653 2597 2653 3081 
z
" transform="scale(0.015625)"/>
       <path id="ArialMT-50" d="M 494 0 
L 494 4581 
L 2222 4581 
Q 2678 4581 2919 4538 
Q 3256 4481 3484 4323 
Q 3713 4166 3852 3881 
Q 3991 3597 3991 3256 
Q 3991 2672 3619 2267 
Q 3247 1863 2275 1863 
L 1100 1863 
L 1100 0 
L 494 0 
z
M 1100 2403 
L 2284 2403 
Q 2872 2403 3119 2622 
Q 3366 2841 3366 3238 
Q 3366 3525 3220 3729 
Q 3075 3934 2838 4000 
Q 2684 4041 2272 4041 
L 1100 4041 
L 1100 2403 
z
" transform="scale(0.015625)"/>
       <path id="ArialMT-63" d="M 2588 1216 
L 3141 1144 
Q 3050 572 2676 248 
Q 2303 -75 1759 -75 
Q 1078 -75 664 370 
Q 250 816 250 1647 
Q 250 2184 428 2587 
Q 606 2991 970 3192 
Q 1334 3394 1763 3394 
Q 2303 3394 2647 3120 
Q 2991 2847 3088 2344 
L 2541 2259 
Q 2463 2594 2264 2762 
Q 2066 2931 1784 2931 
Q 1359 2931 1093 2626 
Q 828 2322 828 1663 
Q 828 994 1084 691 
Q 1341 388 1753 388 
Q 2084 388 2306 591 
Q 2528 794 2588 1216 
z
" transform="scale(0.015625)"/>
      </defs>
      <use xlink:href="#ArialMT-39"/>
      <use xlink:href="#ArialMT-35" x="55.615234"/>
      <use xlink:href="#ArialMT-20" x="111.230469"/>
      <use xlink:href="#ArialMT-50" x="139.013672"/>
      <use xlink:href="#ArialMT-65" x="205.712891"/>
      <use xlink:href="#ArialMT-72" x="261.328125"/>
      <use xlink:href="#ArialMT-63" x="294.628906"/>
      <use xlink:href="#ArialMT-65" x="344.628906"/>
      <use xlink:href="#ArialMT-6e" x="400.244141"/>
      <use xlink:href="#ArialMT-74" x="455.859375"/>
      <use xlink:href="#ArialMT-69" x="483.642578"/>
      <use xlink:href="#ArialMT-6c" x="505.859375"/>
      <use xlink:href="#ArialMT-65" x="528.076172"/>
     </g>
    </g>
   </g>
  </g>
 </g>
 <defs>
  <clipPath id="p33a46fafbf">
   <rect x="80.84" y="21.6" width="382.075" height="405.88"/>
  </clipPath>
 </defs>
</svg>
